<?xml version="1.0" encoding="UTF-8" standalone="no"?>
<!-- Created with Inkscape (http://www.inkscape.org/) -->

<svg
   xmlns:dc="http://purl.org/dc/elements/1.1/"
   xmlns:cc="http://creativecommons.org/ns#"
   xmlns:rdf="http://www.w3.org/1999/02/22-rdf-syntax-ns#"
   xmlns:svg="http://www.w3.org/2000/svg"
   xmlns="http://www.w3.org/2000/svg"
   xmlns:sodipodi="http://sodipodi.sourceforge.net/DTD/sodipodi-0.dtd"
   xmlns:inkscape="http://www.inkscape.org/namespaces/inkscape"
   version="1.1"
   id="svg2"
   xml:space="preserve"
   width="1091.7548"
   height="375.29733"
   viewBox="0 0 1091.7548 375.29733"
   sodipodi:docname="Access.svg"
   inkscape:version="0.92.2 5c3e80d, 2017-08-06"><metadata
     id="metadata8"><rdf:RDF><cc:Work
         rdf:about=""><dc:format>image/svg+xml</dc:format><dc:type
           rdf:resource="http://purl.org/dc/dcmitype/StillImage" /><dc:title></dc:title><dc:subject><rdf:Bag><rdf:li>selinux</rdf:li><rdf:li>labels</rdf:li><rdf:li>context</rdf:li></rdf:Bag></dc:subject></cc:Work></rdf:RDF></metadata><defs
     id="defs6"><clipPath
       clipPathUnits="userSpaceOnUse"
       id="clipPath18"><path
         d="M 0,281.473 H 818.816 V 0 H 0 Z"
         id="path16"
         inkscape:connector-curvature="0" /></clipPath></defs><sodipodi:namedview
     pagecolor="#ffffff"
     bordercolor="#666666"
     borderopacity="1"
     objecttolerance="10"
     gridtolerance="10"
     guidetolerance="10"
     inkscape:pageopacity="0"
     inkscape:pageshadow="2"
     inkscape:window-width="640"
     inkscape:window-height="480"
     id="namedview4"
     showgrid="false"
     inkscape:zoom="0.29951781"
     inkscape:cx="545.87738"
     inkscape:cy="187.64867"
     inkscape:window-x="0"
     inkscape:window-y="0"
     inkscape:window-maximized="0"
     inkscape:current-layer="g10" /><g
     id="g10"
     inkscape:groupmode="layer"
     inkscape:label="Access"
     transform="matrix(1.3333333,0,0,-1.3333333,0,375.29733)"><g
       id="g12"><g
         id="g14"
         clip-path="url(#clipPath18)"><g
           id="g20"
           transform="translate(159.3613,109.2603)"><path
             d="m 0,0 c -0.829,0 -1.5,0.671 -1.5,1.5 v 70.817 c 0,0.829 0.671,1.5 1.5,1.5 0.829,0 1.5,-0.671 1.5,-1.5 V 1.5 C 1.5,0.671 0.829,0 0,0"
             style="fill:#419cdc;fill-opacity:1;fill-rule:nonzero;stroke:none"
             id="path22"
             inkscape:connector-curvature="0" /></g><g
           id="g24"
           transform="translate(152.6294,112.73)"><path
             d="M 0,0 6.732,-11.658 13.463,0 Z"
             style="fill:#419cdc;fill-opacity:1;fill-rule:nonzero;stroke:none"
             id="path26"
             inkscape:connector-curvature="0" /></g><g
           id="g28"
           transform="translate(657.3384,109.2603)"><path
             d="m 0,0 c -0.828,0 -1.5,0.671 -1.5,1.5 v 70.817 c 0,0.829 0.672,1.5 1.5,1.5 0.828,0 1.5,-0.671 1.5,-1.5 V 1.5 C 1.5,0.671 0.828,0 0,0"
             style="fill:#419cdc;fill-opacity:1;fill-rule:nonzero;stroke:none"
             id="path30"
             inkscape:connector-curvature="0" /></g><g
           id="g32"
           transform="translate(650.6069,112.73)"><path
             d="M 0,0 6.731,-11.658 13.463,0 Z"
             style="fill:#419cdc;fill-opacity:1;fill-rule:nonzero;stroke:none"
             id="path34"
             inkscape:connector-curvature="0" /></g><path
           d="M 307.309,180.829 H 15.858 v 83.892 h 291.451 z"
           style="fill:#ececec;fill-opacity:1;fill-rule:nonzero;stroke:none"
           id="path36"
           inkscape:connector-curvature="0" /><path
           d="M 307.309,15.939 H 15.858 v 83.892 h 291.451 z"
           style="fill:#ececec;fill-opacity:1;fill-rule:nonzero;stroke:none"
           id="path38"
           inkscape:connector-curvature="0" /><path
           d="m 803.064,180.829 h -291.45 v 83.892 h 291.45 z"
           style="fill:#ececec;fill-opacity:1;fill-rule:nonzero;stroke:none"
           id="path40"
           inkscape:connector-curvature="0" /><path
           d="m 803.064,15.939 h -291.45 v 83.892 h 291.45 z"
           style="fill:#ececec;fill-opacity:1;fill-rule:nonzero;stroke:none"
           id="path42"
           inkscape:connector-curvature="0" /><g
           id="g44"
           transform="translate(309.6704,222.498)"><path
             d="m 0,0 h -2 c -0.552,0 -1,0.448 -1,1 0,0.552 0.448,1 1,1 H 0 C 0.552,2 1,1.552 1,1 1,0.448 0.552,0 0,0"
             style="fill:#56585a;fill-opacity:1;fill-rule:nonzero;stroke:none"
             id="path46"
             inkscape:connector-curvature="0" /></g><g
           id="g48"
           transform="translate(318.2632,222.498)"><path
             d="m 0,0 h -4.296 c -0.553,0 -1,0.448 -1,1 0,0.552 0.447,1 1,1 H 0 C 0.552,2 1,1.552 1,1 1,0.448 0.552,0 0,0 M 8.593,0 H 4.297 c -0.552,0 -1,0.448 -1,1 0,0.552 0.448,1 1,1 h 4.296 c 0.553,0 1,-0.448 1,-1 0,-0.552 -0.447,-1 -1,-1 m 8.594,0 H 12.89 c -0.553,0 -1,0.448 -1,1 0,0.552 0.447,1 1,1 h 4.297 c 0.552,0 1,-0.448 1,-1 0,-0.552 -0.448,-1 -1,-1 m 8.592,0 h -4.296 c -0.552,0 -1,0.448 -1,1 0,0.552 0.448,1 1,1 h 4.296 c 0.553,0 1,-0.448 1,-1 0,-0.552 -0.447,-1 -1,-1"
             style="fill:#56585a;fill-opacity:1;fill-rule:nonzero;stroke:none"
             id="path50"
             inkscape:connector-curvature="0" /></g><g
           id="g52"
           transform="translate(351.5327,220.8921)"><path
             d="m 0,0 c -0.306,0 -0.607,0.14 -0.804,0.404 l -0.892,1.202 h -1.497 c -0.553,0 -1,0.448 -1,1 0,0.552 0.447,1 1,1 h 2 c 0.316,0 0.614,-0.15 0.802,-0.404 L 0.802,1.596 C 1.131,1.153 1.039,0.526 0.595,0.197 0.416,0.064 0.207,0 0,0"
             style="fill:#56585a;fill-opacity:1;fill-rule:nonzero;stroke:none"
             id="path54"
             inkscape:connector-curvature="0" /></g><g
           id="g56"
           transform="translate(356.2603,214.5234)"><path
             d="m 0,0 c -0.306,0 -0.608,0.14 -0.804,0.404 l -2.363,3.184 c -0.33,0.444 -0.237,1.07 0.206,1.399 0.444,0.33 1.072,0.237 1.399,-0.206 L 0.802,1.596 C 1.131,1.152 1.039,0.526 0.595,0.197 0.416,0.064 0.207,0 0,0 m 4.728,-6.369 c -0.306,0 -0.608,0.14 -0.804,0.404 L 1.56,-2.78 c -0.329,0.444 -0.236,1.07 0.207,1.399 0.445,0.329 1.071,0.235 1.4,-0.207 L 5.53,-4.772 C 5.859,-5.216 5.767,-5.842 5.323,-6.171 5.144,-6.305 4.935,-6.369 4.728,-6.369 m 4.728,-6.368 c -0.306,0 -0.607,0.139 -0.804,0.404 l -2.364,3.184 c -0.33,0.443 -0.237,1.07 0.207,1.399 0.443,0.331 1.069,0.237 1.399,-0.207 l 2.364,-3.184 c 0.329,-0.443 0.237,-1.07 -0.207,-1.399 -0.179,-0.133 -0.388,-0.197 -0.595,-0.197 m 4.728,-6.369 c -0.307,0 -0.608,0.14 -0.804,0.404 l -2.364,3.184 c -0.329,0.444 -0.237,1.07 0.207,1.4 0.444,0.328 1.071,0.235 1.399,-0.207 l 2.364,-3.185 c 0.329,-0.444 0.236,-1.07 -0.207,-1.399 -0.179,-0.133 -0.388,-0.197 -0.595,-0.197 m 4.728,-6.369 c -0.306,0 -0.608,0.14 -0.804,0.404 l -2.364,3.185 c -0.33,0.443 -0.237,1.07 0.206,1.399 0.443,0.331 1.069,0.237 1.399,-0.207 l 2.364,-3.184 c 0.33,-0.444 0.237,-1.07 -0.206,-1.399 -0.179,-0.134 -0.388,-0.198 -0.595,-0.198 m 4.727,-6.368 c -0.306,0 -0.608,0.139 -0.804,0.404 l -2.363,3.184 c -0.33,0.444 -0.237,1.07 0.206,1.399 0.445,0.33 1.072,0.236 1.399,-0.206 l 2.364,-3.185 c 0.33,-0.444 0.237,-1.07 -0.207,-1.399 -0.179,-0.133 -0.388,-0.197 -0.595,-0.197 m 4.728,-6.369 c -0.305,0 -0.608,0.14 -0.804,0.404 l -2.363,3.184 c -0.33,0.443 -0.237,1.07 0.206,1.399 0.444,0.33 1.07,0.237 1.399,-0.207 l 2.364,-3.184 c 0.33,-0.443 0.237,-1.07 -0.207,-1.399 -0.179,-0.133 -0.388,-0.197 -0.595,-0.197 m 4.728,-6.369 c -0.305,0 -0.607,0.14 -0.803,0.404 l -2.365,3.184 c -0.329,0.444 -0.237,1.07 0.207,1.399 0.443,0.33 1.069,0.237 1.399,-0.206 l 2.364,-3.184 c 0.33,-0.444 0.237,-1.07 -0.207,-1.399 -0.179,-0.134 -0.388,-0.198 -0.595,-0.198 m 4.728,-6.368 c -0.306,0 -0.608,0.139 -0.804,0.404 l -2.364,3.184 c -0.329,0.443 -0.237,1.069 0.207,1.399 0.443,0.331 1.07,0.237 1.399,-0.207 l 2.364,-3.184 c 0.329,-0.443 0.236,-1.07 -0.207,-1.399 -0.179,-0.133 -0.388,-0.197 -0.595,-0.197 m 4.728,-6.369 c -0.306,0 -0.608,0.14 -0.804,0.404 l -2.364,3.184 c -0.33,0.443 -0.237,1.07 0.206,1.399 0.444,0.331 1.07,0.237 1.399,-0.207 l 2.365,-3.184 c 0.329,-0.443 0.236,-1.07 -0.207,-1.399 -0.179,-0.133 -0.388,-0.197 -0.595,-0.197 m 4.727,-6.369 c -0.305,0 -0.608,0.14 -0.803,0.404 l -2.364,3.184 c -0.33,0.444 -0.237,1.07 0.206,1.399 0.443,0.331 1.071,0.238 1.399,-0.206 l 2.364,-3.184 c 0.33,-0.444 0.237,-1.07 -0.206,-1.399 -0.18,-0.134 -0.389,-0.198 -0.596,-0.198 m 4.728,-6.368 c -0.306,0 -0.608,0.139 -0.803,0.404 l -2.364,3.184 c -0.33,0.443 -0.237,1.07 0.206,1.399 0.443,0.331 1.07,0.237 1.399,-0.207 l 2.364,-3.184 c 0.33,-0.443 0.237,-1.07 -0.206,-1.399 -0.18,-0.133 -0.389,-0.197 -0.596,-0.197 m 4.728,-6.369 c -0.305,0 -0.607,0.139 -0.803,0.403 l -2.365,3.185 c -0.329,0.443 -0.236,1.07 0.207,1.399 0.443,0.331 1.069,0.237 1.399,-0.207 l 2.364,-3.184 c 0.33,-0.443 0.237,-1.07 -0.206,-1.399 -0.18,-0.133 -0.389,-0.197 -0.596,-0.197 m 4.728,-6.369 c -0.306,0 -0.608,0.14 -0.804,0.404 l -2.364,3.184 c -0.329,0.444 -0.236,1.07 0.207,1.399 0.445,0.33 1.071,0.236 1.399,-0.206 l 2.364,-3.185 c 0.329,-0.444 0.236,-1.07 -0.207,-1.399 -0.179,-0.133 -0.388,-0.197 -0.595,-0.197 m 4.727,-6.369 c -0.305,0 -0.607,0.14 -0.803,0.405 l -2.364,3.184 c -0.329,0.444 -0.236,1.07 0.207,1.399 0.442,0.33 1.07,0.237 1.399,-0.207 l 2.363,-3.185 c 0.329,-0.443 0.237,-1.07 -0.207,-1.399 -0.179,-0.133 -0.388,-0.197 -0.595,-0.197 m 4.729,-6.368 c -0.306,0 -0.607,0.139 -0.804,0.404 l -2.364,3.184 c -0.329,0.443 -0.236,1.07 0.207,1.399 0.441,0.33 1.069,0.237 1.398,-0.207 l 2.365,-3.184 c 0.329,-0.443 0.236,-1.07 -0.207,-1.399 -0.179,-0.133 -0.388,-0.197 -0.595,-0.197 m 4.728,-6.369 c -0.306,0 -0.608,0.14 -0.804,0.404 l -2.364,3.184 c -0.33,0.444 -0.237,1.07 0.207,1.399 0.442,0.33 1.068,0.238 1.398,-0.206 l 2.364,-3.185 c 0.329,-0.443 0.237,-1.07 -0.207,-1.399 -0.178,-0.133 -0.387,-0.197 -0.594,-0.197 m 4.727,-6.369 c -0.306,0 -0.607,0.14 -0.804,0.405 l -2.363,3.184 c -0.329,0.444 -0.236,1.07 0.207,1.399 0.441,0.33 1.069,0.237 1.399,-0.207 l 2.363,-3.185 c 0.329,-0.443 0.236,-1.07 -0.207,-1.399 -0.179,-0.133 -0.388,-0.197 -0.595,-0.197 m 4.729,-6.368 c -0.306,0 -0.608,0.139 -0.804,0.404 l -2.364,3.184 c -0.33,0.443 -0.238,1.069 0.207,1.399 0.442,0.33 1.068,0.236 1.398,-0.207 l 2.364,-3.184 c 0.329,-0.443 0.238,-1.07 -0.207,-1.399 -0.178,-0.133 -0.387,-0.197 -0.594,-0.197 m 4.727,-6.369 c -0.306,0 -0.607,0.14 -0.804,0.404 l -2.364,3.184 c -0.329,0.443 -0.237,1.07 0.207,1.399 0.443,0.33 1.069,0.237 1.399,-0.207 l 2.364,-3.184 c 0.329,-0.443 0.237,-1.07 -0.207,-1.399 -0.179,-0.133 -0.388,-0.197 -0.595,-0.197 m 4.728,-6.369 c -0.306,0 -0.608,0.14 -0.804,0.404 l -2.363,3.184 c -0.329,0.444 -0.237,1.07 0.207,1.4 0.441,0.329 1.069,0.237 1.398,-0.207 l 2.363,-3.184 c 0.33,-0.444 0.237,-1.07 -0.207,-1.4 -0.178,-0.133 -0.387,-0.197 -0.594,-0.197 m 4.728,-6.368 c -0.306,0 -0.607,0.139 -0.804,0.404 l -2.364,3.184 c -0.329,0.443 -0.237,1.07 0.207,1.399 0.443,0.331 1.069,0.237 1.399,-0.207 l 2.364,-3.184 c 0.329,-0.443 0.237,-1.07 -0.207,-1.399 -0.179,-0.133 -0.388,-0.197 -0.595,-0.197 m 4.728,-6.369 c -0.306,0 -0.608,0.14 -0.804,0.404 l -2.364,3.184 c -0.329,0.443 -0.238,1.07 0.207,1.399 0.442,0.331 1.068,0.237 1.398,-0.207 l 2.364,-3.184 c 0.33,-0.443 0.238,-1.069 -0.207,-1.399 -0.178,-0.132 -0.387,-0.197 -0.594,-0.197 m 4.727,-6.369 c -0.305,0 -0.607,0.14 -0.803,0.404 l -2.365,3.185 c -0.329,0.443 -0.236,1.069 0.207,1.398 0.442,0.33 1.07,0.238 1.399,-0.207 l 2.364,-3.184 c 0.329,-0.444 0.236,-1.07 -0.207,-1.399 -0.179,-0.133 -0.388,-0.197 -0.595,-0.197 m 4.728,-6.368 c -0.306,0 -0.608,0.14 -0.804,0.404 l -2.363,3.184 c -0.329,0.443 -0.237,1.069 0.207,1.398 0.442,0.33 1.068,0.237 1.398,-0.207 l 2.364,-3.183 c 0.329,-0.444 0.236,-1.07 -0.207,-1.399 -0.179,-0.133 -0.388,-0.197 -0.595,-0.197"
             style="fill:#56585a;fill-opacity:1;fill-rule:nonzero;stroke:none"
             id="path58"
             inkscape:connector-curvature="0" /></g><g
           id="g60"
           transform="translate(475.2837,56.8853)"><path
             d="m 0,0 h -2 c -0.316,0 -0.614,0.149 -0.803,0.403 l -1.192,1.606 c -0.329,0.443 -0.237,1.07 0.206,1.399 0.445,0.329 1.069,0.237 1.399,-0.206 L -1.497,2 H 0 C 0.553,2 1,1.553 1,1 1,0.447 0.553,0 0,0"
             style="fill:#56585a;fill-opacity:1;fill-rule:nonzero;stroke:none"
             id="path62"
             inkscape:connector-curvature="0" /></g><g
           id="g64"
           transform="translate(484.7056,56.8853)"><path
             d="m 0,0 h -4.711 c -0.553,0 -1,0.447 -1,1 0,0.553 0.447,1 1,1 H 0 C 0.553,2 1,1.553 1,1 1,0.447 0.553,0 0,0 M 9.422,0 H 4.711 c -0.553,0 -1,0.447 -1,1 0,0.553 0.447,1 1,1 h 4.711 c 0.553,0 1,-0.447 1,-1 0,-0.553 -0.447,-1 -1,-1"
             style="fill:#56585a;fill-opacity:1;fill-rule:nonzero;stroke:none"
             id="path66"
             inkscape:connector-curvature="0" /></g><g
           id="g68"
           transform="translate(500.8384,56.8853)"><path
             d="m 0,0 h -2 c -0.553,0 -1,0.447 -1,1 0,0.553 0.447,1 1,1 H 0 C 0.553,2 1,1.553 1,1 1,0.447 0.553,0 0,0"
             style="fill:#56585a;fill-opacity:1;fill-rule:nonzero;stroke:none"
             id="path70"
             inkscape:connector-curvature="0" /></g><g
           id="g72"
           transform="translate(498.9409,51.4028)"><path
             d="M 0,0 11.226,6.482 0,12.964 Z"
             style="fill:#56585a;fill-opacity:1;fill-rule:nonzero;stroke:none"
             id="path74"
             inkscape:connector-curvature="0" /></g><g
           id="g76"
           transform="translate(510.1665,222.498)"><path
             d="m 0,0 h -2 c -0.553,0 -1,0.448 -1,1 0,0.552 0.447,1 1,1 H 0 C 0.553,2 1,1.552 1,1 1,0.448 0.553,0 0,0"
             style="fill:#56585a;fill-opacity:1;fill-rule:nonzero;stroke:none"
             id="path78"
             inkscape:connector-curvature="0" /></g><g
           id="g80"
           transform="translate(478.0913,222.498)"><path
             d="m 0,0 h -4.297 c -0.553,0 -1,0.448 -1,1 0,0.552 0.447,1 1,1 H 0 C 0.553,2 1,1.552 1,1 1,0.448 0.553,0 0,0 M 8.593,0 H 4.297 c -0.553,0 -1,0.448 -1,1 0,0.552 0.447,1 1,1 h 4.296 c 0.553,0 1,-0.448 1,-1 0,-0.552 -0.447,-1 -1,-1 m 8.594,0 H 12.89 c -0.553,0 -1,0.448 -1,1 0,0.552 0.447,1 1,1 h 4.297 c 0.552,0 1,-0.448 1,-1 0,-0.552 -0.448,-1 -1,-1 m 8.592,0 h -4.297 c -0.552,0 -1,0.448 -1,1 0,0.552 0.448,1 1,1 h 4.297 c 0.553,0 1,-0.448 1,-1 0,-0.552 -0.447,-1 -1,-1"
             style="fill:#56585a;fill-opacity:1;fill-rule:nonzero;stroke:none"
             id="path82"
             inkscape:connector-curvature="0" /></g><g
           id="g84"
           transform="translate(466.3052,220.8921)"><path
             d="m 0,0 c -0.207,0 -0.416,0.064 -0.595,0.197 -0.443,0.329 -0.536,0.956 -0.207,1.399 l 1.193,1.606 c 0.188,0.254 0.486,0.404 0.802,0.404 h 2 c 0.553,0 1,-0.448 1,-1 0,-0.552 -0.447,-1 -1,-1 H 1.696 L 0.804,0.404 C 0.607,0.14 0.306,0 0,0"
             style="fill:#56585a;fill-opacity:1;fill-rule:nonzero;stroke:none"
             id="path86"
             inkscape:connector-curvature="0" /></g><g
           id="g88"
           transform="translate(461.5767,214.5234)"><path
             d="M 0,0 C -0.207,0 -0.416,0.064 -0.595,0.197 -1.038,0.526 -1.131,1.153 -0.802,1.596 L 1.562,4.781 C 1.893,5.223 2.519,5.317 2.961,4.987 3.404,4.658 3.497,4.032 3.168,3.588 L 0.804,0.404 C 0.607,0.14 0.306,0 0,0 m -4.728,-6.369 c -0.207,0 -0.416,0.064 -0.594,0.198 -0.444,0.329 -0.536,0.955 -0.207,1.399 l 2.364,3.184 c 0.33,0.442 0.956,0.536 1.398,0.207 0.444,-0.329 0.537,-0.956 0.207,-1.399 L -3.924,-5.965 C -4.12,-6.229 -4.422,-6.369 -4.728,-6.369 m -4.727,-6.368 c -0.207,0 -0.416,0.064 -0.595,0.196 -0.443,0.33 -0.536,0.956 -0.207,1.399 l 2.363,3.185 c 0.33,0.444 0.957,0.536 1.399,0.207 0.443,-0.329 0.536,-0.955 0.207,-1.398 l -2.363,-3.185 c -0.197,-0.265 -0.498,-0.404 -0.804,-0.404 m -4.729,-6.369 c -0.207,0 -0.416,0.064 -0.594,0.197 -0.444,0.329 -0.536,0.956 -0.207,1.399 l 2.364,3.185 c 0.33,0.443 0.956,0.535 1.398,0.206 0.444,-0.329 0.536,-0.955 0.207,-1.399 l -2.364,-3.184 c -0.196,-0.264 -0.498,-0.404 -0.804,-0.404 m -4.727,-6.369 c -0.207,0 -0.416,0.064 -0.595,0.198 -0.443,0.329 -0.536,0.955 -0.207,1.399 l 2.364,3.184 c 0.33,0.443 0.957,0.537 1.399,0.207 0.443,-0.329 0.536,-0.956 0.207,-1.399 l -2.364,-3.185 c -0.197,-0.264 -0.498,-0.404 -0.804,-0.404 m -4.728,-6.368 c -0.207,0 -0.416,0.064 -0.594,0.197 -0.444,0.329 -0.537,0.955 -0.207,1.398 l 2.363,3.185 c 0.33,0.443 0.956,0.536 1.398,0.208 0.444,-0.33 0.536,-0.956 0.207,-1.399 l -2.363,-3.185 c -0.196,-0.265 -0.498,-0.404 -0.804,-0.404 m -4.727,-6.369 c -0.207,0 -0.416,0.064 -0.595,0.197 -0.443,0.329 -0.536,0.955 -0.207,1.399 l 2.363,3.184 c 0.33,0.443 0.956,0.536 1.399,0.207 0.443,-0.329 0.536,-0.955 0.207,-1.399 l -2.363,-3.184 c -0.197,-0.264 -0.499,-0.404 -0.804,-0.404 m -4.729,-6.369 c -0.207,0 -0.416,0.064 -0.594,0.198 -0.445,0.329 -0.537,0.955 -0.207,1.399 l 2.364,3.184 c 0.33,0.443 0.957,0.535 1.398,0.206 0.445,-0.329 0.536,-0.955 0.207,-1.399 l -2.364,-3.184 c -0.196,-0.264 -0.498,-0.404 -0.804,-0.404 m -4.727,-6.368 c -0.207,0 -0.416,0.064 -0.595,0.197 -0.444,0.329 -0.536,0.956 -0.207,1.399 l 2.364,3.184 c 0.33,0.443 0.956,0.537 1.399,0.207 0.444,-0.33 0.536,-0.956 0.207,-1.399 l -2.365,-3.184 c -0.196,-0.265 -0.498,-0.404 -0.803,-0.404 m -4.728,-6.369 c -0.207,0 -0.416,0.064 -0.595,0.197 -0.443,0.329 -0.536,0.955 -0.207,1.399 l 2.364,3.184 c 0.33,0.443 0.957,0.536 1.398,0.207 0.444,-0.329 0.536,-0.955 0.207,-1.399 l -2.363,-3.184 c -0.196,-0.264 -0.498,-0.404 -0.804,-0.404 m -4.728,-6.369 c -0.207,0 -0.416,0.064 -0.595,0.198 -0.443,0.329 -0.536,0.955 -0.207,1.399 l 2.364,3.184 c 0.329,0.443 0.956,0.536 1.399,0.206 0.443,-0.329 0.536,-0.955 0.207,-1.399 l -2.364,-3.184 c -0.196,-0.264 -0.498,-0.404 -0.804,-0.404 m -4.728,-6.368 c -0.207,0 -0.416,0.064 -0.595,0.197 -0.443,0.329 -0.536,0.956 -0.207,1.399 l 2.364,3.184 c 0.33,0.443 0.956,0.536 1.399,0.207 0.443,-0.329 0.536,-0.956 0.207,-1.399 l -2.364,-3.184 c -0.196,-0.265 -0.498,-0.404 -0.804,-0.404 m -4.728,-6.369 c -0.207,0 -0.416,0.064 -0.595,0.197 -0.443,0.329 -0.536,0.956 -0.207,1.399 l 2.365,3.184 c 0.329,0.444 0.955,0.537 1.399,0.207 0.443,-0.329 0.536,-0.956 0.206,-1.399 l -2.364,-3.185 c -0.196,-0.264 -0.498,-0.403 -0.804,-0.403 m -4.727,-6.369 c -0.207,0 -0.416,0.064 -0.596,0.197 -0.443,0.329 -0.536,0.955 -0.206,1.399 l 2.363,3.185 c 0.329,0.442 0.956,0.536 1.4,0.206 0.443,-0.329 0.536,-0.955 0.206,-1.399 l -2.364,-3.184 c -0.196,-0.264 -0.498,-0.404 -0.803,-0.404 m -4.728,-6.369 c -0.207,0 -0.416,0.064 -0.596,0.198 -0.443,0.329 -0.536,0.955 -0.206,1.399 l 2.364,3.184 c 0.329,0.443 0.956,0.536 1.399,0.207 0.443,-0.329 0.536,-0.956 0.207,-1.399 l -2.365,-3.185 c -0.196,-0.264 -0.498,-0.404 -0.803,-0.404 m -4.728,-6.368 c -0.207,0 -0.416,0.064 -0.595,0.197 -0.444,0.329 -0.536,0.955 -0.207,1.399 l 2.364,3.184 c 0.329,0.443 0.956,0.536 1.399,0.208 0.443,-0.33 0.536,-0.956 0.206,-1.4 l -2.363,-3.184 c -0.196,-0.265 -0.498,-0.404 -0.804,-0.404 m -4.728,-6.369 c -0.207,0 -0.416,0.064 -0.595,0.197 -0.444,0.329 -0.536,0.955 -0.207,1.399 l 2.364,3.185 c 0.329,0.443 0.957,0.535 1.399,0.206 0.443,-0.329 0.536,-0.955 0.206,-1.399 l -2.363,-3.184 c -0.196,-0.264 -0.498,-0.404 -0.804,-0.404 m -4.728,-6.369 c -0.207,0 -0.416,0.064 -0.595,0.198 -0.444,0.329 -0.536,0.955 -0.207,1.399 l 2.364,3.184 c 0.33,0.442 0.957,0.537 1.399,0.207 0.444,-0.329 0.537,-0.956 0.207,-1.399 l -2.364,-3.185 c -0.196,-0.264 -0.498,-0.404 -0.804,-0.404 m -4.728,-6.368 c -0.207,0 -0.416,0.064 -0.595,0.197 -0.443,0.329 -0.536,0.956 -0.206,1.399 l 2.363,3.184 c 0.329,0.443 0.956,0.536 1.399,0.207 0.444,-0.33 0.536,-0.956 0.207,-1.399 l -2.364,-3.184 c -0.196,-0.265 -0.498,-0.404 -0.804,-0.404 m -4.728,-6.369 c -0.207,0 -0.416,0.064 -0.595,0.197 -0.443,0.329 -0.536,0.956 -0.206,1.399 l 2.363,3.184 c 0.329,0.443 0.956,0.536 1.399,0.207 0.444,-0.329 0.536,-0.956 0.207,-1.399 l -2.364,-3.184 c -0.196,-0.264 -0.498,-0.404 -0.804,-0.404 m -4.727,-6.369 c -0.207,0 -0.416,0.064 -0.595,0.198 -0.444,0.329 -0.537,0.955 -0.207,1.399 l 2.364,3.184 c 0.329,0.443 0.955,0.536 1.399,0.206 0.443,-0.329 0.536,-0.955 0.206,-1.399 l -2.363,-3.184 c -0.196,-0.264 -0.498,-0.404 -0.804,-0.404 m -4.728,-6.368 c -0.207,0 -0.416,0.064 -0.595,0.197 -0.444,0.329 -0.537,0.956 -0.207,1.399 l 2.364,3.184 c 0.328,0.443 0.956,0.537 1.399,0.207 0.443,-0.329 0.536,-0.956 0.206,-1.399 l -2.363,-3.184 c -0.196,-0.265 -0.499,-0.404 -0.804,-0.404 m -4.728,-6.369 c -0.207,0 -0.416,0.065 -0.595,0.197 -0.444,0.33 -0.537,0.956 -0.207,1.399 l 2.364,3.184 c 0.33,0.443 0.956,0.537 1.399,0.207 0.444,-0.329 0.536,-0.956 0.207,-1.399 l -2.364,-3.184 c -0.197,-0.264 -0.499,-0.404 -0.804,-0.404 m -4.728,-6.369 c -0.207,0 -0.416,0.064 -0.595,0.197 -0.443,0.329 -0.536,0.955 -0.207,1.399 l 2.364,3.184 c 0.329,0.444 0.956,0.536 1.399,0.207 0.444,-0.329 0.536,-0.955 0.207,-1.398 l -2.364,-3.185 c -0.196,-0.264 -0.498,-0.404 -0.804,-0.404 m -4.728,-6.368 c -0.207,0 -0.416,0.064 -0.595,0.197 -0.443,0.329 -0.536,0.955 -0.207,1.399 l 2.364,3.183 c 0.33,0.444 0.956,0.536 1.399,0.207 0.444,-0.329 0.536,-0.955 0.207,-1.398 l -2.364,-3.184 c -0.196,-0.264 -0.498,-0.404 -0.804,-0.404"
             style="fill:#56585a;fill-opacity:1;fill-rule:nonzero;stroke:none"
             id="path90"
             inkscape:connector-curvature="0" /></g><g
           id="g92"
           transform="translate(344.5537,56.8853)"><path
             d="m 0,0 h -2 c -0.552,0 -1,0.447 -1,1 0,0.553 0.448,1 1,1 h 1.497 L 0.39,3.202 C 0.719,3.645 1.345,3.736 1.789,3.408 2.232,3.079 2.325,2.452 1.995,2.009 L 0.803,0.403 C 0.614,0.149 0.316,0 0,0"
             style="fill:#56585a;fill-opacity:1;fill-rule:nonzero;stroke:none"
             id="path94"
             inkscape:connector-curvature="0" /></g><g
           id="g96"
           transform="translate(328.4209,56.8853)"><path
             d="m 0,0 h -4.71 c -0.553,0 -1,0.447 -1,1 0,0.553 0.447,1 1,1 H 0 C 0.552,2 1,1.553 1,1 1,0.447 0.552,0 0,0 M 9.422,0 H 4.711 c -0.552,0 -1,0.447 -1,1 0,0.553 0.448,1 1,1 h 4.711 c 0.552,0 1,-0.447 1,-1 0,-0.553 -0.448,-1 -1,-1"
             style="fill:#56585a;fill-opacity:1;fill-rule:nonzero;stroke:none"
             id="path98"
             inkscape:connector-curvature="0" /></g><g
           id="g100"
           transform="translate(318.9995,56.8853)"><path
             d="m 0,0 h -2 c -0.552,0 -1,0.447 -1,1 0,0.553 0.448,1 1,1 H 0 C 0.552,2 1,1.553 1,1 1,0.447 0.552,0 0,0"
             style="fill:#56585a;fill-opacity:1;fill-rule:nonzero;stroke:none"
             id="path102"
             inkscape:connector-curvature="0" /></g><g
           id="g104"
           transform="translate(318.8965,64.3667)"><path
             d="M 0,0 -11.226,-6.481 0,-12.964 Z"
             style="fill:#56585a;fill-opacity:1;fill-rule:nonzero;stroke:none"
             id="path106"
             inkscape:connector-curvature="0" /></g><g
           id="g108"
           transform="translate(137.6851,234.4409)"><path
             d="M 0,0 C -0.306,0.899 -0.81,2.357 -0.954,2.896 -1.098,2.357 -1.547,0.917 -1.871,-0.018 l -1.007,-2.878 h 3.885 z m 2.645,-7.574 -1.062,2.987 h -5.037 l -1.044,-2.987 h -1.96 L -1.925,5.02 H 0.072 L 4.659,-7.574 Z"
             style="fill:#56585a;fill-opacity:1;fill-rule:nonzero;stroke:none"
             id="path110"
             inkscape:connector-curvature="0" /></g><g
           id="g112"
           transform="translate(148.5112,234.8008)"><path
             d="m 0,0 c -0.882,0 -1.655,-0.594 -2.141,-1.205 v -3.976 c 0.414,-0.558 1.277,-1.241 2.213,-1.241 1.331,0 2.051,1.007 2.051,3.004 C 2.123,-1.043 1.367,0 0,0 m 0.252,-8.131 c -0.954,0 -1.853,0.503 -2.375,1.079 v -3.4 l -1.835,-0.954 V 1.511 h 1.835 V 0.612 c 0.684,0.629 1.475,1.097 2.465,1.097 2.033,0 3.634,-1.475 3.634,-5.073 0,-3.239 -1.763,-4.767 -3.724,-4.767"
             style="fill:#56585a;fill-opacity:1;fill-rule:nonzero;stroke:none"
             id="path114"
             inkscape:connector-curvature="0" /></g><g
           id="g116"
           transform="translate(160.0747,230.897)"><path
             d="m 0,0 c -0.504,0.252 -1.151,0.414 -2.159,0.414 -1.187,0 -1.943,-0.54 -1.943,-1.403 0,-0.936 0.594,-1.566 1.817,-1.566 0.99,0 1.853,0.612 2.285,1.206 z m 0,-4.03 v 0.936 c -0.647,-0.648 -1.565,-1.134 -2.59,-1.134 -1.53,0 -3.275,0.864 -3.275,3.185 0,2.105 1.619,3.058 3.76,3.058 0.882,0 1.584,-0.126 2.105,-0.36 v 0.702 c 0,1.025 -0.629,1.601 -1.781,1.601 -0.971,0 -1.727,-0.18 -2.465,-0.594 l -0.719,1.404 c 0.899,0.557 1.907,0.845 3.238,0.845 2.105,0 3.544,-1.026 3.544,-3.166 V -4.03 Z"
             style="fill:#56585a;fill-opacity:1;fill-rule:nonzero;stroke:none"
             id="path118"
             inkscape:connector-curvature="0" /></g><g
           id="g120"
           transform="translate(170.4883,233.5957)"><path
             d="m 0,0 c -0.774,0.792 -1.458,1.151 -2.303,1.151 -1.349,0 -2.213,-1.205 -2.213,-3.13 0,-1.853 0.792,-3.185 2.267,-3.185 0.881,0 1.403,0.396 2.141,1.17 l 1.187,-1.17 c -0.737,-0.935 -1.673,-1.762 -3.382,-1.762 -2.302,0 -4.084,1.943 -4.084,4.893 0,3.13 1.835,4.947 4.138,4.947 1.385,0 2.465,-0.558 3.346,-1.601 z"
             style="fill:#56585a;fill-opacity:1;fill-rule:nonzero;stroke:none"
             id="path122"
             inkscape:connector-curvature="0" /></g><g
           id="g124"
           transform="translate(179.6782,226.8672)"><path
             d="m 0,0 v 5.343 c 0,1.907 -0.719,2.591 -1.943,2.591 -1.241,0 -1.943,-0.882 -1.943,-2.411 V 0 h -1.853 v 12.144 l 1.853,0.971 v -4.57 c 0.468,0.684 1.404,1.098 2.375,1.098 2.195,0 3.364,-1.439 3.364,-4.228 L 1.853,0 Z"
             style="fill:#56585a;fill-opacity:1;fill-rule:nonzero;stroke:none"
             id="path126"
             inkscape:connector-curvature="0" /></g><g
           id="g128"
           transform="translate(187.7529,234.8369)"><path
             d="m 0,0 c -1.241,0 -1.997,-0.864 -2.159,-2.375 h 4.39 C 2.141,-1.08 1.529,0 0,0 m 4.048,-3.904 h -6.243 c 0.198,-1.817 1.224,-2.591 2.375,-2.591 0.792,0 1.421,0.288 2.051,0.756 L 3.328,-6.926 C 2.5,-7.718 1.511,-8.167 0.072,-8.167 c -2.213,0 -4.084,1.78 -4.084,4.911 0,3.202 1.691,4.929 4.138,4.929 2.681,0 3.976,-2.177 3.976,-4.732 0,-0.341 -0.036,-0.647 -0.054,-0.845"
             style="fill:#56585a;fill-opacity:1;fill-rule:nonzero;stroke:none"
             id="path130"
             inkscape:connector-curvature="0" /></g><g
           id="g132"
           transform="translate(145.9453,207.0366)"><path
             d="m 0,0 v 3.558 c 0,1.269 -0.479,1.724 -1.294,1.724 -0.826,0 -1.293,-0.587 -1.293,-1.605 V 0 h -1.234 v 8.085 l 1.234,0.647 V 5.689 c 0.311,0.456 0.934,0.731 1.581,0.731 1.461,0 2.24,-0.958 2.24,-2.815 L 1.234,0 Z"
             style="fill:#56585a;fill-opacity:1;fill-rule:nonzero;stroke:none"
             id="path134"
             inkscape:connector-curvature="0" /></g><g
           id="g136"
           transform="translate(151.9038,207.1924)"><path
             d="m 0,0 c -0.3,-0.168 -0.719,-0.288 -1.21,-0.288 -0.874,0 -1.414,0.539 -1.414,1.665 v 3.63 h -0.897 v 1.126 h 0.897 V 7.93 l 1.21,0.646 V 6.133 H 0.144 V 5.007 H -1.414 V 1.593 c 0,-0.587 0.192,-0.755 0.647,-0.755 0.324,0 0.683,0.12 0.911,0.252 z"
             style="fill:#56585a;fill-opacity:1;fill-rule:nonzero;stroke:none"
             id="path138"
             inkscape:connector-curvature="0" /></g><g
           id="g140"
           transform="translate(156.5557,207.1924)"><path
             d="m 0,0 c -0.3,-0.168 -0.719,-0.288 -1.21,-0.288 -0.874,0 -1.414,0.539 -1.414,1.665 v 3.63 h -0.897 v 1.126 h 0.897 V 7.93 l 1.21,0.646 V 6.133 H 0.144 V 5.007 H -1.414 V 1.593 c 0,-0.587 0.192,-0.755 0.647,-0.755 0.324,0 0.683,0.12 0.911,0.252 z"
             style="fill:#56585a;fill-opacity:1;fill-rule:nonzero;stroke:none"
             id="path142"
             inkscape:connector-curvature="0" /></g><g
           id="g144"
           transform="translate(161.0142,212.3188)"><path
             d="M 0,0 C -0.587,0 -1.102,-0.395 -1.425,-0.802 V -3.45 c 0.275,-0.371 0.85,-0.826 1.473,-0.826 0.887,0 1.366,0.671 1.366,2 C 1.414,-0.695 0.911,0 0,0 m 0.168,-5.414 c -0.635,0 -1.234,0.335 -1.581,0.719 v -2.264 l -1.222,-0.635 v 8.6 h 1.222 V 0.407 c 0.455,0.42 0.982,0.731 1.641,0.731 1.353,0 2.419,-0.982 2.419,-3.378 0,-2.156 -1.173,-3.174 -2.479,-3.174"
             style="fill:#56585a;fill-opacity:1;fill-rule:nonzero;stroke:none"
             id="path146"
             inkscape:connector-curvature="0" /></g><g
           id="g148"
           transform="translate(169.0078,211.4927)"><path
             d="m 0,0 c -0.275,0.371 -0.851,0.826 -1.474,0.826 -0.886,0 -1.365,-0.67 -1.365,-2 0,-1.581 0.503,-2.276 1.414,-2.276 0.587,0 1.101,0.395 1.425,0.803 z m -0.012,-4.456 v 0.599 c -0.455,-0.419 -0.982,-0.731 -1.641,-0.731 -1.354,0 -2.42,0.983 -2.42,3.378 0,2.156 1.174,3.174 2.48,3.174 0.635,0 1.234,-0.335 1.581,-0.718 v 2.395 l 1.221,0.635 v -8.732 z"
             style="fill:#56585a;fill-opacity:1;fill-rule:nonzero;stroke:none"
             id="path150"
             inkscape:connector-curvature="0" /></g><path
           d="m 171.132,206.054 h 5.989 v -1.138 h -5.989 z"
           style="fill:#56585a;fill-opacity:1;fill-rule:nonzero;stroke:none"
           id="path152"
           inkscape:connector-curvature="0" /><g
           id="g154"
           transform="translate(181.0415,207.1924)"><path
             d="m 0,0 c -0.3,-0.168 -0.719,-0.288 -1.21,-0.288 -0.874,0 -1.414,0.539 -1.414,1.665 v 3.63 h -0.897 v 1.126 h 0.897 V 7.93 l 1.21,0.646 V 6.133 H 0.144 V 5.007 H -1.414 V 1.593 c 0,-0.587 0.192,-0.755 0.647,-0.755 0.324,0 0.683,0.12 0.911,0.252 z"
             style="fill:#56585a;fill-opacity:1;fill-rule:nonzero;stroke:none"
             id="path156"
             inkscape:connector-curvature="0" /></g><g
           id="g158"
           transform="translate(101.7026,59.9849)"><path
             d="M 0,0 H -1.853 L 3.742,15.831 H 5.595 Z"
             style="fill:#56585a;fill-opacity:1;fill-rule:nonzero;stroke:none"
             id="path160"
             inkscape:connector-curvature="0" /></g><g
           id="g162"
           transform="translate(112.6919,61.604)"><path
             d="m 0,0 h -1.853 l -3.382,9.444 h 1.943 l 1.691,-5.127 c 0.306,-0.918 0.576,-1.798 0.702,-2.32 0.107,0.522 0.359,1.402 0.648,2.32 l 1.618,5.127 h 1.961 z"
             style="fill:#56585a;fill-opacity:1;fill-rule:nonzero;stroke:none"
             id="path164"
             inkscape:connector-curvature="0" /></g><g
           id="g166"
           transform="translate(122.8887,65.6333)"><path
             d="m 0,0 c -0.504,0.252 -1.151,0.414 -2.159,0.414 -1.187,0 -1.943,-0.54 -1.943,-1.403 0,-0.936 0.594,-1.566 1.817,-1.566 0.99,0 1.853,0.613 2.285,1.206 z m 0,-4.029 v 0.935 c -0.647,-0.648 -1.565,-1.134 -2.59,-1.134 -1.53,0 -3.275,0.864 -3.275,3.185 0,2.105 1.619,3.058 3.76,3.058 0.882,0 1.584,-0.125 2.105,-0.36 v 0.702 c 0,1.026 -0.629,1.601 -1.781,1.601 -0.971,0 -1.727,-0.18 -2.465,-0.594 l -0.719,1.404 c 0.899,0.557 1.907,0.845 3.238,0.845 2.105,0 3.544,-1.025 3.544,-3.166 v -6.476 z"
             style="fill:#56585a;fill-opacity:1;fill-rule:nonzero;stroke:none"
             id="path168"
             inkscape:connector-curvature="0" /></g><g
           id="g170"
           transform="translate(132.4927,69.0874)"><path
             d="m 0,0 c -0.396,0.216 -0.81,0.342 -1.421,0.342 -1.17,0 -1.853,-0.827 -1.853,-2.429 v -5.396 h -1.853 v 9.444 h 1.853 V 1.062 c 0.431,0.629 1.223,1.097 2.158,1.097 0.756,0 1.224,-0.144 1.601,-0.395 z"
             style="fill:#56585a;fill-opacity:1;fill-rule:nonzero;stroke:none"
             id="path172"
             inkscape:connector-curvature="0" /></g><g
           id="g174"
           transform="translate(134.1284,59.9849)"><path
             d="M 0,0 H -1.853 L 3.742,15.831 H 5.595 Z"
             style="fill:#56585a;fill-opacity:1;fill-rule:nonzero;stroke:none"
             id="path176"
             inkscape:connector-curvature="0" /></g><g
           id="g178"
           transform="translate(149.2734,61.604)"><path
             d="M 0,0 H -1.583 L -2.86,4.768 C -3.058,5.486 -3.256,6.332 -3.346,6.782 -3.436,6.332 -3.634,5.469 -3.832,4.749 L -5.091,0 h -1.583 l -2.591,9.444 h 1.835 l 1.116,-4.587 c 0.18,-0.719 0.377,-1.619 0.467,-2.069 0.108,0.468 0.324,1.331 0.522,2.069 l 1.26,4.587 h 1.493 l 1.277,-4.605 c 0.198,-0.737 0.396,-1.583 0.503,-2.051 0.108,0.468 0.289,1.35 0.468,2.069 l 1.116,4.587 h 1.834 z"
             style="fill:#56585a;fill-opacity:1;fill-rule:nonzero;stroke:none"
             id="path180"
             inkscape:connector-curvature="0" /></g><g
           id="g182"
           transform="translate(162.6006,61.604)"><path
             d="M 0,0 H -1.583 L -2.86,4.768 C -3.058,5.486 -3.256,6.332 -3.346,6.782 -3.436,6.332 -3.634,5.469 -3.832,4.749 L -5.091,0 h -1.583 l -2.591,9.444 h 1.835 l 1.116,-4.587 c 0.18,-0.719 0.377,-1.619 0.467,-2.069 0.108,0.468 0.324,1.331 0.522,2.069 l 1.26,4.587 h 1.493 l 1.277,-4.605 c 0.198,-0.737 0.396,-1.583 0.503,-2.051 0.108,0.468 0.289,1.35 0.468,2.069 l 1.116,4.587 h 1.834 z"
             style="fill:#56585a;fill-opacity:1;fill-rule:nonzero;stroke:none"
             id="path184"
             inkscape:connector-curvature="0" /></g><g
           id="g186"
           transform="translate(175.9277,61.604)"><path
             d="M 0,0 H -1.583 L -2.86,4.768 C -3.058,5.486 -3.256,6.332 -3.346,6.782 -3.436,6.332 -3.634,5.469 -3.832,4.749 L -5.091,0 h -1.583 l -2.591,9.444 h 1.835 l 1.116,-4.587 c 0.18,-0.719 0.377,-1.619 0.467,-2.069 0.108,0.468 0.324,1.331 0.522,2.069 l 1.26,4.587 h 1.493 l 1.277,-4.605 c 0.198,-0.737 0.396,-1.583 0.503,-2.051 0.108,0.468 0.289,1.35 0.468,2.069 l 1.116,4.587 h 1.834 z"
             style="fill:#56585a;fill-opacity:1;fill-rule:nonzero;stroke:none"
             id="path188"
             inkscape:connector-curvature="0" /></g><g
           id="g190"
           transform="translate(180.2432,59.9849)"><path
             d="M 0,0 H -1.853 L 3.742,15.831 H 5.595 Z"
             style="fill:#56585a;fill-opacity:1;fill-rule:nonzero;stroke:none"
             id="path192"
             inkscape:connector-curvature="0" /></g><g
           id="g194"
           transform="translate(193.0498,61.604)"><path
             d="m 0,0 v 5.343 c 0,1.907 -0.719,2.591 -1.943,2.591 -1.241,0 -1.943,-0.882 -1.943,-2.412 V 0 h -1.853 v 12.144 l 1.853,0.97 V 8.545 c 0.468,0.684 1.404,1.098 2.375,1.098 2.195,0 3.364,-1.44 3.364,-4.228 L 1.853,0 Z"
             style="fill:#56585a;fill-opacity:1;fill-rule:nonzero;stroke:none"
             id="path196"
             inkscape:connector-curvature="0" /></g><g
           id="g198"
           transform="translate(201.9897,61.8374)"><path
             d="m 0,0 c -0.45,-0.252 -1.079,-0.432 -1.817,-0.432 -1.313,0 -2.122,0.81 -2.122,2.501 v 5.452 h -1.35 v 1.69 h 1.35 v 2.699 l 1.816,0.971 V 9.211 H 0.216 V 7.521 H -2.123 V 2.393 c 0,-0.881 0.288,-1.133 0.972,-1.133 0.485,0 1.025,0.179 1.367,0.378 z"
             style="fill:#56585a;fill-opacity:1;fill-rule:nonzero;stroke:none"
             id="path200"
             inkscape:connector-curvature="0" /></g><g
           id="g202"
           transform="translate(215.6958,61.604)"><path
             d="m 0,0 v 5.343 c 0,1.907 -0.594,2.591 -1.816,2.591 -1.242,0 -1.818,-0.882 -1.818,-2.412 V 0 h -1.852 v 5.343 c 0,1.907 -0.594,2.591 -1.818,2.591 -1.241,0 -1.816,-0.882 -1.816,-2.412 V 0 h -1.854 V 9.444 H -9.12 V 8.545 c 0.467,0.684 1.276,1.098 2.248,1.098 1.277,0 2.087,-0.487 2.591,-1.386 0.683,0.846 1.421,1.386 2.896,1.386 2.195,0 3.239,-1.44 3.239,-4.228 L 1.854,0 Z"
             style="fill:#56585a;fill-opacity:1;fill-rule:nonzero;stroke:none"
             id="path204"
             inkscape:connector-curvature="0" /></g><g
           id="g206"
           transform="translate(220.2974,61.604)"><path
             d="m 0,0 v 12.144 l 1.854,0.97 V 0 Z"
             style="fill:#56585a;fill-opacity:1;fill-rule:nonzero;stroke:none"
             id="path208"
             inkscape:connector-curvature="0" /></g><g
           id="g210"
           transform="translate(109.6655,41.7739)"><path
             d="m 0,0 v 3.558 c 0,1.269 -0.479,1.724 -1.294,1.724 -0.826,0 -1.293,-0.587 -1.293,-1.605 V 0 h -1.234 v 8.085 l 1.234,0.646 V 5.689 c 0.311,0.456 0.934,0.731 1.581,0.731 1.461,0 2.24,-0.958 2.24,-2.815 L 1.234,0 Z"
             style="fill:#56585a;fill-opacity:1;fill-rule:nonzero;stroke:none"
             id="path212"
             inkscape:connector-curvature="0" /></g><g
           id="g214"
           transform="translate(115.624,41.9292)"><path
             d="m 0,0 c -0.3,-0.168 -0.719,-0.287 -1.21,-0.287 -0.874,0 -1.414,0.539 -1.414,1.665 v 3.629 h -0.897 v 1.126 h 0.897 V 7.93 l 1.21,0.646 V 6.133 H 0.144 V 5.007 H -1.414 V 1.594 c 0,-0.587 0.192,-0.755 0.647,-0.755 0.324,0 0.683,0.119 0.911,0.251 z"
             style="fill:#56585a;fill-opacity:1;fill-rule:nonzero;stroke:none"
             id="path216"
             inkscape:connector-curvature="0" /></g><g
           id="g218"
           transform="translate(120.2759,41.9292)"><path
             d="m 0,0 c -0.3,-0.168 -0.719,-0.287 -1.21,-0.287 -0.874,0 -1.414,0.539 -1.414,1.665 v 3.629 h -0.897 v 1.126 h 0.897 V 7.93 l 1.21,0.646 V 6.133 H 0.144 V 5.007 H -1.414 V 1.594 c 0,-0.587 0.192,-0.755 0.647,-0.755 0.324,0 0.683,0.119 0.911,0.251 z"
             style="fill:#56585a;fill-opacity:1;fill-rule:nonzero;stroke:none"
             id="path220"
             inkscape:connector-curvature="0" /></g><g
           id="g222"
           transform="translate(124.7344,47.0562)"><path
             d="M 0,0 C -0.587,0 -1.102,-0.396 -1.425,-0.803 V -3.45 c 0.275,-0.371 0.85,-0.826 1.473,-0.826 0.887,0 1.366,0.671 1.366,2 C 1.414,-0.695 0.911,0 0,0 m 0.168,-5.414 c -0.635,0 -1.234,0.335 -1.581,0.719 v -2.264 l -1.222,-0.636 v 8.601 h 1.222 V 0.407 c 0.455,0.419 0.982,0.731 1.641,0.731 1.353,0 2.419,-0.983 2.419,-3.378 0,-2.156 -1.173,-3.174 -2.479,-3.174"
             style="fill:#56585a;fill-opacity:1;fill-rule:nonzero;stroke:none"
             id="path224"
             inkscape:connector-curvature="0" /></g><g
           id="g226"
           transform="translate(132.728,46.23)"><path
             d="m 0,0 c -0.275,0.371 -0.851,0.826 -1.474,0.826 -0.886,0 -1.365,-0.671 -1.365,-2 0,-1.582 0.503,-2.276 1.414,-2.276 0.587,0 1.101,0.395 1.425,0.803 z m -0.012,-4.456 v 0.599 c -0.455,-0.419 -0.982,-0.731 -1.641,-0.731 -1.354,0 -2.42,0.983 -2.42,3.378 0,2.156 1.174,3.174 2.48,3.174 0.635,0 1.234,-0.335 1.581,-0.719 v 2.396 l 1.221,0.634 v -8.731 z"
             style="fill:#56585a;fill-opacity:1;fill-rule:nonzero;stroke:none"
             id="path228"
             inkscape:connector-curvature="0" /></g><path
           d="m 134.852,40.792 h 5.989 v -1.138 h -5.989 z"
           style="fill:#56585a;fill-opacity:1;fill-rule:nonzero;stroke:none"
           id="path230"
           inkscape:connector-curvature="0" /><g
           id="g232"
           transform="translate(143.7915,41.6421)"><path
             d="m 0,0 c -0.851,0 -1.773,0.335 -2.408,0.803 l 0.563,0.933 c 0.587,-0.407 1.246,-0.622 1.833,-0.622 0.779,0 1.15,0.251 1.15,0.695 0,0.479 -0.551,0.707 -1.462,1.053 -1.353,0.528 -1.844,0.983 -1.844,1.977 0,1.126 0.886,1.713 2.144,1.713 0.791,0 1.569,-0.287 2.132,-0.695 L 1.569,4.911 C 1.054,5.271 0.539,5.45 -0.06,5.45 c -0.599,0 -0.862,-0.24 -0.862,-0.575 0,-0.312 0.215,-0.539 1.161,-0.91 C 1.641,3.426 2.359,3.042 2.359,1.856 2.359,0.467 1.233,0 0,0"
             style="fill:#56585a;fill-opacity:1;fill-rule:nonzero;stroke:none"
             id="path234"
             inkscape:connector-curvature="0" /></g><g
           id="g236"
           transform="translate(149.6289,39.5581)"><path
             d="m 0,0 h -1.306 l 0.91,2.335 -2.311,6.169 h 1.353 l 1.03,-3.078 C -0.132,4.875 0.156,3.94 0.228,3.593 0.335,3.965 0.599,4.862 0.791,5.401 l 1.065,3.103 h 1.306 z"
             style="fill:#56585a;fill-opacity:1;fill-rule:nonzero;stroke:none"
             id="path238"
             inkscape:connector-curvature="0" /></g><g
           id="g240"
           transform="translate(155.897,41.6421)"><path
             d="m 0,0 c -0.851,0 -1.773,0.335 -2.408,0.803 l 0.563,0.933 c 0.587,-0.407 1.246,-0.622 1.833,-0.622 0.779,0 1.15,0.251 1.15,0.695 0,0.479 -0.551,0.707 -1.462,1.053 -1.353,0.528 -1.844,0.983 -1.844,1.977 0,1.126 0.886,1.713 2.144,1.713 0.791,0 1.569,-0.287 2.132,-0.695 L 1.569,4.911 C 1.054,5.271 0.539,5.45 -0.06,5.45 c -0.599,0 -0.862,-0.24 -0.862,-0.575 0,-0.312 0.215,-0.539 1.161,-0.91 C 1.641,3.426 2.359,3.042 2.359,1.856 2.359,0.467 1.233,0 0,0"
             style="fill:#56585a;fill-opacity:1;fill-rule:nonzero;stroke:none"
             id="path242"
             inkscape:connector-curvature="0" /></g><path
           d="m 158.931,40.792 h 5.989 v -1.138 h -5.989 z"
           style="fill:#56585a;fill-opacity:1;fill-rule:nonzero;stroke:none"
           id="path244"
           inkscape:connector-curvature="0" /><g
           id="g246"
           transform="translate(169.7866,46.2534)"><path
             d="m 0,0 c -0.515,0.527 -0.97,0.767 -1.533,0.767 -0.899,0 -1.474,-0.803 -1.474,-2.084 0,-1.234 0.528,-2.121 1.509,-2.121 0.587,0 0.935,0.264 1.426,0.779 l 0.791,-0.779 c -0.491,-0.623 -1.115,-1.173 -2.252,-1.173 -1.533,0 -2.719,1.294 -2.719,3.257 0,2.084 1.221,3.294 2.754,3.294 0.923,0 1.642,-0.371 2.228,-1.066 z"
             style="fill:#56585a;fill-opacity:1;fill-rule:nonzero;stroke:none"
             id="path248"
             inkscape:connector-curvature="0" /></g><g
           id="g250"
           transform="translate(174.3403,47.02)"><path
             d="m 0,0 c -0.934,0 -1.509,-0.826 -1.509,-2.072 0,-1.377 0.635,-2.132 1.569,-2.132 0.934,0 1.545,0.946 1.545,2.096 C 1.605,-0.826 0.994,0 0,0 m 0.012,-5.378 c -1.581,0 -2.767,1.306 -2.767,3.27 0,2.06 1.222,3.282 2.803,3.282 1.605,0 2.803,-1.281 2.803,-3.246 0,-2.084 -1.222,-3.306 -2.839,-3.306"
             style="fill:#56585a;fill-opacity:1;fill-rule:nonzero;stroke:none"
             id="path252"
             inkscape:connector-curvature="0" /></g><g
           id="g254"
           transform="translate(182.5376,41.7739)"><path
             d="m 0,0 v 3.558 c 0,1.269 -0.479,1.724 -1.294,1.724 -0.826,0 -1.293,-0.587 -1.293,-1.605 V 0 h -1.234 v 6.288 h 1.234 V 5.689 c 0.311,0.456 0.934,0.731 1.581,0.731 1.461,0 2.24,-0.958 2.24,-2.815 L 1.234,0 Z"
             style="fill:#56585a;fill-opacity:1;fill-rule:nonzero;stroke:none"
             id="path256"
             inkscape:connector-curvature="0" /></g><g
           id="g258"
           transform="translate(188.4961,41.9292)"><path
             d="m 0,0 c -0.3,-0.168 -0.719,-0.287 -1.21,-0.287 -0.874,0 -1.414,0.539 -1.414,1.665 v 3.629 h -0.897 v 1.126 h 0.897 V 7.93 l 1.21,0.646 V 6.133 H 0.144 V 5.007 H -1.414 V 1.594 c 0,-0.587 0.192,-0.755 0.647,-0.755 0.324,0 0.683,0.119 0.911,0.251 z"
             style="fill:#56585a;fill-opacity:1;fill-rule:nonzero;stroke:none"
             id="path260"
             inkscape:connector-curvature="0" /></g><g
           id="g262"
           transform="translate(192.4512,47.0796)"><path
             d="M 0,0 C -0.827,0 -1.33,-0.574 -1.437,-1.581 H 1.485 C 1.425,-0.719 1.018,0 0,0 m 2.695,-2.599 h -4.156 c 0.131,-1.21 0.814,-1.724 1.581,-1.724 0.526,0 0.946,0.191 1.365,0.503 l 0.731,-0.791 c -0.551,-0.528 -1.21,-0.826 -2.168,-0.826 -1.474,0 -2.719,1.185 -2.719,3.269 0,2.133 1.126,3.282 2.754,3.282 1.785,0 2.648,-1.449 2.648,-3.15 0,-0.228 -0.024,-0.431 -0.036,-0.563"
             style="fill:#56585a;fill-opacity:1;fill-rule:nonzero;stroke:none"
             id="path264"
             inkscape:connector-curvature="0" /></g><g
           id="g266"
           transform="translate(200.5396,41.7739)"><path
             d="m 0,0 v 3.558 c 0,1.269 -0.479,1.724 -1.293,1.724 -0.827,0 -1.294,-0.587 -1.294,-1.605 V 0 H -3.82 v 6.288 h 1.233 V 5.689 c 0.312,0.456 0.935,0.731 1.581,0.731 1.462,0 2.24,-0.958 2.24,-2.815 L 1.234,0 Z"
             style="fill:#56585a;fill-opacity:1;fill-rule:nonzero;stroke:none"
             id="path268"
             inkscape:connector-curvature="0" /></g><g
           id="g270"
           transform="translate(206.4985,41.9292)"><path
             d="m 0,0 c -0.3,-0.168 -0.719,-0.287 -1.21,-0.287 -0.874,0 -1.413,0.539 -1.413,1.665 v 3.629 h -0.898 v 1.126 h 0.898 V 7.93 l 1.21,0.646 V 6.133 H 0.144 V 5.007 H -1.413 V 1.594 c 0,-0.587 0.191,-0.755 0.646,-0.755 0.324,0 0.683,0.119 0.911,0.251 z"
             style="fill:#56585a;fill-opacity:1;fill-rule:nonzero;stroke:none"
             id="path272"
             inkscape:connector-curvature="0" /></g><path
           d="m 207.412,40.792 h 5.989 v -1.138 h -5.989 z"
           style="fill:#56585a;fill-opacity:1;fill-rule:nonzero;stroke:none"
           id="path274"
           inkscape:connector-curvature="0" /><g
           id="g276"
           transform="translate(217.3208,41.9292)"><path
             d="m 0,0 c -0.3,-0.168 -0.719,-0.287 -1.21,-0.287 -0.874,0 -1.413,0.539 -1.413,1.665 v 3.629 h -0.898 v 1.126 h 0.898 V 7.93 l 1.21,0.646 V 6.133 H 0.144 V 5.007 H -1.413 V 1.594 c 0,-0.587 0.191,-0.755 0.646,-0.755 0.324,0 0.683,0.119 0.911,0.251 z"
             style="fill:#56585a;fill-opacity:1;fill-rule:nonzero;stroke:none"
             id="path278"
             inkscape:connector-curvature="0" /></g><g
           id="g280"
           transform="translate(632.9087,226.8672)"><path
             d="M 0,0 V 6.656 C 0,7.412 0.019,8.509 0.036,8.869 -0.107,8.509 -0.468,7.61 -0.773,6.89 L -3.832,-0.198 -6.854,6.89 C -7.16,7.61 -7.52,8.509 -7.663,8.869 -7.646,8.509 -7.628,7.412 -7.628,6.656 V 0 h -1.78 v 12.593 h 1.942 l 2.824,-6.71 c 0.307,-0.72 0.703,-1.637 0.865,-2.159 0.179,0.522 0.539,1.421 0.845,2.159 l 2.77,6.71 H 1.854 L 1.854,0 Z"
             style="fill:#56585a;fill-opacity:1;fill-rule:nonzero;stroke:none"
             id="path282"
             inkscape:connector-curvature="0" /></g><g
           id="g284"
           transform="translate(643.1772,230.897)"><path
             d="m 0,0 c -0.504,0.252 -1.151,0.414 -2.158,0.414 -1.188,0 -1.944,-0.54 -1.944,-1.403 0,-0.936 0.594,-1.566 1.818,-1.566 0.989,0 1.852,0.612 2.284,1.206 z m 0,-4.03 v 0.936 c -0.647,-0.648 -1.564,-1.134 -2.59,-1.134 -1.529,0 -3.274,0.864 -3.274,3.185 0,2.105 1.619,3.058 3.76,3.058 0.881,0 1.583,-0.126 2.104,-0.36 v 0.702 c 0,1.025 -0.629,1.601 -1.78,1.601 -0.972,0 -1.728,-0.18 -2.465,-0.594 l -0.72,1.404 c 0.9,0.557 1.907,0.845 3.238,0.845 2.105,0 3.544,-1.026 3.544,-3.166 V -4.03 Z"
             style="fill:#56585a;fill-opacity:1;fill-rule:nonzero;stroke:none"
             id="path286"
             inkscape:connector-curvature="0" /></g><g
           id="g288"
           transform="translate(652.7817,234.3511)"><path
             d="m 0,0 c -0.396,0.216 -0.81,0.342 -1.422,0.342 -1.169,0 -1.852,-0.828 -1.852,-2.429 v -5.397 h -1.854 v 9.445 h 1.854 V 1.062 c 0.431,0.629 1.222,1.097 2.158,1.097 0.756,0 1.223,-0.144 1.601,-0.396 z"
             style="fill:#56585a;fill-opacity:1;fill-rule:nonzero;stroke:none"
             id="path290"
             inkscape:connector-curvature="0" /></g><path
           d="m 655.261,236.312 h 1.854 v -9.445 h -1.854 z m 0.936,1.223 c -0.665,0 -1.205,0.54 -1.205,1.188 0,0.665 0.54,1.205 1.205,1.205 0.648,0 1.187,-0.54 1.187,-1.205 0,-0.648 -0.539,-1.188 -1.187,-1.188"
           style="fill:#56585a;fill-opacity:1;fill-rule:nonzero;stroke:none"
           id="path292"
           inkscape:connector-curvature="0" /><g
           id="g294"
           transform="translate(665.353,230.897)"><path
             d="m 0,0 c -0.504,0.252 -1.151,0.414 -2.159,0.414 -1.188,0 -1.943,-0.54 -1.943,-1.403 0,-0.936 0.594,-1.566 1.817,-1.566 0.989,0 1.853,0.612 2.285,1.206 z m 0,-4.03 v 0.936 c -0.647,-0.648 -1.565,-1.134 -2.591,-1.134 -1.529,0 -3.274,0.864 -3.274,3.185 0,2.105 1.619,3.058 3.76,3.058 0.881,0 1.584,-0.126 2.105,-0.36 v 0.702 c 0,1.025 -0.63,1.601 -1.781,1.601 -0.972,0 -1.727,-0.18 -2.465,-0.594 l -0.72,1.404 c 0.9,0.557 1.907,0.845 3.238,0.845 2.106,0 3.544,-1.026 3.544,-3.166 V -4.03 Z"
             style="fill:#56585a;fill-opacity:1;fill-rule:nonzero;stroke:none"
             id="path296"
             inkscape:connector-curvature="0" /></g><g
           id="g298"
           transform="translate(673.5356,237.6255)"><path
             d="M 0,0 H -1.548 V -8.923 H 0 c 2.986,0 4.209,1.817 4.209,4.461 C 4.209,-1.817 2.986,0 0,0 M 0,-10.758 H -3.437 V 1.835 H 0 c 3.382,0 6.135,-1.853 6.135,-6.297 0,-4.443 -2.843,-6.296 -6.135,-6.296"
             style="fill:#56585a;fill-opacity:1;fill-rule:nonzero;stroke:none"
             id="path300"
             inkscape:connector-curvature="0" /></g><g
           id="g302"
           transform="translate(687.5103,232.7681)"><path
             d="m 0,0 h -3.419 v -4.174 h 3.364 c 1.674,0 2.285,0.846 2.285,2.087 C 2.23,-0.792 1.421,0 0,0 M -0.036,4.965 H -3.419 V 1.709 h 3.383 c 1.241,0 1.745,0.773 1.745,1.601 0,0.936 -0.486,1.655 -1.745,1.655 M -0.198,-5.901 H -5.199 V 6.692 h 5.18 c 2.196,0 3.617,-1.151 3.617,-3.274 0,-1.277 -0.684,-2.069 -1.602,-2.519 0.99,-0.27 2.123,-1.187 2.123,-2.932 0,-2.554 -1.565,-3.868 -4.317,-3.868"
             style="fill:#56585a;fill-opacity:1;fill-rule:nonzero;stroke:none"
             id="path304"
             inkscape:connector-curvature="0" /></g><g
           id="g306"
           transform="translate(640.5435,207.0366)"><path
             d="m 0,0 v 3.558 c 0,1.269 -0.396,1.724 -1.21,1.724 -0.826,0 -1.21,-0.587 -1.21,-1.605 V 0 h -1.233 v 3.558 c 0,1.269 -0.396,1.724 -1.21,1.724 -0.826,0 -1.21,-0.587 -1.21,-1.605 V 0 h -1.234 v 6.289 h 1.234 v -0.6 c 0.311,0.456 0.85,0.731 1.497,0.731 0.85,0 1.389,-0.323 1.725,-0.922 0.455,0.563 0.947,0.922 1.929,0.922 1.461,0 2.155,-0.958 2.155,-2.815 L 1.233,0 Z"
             style="fill:#56585a;fill-opacity:1;fill-rule:nonzero;stroke:none"
             id="path308"
             inkscape:connector-curvature="0" /></g><g
           id="g310"
           transform="translate(645.5083,204.8208)"><path
             d="m 0,0 h -1.306 l 0.91,2.335 -2.311,6.169 h 1.353 L -0.323,5.426 C -0.132,4.875 0.155,3.941 0.228,3.593 0.335,3.965 0.599,4.863 0.791,5.402 l 1.065,3.102 h 1.306 z"
             style="fill:#56585a;fill-opacity:1;fill-rule:nonzero;stroke:none"
             id="path312"
             inkscape:connector-curvature="0" /></g><g
           id="g314"
           transform="translate(651.7759,206.9048)"><path
             d="m 0,0 c -0.851,0 -1.772,0.335 -2.407,0.803 l 0.562,0.934 c 0.587,-0.407 1.246,-0.623 1.833,-0.623 0.779,0 1.15,0.252 1.15,0.695 0,0.479 -0.551,0.707 -1.461,1.054 -1.354,0.527 -1.845,0.982 -1.845,1.976 0,1.126 0.887,1.713 2.145,1.713 0.79,0 1.568,-0.287 2.131,-0.695 L 1.569,4.911 C 1.054,5.271 0.539,5.45 -0.06,5.45 c -0.599,0 -0.862,-0.24 -0.862,-0.575 0,-0.311 0.215,-0.539 1.161,-0.91 C 1.641,3.426 2.359,3.042 2.359,1.857 2.359,0.467 1.233,0 0,0"
             style="fill:#56585a;fill-opacity:1;fill-rule:nonzero;stroke:none"
             id="path316"
             inkscape:connector-curvature="0" /></g><g
           id="g318"
           transform="translate(659.3979,211.4927)"><path
             d="m 0,0 c -0.275,0.371 -0.851,0.826 -1.474,0.826 -0.886,0 -1.365,-0.67 -1.365,-2 0,-1.581 0.503,-2.276 1.413,-2.276 0.587,0 1.102,0.395 1.426,0.803 z m -0.013,-6.768 v 2.911 c -0.455,-0.419 -0.981,-0.731 -1.64,-0.731 -1.354,0 -2.42,0.983 -2.42,3.378 0,2.156 1.174,3.174 2.479,3.174 0.635,0 1.235,-0.335 1.581,-0.718 v 0.587 h 1.222 v -7.966 z"
             style="fill:#56585a;fill-opacity:1;fill-rule:nonzero;stroke:none"
             id="path320"
             inkscape:connector-curvature="0" /></g><g
           id="g322"
           transform="translate(662.4917,207.0366)"><path
             d="M 0,0 V 8.085 L 1.234,8.732 V 0 Z"
             style="fill:#56585a;fill-opacity:1;fill-rule:nonzero;stroke:none"
             id="path324"
             inkscape:connector-curvature="0" /></g><g
           id="g326"
           transform="translate(669.4058,211.4927)"><path
             d="m 0,0 c -0.275,0.371 -0.851,0.826 -1.474,0.826 -0.886,0 -1.365,-0.67 -1.365,-2 0,-1.581 0.503,-2.276 1.413,-2.276 0.587,0 1.102,0.395 1.426,0.803 z m -0.013,-4.456 v 0.599 c -0.455,-0.419 -0.981,-0.731 -1.64,-0.731 -1.354,0 -2.42,0.983 -2.42,3.378 0,2.156 1.174,3.174 2.479,3.174 0.635,0 1.235,-0.335 1.581,-0.718 v 2.395 l 1.222,0.635 v -8.732 z"
             style="fill:#56585a;fill-opacity:1;fill-rule:nonzero;stroke:none"
             id="path328"
             inkscape:connector-curvature="0" /></g><path
           d="m 671.53,206.054 h 5.989 v -1.138 h -5.989 z"
           style="fill:#56585a;fill-opacity:1;fill-rule:nonzero;stroke:none"
           id="path330"
           inkscape:connector-curvature="0" /><g
           id="g332"
           transform="translate(681.439,207.1924)"><path
             d="m 0,0 c -0.3,-0.168 -0.719,-0.288 -1.21,-0.288 -0.874,0 -1.413,0.539 -1.413,1.665 v 3.63 h -0.898 v 1.126 h 0.898 V 7.93 l 1.21,0.646 V 6.133 H 0.144 V 5.007 H -1.413 V 1.593 c 0,-0.587 0.191,-0.755 0.646,-0.755 0.324,0 0.683,0.12 0.911,0.252 z"
             style="fill:#56585a;fill-opacity:1;fill-rule:nonzero;stroke:none"
             id="path334"
             inkscape:connector-curvature="0" /></g><g
           id="g336"
           transform="translate(610.0298,59.9849)"><path
             d="M 0,0 H -1.853 L 3.742,15.831 H 5.596 Z"
             style="fill:#56585a;fill-opacity:1;fill-rule:nonzero;stroke:none"
             id="path338"
             inkscape:connector-curvature="0" /></g><g
           id="g340"
           transform="translate(621.5063,68.2964)"><path
             d="m 0,0 c -0.414,0.558 -1.277,1.241 -2.213,1.241 -1.332,0 -2.051,-1.008 -2.051,-3.005 0,-2.374 0.755,-3.418 2.122,-3.418 0.882,0 1.656,0.594 2.142,1.205 z m -0.019,-6.692 v 0.899 c -0.683,-0.63 -1.474,-1.098 -2.464,-1.098 -2.033,0 -3.634,1.476 -3.634,5.074 0,3.238 1.763,4.767 3.723,4.767 0.955,0 1.854,-0.504 2.375,-1.079 V 5.469 L 1.816,6.422 V -6.692 Z"
             style="fill:#56585a;fill-opacity:1;fill-rule:nonzero;stroke:none"
             id="path342"
             inkscape:connector-curvature="0" /></g><g
           id="g344"
           transform="translate(631.4692,65.6333)"><path
             d="m 0,0 c -0.504,0.252 -1.151,0.414 -2.159,0.414 -1.188,0 -1.943,-0.54 -1.943,-1.403 0,-0.936 0.594,-1.566 1.817,-1.566 0.989,0 1.853,0.613 2.285,1.206 z m 0,-4.029 v 0.935 c -0.647,-0.648 -1.565,-1.134 -2.591,-1.134 -1.529,0 -3.274,0.864 -3.274,3.185 0,2.105 1.619,3.058 3.76,3.058 0.881,0 1.584,-0.125 2.105,-0.36 v 0.702 c 0,1.026 -0.63,1.601 -1.781,1.601 -0.972,0 -1.727,-0.18 -2.465,-0.594 l -0.72,1.404 c 0.9,0.557 1.907,0.845 3.238,0.845 2.106,0 3.544,-1.025 3.544,-3.166 v -6.476 z"
             style="fill:#56585a;fill-opacity:1;fill-rule:nonzero;stroke:none"
             id="path346"
             inkscape:connector-curvature="0" /></g><g
           id="g348"
           transform="translate(640.4614,61.8374)"><path
             d="m 0,0 c -0.45,-0.252 -1.08,-0.432 -1.817,-0.432 -1.314,0 -2.123,0.81 -2.123,2.501 v 5.452 h -1.349 v 1.69 h 1.349 v 2.699 l 1.817,0.971 V 9.211 H 0.216 V 7.521 H -2.123 V 2.393 c 0,-0.881 0.288,-1.133 0.972,-1.133 0.485,0 1.025,0.179 1.367,0.378 z"
             style="fill:#56585a;fill-opacity:1;fill-rule:nonzero;stroke:none"
             id="path350"
             inkscape:connector-curvature="0" /></g><g
           id="g352"
           transform="translate(648.3413,65.6333)"><path
             d="m 0,0 c -0.504,0.252 -1.151,0.414 -2.159,0.414 -1.188,0 -1.943,-0.54 -1.943,-1.403 0,-0.936 0.594,-1.566 1.817,-1.566 0.989,0 1.853,0.613 2.285,1.206 z m 0,-4.029 v 0.935 c -0.647,-0.648 -1.565,-1.134 -2.591,-1.134 -1.529,0 -3.274,0.864 -3.274,3.185 0,2.105 1.619,3.058 3.76,3.058 0.881,0 1.584,-0.125 2.105,-0.36 v 0.702 c 0,1.026 -0.63,1.601 -1.781,1.601 -0.972,0 -1.727,-0.18 -2.465,-0.594 l -0.72,1.404 c 0.9,0.557 1.907,0.845 3.238,0.845 2.106,0 3.544,-1.025 3.544,-3.166 v -6.476 z"
             style="fill:#56585a;fill-opacity:1;fill-rule:nonzero;stroke:none"
             id="path354"
             inkscape:connector-curvature="0" /></g><g
           id="g356"
           transform="translate(653.5913,59.9849)"><path
             d="M 0,0 H -1.853 L 3.742,15.831 H 5.595 Z"
             style="fill:#56585a;fill-opacity:1;fill-rule:nonzero;stroke:none"
             id="path358"
             inkscape:connector-curvature="0" /></g><g
           id="g360"
           transform="translate(670.5532,61.604)"><path
             d="m 0,0 v 5.343 c 0,1.907 -0.594,2.591 -1.817,2.591 -1.242,0 -1.818,-0.882 -1.818,-2.412 V 0 h -1.852 v 5.343 c 0,1.907 -0.594,2.591 -1.818,2.591 -1.241,0 -1.816,-0.882 -1.816,-2.412 V 0 h -1.854 v 9.444 h 1.854 V 8.545 c 0.468,0.684 1.277,1.098 2.249,1.098 1.276,0 2.086,-0.487 2.59,-1.386 0.683,0.846 1.422,1.386 2.896,1.386 2.196,0 3.239,-1.44 3.239,-4.228 L 1.853,0 Z"
             style="fill:#56585a;fill-opacity:1;fill-rule:nonzero;stroke:none"
             id="path362"
             inkscape:connector-curvature="0" /></g><g
           id="g364"
           transform="translate(677.9966,58.2759)"><path
             d="m 0,0 h -1.961 l 1.367,3.508 -3.472,9.264 h 2.033 L -0.486,8.149 C -0.198,7.321 0.233,5.918 0.342,5.396 0.503,5.954 0.899,7.304 1.187,8.113 l 1.601,4.659 h 1.961 z"
             style="fill:#56585a;fill-opacity:1;fill-rule:nonzero;stroke:none"
             id="path366"
             inkscape:connector-curvature="0" /></g><g
           id="g368"
           transform="translate(687.4019,61.4058)"><path
             d="m 0,0 c -1.277,0 -2.663,0.504 -3.616,1.205 l 0.845,1.403 C -1.89,1.997 -0.9,1.673 -0.019,1.673 c 1.17,0 1.728,0.378 1.728,1.044 0,0.72 -0.828,1.061 -2.195,1.583 -2.034,0.791 -2.771,1.475 -2.771,2.969 0,1.69 1.331,2.572 3.221,2.572 1.187,0 2.356,-0.432 3.202,-1.044 L 2.356,7.376 c -0.773,0.54 -1.546,0.81 -2.447,0.81 -0.899,0 -1.295,-0.36 -1.295,-0.864 0,-0.468 0.324,-0.809 1.745,-1.367 C 2.464,5.146 3.544,4.569 3.544,2.788 3.544,0.702 1.853,0 0,0"
             style="fill:#56585a;fill-opacity:1;fill-rule:nonzero;stroke:none"
             id="path370"
             inkscape:connector-curvature="0" /></g><g
           id="g372"
           transform="translate(698.8413,68.2964)"><path
             d="m 0,0 c -0.414,0.558 -1.277,1.241 -2.213,1.241 -1.331,0 -2.051,-1.008 -2.051,-3.005 0,-2.374 0.756,-3.418 2.123,-3.418 0.881,0 1.655,0.594 2.141,1.205 z m -0.019,-10.165 v 4.372 c -0.683,-0.63 -1.474,-1.098 -2.463,-1.098 -2.034,0 -3.635,1.476 -3.635,5.074 0,3.238 1.763,4.767 3.724,4.767 0.954,0 1.853,-0.504 2.374,-1.079 V 2.752 H 1.816 V -9.211 Z"
             style="fill:#56585a;fill-opacity:1;fill-rule:nonzero;stroke:none"
             id="path374"
             inkscape:connector-curvature="0" /></g><g
           id="g376"
           transform="translate(703.479,61.604)"><path
             d="m 0,0 v 12.144 l 1.854,0.97 V 0 Z"
             style="fill:#56585a;fill-opacity:1;fill-rule:nonzero;stroke:none"
             id="path378"
             inkscape:connector-curvature="0" /></g><g
           id="g380"
           transform="translate(630.7153,41.7739)"><path
             d="m 0,0 v 3.558 c 0,1.269 -0.395,1.724 -1.209,1.724 -0.827,0 -1.21,-0.587 -1.21,-1.605 V 0 h -1.234 v 3.558 c 0,1.269 -0.395,1.724 -1.209,1.724 -0.827,0 -1.21,-0.587 -1.21,-1.605 V 0 h -1.235 v 6.288 h 1.235 V 5.689 c 0.311,0.456 0.85,0.731 1.497,0.731 0.85,0 1.389,-0.323 1.724,-0.922 0.455,0.563 0.947,0.922 1.929,0.922 1.461,0 2.156,-0.958 2.156,-2.815 L 1.234,0 Z"
             style="fill:#56585a;fill-opacity:1;fill-rule:nonzero;stroke:none"
             id="path382"
             inkscape:connector-curvature="0" /></g><g
           id="g384"
           transform="translate(635.6812,39.5581)"><path
             d="m 0,0 h -1.306 l 0.91,2.335 -2.311,6.169 h 1.353 l 1.03,-3.078 C -0.132,4.875 0.155,3.94 0.228,3.593 0.335,3.965 0.599,4.862 0.79,5.401 l 1.066,3.103 h 1.306 z"
             style="fill:#56585a;fill-opacity:1;fill-rule:nonzero;stroke:none"
             id="path386"
             inkscape:connector-curvature="0" /></g><g
           id="g388"
           transform="translate(641.9487,41.6421)"><path
             d="m 0,0 c -0.851,0 -1.773,0.335 -2.408,0.803 l 0.563,0.933 c 0.587,-0.407 1.245,-0.622 1.832,-0.622 0.78,0 1.151,0.251 1.151,0.695 0,0.479 -0.551,0.707 -1.462,1.053 -1.354,0.528 -1.844,0.983 -1.844,1.977 0,1.126 0.886,1.713 2.144,1.713 0.791,0 1.569,-0.287 2.131,-0.695 L 1.568,4.911 C 1.054,5.271 0.539,5.45 -0.061,5.45 c -0.598,0 -0.862,-0.24 -0.862,-0.575 0,-0.312 0.216,-0.539 1.162,-0.91 C 1.641,3.426 2.359,3.042 2.359,1.856 2.359,0.467 1.233,0 0,0"
             style="fill:#56585a;fill-opacity:1;fill-rule:nonzero;stroke:none"
             id="path390"
             inkscape:connector-curvature="0" /></g><g
           id="g392"
           transform="translate(649.5698,46.23)"><path
             d="m 0,0 c -0.275,0.371 -0.851,0.826 -1.474,0.826 -0.885,0 -1.365,-0.671 -1.365,-2 0,-1.582 0.503,-2.276 1.414,-2.276 0.587,0 1.102,0.395 1.425,0.803 z m -0.012,-6.769 v 2.912 c -0.455,-0.419 -0.982,-0.731 -1.641,-0.731 -1.354,0 -2.419,0.983 -2.419,3.378 0,2.156 1.174,3.174 2.479,3.174 0.635,0 1.234,-0.335 1.581,-0.719 V 1.832 H 1.21 v -7.965 z"
             style="fill:#56585a;fill-opacity:1;fill-rule:nonzero;stroke:none"
             id="path394"
             inkscape:connector-curvature="0" /></g><g
           id="g396"
           transform="translate(652.6646,41.7739)"><path
             d="M 0,0 V 8.085 L 1.233,8.731 V 0 Z"
             style="fill:#56585a;fill-opacity:1;fill-rule:nonzero;stroke:none"
             id="path398"
             inkscape:connector-curvature="0" /></g><g
           id="g400"
           transform="translate(659.5776,46.23)"><path
             d="m 0,0 c -0.275,0.371 -0.851,0.826 -1.474,0.826 -0.885,0 -1.365,-0.671 -1.365,-2 0,-1.582 0.503,-2.276 1.414,-2.276 0.587,0 1.102,0.395 1.425,0.803 z m -0.012,-4.456 v 0.599 c -0.455,-0.419 -0.982,-0.731 -1.641,-0.731 -1.354,0 -2.419,0.983 -2.419,3.378 0,2.156 1.174,3.174 2.479,3.174 0.635,0 1.234,-0.335 1.581,-0.719 V 3.641 L 1.21,4.275 v -8.731 z"
             style="fill:#56585a;fill-opacity:1;fill-rule:nonzero;stroke:none"
             id="path402"
             inkscape:connector-curvature="0" /></g><path
           d="m 661.702,40.792 h 5.989 v -1.138 h -5.989 z"
           style="fill:#56585a;fill-opacity:1;fill-rule:nonzero;stroke:none"
           id="path404"
           inkscape:connector-curvature="0" /><g
           id="g406"
           transform="translate(672.4019,46.23)"><path
             d="m 0,0 c -0.275,0.371 -0.851,0.826 -1.474,0.826 -0.885,0 -1.365,-0.671 -1.365,-2 0,-1.582 0.503,-2.276 1.414,-2.276 0.587,0 1.102,0.395 1.425,0.803 z m -0.012,-4.456 v 0.599 c -0.455,-0.419 -0.982,-0.731 -1.641,-0.731 -1.354,0 -2.419,0.983 -2.419,3.378 0,2.156 1.174,3.174 2.479,3.174 0.635,0 1.234,-0.335 1.581,-0.719 V 3.641 L 1.21,4.275 v -8.731 z"
             style="fill:#56585a;fill-opacity:1;fill-rule:nonzero;stroke:none"
             id="path408"
             inkscape:connector-curvature="0" /></g><g
           id="g410"
           transform="translate(678.0718,47.0562)"><path
             d="M 0,0 C -0.587,0 -1.103,-0.396 -1.426,-0.803 V -3.45 c 0.276,-0.371 0.851,-0.826 1.474,-0.826 0.887,0 1.365,0.671 1.365,2 C 1.413,-0.695 0.91,0 0,0 m 0.168,-5.414 c -0.635,0 -1.234,0.335 -1.581,0.719 v -0.587 h -1.223 v 8.096 l 1.223,0.635 V 0.407 c 0.455,0.419 0.981,0.731 1.641,0.731 1.353,0 2.419,-0.983 2.419,-3.378 0,-2.156 -1.173,-3.174 -2.479,-3.174"
             style="fill:#56585a;fill-opacity:1;fill-rule:nonzero;stroke:none"
             id="path412"
             inkscape:connector-curvature="0" /></g><path
           d="m 681.358,40.792 h 5.989 v -1.138 h -5.989 z"
           style="fill:#56585a;fill-opacity:1;fill-rule:nonzero;stroke:none"
           id="path414"
           inkscape:connector-curvature="0" /><g
           id="g416"
           transform="translate(691.2671,41.9292)"><path
             d="m 0,0 c -0.3,-0.168 -0.719,-0.287 -1.21,-0.287 -0.874,0 -1.413,0.539 -1.413,1.665 v 3.629 h -0.898 v 1.126 h 0.898 V 7.93 l 1.21,0.646 V 6.133 H 0.144 V 5.007 H -1.413 V 1.594 c 0,-0.587 0.191,-0.755 0.646,-0.755 0.324,0 0.683,0.119 0.911,0.251 z"
             style="fill:#56585a;fill-opacity:1;fill-rule:nonzero;stroke:none"
             id="path418"
             inkscape:connector-curvature="0" /></g><g
           id="g420"
           transform="translate(420.5122,143.4526)"><path
             d="m 0,0 c 0,-6.428 -5.211,-11.64 -11.639,-11.64 -6.429,0 -11.64,5.212 -11.64,11.64 0,6.428 5.211,11.64 11.64,11.64 C -5.211,11.64 0,6.428 0,0"
             style="fill:#d82125;fill-opacity:1;fill-rule:nonzero;stroke:none"
             id="path422"
             inkscape:connector-curvature="0" /></g><g
           id="g424"
           transform="translate(411.2041,138.6172)"><path
             d="M 0,0 -1.056,1.456 C -1.474,2.033 -2.111,2.98 -2.329,3.337 -2.53,2.98 -3.167,2.06 -3.602,1.456 L -4.658,0 h -2.798 l 3.72,4.917 -3.552,4.696 h 2.798 l 0.888,-1.236 c 0.419,-0.577 1.056,-1.524 1.273,-1.881 0.218,0.357 0.838,1.277 1.273,1.881 l 0.889,1.236 H 2.63 L -0.938,4.917 2.798,0 Z"
             style="fill:#ffffff;fill-opacity:1;fill-rule:nonzero;stroke:none"
             id="path426"
             inkscape:connector-curvature="0" /></g></g></g></g></svg>