<?xml version="1.0" encoding="UTF-8" standalone="no"?>
<svg
   xmlns:dc="http://purl.org/dc/elements/1.1/"
   xmlns:cc="http://creativecommons.org/ns#"
   xmlns:rdf="http://www.w3.org/1999/02/22-rdf-syntax-ns#"
   xmlns:svg="http://www.w3.org/2000/svg"
   xmlns="http://www.w3.org/2000/svg"
   xmlns:sodipodi="http://sodipodi.sourceforge.net/DTD/sodipodi-0.dtd"
   xmlns:inkscape="http://www.inkscape.org/namespaces/inkscape"
   inkscape:version="1.0 (4035a4f, 2020-05-01)"
   sodipodi:docname="tcp-ip-model-vs-osi-model.svg"
   version="1.1"
   viewBox="0 0 595.276 407.214"
   height="143.656mm"
   width="210mm"
   data-name="Layer 1"
   id="Layer_1">
  <metadata
     id="metadata499">
    <rdf:RDF>
      <cc:Work
         rdf:about="">
        <dc:format>image/svg+xml</dc:format>
        <dc:type
           rdf:resource="http://purl.org/dc/dcmitype/StillImage" />
        <dc:title></dc:title>
        <dc:subject>
          <rdf:Bag>
            <rdf:li>tcp-ip-model-vs-OSI-model</rdf:li>
          </rdf:Bag>
        </dc:subject>
      </cc:Work>
    </rdf:RDF>
  </metadata>
  <sodipodi:namedview
     inkscape:current-layer="Layer_1"
     inkscape:window-maximized="0"
     inkscape:window-y="566"
     inkscape:window-x="41"
     inkscape:cy="271.47592"
     inkscape:cx="396.85039"
     inkscape:zoom="0.63122024"
     showgrid="false"
     id="namedview497"
     inkscape:window-height="480"
     inkscape:window-width="987"
     inkscape:pageshadow="2"
     inkscape:pageopacity="0"
     guidetolerance="10"
     gridtolerance="10"
     objecttolerance="10"
     borderopacity="1"
     bordercolor="#666666"
     pagecolor="#ffffff" />
  <defs
     id="defs12">
    <style
       id="style10">
      .cls-1 {
        fill: #dbe8f5;
      }

      .cls-2 {
        fill: #fff;
        stroke: #06c;
        stroke-miterlimit: 10;
      }

      .cls-3 {
        fill: none;
        stroke: #b4b4b4;
        stroke-linecap: round;
        stroke-linejoin: round;
        stroke-dasharray: 4 4;
      }
    </style>
  </defs>
  <rect
     id="rect14"
     height="364.248"
     width="184.251"
     y="20.632"
     x="20.012"
     class="cls-1" />
  <rect
     id="rect16"
     height="364.248"
     width="184.251"
     y="20.632"
     x="391.012"
     class="cls-1" />
  <rect
     id="rect18"
     height="125.84"
     width="159.529"
     y="65.198"
     x="32.374"
     class="cls-2" />
  <rect
     id="rect20"
     height="80.8"
     width="159.529"
     y="290.399"
     x="32.374"
     class="cls-2" />
  <rect
     id="rect22"
     height="35.76"
     width="159.528"
     y="65.198"
     x="403.374"
     class="cls-2" />
  <rect
     id="rect24"
     height="35.76"
     width="159.528"
     y="110.238"
     x="403.374"
     class="cls-2" />
  <rect
     id="rect26"
     height="35.76"
     width="159.528"
     y="155.278"
     x="403.374"
     class="cls-2" />
  <rect
     id="rect28"
     height="35.76"
     width="159.528"
     y="200.318"
     x="403.374"
     class="cls-2" />
  <rect
     id="rect30"
     height="35.76"
     width="159.528"
     y="245.358"
     x="403.374"
     class="cls-2" />
  <rect
     id="rect32"
     height="35.76"
     width="159.528"
     y="200.318"
     x="32.374"
     class="cls-2" />
  <rect
     id="rect34"
     height="35.76"
     width="159.528"
     y="245.358"
     x="32.374"
     class="cls-2" />
  <rect
     id="rect36"
     height="35.76"
     width="159.528"
     y="290.399"
     x="403.374"
     class="cls-2" />
  <rect
     id="rect38"
     height="35.76"
     width="159.528"
     y="335.439"
     x="403.374"
     class="cls-2" />
  <line
     id="line40"
     y2="195.705"
     x2="562.902"
     y1="195.705"
     x1="32.374"
     class="cls-3" />
  <line
     id="line42"
     y2="60.532"
     x2="562.902"
     y1="60.532"
     x1="32.374"
     class="cls-3" />
  <line
     id="line44"
     y2="285.759"
     x2="562.902"
     y1="285.759"
     x1="32.374"
     class="cls-3" />
  <line
     id="line46"
     y2="375.839"
     x2="562.902"
     y1="375.839"
     x1="32.374"
     class="cls-3" />
  <line
     id="line48"
     y2="240.719"
     x2="562.902"
     y1="240.719"
     x1="32.374"
     class="cls-3" />
  <g
     id="g72">
    <path
       id="path50"
       d="M63.9,34.464h8.82v1.561H69.224v8.939h-1.8V36.025H63.9Z" />
    <path
       id="path52"
       d="M81.583,42.129l1.186,1.14a5.39,5.39,0,1,1,.044-7.11L81.6,37.36a3.694,3.694,0,1,0-2.82,6.134A3.556,3.556,0,0,0,81.583,42.129Z" />
    <path
       id="path54"
       d="M84.629,34.464h4.695a3.257,3.257,0,1,1,0,6.5H86.429v4h-1.8Zm1.8,1.516v3.509h2.61a1.767,1.767,0,1,0,.015-3.509Z" />
    <path
       id="path56"
       d="M97.154,34.464H98.8l-6,13.62h-1.65Z" />
    <path
       id="path58"
       d="M100.529,34.464h1.8v10.5h-1.8Z" />
    <path
       id="path60"
       d="M104.773,34.464h4.7a3.257,3.257,0,1,1,0,6.5h-2.894v4h-1.8Zm1.8,1.516v3.509h2.61a1.767,1.767,0,1,0,.014-3.509Z" />
    <path
       id="path62"
       d="M118.123,37.449h1.695v1.2a2.562,2.562,0,0,1,2.235-1.321,2.363,2.363,0,0,1,2.2,1.455,2.772,2.772,0,0,1,2.49-1.455,2.49,2.49,0,0,1,2.46,2.73v4.905h-1.695V40.419A1.52,1.52,0,0,0,126,38.7a1.789,1.789,0,0,0-1.515.884c.015.165.03.316.03.48v4.905h-1.7V40.419A1.52,1.52,0,0,0,121.3,38.7a1.745,1.745,0,0,0-1.485.854v5.415h-1.695Z" />
    <path
       id="path64"
       d="M134.7,37.329a3.894,3.894,0,1,1-3.78,3.885A3.752,3.752,0,0,1,134.7,37.329Zm2.1,3.9a2.124,2.124,0,1,0-4.2,0,2.12,2.12,0,1,0,4.2,0Z" />
    <path
       id="path66"
       d="M145.648,43.959a2.892,2.892,0,0,1-2.31,1.08,3.844,3.844,0,0,1,.105-7.649,2.867,2.867,0,0,1,2.19.989v-4.14l1.695-.285v11.01h-1.68Zm-1.8-.345a2.249,2.249,0,0,0,1.785-.825V39.624a2.33,2.33,0,0,0-1.785-.809,2.406,2.406,0,0,0,0,4.8Z" />
    <path
       id="path68"
       d="M152.908,45.114a3.82,3.82,0,0,1-3.825-3.9,3.7,3.7,0,0,1,3.66-3.885A3.607,3.607,0,0,1,156.3,41.2v.42h-5.55A2.3,2.3,0,0,0,153,43.674a2.439,2.439,0,0,0,1.784-.7L155.893,44A4.346,4.346,0,0,1,152.908,45.114Zm-2.13-4.53h3.914a2.056,2.056,0,0,0-1.964-1.875A2.019,2.019,0,0,0,150.778,40.584Z" />
    <path
       id="path70"
       d="M159.718,44.964h-1.7V34.239l1.7-.285Z" />
  </g>
  <g
     id="g96">
    <path
       id="path74"
       d="M76.4,121.5h2.085L82.551,132H80.616l-1.065-2.939h-4.32L74.151,132H72.276Zm2.625,6.151-1.62-4.47-1.65,4.47Z" />
    <path
       id="path76"
       d="M83.691,124.481h1.665v1.08a2.831,2.831,0,0,1,2.34-1.14,3.605,3.605,0,0,1,3.405,3.824,3.642,3.642,0,0,1-3.525,3.825,2.806,2.806,0,0,1-2.19-.975v4.08H83.691Zm1.695,2.205v3.134a2.3,2.3,0,0,0,1.8.826,2.406,2.406,0,0,0,0-4.8A2.2,2.2,0,0,0,85.386,126.686Z" />
    <path
       id="path78"
       d="M92.855,124.481h1.666v1.08a2.828,2.828,0,0,1,2.339-1.14,3.605,3.605,0,0,1,3.405,3.824,3.642,3.642,0,0,1-3.525,3.825,2.8,2.8,0,0,1-2.189-.975v4.08h-1.7Zm1.7,2.205v3.134a2.3,2.3,0,0,0,1.8.826,2.406,2.406,0,0,0,0-4.8A2.2,2.2,0,0,0,94.551,126.686Z" />
    <path
       id="path80"
       d="M103.716,132h-1.695V121.271l1.695-.285Z" />
    <path
       id="path82"
       d="M105.59,121.916a1.058,1.058,0,0,1,2.116,0,1.058,1.058,0,0,1-2.116,0ZM107.5,132h-1.7v-7.514h1.7Z" />
    <path
       id="path84"
       d="M114.951,129.82l1.019,1.02a3.9,3.9,0,0,1-2.939,1.306,3.887,3.887,0,0,1,0-7.771,4.045,4.045,0,0,1,3,1.261l-1.05,1.095a2.481,2.481,0,0,0-1.89-.885,2.411,2.411,0,0,0,.046,4.8A2.31,2.31,0,0,0,114.951,129.82Z" />
    <path
       id="path86"
       d="M117.05,129.835c0-1.349,1.1-2.205,2.866-2.205a4.631,4.631,0,0,1,2.024.466v-.825c0-.991-.57-1.5-1.725-1.5a5.188,5.188,0,0,0-2.19.585l-.6-1.231a7.23,7.23,0,0,1,3.12-.764c1.95,0,3.075.99,3.075,2.729V132h-1.68v-.764a3.138,3.138,0,0,1-2.234.884A2.369,2.369,0,0,1,117.05,129.835Zm3.12,1.095a2.679,2.679,0,0,0,1.77-.614v-1.231a3.889,3.889,0,0,0-1.74-.359c-.96,0-1.559.42-1.559,1.08C118.641,130.5,119.24,130.93,120.17,130.93Z" />
    <path
       id="path88"
       d="M126.38,125.83h-1.515v-1.349h1.515V122.41l1.695-.359v2.43h2.1v1.349h-2.1v3.811c0,.734.285,1.019,1.05,1.019a3.136,3.136,0,0,0,1.02-.179v1.424a5.332,5.332,0,0,1-1.455.21c-1.515,0-2.31-.719-2.31-2.1Z" />
    <path
       id="path90"
       d="M131.45,121.916a1.058,1.058,0,0,1,2.115,0,1.058,1.058,0,0,1-2.115,0ZM133.355,132H131.66v-7.514h1.695Z" />
    <path
       id="path92"
       d="M138.875,124.361a3.894,3.894,0,1,1-3.78,3.884A3.751,3.751,0,0,1,138.875,124.361Zm2.1,3.9a2.124,2.124,0,1,0-4.2,0,2.12,2.12,0,1,0,4.2,0Z" />
    <path
       id="path94"
       d="M144.41,124.481H146.1v1.229a2.726,2.726,0,0,1,2.385-1.349,2.528,2.528,0,0,1,2.594,2.684V132H149.39v-4.469a1.618,1.618,0,0,0-1.65-1.8,1.926,1.926,0,0,0-1.635.9V132H144.41Z" />
  </g>
  <g
     id="g120">
    <path
       id="path98"
       d="M447.4,76.456h2.085l4.065,10.5h-1.935l-1.065-2.94h-4.32l-1.08,2.94h-1.875Zm2.625,6.15-1.62-4.47-1.65,4.47Z" />
    <path
       id="path100"
       d="M454.691,79.441h1.665v1.08a2.832,2.832,0,0,1,2.34-1.139,3.606,3.606,0,0,1,3.406,3.824,3.643,3.643,0,0,1-3.526,3.825,2.8,2.8,0,0,1-2.189-.976v4.08h-1.7Zm1.7,2.2v3.135a2.306,2.306,0,0,0,1.8.825,2.406,2.406,0,0,0,0-4.8A2.2,2.2,0,0,0,456.387,81.646Z" />
    <path
       id="path102"
       d="M463.855,79.441h1.666v1.08a2.831,2.831,0,0,1,2.34-1.139,3.605,3.605,0,0,1,3.405,3.824,3.643,3.643,0,0,1-3.526,3.825,2.8,2.8,0,0,1-2.189-.976v4.08h-1.7Zm1.7,2.2v3.135a2.308,2.308,0,0,0,1.8.825,2.406,2.406,0,0,0,0-4.8A2.208,2.208,0,0,0,465.551,81.646Z" />
    <path
       id="path104"
       d="M474.717,86.956h-1.7V76.231l1.7-.285Z" />
    <path
       id="path106"
       d="M476.591,76.877a1.058,1.058,0,0,1,2.115,0,1.058,1.058,0,0,1-2.115,0Zm1.9,10.079H476.8V79.441H478.5Z" />
    <path
       id="path108"
       d="M485.951,84.781l1.02,1.019a3.906,3.906,0,0,1-2.94,1.306,3.886,3.886,0,0,1,0-7.77,4.05,4.05,0,0,1,3,1.26l-1.051,1.095a2.48,2.48,0,0,0-1.889-.885,2.411,2.411,0,0,0,.046,4.8A2.31,2.31,0,0,0,485.951,84.781Z" />
    <path
       id="path110"
       d="M488.051,84.8c0-1.35,1.1-2.205,2.865-2.205a4.645,4.645,0,0,1,2.025.465v-.825c0-.99-.57-1.5-1.725-1.5a5.207,5.207,0,0,0-2.191.585l-.6-1.23a7.215,7.215,0,0,1,3.12-.765c1.95,0,3.075.99,3.075,2.729v4.906h-1.68v-.765a3.142,3.142,0,0,1-2.235.885A2.369,2.369,0,0,1,488.051,84.8Zm3.12,1.094a2.679,2.679,0,0,0,1.77-.614v-1.23a3.892,3.892,0,0,0-1.74-.36c-.961,0-1.56.42-1.56,1.08C489.641,85.456,490.24,85.89,491.171,85.89Z" />
    <path
       id="path112"
       d="M497.381,80.791h-1.516v-1.35h1.516v-2.07l1.7-.36v2.43h2.1v1.35h-2.1V84.6c0,.735.285,1.02,1.049,1.02a3.119,3.119,0,0,0,1.021-.18v1.425a5.332,5.332,0,0,1-1.455.21c-1.515,0-2.31-.72-2.31-2.1Z" />
    <path
       id="path114"
       d="M502.451,76.877a1.058,1.058,0,0,1,2.115,0,1.058,1.058,0,0,1-2.115,0Zm1.9,10.079H502.66V79.441h1.695Z" />
    <path
       id="path116"
       d="M509.875,79.321a3.894,3.894,0,1,1-3.779,3.885A3.752,3.752,0,0,1,509.875,79.321Zm2.1,3.9a2.125,2.125,0,1,0-4.2,0,2.121,2.121,0,1,0,4.2,0Z" />
    <path
       id="path118"
       d="M515.41,79.441h1.7v1.23a2.728,2.728,0,0,1,2.385-1.35,2.529,2.529,0,0,1,2.6,2.685v4.95h-1.694v-4.47a1.619,1.619,0,0,0-1.651-1.8,1.927,1.927,0,0,0-1.635.9v5.37h-1.7Z" />
  </g>
  <g
     id="g146">
    <path
       id="path122"
       d="M439.061,121.5h4.695a3.257,3.257,0,1,1,0,6.5h-2.895V132h-1.8Zm1.8,1.515v3.51h2.61a1.767,1.767,0,1,0,.015-3.51Z" />
    <path
       id="path124"
       d="M449.035,124.481h1.695v1.635a2.23,2.23,0,0,1,2.071-1.77,2,2,0,0,1,.734.15v1.485a2.386,2.386,0,0,0-.93-.18,2.064,2.064,0,0,0-1.875,1.245V132h-1.695Z" />
    <path
       id="path126"
       d="M458.051,132.146a3.819,3.819,0,0,1-3.824-3.9,3.7,3.7,0,0,1,3.659-3.885,3.607,3.607,0,0,1,3.555,3.87v.42h-5.55a2.3,2.3,0,0,0,2.25,2.055,2.441,2.441,0,0,0,1.785-.7l1.109,1.035A4.346,4.346,0,0,1,458.051,132.146Zm-2.13-4.53h3.915a2.057,2.057,0,0,0-1.965-1.875A2.017,2.017,0,0,0,455.921,127.616Z" />
    <path
       id="path128"
       d="M463.361,129.986a4.331,4.331,0,0,0,2.414.855c.9,0,1.516-.405,1.516-1,0-.465-.315-.72-1.035-.855l-1.335-.225c-1.455-.27-2.175-.945-2.175-2.07,0-1.41,1.154-2.325,2.91-2.325a5.293,5.293,0,0,1,2.955.9l-.8,1.11a4.11,4.11,0,0,0-2.265-.72c-.78,0-1.29.33-1.29.885,0,.48.27.69,1.065.825l1.32.24c1.5.285,2.219.975,2.219,2.1,0,1.38-1.319,2.445-3.059,2.445a5.042,5.042,0,0,1-3.24-1.02Z" />
    <path
       id="path130"
       d="M473.98,132.146a3.82,3.82,0,0,1-3.824-3.9,3.7,3.7,0,0,1,3.659-3.885,3.607,3.607,0,0,1,3.556,3.87v.42H471.82a2.3,2.3,0,0,0,2.25,2.055,2.44,2.44,0,0,0,1.785-.7l1.11,1.035A4.349,4.349,0,0,1,473.98,132.146Zm-2.129-4.53h3.915a2.058,2.058,0,0,0-1.965-1.875A2.017,2.017,0,0,0,471.851,127.616Z" />
    <path
       id="path132"
       d="M479.1,124.481h1.695v1.23a2.725,2.725,0,0,1,2.385-1.35,2.529,2.529,0,0,1,2.594,2.685V132h-1.695v-4.47a1.618,1.618,0,0,0-1.649-1.8,1.924,1.924,0,0,0-1.635.9V132H479.1Z" />
    <path
       id="path134"
       d="M488.53,125.831h-1.514v-1.35h1.514v-2.07l1.7-.36v2.43h2.1v1.35h-2.1v3.81c0,.735.285,1.02,1.05,1.02a3.109,3.109,0,0,0,1.02-.18v1.425a5.337,5.337,0,0,1-1.455.21c-1.515,0-2.31-.72-2.31-2.1Z" />
    <path
       id="path136"
       d="M493.436,129.836c0-1.35,1.094-2.205,2.865-2.205a4.643,4.643,0,0,1,2.024.465v-.825c0-.99-.57-1.5-1.725-1.5a5.2,5.2,0,0,0-2.19.585l-.6-1.23a7.214,7.214,0,0,1,3.119-.765c1.95,0,3.075.99,3.075,2.73V132h-1.68v-.765a3.142,3.142,0,0,1-2.235.885A2.369,2.369,0,0,1,493.436,129.836Zm3.119,1.094a2.681,2.681,0,0,0,1.77-.614v-1.23a3.889,3.889,0,0,0-1.74-.36c-.96,0-1.56.42-1.56,1.08C495.025,130.5,495.625,130.93,496.555,130.93Z" />
    <path
       id="path138"
       d="M502.766,125.831H501.25v-1.35h1.516v-2.07l1.694-.36v2.43h2.1v1.35h-2.1v3.81c0,.735.285,1.02,1.05,1.02a3.1,3.1,0,0,0,1.019-.18v1.425a5.319,5.319,0,0,1-1.454.21c-1.514,0-2.309-.72-2.309-2.1Z" />
    <path
       id="path140"
       d="M507.834,121.917a1.058,1.058,0,0,1,2.115,0,1.058,1.058,0,0,1-2.115,0ZM509.74,132h-1.695v-7.515h1.695Z" />
    <path
       id="path142"
       d="M515.26,124.361a3.894,3.894,0,1,1-3.78,3.885A3.751,3.751,0,0,1,515.26,124.361Zm2.1,3.9a2.124,2.124,0,1,0-4.2,0,2.12,2.12,0,1,0,4.2,0Z" />
    <path
       id="path144"
       d="M520.795,124.481h1.7v1.23a2.725,2.725,0,0,1,2.385-1.35,2.529,2.529,0,0,1,2.594,2.685V132h-1.7v-4.47a1.618,1.618,0,0,0-1.648-1.8,1.925,1.925,0,0,0-1.635.9V132h-1.7Z" />
  </g>
  <g
     id="g162">
    <path
       id="path148"
       d="M457.33,174.17a5.256,5.256,0,0,0,3.525,1.53c1.395,0,2.356-.7,2.356-1.665,0-.854-.511-1.245-1.906-1.5l-1.934-.33c-1.815-.33-2.7-1.229-2.7-2.67,0-1.889,1.516-3.149,3.871-3.149a7.01,7.01,0,0,1,4.215,1.365l-.916,1.35a5.439,5.439,0,0,0-3.36-1.215c-1.259,0-2.084.63-2.084,1.484,0,.75.464,1.141,1.62,1.321l1.859.33c2.115.36,3.105,1.29,3.105,2.88,0,1.919-1.709,3.285-4.214,3.285a6.615,6.615,0,0,1-4.411-1.7Z" />
    <path
       id="path150"
       d="M470.23,177.186a3.82,3.82,0,0,1-3.825-3.9,3.7,3.7,0,0,1,3.659-3.884,3.606,3.606,0,0,1,3.555,3.87v.42H468.07a2.294,2.294,0,0,0,2.25,2.054,2.44,2.44,0,0,0,1.785-.705l1.11,1.035A4.347,4.347,0,0,1,470.23,177.186Zm-2.13-4.531h3.916a2.059,2.059,0,0,0-1.966-1.875A2.019,2.019,0,0,0,468.1,172.655Z" />
    <path
       id="path152"
       d="M475.54,175.026a4.329,4.329,0,0,0,2.415.854c.9,0,1.515-.4,1.515-1,0-.465-.316-.72-1.034-.854L477.1,173.8c-1.455-.269-2.174-.944-2.174-2.069,0-1.41,1.154-2.325,2.909-2.325a5.288,5.288,0,0,1,2.955.9l-.8,1.109a4.106,4.106,0,0,0-2.265-.719c-.78,0-1.291.33-1.291.884,0,.481.271.691,1.066.826l1.319.24c1.5.285,2.221.974,2.221,2.1,0,1.38-1.32,2.446-3.061,2.446a5.041,5.041,0,0,1-3.239-1.021Z" />
    <path
       id="path154"
       d="M482.785,175.026a4.331,4.331,0,0,0,2.415.854c.9,0,1.515-.4,1.515-1,0-.465-.315-.72-1.035-.854l-1.334-.226c-1.455-.269-2.176-.944-2.176-2.069,0-1.41,1.155-2.325,2.91-2.325a5.288,5.288,0,0,1,2.955.9l-.8,1.109a4.106,4.106,0,0,0-2.265-.719c-.78,0-1.289.33-1.289.884,0,.481.269.691,1.064.826l1.32.24c1.5.285,2.22.974,2.22,2.1,0,1.38-1.319,2.446-3.06,2.446a5.044,5.044,0,0,1-3.24-1.021Z" />
    <path
       id="path156"
       d="M489.64,166.956a1.058,1.058,0,0,1,2.115,0,1.058,1.058,0,0,1-2.115,0Zm1.905,10.079H489.85v-7.514h1.695Z" />
    <path
       id="path158"
       d="M497.064,169.4a3.894,3.894,0,1,1-3.779,3.884A3.752,3.752,0,0,1,497.064,169.4Zm2.1,3.9a2.124,2.124,0,1,0-4.2,0,2.12,2.12,0,1,0,4.2,0Z" />
    <path
       id="path160"
       d="M502.6,169.521H504.3v1.229a2.726,2.726,0,0,1,2.385-1.349,2.528,2.528,0,0,1,2.594,2.684v4.95H507.58v-4.469a1.618,1.618,0,0,0-1.65-1.8,1.924,1.924,0,0,0-1.635.9v5.37H502.6Z" />
  </g>
  <g
     id="g182">
    <path
       id="path164"
       d="M448.924,211.575h8.819v1.561h-3.5v8.939h-1.8v-8.939h-3.524Z" />
    <path
       id="path166"
       d="M458.6,214.561h1.695V216.2a2.228,2.228,0,0,1,2.07-1.769,2.025,2.025,0,0,1,.735.149v1.486a2.394,2.394,0,0,0-.93-.18,2.063,2.063,0,0,0-1.875,1.244v4.95H458.6Z" />
    <path
       id="path168"
       d="M463.863,219.915c0-1.349,1.1-2.2,2.866-2.2a4.649,4.649,0,0,1,2.025.466v-.825c0-.99-.57-1.5-1.726-1.5a5.188,5.188,0,0,0-2.19.585l-.6-1.231a7.23,7.23,0,0,1,3.12-.764c1.951,0,3.076.99,3.076,2.729v4.905h-1.68v-.764a3.144,3.144,0,0,1-2.235.884A2.369,2.369,0,0,1,463.863,219.915Zm3.12,1.095a2.684,2.684,0,0,0,1.771-.614v-1.231a3.892,3.892,0,0,0-1.74-.359c-.961,0-1.561.42-1.561,1.08C465.453,220.575,466.053,221.01,466.983,221.01Z" />
    <path
       id="path170"
       d="M472.488,214.561h1.7v1.229a2.722,2.722,0,0,1,2.384-1.349,2.528,2.528,0,0,1,2.594,2.684v4.95h-1.694v-4.469a1.619,1.619,0,0,0-1.65-1.8,1.923,1.923,0,0,0-1.634.9v5.37h-1.7Z" />
    <path
       id="path172"
       d="M481.338,220.066a4.326,4.326,0,0,0,2.415.854c.9,0,1.515-.4,1.515-1,0-.465-.315-.72-1.036-.854l-1.334-.226c-1.455-.269-2.175-.944-2.175-2.069,0-1.41,1.155-2.325,2.91-2.325a5.288,5.288,0,0,1,2.955.9l-.8,1.109a4.106,4.106,0,0,0-2.266-.719c-.779,0-1.289.33-1.289.884,0,.481.27.691,1.065.826l1.32.24c1.5.285,2.22.974,2.22,2.1,0,1.38-1.32,2.446-3.06,2.446a5.044,5.044,0,0,1-3.24-1.021Z" />
    <path
       id="path174"
       d="M488.4,214.561h1.665v1.08a2.831,2.831,0,0,1,2.34-1.14,3.605,3.605,0,0,1,3.405,3.824,3.642,3.642,0,0,1-3.525,3.826,2.8,2.8,0,0,1-2.189-.976v4.08h-1.7Zm1.7,2.2V219.9a2.305,2.305,0,0,0,1.8.825,2.406,2.406,0,0,0,0-4.8A2.2,2.2,0,0,0,490.1,216.766Z" />
    <path
       id="path176"
       d="M501.047,214.441a3.894,3.894,0,1,1-3.779,3.884A3.751,3.751,0,0,1,501.047,214.441Zm2.1,3.9a2.124,2.124,0,1,0-4.2,0,2.12,2.12,0,1,0,4.2,0Z" />
    <path
       id="path178"
       d="M506.582,214.561h1.695V216.2a2.228,2.228,0,0,1,2.071-1.769,2.028,2.028,0,0,1,.734.149v1.486a2.39,2.39,0,0,0-.93-.18,2.063,2.063,0,0,0-1.875,1.244v4.95h-1.695Z" />
    <path
       id="path180"
       d="M513.5,215.91h-1.515v-1.349H513.5V212.49l1.694-.359v2.43h2.1v1.349h-2.1v3.811c0,.734.286,1.019,1.051,1.019a3.136,3.136,0,0,0,1.02-.179v1.425a5.375,5.375,0,0,1-1.455.209c-1.515,0-2.31-.719-2.31-2.1Z" />
  </g>
  <g
     id="g198">
    <path
       id="path184"
       d="M456.139,256.616l5.474,7.621-.03-7.621h1.695v10.5h-1.6l-5.625-7.83.029,7.83h-1.695v-10.5Z" />
    <path
       id="path186"
       d="M469.068,267.267a3.82,3.82,0,0,1-3.825-3.9,3.7,3.7,0,0,1,3.659-3.884,3.607,3.607,0,0,1,3.556,3.87v.42h-5.55a2.294,2.294,0,0,0,2.25,2.054,2.441,2.441,0,0,0,1.785-.705l1.11,1.035A4.347,4.347,0,0,1,469.068,267.267Zm-2.13-4.53h3.916a2.058,2.058,0,0,0-1.966-1.875A2.019,2.019,0,0,0,466.938,262.737Z" />
    <path
       id="path188"
       d="M474.889,260.951h-1.516V259.6h1.516v-2.071l1.694-.359v2.43h2.1v1.349h-2.1v3.811c0,.734.285,1.019,1.05,1.019a3.1,3.1,0,0,0,1.019-.179v1.425a5.358,5.358,0,0,1-1.454.21c-1.514,0-2.309-.72-2.309-2.1Z" />
    <path
       id="path190"
       d="M481.639,267.116l-2.026-7.514h1.619l1.321,5.309L484.1,259.6h1.439l1.545,5.325,1.306-5.325h1.59l-2.025,7.514h-1.635l-1.515-5.295-1.515,5.295Z" />
    <path
       id="path192"
       d="M494.658,259.482a3.894,3.894,0,1,1-3.78,3.884A3.752,3.752,0,0,1,494.658,259.482Zm2.1,3.9a2.124,2.124,0,1,0-4.2,0,2.12,2.12,0,1,0,4.2,0Z" />
    <path
       id="path194"
       d="M500.193,259.6h1.7v1.635a2.226,2.226,0,0,1,2.069-1.77,2.033,2.033,0,0,1,.735.149V261.1a2.39,2.39,0,0,0-.93-.18,2.061,2.061,0,0,0-1.874,1.244v4.95h-1.7Z" />
    <path
       id="path196"
       d="M506.088,256.392l1.695-.285v6.7l3.119-3.21h1.936l-3.436,3.479,3.645,4.035h-2.174l-3.09-3.464v3.464h-1.695Z" />
  </g>
  <g
     id="g216">
    <path
       id="path200"
       d="M450.979,301.656h3.839a5.25,5.25,0,1,1,0,10.5h-3.839Zm1.8,1.56v7.38h2.084a3.706,3.706,0,0,0,0-7.38Z" />
    <path
       id="path202"
       d="M461.373,310c0-1.35,1.1-2.2,2.865-2.2a4.639,4.639,0,0,1,2.026.466v-.826c0-.99-.571-1.5-1.725-1.5a5.2,5.2,0,0,0-2.19.585l-.6-1.23a7.216,7.216,0,0,1,3.121-.765c1.949,0,3.074.99,3.074,2.73v4.905h-1.679v-.765a3.139,3.139,0,0,1-2.235.885A2.37,2.37,0,0,1,461.373,310Zm3.121,1.1a2.682,2.682,0,0,0,1.77-.615v-1.23a3.89,3.89,0,0,0-1.741-.36c-.96,0-1.559.42-1.559,1.08C462.964,310.656,463.563,311.091,464.494,311.091Z" />
    <path
       id="path204"
       d="M470.7,305.991h-1.515v-1.35H470.7v-2.07l1.7-.359v2.429h2.1v1.35h-2.1v3.81c0,.735.286,1.02,1.05,1.02a3.119,3.119,0,0,0,1.021-.18v1.425a5.343,5.343,0,0,1-1.455.21c-1.516,0-2.311-.72-2.311-2.1Z" />
    <path
       id="path206"
       d="M475.607,310c0-1.35,1.1-2.2,2.866-2.2a4.635,4.635,0,0,1,2.025.466v-.826c0-.99-.57-1.5-1.725-1.5a5.2,5.2,0,0,0-2.19.585l-.6-1.23a7.22,7.22,0,0,1,3.122-.765c1.949,0,3.074.99,3.074,2.73v4.905H480.5v-.765a3.138,3.138,0,0,1-2.234.885A2.371,2.371,0,0,1,475.607,310Zm3.122,1.1a2.681,2.681,0,0,0,1.769-.615v-1.23a3.889,3.889,0,0,0-1.74-.36c-.96,0-1.56.42-1.56,1.08C477.2,310.656,477.8,311.091,478.729,311.091Z" />
    <path
       id="path208"
       d="M487.818,301.656h1.8v8.94h5.6v1.56h-7.4Z" />
    <path
       id="path210"
       d="M496.773,302.077a1.058,1.058,0,0,1,2.116,0,1.058,1.058,0,0,1-2.116,0Zm1.9,10.079h-1.7v-7.515h1.7Z" />
    <path
       id="path212"
       d="M500.763,304.641h1.7v1.23a2.726,2.726,0,0,1,2.385-1.35,2.529,2.529,0,0,1,2.595,2.685v4.95h-1.7v-4.47a1.618,1.618,0,0,0-1.649-1.8,1.927,1.927,0,0,0-1.635.9v5.37h-1.7Z" />
    <path
       id="path214"
       d="M509.492,301.431l1.7-.285v6.7l3.12-3.21h1.934l-3.434,3.48,3.645,4.035h-2.176l-3.089-3.465v3.465h-1.7Z" />
  </g>
  <g
     id="g234">
    <path
       id="path218"
       d="M455.568,346.7h4.7a3.257,3.257,0,1,1,0,6.495h-2.895V357.2h-1.8Zm1.8,1.516v3.509h2.61a1.767,1.767,0,1,0,.014-3.509Z" />
    <path
       id="path220"
       d="M465.543,346.471l1.695-.285v4.725a2.728,2.728,0,0,1,2.385-1.35,2.53,2.53,0,0,1,2.6,2.685v4.95h-1.695v-4.47a1.619,1.619,0,0,0-1.65-1.8,1.927,1.927,0,0,0-1.635.9v5.37h-1.695Z" />
    <path
       id="path222"
       d="M476.043,357.241l-2.835-7.56h1.89l1.9,5.58,2.1-5.58h1.843l-3.569,8.744a2.539,2.539,0,0,1-2.67,1.981,3.532,3.532,0,0,1-.854-.106v-1.454a6.126,6.126,0,0,0,.66.06,1.2,1.2,0,0,0,1.215-.87Z" />
    <path
       id="path224"
       d="M482.3,355.186a4.329,4.329,0,0,0,2.415.855c.9,0,1.515-.4,1.515-1,0-.465-.316-.72-1.035-.855l-1.336-.225c-1.455-.27-2.173-.945-2.173-2.07,0-1.41,1.154-2.325,2.909-2.325a5.282,5.282,0,0,1,2.955.9l-.8,1.109a4.107,4.107,0,0,0-2.265-.72c-.78,0-1.291.33-1.291.885,0,.48.271.69,1.066.825l1.319.24c1.5.286,2.221.975,2.221,2.1,0,1.38-1.321,2.445-3.061,2.445a5.041,5.041,0,0,1-3.239-1.02Z" />
    <path
       id="path226"
       d="M489.152,347.117a1.058,1.058,0,0,1,2.116,0,1.058,1.058,0,0,1-2.116,0Zm1.907,10.079h-1.7v-7.515h1.7Z" />
    <path
       id="path228"
       d="M498.513,355.021l1.019,1.02a3.9,3.9,0,0,1-2.939,1.305,3.886,3.886,0,0,1,0-7.77,4.045,4.045,0,0,1,3,1.261l-1.049,1.094a2.483,2.483,0,0,0-1.891-.884,2.41,2.41,0,0,0,.045,4.8A2.311,2.311,0,0,0,498.513,355.021Z" />
    <path
       id="path230"
       d="M500.613,355.036c0-1.35,1.1-2.2,2.866-2.2a4.631,4.631,0,0,1,2.024.466v-.826c0-.99-.57-1.5-1.726-1.5a5.2,5.2,0,0,0-2.189.585l-.6-1.23a7.217,7.217,0,0,1,3.119-.765c1.951,0,3.076.99,3.076,2.73V357.2H505.5v-.765a3.137,3.137,0,0,1-2.235.885A2.369,2.369,0,0,1,500.613,355.036Zm3.119,1.095a2.683,2.683,0,0,0,1.771-.615v-1.23a3.889,3.889,0,0,0-1.74-.36c-.96,0-1.56.42-1.56,1.081C502.2,355.7,502.8,356.131,503.732,356.131Z" />
    <path
       id="path232"
       d="M510.933,357.2h-1.7V346.471l1.7-.285Z" />
  </g>
  <g
     id="g254">
    <path
       id="path236"
       d="M77.923,211.576h8.82v1.561H83.248v8.939h-1.8v-8.939H77.923Z" />
    <path
       id="path238"
       d="M87.6,214.562h1.7V216.2a2.227,2.227,0,0,1,2.07-1.769,2.033,2.033,0,0,1,.735.149v1.486a2.4,2.4,0,0,0-.931-.18,2.063,2.063,0,0,0-1.874,1.244v4.95H87.6Z" />
    <path
       id="path240"
       d="M92.863,219.916c0-1.349,1.095-2.2,2.865-2.2a4.646,4.646,0,0,1,2.025.466v-.825c0-.99-.57-1.5-1.725-1.5a5.185,5.185,0,0,0-2.19.585l-.6-1.231a7.227,7.227,0,0,1,3.12-.764c1.95,0,3.075.99,3.075,2.729v4.905h-1.68v-.764a3.141,3.141,0,0,1-2.235.884A2.369,2.369,0,0,1,92.863,219.916Zm3.12,1.095a2.679,2.679,0,0,0,1.77-.614v-1.231a3.889,3.889,0,0,0-1.74-.359c-.96,0-1.56.42-1.56,1.08C94.453,220.576,95.053,221.011,95.983,221.011Z" />
    <path
       id="path242"
       d="M101.487,214.562h1.7v1.229a2.723,2.723,0,0,1,2.384-1.349,2.529,2.529,0,0,1,2.6,2.684v4.95h-1.7v-4.469a1.618,1.618,0,0,0-1.65-1.8,1.924,1.924,0,0,0-1.634.9v5.37h-1.7Z" />
    <path
       id="path244"
       d="M110.337,220.067a4.329,4.329,0,0,0,2.415.854c.9,0,1.515-.4,1.515-1,0-.465-.315-.72-1.035-.854l-1.335-.226c-1.455-.269-2.174-.944-2.174-2.069,0-1.41,1.154-2.325,2.909-2.325a5.288,5.288,0,0,1,2.955.9l-.8,1.109a4.106,4.106,0,0,0-2.265-.719c-.779,0-1.29.33-1.29.884,0,.481.27.691,1.065.826l1.32.24c1.5.285,2.22.974,2.22,2.1,0,1.38-1.32,2.446-3.06,2.446a5.044,5.044,0,0,1-3.24-1.021Z" />
    <path
       id="path246"
       d="M117.4,214.562h1.665v1.08a2.831,2.831,0,0,1,2.34-1.14,3.605,3.605,0,0,1,3.405,3.824,3.643,3.643,0,0,1-3.525,3.826,2.807,2.807,0,0,1-2.19-.976v4.08H117.4Zm1.695,2.2V219.9a2.307,2.307,0,0,0,1.8.825,2.406,2.406,0,0,0,0-4.8A2.2,2.2,0,0,0,119.1,216.767Z" />
    <path
       id="path248"
       d="M130.047,214.442a3.894,3.894,0,1,1-3.78,3.884A3.751,3.751,0,0,1,130.047,214.442Zm2.1,3.9a2.124,2.124,0,1,0-4.2,0,2.12,2.12,0,1,0,4.2,0Z" />
    <path
       id="path250"
       d="M135.582,214.562h1.695V216.2a2.227,2.227,0,0,1,2.07-1.769,2.033,2.033,0,0,1,.735.149v1.486a2.4,2.4,0,0,0-.931-.18,2.062,2.062,0,0,0-1.874,1.244v4.95h-1.695Z" />
    <path
       id="path252"
       d="M142.5,215.911h-1.516v-1.349H142.5v-2.071l1.694-.359v2.43h2.1v1.349h-2.1v3.811c0,.734.286,1.019,1.05,1.019a3.131,3.131,0,0,0,1.02-.179v1.425a5.368,5.368,0,0,1-1.454.209c-1.515,0-2.31-.719-2.31-2.1Z" />
  </g>
  <g
     id="g270">
    <path
       id="path256"
       d="M85.138,256.616l5.475,7.621-.03-7.621h1.7v10.5H90.673l-5.625-7.83.03,7.83h-1.7v-10.5Z" />
    <path
       id="path258"
       d="M98.067,267.267a3.819,3.819,0,0,1-3.824-3.9,3.7,3.7,0,0,1,3.659-3.884,3.607,3.607,0,0,1,3.556,3.87v.42h-5.55a2.293,2.293,0,0,0,2.249,2.054,2.441,2.441,0,0,0,1.785-.705l1.11,1.035A4.347,4.347,0,0,1,98.067,267.267Zm-2.129-4.53h3.915a2.057,2.057,0,0,0-1.966-1.875A2.017,2.017,0,0,0,95.938,262.737Z" />
    <path
       id="path260"
       d="M103.888,260.951h-1.515V259.6h1.515v-2.071l1.695-.359v2.43h2.1v1.349h-2.1v3.811c0,.734.285,1.019,1.049,1.019a3.1,3.1,0,0,0,1.02-.179v1.425a5.369,5.369,0,0,1-1.454.21c-1.515,0-2.31-.72-2.31-2.1Z" />
    <path
       id="path262"
       d="M110.638,267.116l-2.025-7.514h1.619l1.32,5.309L113.1,259.6h1.44l1.545,5.325,1.305-5.325h1.59l-2.025,7.514h-1.635l-1.515-5.295-1.514,5.295Z" />
    <path
       id="path264"
       d="M123.657,259.482a3.894,3.894,0,1,1-3.78,3.884A3.751,3.751,0,0,1,123.657,259.482Zm2.1,3.9a2.124,2.124,0,1,0-4.2,0,2.12,2.12,0,1,0,4.2,0Z" />
    <path
       id="path266"
       d="M129.192,259.6h1.7v1.635a2.226,2.226,0,0,1,2.07-1.77,2.024,2.024,0,0,1,.734.149V261.1a2.39,2.39,0,0,0-.93-.18,2.062,2.062,0,0,0-1.874,1.244v4.95h-1.7Z" />
    <path
       id="path268"
       d="M135.087,256.392l1.7-.285v6.7l3.12-3.21h1.935l-3.435,3.479,3.645,4.035h-2.175l-3.09-3.464v3.464h-1.7Z" />
  </g>
  <g
     id="g304">
    <path
       id="path272"
       d="M85.138,315.777l5.475,7.62-.03-7.62h1.7v10.5H90.673l-5.625-7.831.03,7.831h-1.7v-10.5Z" />
    <path
       id="path274"
       d="M98.067,326.427a3.819,3.819,0,0,1-3.824-3.9,3.7,3.7,0,0,1,3.659-3.885,3.607,3.607,0,0,1,3.556,3.87v.42h-5.55a2.294,2.294,0,0,0,2.249,2.055,2.438,2.438,0,0,0,1.785-.706l1.11,1.036A4.351,4.351,0,0,1,98.067,326.427Zm-2.129-4.53h3.915a2.057,2.057,0,0,0-1.966-1.875A2.017,2.017,0,0,0,95.938,321.9Z" />
    <path
       id="path276"
       d="M103.888,320.112h-1.515v-1.35h1.515v-2.07l1.695-.36v2.43h2.1v1.35h-2.1v3.81c0,.734.285,1.02,1.049,1.02a3.1,3.1,0,0,0,1.02-.18v1.425a5.369,5.369,0,0,1-1.454.21c-1.515,0-2.31-.72-2.31-2.1Z" />
    <path
       id="path278"
       d="M110.638,326.277l-2.025-7.515h1.619l1.32,5.309,1.545-5.309h1.44l1.545,5.325,1.305-5.325h1.59l-2.025,7.515h-1.635l-1.515-5.295-1.514,5.295Z" />
    <path
       id="path280"
       d="M123.657,318.642a3.894,3.894,0,1,1-3.78,3.885A3.752,3.752,0,0,1,123.657,318.642Zm2.1,3.9a2.124,2.124,0,1,0-4.2,0,2.12,2.12,0,1,0,4.2,0Z" />
    <path
       id="path282"
       d="M129.192,318.762h1.7V320.4a2.226,2.226,0,0,1,2.07-1.77,2,2,0,0,1,.734.15v1.485a2.39,2.39,0,0,0-.93-.18,2.062,2.062,0,0,0-1.874,1.244v4.951h-1.7Z" />
    <path
       id="path284"
       d="M135.087,315.552l1.7-.285v6.7l3.12-3.21h1.935l-3.435,3.479,3.645,4.036h-2.175l-3.09-3.465v3.465h-1.7Z" />
    <path
       id="path286"
       d="M81.351,333.777h1.8v10.5h-1.8Z" />
    <path
       id="path288"
       d="M85.385,336.762h1.7v1.229a2.726,2.726,0,0,1,2.384-1.349,2.529,2.529,0,0,1,2.595,2.684v4.951h-1.7v-4.47a1.618,1.618,0,0,0-1.65-1.8,1.924,1.924,0,0,0-1.634.9v5.371h-1.7Z" />
    <path
       id="path290"
       d="M94.82,338.112H93.305v-1.35H94.82v-2.07l1.7-.36v2.43h2.1v1.35h-2.1v3.81c0,.734.285,1.02,1.05,1.02a3.113,3.113,0,0,0,1.02-.18v1.425a5.371,5.371,0,0,1-1.455.21c-1.515,0-2.31-.72-2.31-2.1Z" />
    <path
       id="path292"
       d="M103.475,344.427a3.82,3.82,0,0,1-3.825-3.9,3.7,3.7,0,0,1,3.66-3.885,3.607,3.607,0,0,1,3.555,3.87v.42h-5.55a2.3,2.3,0,0,0,2.25,2.055,2.438,2.438,0,0,0,1.785-.706l1.11,1.036A4.351,4.351,0,0,1,103.475,344.427Zm-2.13-4.53h3.915a2.056,2.056,0,0,0-1.965-1.875A2.019,2.019,0,0,0,101.345,339.9Z" />
    <path
       id="path294"
       d="M108.59,336.762h1.7V338.4a2.226,2.226,0,0,1,2.069-1.77,2.009,2.009,0,0,1,.735.15v1.485a2.39,2.39,0,0,0-.93-.18,2.063,2.063,0,0,0-1.874,1.244v4.951h-1.7Z" />
    <path
       id="path296"
       d="M115.6,336.762v-1.335a2.307,2.307,0,0,1,2.595-2.52,4.073,4.073,0,0,1,1.124.15v1.44a3.456,3.456,0,0,0-.9-.12c-.78,0-1.125.345-1.125,1.08v1.305h2.024v1.35H117.29v6.165h-1.7v-6.165h-1.62v-1.35Z" />
    <path
       id="path298"
       d="M120.305,342.116c0-1.349,1.095-2.2,2.865-2.2a4.646,4.646,0,0,1,2.025.466v-.825c0-.99-.57-1.5-1.725-1.5a5.2,5.2,0,0,0-2.19.585l-.6-1.231a7.227,7.227,0,0,1,3.12-.764c1.95,0,3.075.99,3.075,2.729v4.906H125.2v-.765a3.142,3.142,0,0,1-2.235.885A2.37,2.37,0,0,1,120.305,342.116Zm3.12,1.1a2.679,2.679,0,0,0,1.77-.614v-1.231a3.9,3.9,0,0,0-1.74-.359c-.96,0-1.56.42-1.56,1.08C121.9,342.777,122.5,343.211,123.425,343.211Z" />
    <path
       id="path300"
       d="M134.3,342.1l1.02,1.019a3.906,3.906,0,0,1-2.94,1.306,3.887,3.887,0,0,1,0-7.771,4.049,4.049,0,0,1,3,1.261l-1.049,1.1a2.484,2.484,0,0,0-1.89-.885,2.411,2.411,0,0,0,.045,4.8A2.309,2.309,0,0,0,134.3,342.1Z" />
    <path
       id="path302"
       d="M140.03,344.427a3.82,3.82,0,0,1-3.825-3.9,3.7,3.7,0,0,1,3.66-3.885,3.606,3.606,0,0,1,3.554,3.87v.42H137.87a2.3,2.3,0,0,0,2.25,2.055,2.438,2.438,0,0,0,1.785-.706l1.11,1.036A4.351,4.351,0,0,1,140.03,344.427Zm-2.13-4.53h3.915a2.056,2.056,0,0,0-1.965-1.875A2.019,2.019,0,0,0,137.9,339.9Z" />
  </g>
  <g
     id="g322">
    <path
       id="path306"
       d="M452.764,45.129a5.416,5.416,0,1,1,5.309-5.415A5.316,5.316,0,0,1,452.764,45.129Zm.014-9.225a3.594,3.594,0,0,0-3.479,3.81,3.479,3.479,0,1,0,6.93,0A3.572,3.572,0,0,0,452.778,35.9Z" />
    <path
       id="path308"
       d="M460.174,42.1a5.25,5.25,0,0,0,3.524,1.53c1.4,0,2.356-.7,2.356-1.665,0-.854-.511-1.245-1.906-1.5l-1.934-.33c-1.816-.33-2.7-1.23-2.7-2.67,0-1.89,1.514-3.149,3.87-3.149A7.01,7.01,0,0,1,467.6,35.68l-.915,1.349a5.448,5.448,0,0,0-3.361-1.214c-1.26,0-2.085.63-2.085,1.484,0,.75.465,1.141,1.62,1.32l1.861.33c2.114.361,3.1,1.29,3.1,2.88,0,1.92-1.71,3.285-4.215,3.285a6.615,6.615,0,0,1-4.41-1.7Z" />
    <path
       id="path310"
       d="M469.563,34.464h1.8v10.5h-1.8Z" />
    <path
       id="path312"
       d="M476.973,37.449h1.695v1.2a2.562,2.562,0,0,1,2.235-1.321,2.36,2.36,0,0,1,2.2,1.455,2.775,2.775,0,0,1,2.491-1.455,2.49,2.49,0,0,1,2.46,2.73v4.905h-1.7V40.419a1.52,1.52,0,0,0-1.514-1.724,1.787,1.787,0,0,0-1.515.884c.015.165.03.316.03.48v4.905h-1.695V40.419a1.52,1.52,0,0,0-1.515-1.724,1.745,1.745,0,0,0-1.485.854v5.415h-1.695Z" />
    <path
       id="path314"
       d="M493.548,37.329a3.894,3.894,0,1,1-3.78,3.885A3.752,3.752,0,0,1,493.548,37.329Zm2.1,3.9a2.124,2.124,0,1,0-4.2,0,2.12,2.12,0,1,0,4.2,0Z" />
    <path
       id="path316"
       d="M504.5,43.959a2.892,2.892,0,0,1-2.31,1.08,3.844,3.844,0,0,1,.105-7.649,2.863,2.863,0,0,1,2.189.989v-4.14l1.7-.285v11.01H504.5Zm-1.8-.345a2.248,2.248,0,0,0,1.785-.825V39.624a2.329,2.329,0,0,0-1.785-.809,2.406,2.406,0,0,0,0,4.8Z" />
    <path
       id="path318"
       d="M511.757,45.114a3.819,3.819,0,0,1-3.824-3.9,3.7,3.7,0,0,1,3.659-3.885,3.607,3.607,0,0,1,3.555,3.87v.42H509.6a2.294,2.294,0,0,0,2.249,2.055,2.441,2.441,0,0,0,1.785-.7L514.742,44A4.346,4.346,0,0,1,511.757,45.114Zm-2.13-4.53h3.915a2.057,2.057,0,0,0-1.965-1.875A2.019,2.019,0,0,0,509.627,40.584Z" />
    <path
       id="path320"
       d="M518.567,44.964h-1.7V34.239l1.7-.285Z" />
  </g>
  <g
     id="g364">
    <path
       id="path324"
       d="M219.053,34.464h4.695a3.257,3.257,0,1,1,0,6.5h-2.894v4h-1.8Zm1.8,1.516v3.509h2.609a1.767,1.767,0,1,0,.015-3.509Z" />
    <path
       id="path326"
       d="M229.028,37.449h1.7v1.635a2.228,2.228,0,0,1,2.07-1.769,2.008,2.008,0,0,1,.735.149v1.485a2.389,2.389,0,0,0-.93-.179,2.063,2.063,0,0,0-1.875,1.244v4.95h-1.7Z" />
    <path
       id="path328"
       d="M238,37.329a3.894,3.894,0,1,1-3.78,3.885A3.752,3.752,0,0,1,238,37.329Zm2.1,3.9a2.124,2.124,0,1,0-4.2,0,2.12,2.12,0,1,0,4.2,0Z" />
    <path
       id="path330"
       d="M244.1,38.8h-1.516v-1.35H244.1v-2.07l1.694-.359v2.429h2.1V38.8h-2.1V42.61c0,.734.285,1.019,1.05,1.019a3.113,3.113,0,0,0,1.02-.18v1.425a5.33,5.33,0,0,1-1.454.21c-1.516,0-2.31-.72-2.31-2.1Z" />
    <path
       id="path332"
       d="M252.713,37.329a3.894,3.894,0,1,1-3.779,3.885A3.752,3.752,0,0,1,252.713,37.329Zm2.1,3.9a2.124,2.124,0,1,0-4.2,0,2.12,2.12,0,1,0,4.2,0Z" />
    <path
       id="path334"
       d="M263.663,42.789l1.02,1.02a3.909,3.909,0,0,1-2.94,1.3,3.886,3.886,0,0,1,0-7.77,4.047,4.047,0,0,1,3,1.261l-1.05,1.094a2.483,2.483,0,0,0-1.89-.884,2.41,2.41,0,0,0,.045,4.8A2.309,2.309,0,0,0,263.663,42.789Z" />
    <path
       id="path336"
       d="M269.348,37.329a3.894,3.894,0,1,1-3.78,3.885A3.752,3.752,0,0,1,269.348,37.329Zm2.1,3.9a2.124,2.124,0,1,0-4.2,0,2.12,2.12,0,1,0,4.2,0Z" />
    <path
       id="path338"
       d="M276.578,44.964h-1.695V34.239l1.695-.285Z" />
    <path
       id="path340"
       d="M278.783,42.954a4.323,4.323,0,0,0,2.415.855c.9,0,1.514-.4,1.514-1,0-.465-.315-.72-1.034-.855l-1.335-.225c-1.455-.27-2.175-.945-2.175-2.07,0-1.41,1.155-2.325,2.91-2.325a5.284,5.284,0,0,1,2.955.9l-.8,1.109a4.107,4.107,0,0,0-2.265-.72c-.78,0-1.29.33-1.29.885,0,.481.27.691,1.065.825l1.319.241c1.5.285,2.221.974,2.221,2.1,0,1.38-1.32,2.445-3.06,2.445a5.042,5.042,0,0,1-3.24-1.02Z" />
    <path
       id="path342"
       d="M288.847,42.8c0-1.35,1.1-2.205,2.865-2.205a4.632,4.632,0,0,1,2.025.466v-.826c0-.99-.57-1.5-1.725-1.5a5.2,5.2,0,0,0-2.19.585l-.6-1.23a7.229,7.229,0,0,1,3.12-.765c1.95,0,3.075.991,3.075,2.73v4.905h-1.68V44.2a3.137,3.137,0,0,1-2.235.885A2.369,2.369,0,0,1,288.847,42.8Zm3.12,1.095a2.68,2.68,0,0,0,1.77-.615v-1.23A3.889,3.889,0,0,0,292,41.7c-.96,0-1.559.419-1.559,1.08C290.438,43.464,291.037,43.9,291.967,43.9Z" />
    <path
       id="path344"
       d="M297.472,37.449h1.695v1.23a2.727,2.727,0,0,1,2.385-1.35,2.529,2.529,0,0,1,2.594,2.685v4.95h-1.694v-4.47a1.618,1.618,0,0,0-1.65-1.8,1.926,1.926,0,0,0-1.635.9v5.37h-1.695Z" />
    <path
       id="path346"
       d="M311.572,43.959a2.892,2.892,0,0,1-2.31,1.08,3.844,3.844,0,0,1,.105-7.649,2.867,2.867,0,0,1,2.19.989v-4.14l1.695-.285v11.01h-1.68Zm-1.8-.345a2.251,2.251,0,0,0,1.786-.825V39.624a2.331,2.331,0,0,0-1.786-.809,2.406,2.406,0,0,0,0,4.8Z" />
    <path
       id="path348"
       d="M319.012,42.1a5.25,5.25,0,0,0,3.524,1.53c1.4,0,2.356-.7,2.356-1.665,0-.854-.511-1.245-1.906-1.5l-1.934-.33c-1.816-.33-2.7-1.23-2.7-2.67,0-1.89,1.514-3.149,3.87-3.149a7.01,7.01,0,0,1,4.215,1.365l-.916,1.349a5.444,5.444,0,0,0-3.36-1.214c-1.26,0-2.085.63-2.085,1.484,0,.75.465,1.141,1.62,1.32l1.861.33c2.114.361,3.1,1.29,3.1,2.88,0,1.92-1.71,3.285-4.215,3.285a6.615,6.615,0,0,1-4.41-1.7Z" />
    <path
       id="path350"
       d="M331.911,45.114a3.82,3.82,0,0,1-3.824-3.9,3.7,3.7,0,0,1,3.659-3.885A3.607,3.607,0,0,1,335.3,41.2v.42h-5.55A2.294,2.294,0,0,0,332,43.674a2.441,2.441,0,0,0,1.785-.7L334.9,44A4.346,4.346,0,0,1,331.911,45.114Zm-2.13-4.53H333.7a2.057,2.057,0,0,0-1.965-1.875A2.021,2.021,0,0,0,329.781,40.584Z" />
    <path
       id="path352"
       d="M337.026,37.449h1.7v1.635a2.227,2.227,0,0,1,2.069-1.769,2.008,2.008,0,0,1,.735.149v1.485a2.388,2.388,0,0,0-.929-.179,2.062,2.062,0,0,0-1.875,1.244v4.95h-1.7Z" />
    <path
       id="path354"
       d="M342.262,37.449h1.844l2.085,5.49,2.085-5.49h1.786l-3.09,7.515h-1.635Z" />
    <path
       id="path356"
       d="M351.066,34.885a1.058,1.058,0,0,1,2.116,0,1.058,1.058,0,0,1-2.116,0Zm1.906,10.079h-1.7V37.449h1.7Z" />
    <path
       id="path358"
       d="M360.426,42.789l1.019,1.02a3.908,3.908,0,0,1-2.939,1.3,3.886,3.886,0,0,1,0-7.77,4.047,4.047,0,0,1,3,1.261l-1.05,1.094a2.485,2.485,0,0,0-1.891-.884,2.411,2.411,0,0,0,.045,4.8A2.31,2.31,0,0,0,360.426,42.789Z" />
    <path
       id="path360"
       d="M366.156,45.114a3.82,3.82,0,0,1-3.825-3.9,3.7,3.7,0,0,1,3.66-3.885,3.607,3.607,0,0,1,3.555,3.87v.42H364a2.3,2.3,0,0,0,2.25,2.055,2.439,2.439,0,0,0,1.784-.7L369.141,44A4.346,4.346,0,0,1,366.156,45.114Zm-2.131-4.53h3.915a2.056,2.056,0,0,0-1.964-1.875A2.021,2.021,0,0,0,364.025,40.584Z" />
    <path
       id="path362"
       d="M371.466,42.954a4.321,4.321,0,0,0,2.415.855c.9,0,1.515-.4,1.515-1,0-.465-.315-.72-1.036-.855l-1.335-.225c-1.454-.27-2.174-.945-2.174-2.07,0-1.41,1.155-2.325,2.91-2.325a5.282,5.282,0,0,1,2.955.9l-.8,1.109a4.107,4.107,0,0,0-2.265-.72c-.78,0-1.29.33-1.29.885,0,.481.27.691,1.065.825l1.32.241c1.5.285,2.22.974,2.22,2.1,0,1.38-1.321,2.445-3.06,2.445a5.04,5.04,0,0,1-3.24-1.02Z" />
  </g>
  <g
     id="g426">
    <path
       id="path366"
       d="M231.316,112.878h1.155v4.695h6.03v-4.695h1.155v10.5H238.5v-4.77h-6.03v4.77h-1.155Z" />
    <path
       id="path368"
       d="M241.381,112.878h8.4v1.02h-3.615v9.48h-1.155V113.9h-3.63Z" />
    <path
       id="path370"
       d="M250.786,112.878h8.4v1.02H255.57v9.48h-1.154V113.9h-3.63Z" />
    <path
       id="path372"
       d="M260.956,112.878h4.335a3.114,3.114,0,1,1,0,6.21H262.11v4.29h-1.154Zm1.154,1.02v4.2h3.045a2.11,2.11,0,1,0,0-4.2Z" />
    <path
       id="path374"
       d="M270.076,122.267l-1.216,3.465h-.855l.9-3.465Z" />
    <path
       id="path376"
       d="M275.73,112.878h7.17v1h-6.015v3.765H281v1.005h-4.11v4.725H275.73Z" />
    <path
       id="path378"
       d="M283.965,112.878h8.4v1.02H288.75v9.48H287.6V113.9h-3.63Z" />
    <path
       id="path380"
       d="M293.37,112.878h8.4v1.02h-3.616v9.48H297V113.9h-3.63Z" />
    <path
       id="path382"
       d="M303.539,112.878h4.335a3.114,3.114,0,1,1,0,6.21h-3.18v4.29h-1.155Zm1.155,1.02v4.2h3.045a2.11,2.11,0,1,0,0-4.2Z" />
    <path
       id="path384"
       d="M312.659,122.267l-1.215,3.465h-.855l.9-3.465Z" />
    <path
       id="path386"
       d="M317.4,112.878h8.4v1.02h-3.615v9.48h-1.156V113.9H317.4Z" />
    <path
       id="path388"
       d="M329.129,123.512a3.653,3.653,0,0,1-3.63-3.8,3.562,3.562,0,0,1,3.449-3.779,3.459,3.459,0,0,1,3.361,3.69v.33h-5.746a2.667,2.667,0,0,0,2.611,2.594,3,3,0,0,0,2.01-.75l.69.736A4.276,4.276,0,0,1,329.129,123.512Zm-2.535-4.335h4.635a2.418,2.418,0,0,0-2.295-2.294A2.445,2.445,0,0,0,326.594,119.177Z" />
    <path
       id="path390"
       d="M335.278,123.378h-1.094V112.653l1.094-.225Z" />
    <path
       id="path392"
       d="M337.528,116.058h1.095v1.185a2.639,2.639,0,0,1,2.325-1.3,2.548,2.548,0,0,1,2.656,2.7v4.741h-1.1v-4.425a1.9,1.9,0,0,0-1.965-2.1,2.159,2.159,0,0,0-1.92,1.125v5.4h-1.095Z" />
    <path
       id="path394"
       d="M349.108,123.512a3.653,3.653,0,0,1-3.629-3.8,3.562,3.562,0,0,1,3.45-3.779,3.457,3.457,0,0,1,3.359,3.69v.33h-5.744a2.666,2.666,0,0,0,2.609,2.594,2.991,2.991,0,0,0,2.01-.75l.691.736A4.275,4.275,0,0,1,349.108,123.512Zm-2.535-4.335h4.635a2.417,2.417,0,0,0-2.3-2.294A2.445,2.445,0,0,0,346.573,119.177Z" />
    <path
       id="path396"
       d="M354.809,116.958h-1.516v-.9h1.516v-2.01l1.094-.255v2.265H358v.9h-2.1v4.485c0,.779.3,1.095,1.066,1.095a2.605,2.605,0,0,0,1.034-.2v.976a4.1,4.1,0,0,1-1.274.194c-1.26,0-1.92-.614-1.92-1.785Z" />
    <path
       id="path398"
       d="M360.958,122.267l-1.215,3.465h-.854l.9-3.465Z" />
    <path
       id="path400"
       d="M240.51,130.878l6.15,8.7-.03-8.7h1.095v10.5h-1.05l-6.3-8.895.03,8.895h-1.094v-10.5Z" />
    <path
       id="path402"
       d="M249.48,130.878h8.4v1.02h-3.615v9.48H253.11V131.9h-3.63Z" />
    <path
       id="path404"
       d="M259.65,130.878h4.335a3.114,3.114,0,1,1,0,6.21h-3.18v4.29H259.65Zm1.155,1.02v4.2h3.045a2.11,2.11,0,1,0,0-4.2Z" />
    <path
       id="path406"
       d="M268.771,140.267l-1.216,3.465H266.7l.9-3.465Z" />
    <path
       id="path408"
       d="M274.425,130.878h3.48a5.25,5.25,0,0,1,0,10.5h-3.48Zm1.155,1.035v8.429h2.4a4.22,4.22,0,0,0,0-8.429Z" />
    <path
       id="path410"
       d="M285.33,130.878h1.155v4.7h6.03v-4.7h1.154v10.5h-1.154v-4.77h-6.03v4.77H285.33Z" />
    <path
       id="path412"
       d="M304.334,139.052l.75.766a5.4,5.4,0,1,1,.03-7.38l-.765.8a4.284,4.284,0,1,0-3.164,7.26A4.114,4.114,0,0,0,304.334,139.052Z" />
    <path
       id="path414"
       d="M307.2,130.878h4.335a3.114,3.114,0,1,1,0,6.21h-3.18v4.29H307.2Zm1.155,1.02v4.2H311.4a2.111,2.111,0,1,0,0-4.2Z" />
    <path
       id="path416"
       d="M316.319,140.267l-1.215,3.465h-.855l.9-3.465Z" />
    <path
       id="path418"
       d="M321.974,130.878h4.335a3.114,3.114,0,1,1,0,6.21h-3.18v4.29h-1.155Zm1.155,1.02v4.2h3.045a2.11,2.11,0,1,0,0-4.2Z" />
    <path
       id="path420"
       d="M331.754,130.878h1.155v10.5h-1.155Z" />
    <path
       id="path422"
       d="M336.764,130.878l6.15,8.7-.03-8.7h1.095v10.5h-1.05l-6.3-8.895.03,8.895h-1.1v-10.5Z" />
    <path
       id="path424"
       d="M351.479,141.543a5.416,5.416,0,0,1-.015-10.83,5.393,5.393,0,0,1,4.1,1.725l-.78.78a4.355,4.355,0,0,0-3.315-1.455,4.379,4.379,0,0,0,0,8.745,3.821,3.821,0,0,0,3.84-3.6h-3.539v-1.021h4.709v.466A5.012,5.012,0,0,1,351.479,141.543Z" />
  </g>
  <g
     id="g442">
    <path
       id="path428"
       d="M265.215,211.576h8.4v1.02H270v9.48h-1.155V212.6h-3.63Z" />
    <path
       id="path430"
       d="M282.764,219.751l.75.765a5.4,5.4,0,1,1,.03-7.38l-.765.8a4.284,4.284,0,1,0-3.164,7.26A4.111,4.111,0,0,0,282.764,219.751Z" />
    <path
       id="path432"
       d="M285.63,211.576h4.335a3.114,3.114,0,1,1,0,6.21h-3.18v4.29H285.63Zm1.155,1.02v4.2h3.045a2.111,2.111,0,1,0,0-4.2Z" />
    <path
       id="path434"
       d="M294.75,220.966l-1.215,3.464h-.855l.9-3.464Z" />
    <path
       id="path436"
       d="M304.409,222.241c-2.595,0-4.215-1.77-4.215-4.605v-6.06h1.156v6.06c0,2.16,1.2,3.555,3.059,3.555s3.061-1.4,3.061-3.555v-6.06h1.154v6.06C308.624,220.456,306.989,222.241,304.409,222.241Z" />
    <path
       id="path438"
       d="M311.084,211.576h3.48a5.25,5.25,0,0,1,0,10.5h-3.48Zm1.155,1.035v8.43h2.4a4.221,4.221,0,0,0,0-8.43Z" />
    <path
       id="path440"
       d="M322,211.576h4.335a3.114,3.114,0,1,1,0,6.21h-3.18v4.29H322Zm1.155,1.02v4.2H326.2a2.111,2.111,0,1,0,0-4.2Z" />
  </g>
  <g
     id="g476">
    <path
       id="path444"
       d="M232.051,256.616h1.155v10.5h-1.155Z" />
    <path
       id="path446"
       d="M235.86,256.616H240.2a3.114,3.114,0,1,1,0,6.21h-3.18v4.29H235.86Zm1.155,1.021v4.2h3.045a2.11,2.11,0,1,0,0-4.2Z" />
    <path
       id="path448"
       d="M244.98,266.006l-1.215,3.465h-.855l.9-3.465Z" />
    <path
       id="path450"
       d="M253.59,256.616h1.38l4.095,10.5H257.82l-1.245-3.3H251.9l-1.245,3.3h-1.215Zm2.64,6.286-2-5.25-1.98,5.25Z" />
    <path
       id="path452"
       d="M260.535,256.616h4.3a3.022,3.022,0,0,1,3.345,3.031,2.858,2.858,0,0,1-2.19,2.835l2.235,4.634h-1.275l-2.13-4.484H261.69v4.484h-1.155Zm1.155,1.021v4.035h3.06a2.033,2.033,0,1,0,0-4.035Z" />
    <path
       id="path454"
       d="M270.24,256.616h4.335a3.114,3.114,0,1,1,0,6.21H271.4v4.29H270.24Zm1.155,1.021v4.2h3.044a2.111,2.111,0,1,0,0-4.2Z" />
    <path
       id="path456"
       d="M279.36,266.006l-1.215,3.465h-.855l.9-3.465Z" />
    <path
       id="path458"
       d="M284.984,256.616h1.155v10.5h-1.155Z" />
    <path
       id="path460"
       d="M296.819,264.791l.75.766a5.4,5.4,0,1,1,.03-7.38l-.765.795a4.284,4.284,0,1,0-3.165,7.26A4.115,4.115,0,0,0,296.819,264.791Z" />
    <path
       id="path462"
       d="M300.764,257.951v9.165h-1.08v-10.5h1.6l3.51,7.47,3.51-7.47h1.6v10.5h-1.1v-9.134l-4.019,8.384Z" />
    <path
       id="path464"
       d="M312.6,256.616h4.335a3.114,3.114,0,1,1,0,6.21h-3.18v4.29H312.6Zm1.155,1.021v4.2H316.8a2.11,2.11,0,1,0,0-4.2Z" />
    <path
       id="path466"
       d="M321.719,266.006l-1.215,3.465h-.856l.9-3.465Z" />
    <path
       id="path468"
       d="M327.344,256.616H328.5v10.5h-1.154Z" />
    <path
       id="path470"
       d="M335.983,267.281a5.416,5.416,0,0,1-.014-10.83,5.387,5.387,0,0,1,4.094,1.726l-.78.78a4.352,4.352,0,0,0-3.314-1.455,4.378,4.378,0,0,0,0,8.744,3.821,3.821,0,0,0,3.84-3.6h-3.54v-1.021h4.71v.466A5.012,5.012,0,0,1,335.983,267.281Z" />
    <path
       id="path472"
       d="M344.219,257.951v9.165h-1.08v-10.5h1.6l3.511,7.47,3.51-7.47h1.6v10.5h-1.095v-9.134l-4.019,8.384Z" />
    <path
       id="path474"
       d="M356.054,256.616h4.335a3.114,3.114,0,1,1,0,6.21h-3.18v4.29h-1.155Zm1.155,1.021v4.2h3.045a2.11,2.11,0,1,0,0-4.2Z" />
  </g>
  <g
     id="g494">
    <path
       id="path478"
       d="M269.61,324.176h7.17v1.006h-6.015v3.69h4.17v1h-4.17v3.8h6.075v1h-7.23Z" />
    <path
       id="path480"
       d="M279.331,328.257h-1.516v-.9h1.516v-2.011l1.094-.255v2.266h2.1v.9h-2.1v4.485c0,.779.3,1.095,1.065,1.095a2.613,2.613,0,0,0,1.035-.2v.976a4.11,4.11,0,0,1-1.275.194c-1.26,0-1.919-.614-1.919-1.785Z" />
    <path
       id="path482"
       d="M284.13,323.952l1.1-.225v4.815a2.638,2.638,0,0,1,2.325-1.3,2.547,2.547,0,0,1,2.655,2.7v4.74H289.11v-4.424a1.9,1.9,0,0,0-1.965-2.1,2.158,2.158,0,0,0-1.92,1.125v5.4h-1.1Z" />
    <path
       id="path484"
       d="M295.709,334.811a3.653,3.653,0,0,1-3.629-3.795,3.562,3.562,0,0,1,3.449-3.779,3.458,3.458,0,0,1,3.36,3.689v.331h-5.744a2.666,2.666,0,0,0,2.609,2.594,2.992,2.992,0,0,0,2.011-.75l.689.736A4.273,4.273,0,0,1,295.709,334.811Zm-2.534-4.335h4.635a2.419,2.419,0,0,0-2.3-2.3A2.445,2.445,0,0,0,293.175,330.476Z" />
    <path
       id="path486"
       d="M300.765,327.357h1.094v1.484a2.189,2.189,0,0,1,2.04-1.62,2.078,2.078,0,0,1,.69.106v.99a2.732,2.732,0,0,0-.765-.136,2.086,2.086,0,0,0-1.965,1.486v5.009h-1.094Z" />
    <path
       id="path488"
       d="M306.044,327.357h1.1v1.185a2.638,2.638,0,0,1,2.325-1.3,2.547,2.547,0,0,1,2.655,2.7v4.74h-1.1v-4.424a1.9,1.9,0,0,0-1.965-2.1,2.158,2.158,0,0,0-1.92,1.125v5.4h-1.1Z" />
    <path
       id="path490"
       d="M317.624,334.811a3.653,3.653,0,0,1-3.63-3.795,3.562,3.562,0,0,1,3.449-3.779,3.459,3.459,0,0,1,3.361,3.689v.331h-5.745a2.666,2.666,0,0,0,2.61,2.594,2.991,2.991,0,0,0,2.01-.75l.69.736A4.274,4.274,0,0,1,317.624,334.811Zm-2.535-4.335h4.635a2.418,2.418,0,0,0-2.3-2.3A2.445,2.445,0,0,0,315.089,330.476Z" />
    <path
       id="path492"
       d="M323.324,328.257h-1.515v-.9h1.515v-2.011l1.095-.255v2.266h2.1v.9h-2.1v4.485c0,.779.3,1.095,1.064,1.095a2.621,2.621,0,0,0,1.036-.2v.976a4.115,4.115,0,0,1-1.275.194c-1.261,0-1.92-.614-1.92-1.785Z" />
  </g>
</svg>
