<?xml version="1.0" encoding="utf-8"?>
<!-- Generator: Adobe Illustrator 21.0.0, SVG Export Plug-In . SVG Version: 6.00 Build 0)  -->
<svg version="1.1" id="Layer_1" xmlns="http://www.w3.org/2000/svg" xmlns:xlink="http://www.w3.org/1999/xlink" x="0px" y="0px"
	 width="3101px" height="2174.1px" viewBox="0 0 3101 2174.1" style="enable-background:new 0 0 3101 2174.1;" xml:space="preserve"
	>
<style type="text/css">
	.st0{fill:#8AD4E9;}
	.st1{fill:none;}
	.st2{fill:#FFFFFF;}
	.st3{fill:#525252;}
	.st4{fill:#0088CE;}
	.st5{fill:#3F9C35;}
	.st6{fill:none;stroke:#0088CE;stroke-width:5;stroke-miterlimit:10;}
	.st7{fill:none;stroke:#3F9C35;stroke-width:5;stroke-miterlimit:10;}
</style>
<circle class="st0" cx="1527.1" cy="378.5" r="231.5"/>
<circle class="st0" cx="369.5" cy="705.8" r="231.5"/>
<g>
	<rect x="1357.1" y="437.1" class="st1" width="340" height="64.2"/>
	<path class="st2" d="M1388.4,477.9h-11.7v-39.2h12.3c11.2,0,19.5,5.3,19.5,19.6C1408.5,472.1,1398.5,477.9,1388.4,477.9z
		 M1388.7,446.3h-4.1v24h3.9c8.2,0,12-4.8,12-12C1400.4,450.3,1397,446.3,1388.7,446.3z"/>
	<path class="st2" d="M1441.1,477.9l-14.4-21.4c-1-1.5-2.2-3.4-2.7-4.4c0,1.5,0.1,6.4,0.1,8.6v17.2h-7.7v-39.2h7.5l13.9,20.7
		c1,1.5,2.2,3.4,2.7,4.4c0-1.5-0.1-6.4-0.1-8.6v-16.6h7.7v39.2L1441.1,477.9L1441.1,477.9z"/>
	<path class="st2" d="M1471.5,478.5c-6.6,0-12.3-2.7-15.2-7.1l5.7-5c2.7,3.2,6.3,4.5,10,4.5c4.6,0,6.8-1.3,6.8-4.3
		c0-2.5-1.3-3.6-8.7-5.3c-7.2-1.7-12.3-4-12.3-11.7c0-7.1,6.3-11.5,14-11.5c6.1,0,10.6,2.3,14.3,6.2l-5.7,5.5c-2.5-2.6-5.3-4-8.9-4
		c-4.2,0-5.6,1.8-5.6,3.5c0,2.5,1.7,3.2,7.9,4.7c6.2,1.5,13.1,3.6,13.1,12.1C1486.9,473.5,1482.2,478.5,1471.5,478.5z"/>
	<path class="st2" d="M1524.7,478.5c-6.6,0-12.3-2.7-15.2-7.1l5.7-5c2.7,3.2,6.3,4.5,10,4.5c4.6,0,6.8-1.3,6.8-4.3
		c0-2.5-1.3-3.6-8.7-5.3c-7.2-1.7-12.3-4-12.3-11.7c0-7.1,6.3-11.5,14-11.5c6.1,0,10.6,2.3,14.3,6.2l-5.7,5.5c-2.5-2.6-5.3-4-8.9-4
		c-4.2,0-5.6,1.8-5.6,3.5c0,2.5,1.7,3.2,7.9,4.7c6.2,1.5,13.1,3.6,13.1,12.1C1540.1,473.5,1535.4,478.5,1524.7,478.5z"/>
	<path class="st2" d="M1570.4,465.7h-17.6c0.3,4,3.2,5.5,6,5.5c2.1,0,3.9-0.8,5-2.1l5.5,4.6c-2.4,3-6.6,4.8-10.5,4.8
		c-8.5,0-13.8-6-13.8-15.3c0-9,5.7-15.3,13.1-15.3c7.8,0,12.4,6.9,12.4,15.3C1570.5,464.4,1570.5,465.1,1570.4,465.7z M1557.8,454.6
		c-2.8,0-4.5,2.3-4.8,5.3h10.1C1562.8,457.2,1561.2,454.6,1557.8,454.6z"/>
	<path class="st2" d="M1593.9,457.5c-1.2-1.1-2.7-1.9-4.5-1.9c-3,0-5,1.3-5,6.4v15.9h-7.7v-29.4h7.7v2c1.3-1.4,3.3-2.6,6-2.6
		c2.5,0,4.4,1,5.4,2.1L1593.9,457.5z"/>
	<path class="st2" d="M1617.4,477.9h-8l-10.6-29.4h8.5l4.3,13.6c0.7,2.2,1.5,5,1.8,6.4c0.3-1.5,1.1-4.1,1.8-6.4l4.3-13.6h8.3
		L1617.4,477.9z"/>
	<path class="st2" d="M1656,465.7h-17.6c0.3,4,3.2,5.5,6,5.5c2.1,0,3.9-0.8,5-2.1l5.5,4.6c-2.4,3-6.6,4.8-10.5,4.8
		c-8.5,0-13.8-6-13.8-15.3c0-9,5.7-15.3,13.1-15.3c7.8,0,12.4,6.9,12.4,15.3C1656.2,464.4,1656.1,465.1,1656,465.7z M1643.4,454.6
		c-2.8,0-4.5,2.3-4.8,5.3h10.1C1648.4,457.2,1646.9,454.6,1643.4,454.6z"/>
	<path class="st2" d="M1679.5,457.5c-1.2-1.1-2.7-1.9-4.5-1.9c-3,0-5,1.3-5,6.4v15.9h-7.7v-29.4h7.7v2c1.3-1.4,3.3-2.6,6-2.6
		c2.5,0,4.4,1,5.4,2.1L1679.5,457.5z"/>
</g>
<g>
	<rect x="681.2" y="641.1" class="st1" width="467.8" height="64.2"/>
	<path class="st3" d="M702.8,650.4v31.5H695v-31.5h-11.3v-7.7H714v7.7H702.8z"/>
	<path class="st3" d="M725.6,682.5c-7.7,0-13.3-6.3-13.3-15.3s5.6-15.3,13.3-15.3s13.3,6.3,13.3,15.3S733.3,682.5,725.6,682.5z
		 M725.6,659.3c-3.7,0-5.4,3.4-5.4,7.9s1.7,7.8,5.4,7.8s5.5-3.8,5.5-7.8C731.1,662.8,729.3,659.3,725.6,659.3z"/>
	<path class="st3" d="M777.6,680.7c-1.3,1-3.6,1.8-6,1.8c-4.8,0-7.8-3.7-7.8-8.8v-13.9h-4.9v-7.3h4.9v-7.6l7.7-3.9v11.4h7.1v7.3
		h-7.1v11.8c0,2.8,1,3.5,2.9,3.5c1.4,0,2.5-0.6,4.4-2.2L777.6,680.7z"/>
	<path class="st3" d="M803.7,681.9V666c0-5.3-1.8-6.8-5-6.8s-5,1.6-5,6.7V682H786v-37l7.7-3.9v13.4c1.3-1.4,3.8-2.6,6.9-2.6
		c7.5,0,10.9,5.2,10.9,13.4v16.6H803.7z"/>
	<path class="st3" d="M842.5,669.7h-17.6c0.3,4,3.2,5.5,6,5.5c2.1,0,3.9-0.8,5-2.1l5.5,4.6c-2.4,3-6.6,4.8-10.5,4.8
		c-8.5,0-13.8-6-13.8-15.3c0-9,5.7-15.3,13.1-15.3c7.8,0,12.4,6.9,12.4,15.3C842.6,668.4,842.6,669.1,842.5,669.7z M829.8,658.6
		c-2.8,0-4.5,2.3-4.8,5.3h10.1C834.9,661.2,833.3,658.6,829.8,658.6z"/>
	<path class="st3" d="M869.2,650.1c-2.4,0-4.4-2-4.4-4.4s2-4.4,4.4-4.4s4.4,2,4.4,4.4C873.6,648.1,871.6,650.1,869.2,650.1z
		 M865.3,681.9v-29.4h7.7v29.4H865.3z"/>
	<path class="st3" d="M898.6,681.9V666c0-5.3-1.8-6.8-5-6.8s-5,1.6-5,6.7V682h-7.7v-29.4h7.7v2c1.3-1.4,3.8-2.6,6.9-2.6
		c7.5,0,10.9,5.2,10.9,13.4V682L898.6,681.9L898.6,681.9z"/>
	<path class="st3" d="M929.6,680.7c-1.3,1-3.6,1.8-6,1.8c-4.8,0-7.8-3.7-7.8-8.8v-13.9h-4.9v-7.3h4.9v-7.6l7.7-3.9v11.4h7.1v7.3
		h-7.1v11.8c0,2.8,1,3.5,2.9,3.5c1.4,0,2.5-0.6,4.4-2.2L929.6,680.7z"/>
	<path class="st3" d="M960.7,669.7h-17.6c0.3,4,3.2,5.5,6,5.5c2.1,0,3.9-0.8,5-2.1l5.5,4.6c-2.4,3-6.6,4.8-10.5,4.8
		c-8.5,0-13.8-6-13.8-15.3c0-9,5.7-15.3,13.1-15.3c7.8,0,12.4,6.9,12.4,15.3C960.8,668.4,960.7,669.1,960.7,669.7z M948,658.6
		c-2.8,0-4.5,2.3-4.8,5.3h10.1C953.1,661.2,951.5,658.6,948,658.6z"/>
	<path class="st3" d="M984.1,661.5c-1.2-1.1-2.7-1.9-4.5-1.9c-3,0-5,1.3-5,6.4v15.9h-7.7v-29.4h7.7v2c1.3-1.4,3.3-2.6,6-2.6
		c2.5,0,4.4,1,5.4,2.1L984.1,661.5z"/>
	<path class="st3" d="M1008.7,681.9V666c0-5.3-1.8-6.8-5-6.8s-5,1.6-5,6.7V682H991v-29.4h7.7v2c1.3-1.4,3.8-2.6,6.9-2.6
		c7.5,0,10.9,5.2,10.9,13.4V682L1008.7,681.9L1008.7,681.9z"/>
	<path class="st3" d="M1047.5,669.7h-17.6c0.3,4,3.2,5.5,6,5.5c2.1,0,3.9-0.8,5-2.1l5.5,4.6c-2.4,3-6.6,4.8-10.5,4.8
		c-8.5,0-13.8-6-13.8-15.3c0-9,5.7-15.3,13.1-15.3c7.8,0,12.4,6.9,12.4,15.3C1047.6,668.4,1047.5,669.1,1047.5,669.7z M1034.8,658.6
		c-2.8,0-4.5,2.3-4.8,5.3h10.1C1039.9,661.2,1038.3,658.6,1034.8,658.6z"/>
	<path class="st3" d="M1069.7,680.7c-1.3,1-3.6,1.8-6,1.8c-4.8,0-7.8-3.7-7.8-8.8v-13.9h-4.9v-7.3h4.9v-7.6l7.7-3.9v11.4h7.1v7.3
		h-7.1v11.8c0,2.8,1,3.5,2.9,3.5c1.4,0,2.5-0.6,4.4-2.2L1069.7,680.7z"/>
</g>
<g>
	<rect x="1551.2" y="641.1" class="st1" width="467.8" height="64.2"/>
	<path class="st3" d="M1559.2,681.9v-30h-6.9v-4.1c4-0.3,7.3-1.6,8.1-5.1h4.8v39.2H1559.2z"/>
	<path class="st3" d="M1586,681.9h-5.9c0.2-13.5,4.8-24,12.2-33.5h-20.6v-5.7h27.4v5.9C1592.4,656.1,1586.3,667.4,1586,681.9z"/>
	<path class="st3" d="M1603.8,681.9c0.4-11.5,7.3-16.6,15.1-21.2c5.3-3.1,6.7-4.9,6.7-7.6c0-3.1-2.1-5.2-7.5-5.2
		c-3.3,0-6.9,1.5-9.5,3.9l-3.8-4.5c3.5-3.3,8.5-5.3,13.4-5.3c8.1,0,13.3,3.5,13.3,10.7c0,6-3,8.6-9.9,12.7
		c-7.5,4.4-9.6,6.9-10.5,10.7h20.8v5.7h-28.1V681.9z"/>
	<path class="st3" d="M1643.6,682.5c-2.4,0-4.4-2-4.4-4.4s2-4.5,4.4-4.5s4.4,2.1,4.4,4.5C1648.1,680.5,1646,682.5,1643.6,682.5z"/>
	<path class="st3" d="M1656.2,681.9v-30h-6.9v-4.1c4-0.3,7.3-1.6,8.1-5.1h4.8v39.2H1656.2z"/>
	<path class="st3" d="M1683.1,681.9h-5.9c0.2-13.5,4.8-24,12.2-33.5h-20.6v-5.7h27.4v5.9C1689.4,656.1,1683.3,667.4,1683.1,681.9z"
		/>
	<path class="st3" d="M1700.8,682.5c-2.4,0-4.4-2-4.4-4.4s2-4.5,4.4-4.5s4.4,2.1,4.4,4.5C1705.2,680.5,1703.2,682.5,1700.8,682.5z"
		/>
	<path class="st3" d="M1724.6,682.5c-5,0-9.5-1.2-13.7-3.9l2.9-4.9c3.3,1.8,7.4,3,11,3c6.1,0,9.3-3,9.3-8c0-4.6-3.1-7-8-7
		c-3.3,0-5.5,1-7.6,2.5l-6.3-2.5l1.3-19.2h24.1v5.6h-18.8l-0.8,9.9c2.2-1.2,4.9-2,8.5-2c9,0,13.5,5.3,13.5,12.4
		C1740,678.2,1733.6,682.5,1724.6,682.5z"/>
	<path class="st3" d="M1758,682.5c-5.5,0-11.4-2.5-14.1-6.5l4.5-3.8c2.4,3,6.1,4.5,9.6,4.5c6.3,0,8.6-2.4,8.6-6.4s-3-5.9-7.1-5.9
		h-3.6v-5.7h3.6c3.6,0,5.5-2.4,5.5-5.4c0-2.2-1.6-5.4-7.4-5.4c-3.1,0-5.5,1.3-7.7,3.6l-4.4-4.1c3.3-3.4,7.3-5.3,12.2-5.3
		c7.4,0,13.4,3.8,13.4,10.6c0,4.7-2.1,7.1-4.8,8.6c3.7,1.1,6.4,4.1,6.4,9C1772.7,678.3,1767.2,682.5,1758,682.5z"/>
	<path class="st3" d="M1782.6,682.5c-2.4,0-4.4-2-4.4-4.4s2-4.5,4.4-4.5s4.4,2.1,4.4,4.5S1785,682.5,1782.6,682.5z"/>
	<path class="st3" d="M1795.2,681.9v-30h-6.9v-4.1c4-0.3,7.3-1.6,8.1-5.1h4.8v39.2H1795.2z"/>
</g>
<g>
	<rect x="1841.2" y="781.1" class="st1" width="467.8" height="64.2"/>
	<path class="st3" d="M1849.2,821.9v-30h-6.9v-4.1c4-0.3,7.3-1.6,8.1-5.1h4.8v39.2H1849.2z"/>
	<path class="st3" d="M1876,821.9h-5.9c0.2-13.5,4.8-24,12.2-33.5h-20.6v-5.7h27.4v5.9C1882.4,796.1,1876.3,807.4,1876,821.9z"/>
	<path class="st3" d="M1893.8,821.9c0.4-11.5,7.3-16.6,15.1-21.2c5.3-3.1,6.7-4.9,6.7-7.6c0-3.1-2.1-5.2-7.5-5.2
		c-3.3,0-6.9,1.5-9.5,3.9l-3.8-4.5c3.5-3.3,8.5-5.3,13.4-5.3c8.1,0,13.3,3.5,13.3,10.7c0,6-3,8.6-9.9,12.7
		c-7.5,4.4-9.6,6.9-10.5,10.7h20.8v5.7h-28.1V821.9z"/>
	<path class="st3" d="M1933.6,822.5c-2.4,0-4.4-2-4.4-4.4s2-4.5,4.4-4.5s4.4,2.1,4.4,4.5C1938.1,820.5,1936,822.5,1933.6,822.5z"/>
	<path class="st3" d="M1946.2,821.9v-30h-6.9v-4.1c4-0.3,7.3-1.6,8.1-5.1h4.8v39.2H1946.2z"/>
	<path class="st3" d="M1973.1,821.9h-5.9c0.2-13.5,4.8-24,12.2-33.5h-20.6v-5.7h27.4v5.9C1979.4,796.1,1973.3,807.4,1973.1,821.9z"
		/>
	<path class="st3" d="M1990.8,822.5c-2.4,0-4.4-2-4.4-4.4s2-4.5,4.4-4.5s4.4,2.1,4.4,4.5C1995.2,820.5,1993.2,822.5,1990.8,822.5z"
		/>
	<path class="st3" d="M2010.2,821.9h-5.9c0.2-13.5,4.8-24,12.2-33.5h-20.6v-5.7h27.4v5.9C2016.6,796.1,2010.5,807.4,2010.2,821.9z"
		/>
	<path class="st3" d="M2042.6,821.9h-5.9c0.2-13.5,4.8-24,12.2-33.5h-20.6v-5.7h27.4v5.9C2049,796.1,2042.9,807.4,2042.6,821.9z"/>
	<path class="st3" d="M2060.3,822.5c-2.4,0-4.4-2-4.4-4.4s2-4.5,4.4-4.5s4.4,2.1,4.4,4.5S2062.7,822.5,2060.3,822.5z"/>
	<path class="st3" d="M2085.2,822.5c-8.2,0-14.7-4.5-14.7-15.6c0-10.2,5.7-24.2,24.3-24.8v5.5c-9,0.4-15.2,4.5-17.7,12.7
		c2.7-2.2,5.5-3.1,10.3-3.1c7.1,0,13.2,3.9,13.2,12.3C2100.6,818,2093.8,822.5,2085.2,822.5z M2085.7,802.8c-5.7,0-9.2,2.3-9.2,6.9
		c0,3.8,3.1,7.2,9,7.2s9.2-2.8,9.2-7.2C2094.6,804.9,2091.3,802.8,2085.7,802.8z"/>
</g>
<g>
	<rect x="845" y="1037.1" class="st1" width="682" height="150.2"/>
	<path class="st3" d="M1025.3,1077.9h-11.7v-39.2h12.3c11.2,0,19.5,5.3,19.5,19.6C1045.3,1072.1,1035.4,1077.9,1025.3,1077.9z
		 M1025.6,1046.3h-4.1v24h3.9c8.2,0,12-4.8,12-12C1037.3,1050.3,1033.9,1046.3,1025.6,1046.3z"/>
	<path class="st3" d="M1075.8,1065.7h-17.6c0.3,4,3.2,5.5,6,5.5c2.1,0,3.9-0.8,5-2.1l5.5,4.6c-2.4,3-6.6,4.8-10.5,4.8
		c-8.5,0-13.8-6-13.8-15.3c0-9,5.7-15.3,13.1-15.3c7.8,0,12.4,6.9,12.4,15.3C1075.9,1064.4,1075.8,1065.1,1075.8,1065.7z
		 M1063.1,1054.6c-2.8,0-4.5,2.3-4.8,5.3h10.1C1068.1,1057.2,1066.6,1054.6,1063.1,1054.6z"/>
	<path class="st3" d="M1094.2,1043.7c-2.3,0-2.9,0.7-2.9,2.4v2.5h5v7.3h-5v22.1h-7.7v-22.1h-3.5v-7.3h3.5v-3.5c0-5.5,3-7.7,8.4-7.7
		c1.9,0,3.5,0.3,4.9,0.8v6.2C1096.1,1043.9,1095.4,1043.7,1094.2,1043.7z"/>
	<path class="st3" d="M1117.6,1077.9v-2c-1.4,1.5-3.9,2.6-6.6,2.6c-5.5,0-11-3.4-11-10.5c0-6.5,5.3-9.7,11.9-9.7
		c2.7,0,4.4,0.6,5.7,1.2v-1.5c0-2.1-1.4-3.8-4.2-3.8c-3.5,0-5.4,0.5-8.1,2l-3-5.4c3.4-2,6.3-3,11-3c7.1,0,11.9,3.7,11.9,10.3v19.7
		h-7.6V1077.9z M1117.6,1065.6c-1.3-0.8-2.6-1.2-5.4-1.2c-2.9,0-4.5,1.3-4.5,3.7c0,2.1,1.2,3.9,4.5,3.9c2.5,0,4.5-1.3,5.4-2.7
		V1065.6z"/>
	<path class="st3" d="M1150.1,1077.9v-2c-1.3,1.4-3.8,2.6-6.9,2.6c-7.5,0-10.9-5.2-10.9-13.4v-16.6h7.7v15.9c0,5.3,1.8,6.8,5,6.8
		s5-1.6,5-6.7v-16.1h7.7v29.4L1150.1,1077.9L1150.1,1077.9z"/>
	<path class="st3" d="M1165.6,1077.9v-37l7.7-3.9v40.8L1165.6,1077.9L1165.6,1077.9z"/>
	<path class="st3" d="M1197.5,1076.7c-1.3,1-3.6,1.8-6,1.8c-4.8,0-7.8-3.7-7.8-8.8v-13.9h-4.9v-7.3h4.9v-7.6l7.7-3.9v11.4h7.1v7.3
		h-7.1v11.8c0,2.8,1,3.5,2.9,3.5c1.4,0,2.5-0.6,4.4-2.2L1197.5,1076.7z"/>
	<path class="st3" d="M1233.3,1088.7l-2.7-5.8c6-0.8,7.7-2.3,7.7-6.8c-1.5,1.3-3.4,2.5-6.2,2.5c-6.3,0-11.4-4.7-11.4-15.7
		c0-8.8,4.1-15,11.4-15c2.6,0,4.8,1,6.2,2.3v-1.7h7.7v24.4C1245.9,1082.6,1243.6,1087.6,1233.3,1088.7z M1238.2,1057.7
		c-1.2-1.6-3-2.5-5.2-2.5c-3,0-4.6,2.6-4.6,7.5c0,6,2,8.6,5,8.6c2.4,0,3.6-1,4.8-2.5L1238.2,1057.7L1238.2,1057.7z"/>
	<path class="st3" d="M1269.7,1077.9v-2c-1.4,1.5-3.9,2.6-6.6,2.6c-5.5,0-11-3.4-11-10.5c0-6.5,5.3-9.7,11.9-9.7
		c2.7,0,4.4,0.6,5.7,1.2v-1.5c0-2.1-1.4-3.8-4.2-3.8c-3.5,0-5.4,0.5-8.1,2l-3-5.4c3.4-2,6.3-3,11-3c7.1,0,11.9,3.7,11.9,10.3v19.7
		h-7.6V1077.9z M1269.7,1065.6c-1.3-0.8-2.6-1.2-5.4-1.2c-2.9,0-4.5,1.3-4.5,3.7c0,2.1,1.2,3.9,4.5,3.9c2.5,0,4.5-1.3,5.4-2.7
		V1065.6z"/>
	<path class="st3" d="M1301.1,1076.7c-1.3,1-3.6,1.8-6,1.8c-4.8,0-7.8-3.7-7.8-8.8v-13.9h-4.9v-7.3h4.9v-7.6l7.7-3.9v11.4h7.1v7.3
		h-7.1v11.8c0,2.8,1,3.5,2.9,3.5c1.4,0,2.5-0.6,4.4-2.2L1301.1,1076.7z"/>
	<path class="st3" d="M1332.1,1065.7h-17.6c0.3,4,3.2,5.5,6,5.5c2.1,0,3.9-0.8,5-2.1l5.5,4.6c-2.4,3-6.6,4.8-10.5,4.8
		c-8.5,0-13.8-6-13.8-15.3c0-9,5.7-15.3,13.1-15.3c7.8,0,12.4,6.9,12.4,15.3C1332.2,1064.4,1332.2,1065.1,1332.1,1065.7z
		 M1319.5,1054.6c-2.8,0-4.5,2.3-4.8,5.3h10.1C1324.5,1057.2,1322.9,1054.6,1319.5,1054.6z"/>
	<path class="st3" d="M1365.2,1077.9h-6.4l-2.9-11.5c-0.6-2.3-1.3-5.5-1.6-6.9c-0.2,1.4-1,4.6-1.6,6.9l-2.9,11.5h-6.4l-8.5-29.4h7.8
		l2.6,10.9c0.5,2.2,1.2,5.3,1.4,6.7c0.2-1.5,1-4.4,1.6-6.7l2.9-10.9h6.4l2.9,10.9c0.6,2.3,1.3,5.3,1.6,6.7c0.2-1.4,0.9-4.5,1.4-6.7
		l2.6-10.9h7.6L1365.2,1077.9z"/>
	<path class="st3" d="M1393.3,1077.9v-2c-1.4,1.5-3.9,2.6-6.6,2.6c-5.5,0-11-3.4-11-10.5c0-6.5,5.3-9.7,11.9-9.7
		c2.7,0,4.4,0.6,5.7,1.2v-1.5c0-2.1-1.4-3.8-4.2-3.8c-3.5,0-5.4,0.5-8.1,2l-3-5.4c3.4-2,6.3-3,11-3c7.1,0,11.9,3.7,11.9,10.3v19.7
		h-7.6V1077.9z M1393.3,1065.6c-1.3-0.8-2.6-1.2-5.4-1.2c-2.9,0-4.5,1.3-4.5,3.7c0,2.1,1.2,3.9,4.5,3.9c2.5,0,4.5-1.3,5.4-2.7
		V1065.6z"/>
	<path class="st3" d="M1419.8,1088.3h-7.6l3.9-10.4l-11.4-29.4h8.5l4.8,14.2c0.8,2.2,1.6,5,1.9,6.4c0.3-1.5,1.1-4.1,1.9-6.4
		l4.8-14.2h8.3L1419.8,1088.3z"/>
	<path class="st3" d="M1468.8,1043.7c-2.3,0-2.9,0.7-2.9,2.4v2.5h5v7.3h-5v22.1h-7.7v-22.1h-3.5v-7.3h3.5v-3.5c0-5.5,3-7.7,8.4-7.7
		c1.9,0,3.5,0.3,4.9,0.8v6.2C1470.7,1043.9,1469.9,1043.7,1468.8,1043.7z"/>
	<path class="st3" d="M1487.5,1078.5c-7.7,0-13.3-6.3-13.3-15.3s5.6-15.3,13.3-15.3s13.3,6.3,13.3,15.3
		C1500.8,1072.3,1495.1,1078.5,1487.5,1078.5z M1487.5,1055.3c-3.7,0-5.4,3.4-5.4,7.9s1.7,7.8,5.4,7.8c3.7,0,5.5-3.8,5.5-7.8
		C1493,1058.8,1491.2,1055.3,1487.5,1055.3z"/>
	<path class="st3" d="M1524,1057.5c-1.2-1.1-2.7-1.9-4.5-1.9c-3,0-5,1.3-5,6.4v15.9h-7.7v-29.4h7.7v2c1.3-1.4,3.3-2.6,6-2.6
		c2.5,0,4.4,1,5.4,2.1L1524,1057.5z"/>
	<path class="st3" d="M1155.5,1145.1v-30h-6.9v-4.1c4-0.3,7.3-1.6,8.1-5.1h4.8v39.2H1155.5z"/>
	<path class="st3" d="M1174.9,1145.7v-5.5c9-0.4,15.2-4.5,17.7-12.7c-2.7,2.2-5.5,3.1-10.3,3.1c-7.1,0-13.2-3.9-13.2-12.3
		c0-8.6,6.7-13,15.3-13c8.2,0,14.7,4.5,14.7,15.6C1199.2,1131.2,1193.5,1145.2,1174.9,1145.7z M1184.2,1111c-5.9,0-9.2,2.8-9.2,7.2
		c0,4.7,3.3,6.8,8.9,6.8c5.7,0,9.2-2.3,9.2-6.9C1193.2,1114.4,1190.1,1111,1184.2,1111z"/>
	<path class="st3" d="M1203.1,1145.1c0.4-11.5,7.3-16.6,15.1-21.2c5.3-3.1,6.7-4.9,6.7-7.6c0-3.1-2.1-5.2-7.5-5.2
		c-3.3,0-6.9,1.5-9.5,3.9l-3.8-4.5c3.5-3.3,8.5-5.3,13.4-5.3c8.1,0,13.3,3.5,13.3,10.7c0,6-3,8.6-9.9,12.7
		c-7.5,4.4-9.6,6.9-10.5,10.7h20.8v5.7h-28.1V1145.1z"/>
	<path class="st3" d="M1243,1145.7c-2.4,0-4.4-2-4.4-4.4s2-4.5,4.4-4.5s4.4,2.1,4.4,4.5S1245.4,1145.7,1243,1145.7z"/>
	<path class="st3" d="M1255.6,1145.1v-30h-6.9v-4.1c4-0.3,7.3-1.6,8.1-5.1h4.8v39.2H1255.6z"/>
	<path class="st3" d="M1284.5,1145.7c-8.2,0-14.7-4.5-14.7-15.6c0-10.2,5.7-24.2,24.3-24.8v5.5c-9,0.4-15.2,4.5-17.7,12.7
		c2.7-2.2,5.5-3.1,10.3-3.1c7.1,0,13.2,3.9,13.2,12.3C1299.9,1141.2,1293.1,1145.7,1284.5,1145.7z M1285,1126
		c-5.7,0-9.2,2.3-9.2,6.9c0,3.8,3.1,7.2,9,7.2s9.2-2.8,9.2-7.2C1293.9,1128.1,1290.6,1126,1285,1126z"/>
	<path class="st3" d="M1321,1145.7c-9.5,0-15.3-4.3-15.3-12c0-4.7,2.4-8.1,6.9-9.7c-4-1.7-5.3-5.2-5.3-7.6c0-7.6,6.1-11.1,13.8-11.1
		c7,0,13.7,3.4,13.7,11c0,2.3-1.2,6-5.3,7.7c4.2,1.6,6.9,4.7,6.9,9.7C1336.5,1141.4,1330.4,1145.7,1321,1145.7z M1321,1127.1
		c-6.3,0-9.4,2.5-9.4,6.4c0,4.1,3.4,6.8,9.5,6.8c6.3,0,9.5-2.7,9.5-6.5C1330.6,1129.7,1327.6,1127.1,1321,1127.1z M1321,1110.7
		c-5.7,0-7.7,2.6-7.7,5.5c0,3.1,3,5.4,7.8,5.4c5,0,7.7-2.3,7.7-5.2C1328.9,1113.5,1326.7,1110.7,1321,1110.7z"/>
	<path class="st3" d="M1347,1145.7c-2.4,0-4.4-2-4.4-4.4s2-4.5,4.4-4.5s4.4,2.1,4.4,4.5S1349.4,1145.7,1347,1145.7z"/>
	<path class="st3" d="M1370.8,1145.7c-5,0-9.5-1.2-13.7-3.9l2.9-4.9c3.3,1.8,7.4,3,11,3c6.1,0,9.3-3,9.3-8c0-4.6-3.1-7-8-7
		c-3.3,0-5.5,1-7.6,2.5l-6.3-2.5l1.3-19.2h24.1v5.6H1365l-0.8,9.9c2.2-1.2,4.9-2,8.5-2c9,0,13.5,5.3,13.5,12.4
		C1386.2,1141.4,1379.8,1145.7,1370.8,1145.7z"/>
	<path class="st3" d="M1395.7,1145.7c-2.4,0-4.4-2-4.4-4.4s2-4.5,4.4-4.5s4.4,2.1,4.4,4.5S1398.1,1145.7,1395.7,1145.7z"/>
	<path class="st3" d="M1419.9,1145.7c-10.1,0-15.4-8.3-15.4-20.2s5.4-20.3,15.5-20.3s15.4,8.3,15.4,20.2S1430,1145.7,1419.9,1145.7z
		 M1419.9,1111c-6.8,0-9.5,6.2-9.5,14.4c0,8.2,2.7,14.6,9.6,14.6s9.5-6.2,9.5-14.4C1429.5,1117.3,1426.8,1111,1419.9,1111z"/>
	<path class="st3" d="M1442.1,1150.2h-5.8l17.4-49.3h5.8L1442.1,1150.2z"/>
	<path class="st3" d="M1460.8,1145.1c0.4-11.5,7.3-16.6,15.1-21.2c5.3-3.1,6.7-4.9,6.7-7.6c0-3.1-2.1-5.2-7.5-5.2
		c-3.3,0-6.9,1.5-9.5,3.9l-3.8-4.5c3.5-3.3,8.5-5.3,13.4-5.3c8.1,0,13.3,3.5,13.3,10.7c0,6-3,8.6-9.9,12.7
		c-7.5,4.4-9.6,6.9-10.5,10.7h20.8v5.7h-28.1V1145.1z"/>
	<path class="st3" d="M1518.9,1136.3v8.8h-5.7v-8.6H1492v-5.6l20.2-25h6.7v25.2h5.2v5.2H1518.9z M1509.8,1117.2l-7.6,9.6
		c-1.2,1.5-2.9,3.5-3.7,4.4c1.3,0,4.3-0.1,6.3-0.1h8.3v-11.4c0-2.2,0.2-5.7,0.2-7.2C1512.6,1113.5,1511.1,1115.5,1509.8,1117.2z"/>
</g>
<g>
	<rect x="1841.2" y="1334.1" class="st1" width="467.8" height="64.2"/>
	<path class="st3" d="M1849.2,1374.9v-30h-6.9v-4.1c4-0.3,7.3-1.6,8.1-5.1h4.8v39.2H1849.2z"/>
	<path class="st3" d="M1868.6,1375.5v-5.5c9-0.4,15.2-4.5,17.7-12.7c-2.7,2.2-5.5,3.1-10.3,3.1c-7.1,0-13.2-3.9-13.2-12.3
		c0-8.6,6.7-13,15.3-13c8.2,0,14.7,4.5,14.7,15.6C1892.9,1361,1887.1,1375,1868.6,1375.5z M1877.9,1340.8c-5.9,0-9.2,2.8-9.2,7.2
		c0,4.7,3.3,6.8,8.9,6.8c5.7,0,9.2-2.3,9.2-6.9C1886.9,1344.2,1883.8,1340.8,1877.9,1340.8z"/>
	<path class="st3" d="M1896.8,1374.9c0.4-11.5,7.3-16.6,15.1-21.2c5.3-3.1,6.7-4.9,6.7-7.6c0-3.1-2.1-5.2-7.5-5.2
		c-3.3,0-6.9,1.5-9.5,3.9l-3.8-4.5c3.5-3.3,8.5-5.3,13.4-5.3c8.1,0,13.3,3.5,13.3,10.7c0,6-3,8.6-9.9,12.7
		c-7.5,4.4-9.6,6.9-10.5,10.7h20.8v5.7h-28.1V1374.9z"/>
	<path class="st3" d="M1936.6,1375.5c-2.4,0-4.4-2-4.4-4.4s2-4.5,4.4-4.5s4.4,2.1,4.4,4.5S1939.1,1375.5,1936.6,1375.5z"/>
	<path class="st3" d="M1949.3,1374.9v-30h-6.9v-4.1c4-0.3,7.3-1.6,8.1-5.1h4.8v39.2H1949.3z"/>
	<path class="st3" d="M1978.2,1375.5c-8.2,0-14.7-4.5-14.7-15.6c0-10.2,5.7-24.2,24.3-24.8v5.5c-9,0.4-15.2,4.5-17.7,12.7
		c2.7-2.2,5.5-3.1,10.3-3.1c7.1,0,13.2,3.9,13.2,12.3C1993.5,1371,1986.8,1375.5,1978.2,1375.5z M1978.7,1355.8
		c-5.7,0-9.2,2.3-9.2,6.9c0,3.8,3.1,7.2,9,7.2s9.2-2.8,9.2-7.2C1987.6,1357.9,1984.3,1355.8,1978.7,1355.8z"/>
	<path class="st3" d="M2014.7,1375.5c-9.5,0-15.3-4.3-15.3-12c0-4.7,2.4-8.1,6.9-9.7c-4-1.7-5.3-5.2-5.3-7.6
		c0-7.6,6.1-11.1,13.8-11.1c7,0,13.7,3.4,13.7,11c0,2.3-1.2,6-5.3,7.7c4.2,1.6,6.9,4.7,6.9,9.7
		C2030.2,1371.2,2024.1,1375.5,2014.7,1375.5z M2014.7,1356.9c-6.3,0-9.4,2.5-9.4,6.4c0,4.1,3.4,6.8,9.5,6.8c6.3,0,9.5-2.7,9.5-6.5
		C2024.2,1359.5,2021.3,1356.9,2014.7,1356.9z M2014.7,1340.5c-5.7,0-7.7,2.6-7.7,5.5c0,3.1,3,5.4,7.8,5.4c5,0,7.7-2.3,7.7-5.2
		C2022.6,1343.3,2020.4,1340.5,2014.7,1340.5z"/>
	<path class="st3" d="M2040.6,1375.5c-2.4,0-4.4-2-4.4-4.4s2-4.5,4.4-4.5s4.4,2.1,4.4,4.5S2043.1,1375.5,2040.6,1375.5z"/>
	<path class="st3" d="M2064.4,1375.5c-5,0-9.5-1.2-13.7-3.9l2.9-4.9c3.3,1.8,7.4,3,11,3c6.1,0,9.3-3,9.3-8c0-4.6-3.1-7-8-7
		c-3.3,0-5.5,1-7.6,2.5l-6.3-2.5l1.3-19.2h24.1v5.6h-18.8l-0.8,9.9c2.2-1.2,4.9-2,8.5-2c9,0,13.5,5.3,13.5,12.4
		C2079.9,1371.2,2073.5,1375.5,2064.4,1375.5z"/>
	<path class="st3" d="M2089.4,1375.5c-2.4,0-4.4-2-4.4-4.4s2-4.5,4.4-4.5s4.4,2.1,4.4,4.5S2091.8,1375.5,2089.4,1375.5z"/>
	<path class="st3" d="M2099.2,1374.9c0.4-11.5,7.3-16.6,15.1-21.2c5.3-3.1,6.7-4.9,6.7-7.6c0-3.1-2.1-5.2-7.5-5.2
		c-3.3,0-6.9,1.5-9.5,3.9l-3.8-4.5c3.5-3.3,8.5-5.3,13.4-5.3c8.1,0,13.3,3.5,13.3,10.7c0,6-3,8.6-9.9,12.7
		c-7.5,4.4-9.6,6.9-10.5,10.7h20.8v5.7h-28.1V1374.9z"/>
	<path class="st3" d="M2147.2,1375.5c-5,0-9.5-1.2-13.7-3.9l2.9-4.9c3.3,1.8,7.4,3,11,3c6.1,0,9.3-3,9.3-8c0-4.6-3.1-7-8-7
		c-3.3,0-5.5,1-7.6,2.5l-6.3-2.5l1.3-19.2h24.1v5.6h-18.8l-0.8,9.9c2.2-1.2,4.9-2,8.5-2c9,0,13.5,5.3,13.5,12.4
		C2162.7,1371.2,2156.3,1375.5,2147.2,1375.5z"/>
	<path class="st3" d="M2195.4,1366.1v8.8h-5.7v-8.6h-21.2v-5.6l20.2-25h6.7v25.2h5.2v5.2H2195.4z M2186.3,1347l-7.6,9.6
		c-1.2,1.5-2.9,3.5-3.7,4.4c1.3,0,4.3-0.1,6.3-0.1h8.3v-11.4c0-2.2,0.2-5.7,0.2-7.2C2189.1,1343.3,2187.6,1345.3,2186.3,1347z"/>
</g>
<g>
	<rect x="1180.2" y="1508.1" class="st1" width="467.8" height="64.2"/>
	<path class="st3" d="M1188.2,1548.9v-30h-6.9v-4.1c4-0.3,7.3-1.6,8.1-5.1h4.8v39.2H1188.2z"/>
	<path class="st3" d="M1207.6,1549.5v-5.5c9-0.4,15.2-4.5,17.7-12.7c-2.7,2.2-5.5,3.1-10.3,3.1c-7.1,0-13.2-3.9-13.2-12.3
		c0-8.6,6.7-13,15.3-13c8.2,0,14.7,4.5,14.7,15.6C1231.9,1535,1226.1,1549,1207.6,1549.5z M1216.9,1514.8c-5.9,0-9.2,2.8-9.2,7.2
		c0,4.7,3.3,6.8,8.9,6.8c5.7,0,9.2-2.3,9.2-6.9C1225.9,1518.2,1222.8,1514.8,1216.9,1514.8z"/>
	<path class="st3" d="M1235.8,1548.9c0.4-11.5,7.3-16.6,15.1-21.2c5.3-3.1,6.7-4.9,6.7-7.6c0-3.1-2.1-5.2-7.5-5.2
		c-3.3,0-6.9,1.5-9.5,3.9l-3.8-4.5c3.5-3.3,8.5-5.3,13.4-5.3c8.1,0,13.3,3.5,13.3,10.7c0,6-3,8.6-9.9,12.7
		c-7.5,4.4-9.6,6.9-10.5,10.7h20.8v5.7h-28.1V1548.9z"/>
	<path class="st3" d="M1275.6,1549.5c-2.4,0-4.4-2-4.4-4.4s2-4.5,4.4-4.5s4.4,2.1,4.4,4.5S1278.1,1549.5,1275.6,1549.5z"/>
	<path class="st3" d="M1288.3,1548.9v-30h-6.9v-4.1c4-0.3,7.3-1.6,8.1-5.1h4.8v39.2H1288.3z"/>
	<path class="st3" d="M1317.2,1549.5c-8.2,0-14.7-4.5-14.7-15.6c0-10.2,5.7-24.2,24.3-24.8v5.5c-9,0.4-15.2,4.5-17.7,12.7
		c2.7-2.2,5.5-3.1,10.3-3.1c7.1,0,13.2,3.9,13.2,12.3C1332.5,1545,1325.8,1549.5,1317.2,1549.5z M1317.7,1529.8
		c-5.7,0-9.2,2.3-9.2,6.9c0,3.8,3.1,7.2,9,7.2s9.2-2.8,9.2-7.2C1326.6,1531.9,1323.3,1529.8,1317.7,1529.8z"/>
	<path class="st3" d="M1353.7,1549.5c-9.5,0-15.3-4.3-15.3-12c0-4.7,2.4-8.1,6.9-9.7c-4-1.7-5.3-5.2-5.3-7.6
		c0-7.6,6.1-11.1,13.8-11.1c7,0,13.7,3.4,13.7,11c0,2.3-1.2,6-5.3,7.7c4.2,1.6,6.9,4.7,6.9,9.7
		C1369.2,1545.2,1363.1,1549.5,1353.7,1549.5z M1353.7,1530.9c-6.3,0-9.4,2.5-9.4,6.4c0,4.1,3.4,6.8,9.5,6.8c6.3,0,9.5-2.7,9.5-6.5
		C1363.2,1533.5,1360.3,1530.9,1353.7,1530.9z M1353.7,1514.5c-5.7,0-7.7,2.6-7.7,5.5c0,3.1,3,5.4,7.8,5.4c5,0,7.7-2.3,7.7-5.2
		C1361.6,1517.3,1359.4,1514.5,1353.7,1514.5z"/>
	<path class="st3" d="M1379.6,1549.5c-2.4,0-4.4-2-4.4-4.4s2-4.5,4.4-4.5s4.4,2.1,4.4,4.5S1382.1,1549.5,1379.6,1549.5z"/>
	<path class="st3" d="M1403.4,1549.5c-5,0-9.5-1.2-13.7-3.9l2.9-4.9c3.3,1.8,7.4,3,11,3c6.1,0,9.3-3,9.3-8c0-4.6-3.1-7-8-7
		c-3.3,0-5.5,1-7.6,2.5l-6.3-2.5l1.3-19.2h24.1v5.6h-18.8l-0.8,9.9c2.2-1.2,4.9-2,8.5-2c9,0,13.5,5.3,13.5,12.4
		C1418.9,1545.2,1412.5,1549.5,1403.4,1549.5z"/>
	<path class="st3" d="M1428.4,1549.5c-2.4,0-4.4-2-4.4-4.4s2-4.5,4.4-4.5s4.4,2.1,4.4,4.5S1430.8,1549.5,1428.4,1549.5z"/>
	<path class="st3" d="M1451.9,1549.5c-5.5,0-11.4-2.5-14.1-6.5l4.5-3.8c2.4,3,6.1,4.5,9.6,4.5c6.3,0,8.6-2.4,8.6-6.4s-3-5.9-7.1-5.9
		h-3.6v-5.7h3.6c3.6,0,5.5-2.4,5.5-5.4c0-2.2-1.6-5.4-7.4-5.4c-3.1,0-5.5,1.3-7.7,3.6l-4.4-4.1c3.3-3.4,7.3-5.3,12.2-5.3
		c7.4,0,13.4,3.8,13.4,10.6c0,4.7-2.1,7.1-4.8,8.6c3.7,1.1,6.4,4.1,6.4,9C1466.6,1545.3,1461.1,1549.5,1451.9,1549.5z"/>
</g>
<g>
	<rect x="2481.2" y="1508.1" class="st1" width="467.8" height="64.2"/>
	<path class="st3" d="M2489.2,1548.9v-30h-6.9v-4.1c4-0.3,7.3-1.6,8.1-5.1h4.8v39.2H2489.2z"/>
	<path class="st3" d="M2508.6,1549.5v-5.5c9-0.4,15.2-4.5,17.7-12.7c-2.7,2.2-5.5,3.1-10.3,3.1c-7.1,0-13.2-3.9-13.2-12.3
		c0-8.6,6.7-13,15.3-13c8.2,0,14.7,4.5,14.7,15.6C2532.9,1535,2527.1,1549,2508.6,1549.5z M2517.9,1514.8c-5.9,0-9.2,2.8-9.2,7.2
		c0,4.7,3.3,6.8,8.9,6.8c5.7,0,9.2-2.3,9.2-6.9C2526.9,1518.2,2523.8,1514.8,2517.9,1514.8z"/>
	<path class="st3" d="M2536.8,1548.9c0.4-11.5,7.3-16.6,15.1-21.2c5.3-3.1,6.7-4.9,6.7-7.6c0-3.1-2.1-5.2-7.5-5.2
		c-3.3,0-6.9,1.5-9.5,3.9l-3.8-4.5c3.5-3.3,8.5-5.3,13.4-5.3c8.1,0,13.3,3.5,13.3,10.7c0,6-3,8.6-9.9,12.7
		c-7.5,4.4-9.6,6.9-10.5,10.7h20.8v5.7h-28.1V1548.9z"/>
	<path class="st3" d="M2576.6,1549.5c-2.4,0-4.4-2-4.4-4.4s2-4.5,4.4-4.5s4.4,2.1,4.4,4.5S2579.1,1549.5,2576.6,1549.5z"/>
	<path class="st3" d="M2589.3,1548.9v-30h-6.9v-4.1c4-0.3,7.3-1.6,8.1-5.1h4.8v39.2H2589.3z"/>
	<path class="st3" d="M2618.2,1549.5c-8.2,0-14.7-4.5-14.7-15.6c0-10.2,5.7-24.2,24.3-24.8v5.5c-9,0.4-15.2,4.5-17.7,12.7
		c2.7-2.2,5.5-3.1,10.3-3.1c7.1,0,13.2,3.9,13.2,12.3C2633.5,1545,2626.8,1549.5,2618.2,1549.5z M2618.7,1529.8
		c-5.7,0-9.2,2.3-9.2,6.9c0,3.8,3.1,7.2,9,7.2s9.2-2.8,9.2-7.2C2627.6,1531.9,2624.3,1529.8,2618.7,1529.8z"/>
	<path class="st3" d="M2654.7,1549.5c-9.5,0-15.3-4.3-15.3-12c0-4.7,2.4-8.1,6.9-9.7c-4-1.7-5.3-5.2-5.3-7.6
		c0-7.6,6.1-11.1,13.8-11.1c7,0,13.7,3.4,13.7,11c0,2.3-1.2,6-5.3,7.7c4.2,1.6,6.9,4.7,6.9,9.7
		C2670.2,1545.2,2664.1,1549.5,2654.7,1549.5z M2654.7,1530.9c-6.3,0-9.4,2.5-9.4,6.4c0,4.1,3.4,6.8,9.5,6.8c6.3,0,9.5-2.7,9.5-6.5
		C2664.2,1533.5,2661.3,1530.9,2654.7,1530.9z M2654.7,1514.5c-5.7,0-7.7,2.6-7.7,5.5c0,3.1,3,5.4,7.8,5.4c5,0,7.7-2.3,7.7-5.2
		C2662.6,1517.3,2660.4,1514.5,2654.7,1514.5z"/>
	<path class="st3" d="M2680.6,1549.5c-2.4,0-4.4-2-4.4-4.4s2-4.5,4.4-4.5s4.4,2.1,4.4,4.5S2683.1,1549.5,2680.6,1549.5z"/>
	<path class="st3" d="M2704.4,1549.5c-5,0-9.5-1.2-13.7-3.9l2.9-4.9c3.3,1.8,7.4,3,11,3c6.1,0,9.3-3,9.3-8c0-4.6-3.1-7-8-7
		c-3.3,0-5.5,1-7.6,2.5l-6.3-2.5l1.3-19.2h24.1v5.6h-18.8l-0.8,9.9c2.2-1.2,4.9-2,8.5-2c9,0,13.5,5.3,13.5,12.4
		C2719.9,1545.2,2713.5,1549.5,2704.4,1549.5z"/>
	<path class="st3" d="M2729.4,1549.5c-2.4,0-4.4-2-4.4-4.4s2-4.5,4.4-4.5s4.4,2.1,4.4,4.5S2731.8,1549.5,2729.4,1549.5z"/>
	<path class="st3" d="M2742,1548.9v-30h-6.9v-4.1c4-0.3,7.3-1.6,8.1-5.1h4.8v39.2H2742z"/>
</g>
<g>
	<rect x="2370.2" y="641.1" class="st1" width="467.8" height="64.2"/>
	<path class="st4" d="M2460.8,687.7v-32.4h-7.7v-6.6c5-0.3,8.3-2.1,9.2-5.8h7.4v44.8H2460.8z"/>
	<path class="st4" d="M2496.8,687.7h-9.2c0-14.5,4.9-26.8,13.2-36.3H2478v-8.5h33.6v8.6C2502.6,660.5,2496.8,672.3,2496.8,687.7z"/>
	<path class="st4" d="M2516.7,687.7c0.3-15.4,9.7-22,20.6-26.8c3.8-1.7,5.1-3.5,5.1-5.4c0-2.3-2-4.5-7.4-4.5
		c-5.3,0-9.6,2.4-12.7,5.4l-5.8-6.7c4.7-4.8,11.1-7.4,18.2-7.4c10.6,0,16.6,4.3,16.6,12.9c0,7.2-3.9,10.4-11.5,13.9
		c-7.9,3.6-11,6.7-11.8,10.1h23.8v8.6L2516.7,687.7L2516.7,687.7z"/>
	<path class="st4" d="M2565,688.4c-3.3,0-6-2.8-6-6s2.8-6,6-6c3.3,0,6,2.8,6,6S2568.3,688.4,2565,688.4z"/>
	<path class="st4" d="M2580.9,687.7v-32.4h-7.7v-6.6c5-0.3,8.3-2.1,9.2-5.8h7.4v44.8H2580.9z"/>
	<path class="st4" d="M2616.9,687.7h-9.2c0-14.5,4.9-26.8,13.2-36.3h-22.8v-8.5h33.6v8.6C2622.7,660.5,2616.9,672.3,2616.9,687.7z"
		/>
	<path class="st4" d="M2636,688.4c-3.3,0-6-2.8-6-6s2.8-6,6-6s6,2.8,6,6S2639.3,688.4,2636,688.4z"/>
	<path class="st4" d="M2665,688.4c-12.2,0-18.8-9.5-18.8-23.1s6.6-23.1,18.8-23.1s18.8,9.3,18.8,23
		C2683.8,678.9,2677.2,688.4,2665,688.4z M2665,651c-6.8,0-9.7,6.2-9.7,14.2s2.9,14.5,9.7,14.5s9.7-6.3,9.7-14.3
		S2671.8,651,2665,651z"/>
	<path class="st4" d="M2694.1,688.4c-3.3,0-6-2.8-6-6s2.8-6,6-6c3.3,0,6,2.8,6,6S2697.4,688.4,2694.1,688.4z"/>
	<path class="st4" d="M2723.1,688.4c-12.2,0-18.8-9.5-18.8-23.1s6.6-23.1,18.8-23.1s18.8,9.3,18.8,23
		C2741.9,678.9,2735.4,688.4,2723.1,688.4z M2723.1,651c-6.8,0-9.7,6.2-9.7,14.2s2.9,14.5,9.7,14.5s9.7-6.3,9.7-14.3
		S2730,651,2723.1,651z"/>
	<path class="st4" d="M2750.4,693.5h-8.7l20.9-56.3h8.7L2750.4,693.5z"/>
	<path class="st4" d="M2781.1,687.7v-32.4h-7.7v-6.6c5-0.3,8.3-2.1,9.2-5.8h7.4v44.8H2781.1z"/>
	<path class="st4" d="M2816.4,688.4c-10,0-17.8-5.6-17.8-18.1c0-11.8,6.9-28.1,30.1-28.1v8.7c-10.4,0-17,3.6-19.5,10.5
		c2.9-1.9,5.7-2.8,10.2-2.8c8.9,0,15.8,4.5,15.8,14.5S2826.9,688.4,2816.4,688.4z M2817.2,666.8c-6.1,0-9.3,2-9.3,6.7
		c0,4.2,3.1,6.7,8.9,6.7c6,0,9.4-2.6,9.4-6.7C2826.2,668.9,2822.8,666.8,2817.2,666.8z"/>
</g>
<g>
	<rect x="2370.2" y="1366.1" class="st1" width="467.8" height="64.2"/>
	<path class="st5" d="M2386.4,1412.7v-32.4h-7.7v-6.6c5-0.3,8.3-2.1,9.2-5.8h7.4v44.8H2386.4z"/>
	<path class="st5" d="M2410.1,1413.4v-8.7c10.4,0,17-3.6,19.5-10.5c-2.9,1.9-5.7,2.8-10.2,2.8c-8.9,0-15.8-4.5-15.8-14.5
		s8.3-15.4,18.9-15.4c10,0,17.8,5.6,17.8,18.1C2440.2,1397.1,2433.3,1413.4,2410.1,1413.4z M2422.1,1375.6c-6,0-9.4,2.6-9.4,6.7
		c0,4.5,3.3,6.7,9,6.7c6.1,0,9.3-2,9.3-6.7C2431,1378.1,2427.9,1375.6,2422.1,1375.6z"/>
	<path class="st5" d="M2445,1412.7c0.3-15.4,9.7-22,20.6-26.8c3.8-1.7,5.1-3.5,5.1-5.4c0-2.3-2-4.5-7.4-4.5c-5.3,0-9.6,2.4-12.7,5.4
		l-5.8-6.7c4.7-4.8,11.1-7.4,18.2-7.4c10.6,0,16.6,4.3,16.6,12.9c0,7.2-3.9,10.4-11.5,13.9c-7.9,3.6-11,6.7-11.8,10.1h23.8v8.6
		L2445,1412.7L2445,1412.7z"/>
	<path class="st5" d="M2493.4,1413.4c-3.3,0-6-2.8-6-6s2.8-6,6-6c3.3,0,6,2.8,6,6S2496.6,1413.4,2493.4,1413.4z"/>
	<path class="st5" d="M2509.2,1412.7v-32.4h-7.7v-6.6c5-0.3,8.3-2.1,9.2-5.8h7.4v44.8H2509.2z"/>
	<path class="st5" d="M2544.5,1413.4c-10,0-17.8-5.6-17.8-18.1c0-11.8,6.9-28.1,30.1-28.1v8.7c-10.4,0-17,3.6-19.5,10.5
		c2.9-1.9,5.7-2.8,10.2-2.8c8.9,0,15.8,4.5,15.8,14.5C2563.4,1408.1,2555.1,1413.4,2544.5,1413.4z M2545.3,1391.8
		c-6.1,0-9.3,2-9.3,6.7c0,4.2,3.1,6.7,8.9,6.7c6,0,9.4-2.6,9.4-6.7C2554.3,1393.9,2551,1391.8,2545.3,1391.8z"/>
	<path class="st5" d="M2588.6,1413.4c-11.6,0-18.8-5.3-18.8-14.1c0-6.2,3.7-9.4,7.1-10.9c-3.2-1.7-5.2-4.5-5.2-7.9
		c0-8.8,7.4-13.3,16.8-13.3c8.8,0,16.8,4.2,16.8,12.9c0,3.2-1.7,6.3-5.2,8.3c3.5,1.6,7.1,4.7,7.1,10.4
		C2607.3,1407.9,2600.2,1413.4,2588.6,1413.4z M2588.6,1392.8c-6.7,0-9.8,2.5-9.8,6.3c0,4.1,4.1,6.5,9.8,6.5c6.1,0,9.8-2.3,9.8-6.4
		S2595.4,1392.8,2588.6,1392.8z M2588.6,1375c-5.6,0-7.9,2.4-7.9,5.3s2.7,5.1,7.9,5.1c5.5,0,7.9-2.1,7.9-5.1
		C2596.5,1377.5,2594.5,1375,2588.6,1375z"/>
	<path class="st5" d="M2619.8,1413.4c-3.3,0-6-2.8-6-6s2.8-6,6-6c3.3,0,6,2.8,6,6S2623,1413.4,2619.8,1413.4z"/>
	<path class="st5" d="M2649.2,1413.4c-6.5,0-11.8-1.3-17.5-4.8l4.4-7.6c4.2,2.4,8.6,3.8,13.1,3.8c6.1,0,9.6-2.6,9.6-7.4
		c0-4.7-3.4-6.7-7.6-6.7c-4,0-6.7,1.2-8.8,2.7l-8.5-3.1l1.5-22.4h29.8v8.6h-21.6l-0.5,7.7c2.5-1.3,5.2-2,9.4-2
		c10,0,15.4,6.4,15.4,14.8C2667.9,1407.9,2660.2,1413.4,2649.2,1413.4z"/>
	<path class="st5" d="M2678.6,1413.4c-3.3,0-6-2.8-6-6s2.8-6,6-6s6,2.8,6,6S2681.8,1413.4,2678.6,1413.4z"/>
	<path class="st5" d="M2707.6,1413.4c-12.2,0-18.8-9.5-18.8-23.1s6.6-23.1,18.8-23.1s18.8,9.3,18.8,23S2719.8,1413.4,2707.6,1413.4z
		 M2707.6,1376c-6.8,0-9.7,6.2-9.7,14.2s2.9,14.5,9.7,14.5s9.7-6.3,9.7-14.3C2717.4,1382.3,2714.4,1376,2707.6,1376z"/>
	<path class="st5" d="M2734.9,1418.5h-8.7l20.9-56.3h8.7L2734.9,1418.5z"/>
	<path class="st5" d="M2757.4,1412.7c0.3-15.4,9.7-22,20.6-26.8c3.8-1.7,5.1-3.5,5.1-5.4c0-2.3-2-4.5-7.4-4.5
		c-5.3,0-9.6,2.4-12.7,5.4l-5.8-6.7c4.7-4.8,11.1-7.4,18.2-7.4c10.6,0,16.6,4.3,16.6,12.9c0,7.2-3.9,10.4-11.5,13.9
		c-7.9,3.6-11,6.7-11.8,10.1h23.8v8.6L2757.4,1412.7L2757.4,1412.7z"/>
	<path class="st5" d="M2829.5,1403.6v9.2h-8.6v-9.2h-24.5v-8.1l23.7-27.6h9.4v27.3h5.9v8.3L2829.5,1403.6L2829.5,1403.6z
		 M2817.1,1383.2l-6.4,7.5c-1.4,1.7-3.3,3.7-4.2,4.7c1.5,0,6.3-0.1,8.9-0.1h5.5v-7.3c0-2.6,0.2-8.1,0.2-9.8
		C2820.2,1379.3,2818.5,1381.5,2817.1,1383.2z"/>
</g>
<g>
	<path class="st2" d="M1684.3,305c0.6-2.4-0.4-5-2.7-6.1l-48.6-23.8c-0.7-0.3-1.5-0.5-2.3-0.5H1431c-0.7,0-1.4,0.1-2.1,0.4l-56,23.8
		c-2.5,1-3.6,3.7-3,6.2c-0.1,0.5-0.3,0.9-0.3,1.4v1.3v87.6c0,2.9,2.4,5.3,5.3,5.3h304.3c2.9,0,5.3-2.4,5.3-5.3v-87.6v-1.3
		C1684.6,305.9,1684.4,305.4,1684.3,305 M1432,285.1h197.4l32.6,16h-267.5L1432,285.1z M1674,390h-293.8v-77H1674V390L1674,390z"/>
	<path class="st2" d="M1399.4,340c0,4,3.3,7.3,7.3,7.3s7.3-3.3,7.3-7.3s-3.3-7.3-7.3-7.3C1402.7,332.8,1399.4,336,1399.4,340"/>
	<path class="st2" d="M1399.4,365.9c0,4,3.3,7.3,7.3,7.3s7.3-3.3,7.3-7.3s-3.3-7.3-7.3-7.3C1402.7,358.6,1399.4,361.8,1399.4,365.9"
		/>
	<path class="st2" d="M1653.6,336.4h-222.2c-1.5,0-2.6-1.2-2.6-2.6c0-1.5,1.2-2.6,2.6-2.6h222.2c1.5,0,2.7,1.2,2.7,2.6
		C1656.2,335.2,1655.1,336.4,1653.6,336.4"/>
	<path class="st2" d="M1653.6,368.2h-222.2c-1.5,0-2.6-1.2-2.6-2.6c0-1.5,1.2-2.6,2.6-2.6h222.2c1.5,0,2.7,1.2,2.7,2.6
		C1656.2,367,1655.1,368.2,1653.6,368.2"/>
	<path class="st2" d="M1653.6,352.3h-222.2c-1.5,0-2.6-1.2-2.6-2.6c0-1.5,1.2-2.6,2.6-2.6h222.2c1.5,0,2.7,1.2,2.7,2.6
		C1656.2,351.1,1655.1,352.3,1653.6,352.3"/>
</g>
<circle class="st0" cx="1807.6" cy="1076.5" r="231.5"/>
<g>
	<path class="st2" d="M1965.3,1044c0.6-2.4-0.4-5-2.7-6.1l-48.6-23.8c-0.7-0.3-1.5-0.5-2.3-0.5H1712c-0.7,0-1.4,0.1-2.1,0.4
		l-56,23.8c-2.5,1-3.6,3.7-3,6.2c-0.1,0.5-0.3,0.9-0.3,1.4v1.3v87.6c0,2.9,2.4,5.3,5.3,5.3h304.3c2.9,0,5.3-2.4,5.3-5.3v-87.6v-1.3
		C1965.6,1044.9,1965.4,1044.4,1965.3,1044 M1713,1024.1h197.4l32.6,16h-267.5L1713,1024.1z M1955,1129h-293.8v-77H1955V1129
		L1955,1129z"/>
	<path class="st2" d="M1680.4,1079c0,4,3.3,7.3,7.3,7.3s7.3-3.3,7.3-7.3s-3.3-7.3-7.3-7.3C1683.7,1071.8,1680.4,1075,1680.4,1079"/>
	<path class="st2" d="M1680.4,1104.9c0,4,3.3,7.3,7.3,7.3s7.3-3.3,7.3-7.3s-3.3-7.3-7.3-7.3
		C1683.7,1097.6,1680.4,1100.8,1680.4,1104.9"/>
	<path class="st2" d="M1934.6,1075.4h-222.2c-1.5,0-2.6-1.2-2.6-2.6s1.2-2.6,2.6-2.6h222.2c1.5,0,2.7,1.2,2.7,2.6
		C1937.2,1074.2,1936.1,1075.4,1934.6,1075.4"/>
	<path class="st2" d="M1934.6,1107.2h-222.2c-1.5,0-2.6-1.2-2.6-2.6c0-1.5,1.2-2.6,2.6-2.6h222.2c1.5,0,2.7,1.2,2.7,2.6
		C1937.2,1106,1936.1,1107.2,1934.6,1107.2"/>
	<path class="st2" d="M1934.6,1091.3h-222.2c-1.5,0-2.6-1.2-2.6-2.6c0-1.5,1.2-2.6,2.6-2.6h222.2c1.5,0,2.7,1.2,2.7,2.6
		C1937.2,1090.1,1936.1,1091.3,1934.6,1091.3"/>
</g>
<circle class="st0" cx="1149.1" cy="1824.5" r="231.5"/>
<g>
	<path class="st2" d="M1306.3,1792c0.6-2.4-0.4-5-2.7-6.1l-48.6-23.8c-0.7-0.3-1.5-0.5-2.3-0.5H1053c-0.7,0-1.4,0.1-2.1,0.4
		l-56,23.8c-2.5,1-3.6,3.7-3,6.2c-0.1,0.5-0.3,0.9-0.3,1.4v1.3v87.6c0,2.9,2.4,5.3,5.3,5.3h304.3c2.9,0,5.3-2.4,5.3-5.3v-87.6v-1.3
		C1306.6,1792.9,1306.4,1792.4,1306.3,1792 M1054,1772.1h197.4l32.6,16h-267.5L1054,1772.1z M1296,1877h-293.8v-77H1296V1877
		L1296,1877z"/>
	<path class="st2" d="M1021.4,1827c0,4,3.3,7.3,7.3,7.3s7.3-3.3,7.3-7.3s-3.3-7.3-7.3-7.3C1024.7,1819.8,1021.4,1823,1021.4,1827"/>
	<path class="st2" d="M1021.4,1852.9c0,4,3.3,7.3,7.3,7.3s7.3-3.3,7.3-7.3s-3.3-7.3-7.3-7.3
		C1024.7,1845.6,1021.4,1848.8,1021.4,1852.9"/>
	<path class="st2" d="M1275.6,1823.4h-222.2c-1.5,0-2.6-1.2-2.6-2.6s1.2-2.6,2.6-2.6h222.2c1.5,0,2.7,1.2,2.7,2.6
		C1278.2,1822.2,1277.1,1823.4,1275.6,1823.4"/>
	<path class="st2" d="M1275.6,1855.2h-222.2c-1.5,0-2.6-1.2-2.6-2.6c0-1.5,1.2-2.6,2.6-2.6h222.2c1.5,0,2.7,1.2,2.7,2.6
		C1278.2,1854,1277.1,1855.2,1275.6,1855.2"/>
	<path class="st2" d="M1275.6,1839.3h-222.2c-1.5,0-2.6-1.2-2.6-2.6c0-1.5,1.2-2.6,2.6-2.6h222.2c1.5,0,2.7,1.2,2.7,2.6
		C1278.2,1838.1,1277.1,1839.3,1275.6,1839.3"/>
</g>
<circle class="st0" cx="2466.1" cy="1824.5" r="231.5"/>
<g>
	<path class="st2" d="M2623.3,1792c0.6-2.4-0.4-5-2.7-6.1l-48.6-23.8c-0.7-0.3-1.5-0.5-2.3-0.5H2370c-0.7,0-1.4,0.1-2.1,0.4
		l-56,23.8c-2.5,1-3.6,3.7-3,6.2c-0.1,0.5-0.3,0.9-0.3,1.4v1.3v87.6c0,2.9,2.4,5.3,5.3,5.3h304.3c2.9,0,5.3-2.4,5.3-5.3v-87.6v-1.3
		C2623.6,1792.9,2623.4,1792.4,2623.3,1792 M2371,1772.1h197.4l32.6,16h-267.5L2371,1772.1z M2613,1877h-293.8v-77H2613V1877
		L2613,1877z"/>
	<path class="st2" d="M2338.4,1827c0,4,3.3,7.3,7.3,7.3s7.3-3.3,7.3-7.3s-3.3-7.3-7.3-7.3C2341.7,1819.8,2338.4,1823,2338.4,1827"/>
	<path class="st2" d="M2338.4,1852.9c0,4,3.3,7.3,7.3,7.3s7.3-3.3,7.3-7.3s-3.3-7.3-7.3-7.3S2338.4,1848.8,2338.4,1852.9"/>
	<path class="st2" d="M2592.6,1823.4h-222.2c-1.5,0-2.6-1.2-2.6-2.6s1.2-2.6,2.6-2.6h222.2c1.5,0,2.7,1.2,2.7,2.6
		C2595.2,1822.2,2594.1,1823.4,2592.6,1823.4"/>
	<path class="st2" d="M2592.6,1855.2h-222.2c-1.5,0-2.6-1.2-2.6-2.6c0-1.5,1.2-2.6,2.6-2.6h222.2c1.5,0,2.7,1.2,2.7,2.6
		C2595.2,1854,2594.1,1855.2,2592.6,1855.2"/>
	<path class="st2" d="M2592.6,1839.3h-222.2c-1.5,0-2.6-1.2-2.6-2.6c0-1.5,1.2-2.6,2.6-2.6h222.2c1.5,0,2.7,1.2,2.7,2.6
		C2595.2,1838.1,2594.1,1839.3,2592.6,1839.3"/>
</g>
<polyline class="st6" points="1527,610.3 1527,735.3 1808,735.3 1808,845.3 "/>
<polyline class="st7" points="1808,1307.3 1808,1459.4 2466,1459.4 2466,1593.3 "/>
<polyline class="st7" points="1808,1307.3 1808,1459.4 1149,1459.4 1149,1593.3 "/>
<g>
	<g>
		<line class="st6" x1="2829" y1="735.3" x2="654.9" y2="735.3"/>
		<g>
			<polygon class="st4" points="662.2,710.4 619,735.3 662.2,760.2 			"/>
		</g>
	</g>
</g>
<line class="st7" x1="2829" y1="1459.3" x2="619" y2="1459.3"/>
<g>
	<g>
		<path class="st0" d="M448,628.9c-11.1-36.1-44.7-61.2-82.7-61.2c-38.1,0-71.5,24.8-82.6,60.8c-6.2-2.2-12.7-3.3-19.3-3.3
			c-26.9,0-50.1,18.5-56.2,44.5c-24.1,0.9-44.3,17.6-49.7,41.2c-0.2,1.1,0,2.2,0.7,3s1.7,1.4,2.8,1.4h339.7c1.8,0,3.2-1.3,3.5-3
			c0.8-4.4,1.1-8.4,1.1-12.4C505.4,665.6,481.4,636.1,448,628.9z"/>
	</g>
	<g>
		<path class="st2" d="M448,628.9c-11.1-36.1-44.7-61.2-82.7-61.2c-38.1,0-71.5,24.8-82.6,60.8c-6.2-2.2-12.7-3.3-19.3-3.3
			c-26.9,0-50.1,18.5-56.2,44.5c-24.1,0.9-44.3,17.6-49.7,41.2c-0.2,1.1,0,2.2,0.7,3s1.7,1.4,2.8,1.4h339.7c1.8,0,3.2-1.3,3.5-3
			c0.8-4.4,1.1-8.4,1.1-12.4C505.4,665.6,481.4,636.1,448,628.9z M497.6,708.1H165.8c6.2-18.6,23.4-31.3,43.7-31.3l0,0h0.6
			c1.8,0.2,3.3-1.2,3.6-2.9c4.4-24.1,25.3-41.5,49.7-41.5c6.5,0,12.9,1.3,19,3.8c3.7,1.8,11.7,6.4,16.7,14.7c0.6,1,1.7,1.5,2.8,1.3
			c0.3-0.1,0.6-0.2,0.9-0.3c1.3-0.8,1.7-2.4,0.9-3.7c-4.3-7.1-10.3-11.8-14.9-14.6c9.3-34.5,40.7-58.6,76.6-58.6
			c34.5,0,64.9,22,75.3,54.7c-9.3-0.1-16.1,3.3-16.6,3.5c-1.4,0.6-2,2.1-1.5,3.5c0.6,1.4,2.1,2,3.5,1.5c0.1,0,9.6-3.8,20.4-2
			c30,6.5,51.7,33,51.7,64C498.2,702.6,498,705.3,497.6,708.1z"/>
	</g>
</g>
<g>
	<g>
		<path class="st0" d="M492,663.9c-11.1-36.1-44.7-61.2-82.7-61.2c-38.1,0-71.5,24.8-82.6,60.8c-6.2-2.2-12.7-3.3-19.3-3.3
			c-26.9,0-50.1,18.5-56.2,44.5c-24.1,0.9-44.3,17.6-49.7,41.2c-0.2,1.1,0,2.2,0.7,3s1.7,1.4,2.8,1.4h339.7c1.8,0,3.2-1.3,3.5-3
			c0.8-4.4,1.1-8.4,1.1-12.4C549.4,700.6,525.4,671.1,492,663.9z"/>
	</g>
	<g>
		<path class="st2" d="M492,663.9c-11.1-36.1-44.7-61.2-82.7-61.2c-38.1,0-71.5,24.8-82.6,60.8c-6.2-2.2-12.7-3.3-19.3-3.3
			c-26.9,0-50.1,18.5-56.2,44.5c-24.1,0.9-44.3,17.6-49.7,41.2c-0.2,1.1,0,2.2,0.7,3s1.7,1.4,2.8,1.4h339.7c1.8,0,3.2-1.3,3.5-3
			c0.8-4.4,1.1-8.4,1.1-12.4C549.4,700.6,525.4,671.1,492,663.9z M541.6,743.1H209.8c6.2-18.6,23.4-31.3,43.7-31.3l0,0h0.6
			c1.8,0.2,3.3-1.2,3.6-2.9c4.4-24.1,25.3-41.5,49.7-41.5c6.5,0,12.9,1.3,19,3.8c3.7,1.8,11.7,6.4,16.7,14.7c0.6,1,1.7,1.5,2.8,1.3
			c0.3-0.1,0.6-0.2,0.9-0.3c1.3-0.8,1.7-2.4,0.9-3.7c-4.3-7.1-10.3-11.8-14.9-14.6c9.3-34.5,40.7-58.6,76.6-58.6
			c34.5,0,64.9,22,75.3,54.7c-9.3-0.1-16.1,3.3-16.6,3.5c-1.4,0.6-2,2.1-1.5,3.5c0.6,1.4,2.1,2,3.5,1.5c0.1,0,9.6-3.8,20.4-2
			c30,6.5,51.7,33,51.7,64C542.2,737.6,542,740.3,541.6,743.1z"/>
	</g>
</g>
</svg>
