<?xml version="1.0" encoding="UTF-8" standalone="no"?>
<!-- Created with Inkscape (http://www.inkscape.org/) -->

<svg
   xmlns:dc="http://purl.org/dc/elements/1.1/"
   xmlns:cc="http://creativecommons.org/ns#"
   xmlns:rdf="http://www.w3.org/1999/02/22-rdf-syntax-ns#"
   xmlns:svg="http://www.w3.org/2000/svg"
   xmlns="http://www.w3.org/2000/svg"
   xmlns:sodipodi="http://sodipodi.sourceforge.net/DTD/sodipodi-0.dtd"
   xmlns:inkscape="http://www.inkscape.org/namespaces/inkscape"
   version="1.1"
   id="svg2"
   xml:space="preserve"
   width="889.2973"
   height="146.83067"
   viewBox="0 0 889.2973 146.83067"
   sodipodi:docname="storage-mbr.svg"
   inkscape:version="0.92.2 5c3e80d, 2017-08-06"><metadata
     id="metadata8"><rdf:RDF><cc:Work
         rdf:about=""><dc:format>image/svg+xml</dc:format><dc:type
           rdf:resource="http://purl.org/dc/dcmitype/StillImage" /><dc:title></dc:title><dc:subject><rdf:Bag><rdf:li>gpt mbr guid partitions parted</rdf:li></rdf:Bag></dc:subject></cc:Work></rdf:RDF></metadata><defs
     id="defs6"><clipPath
       clipPathUnits="userSpaceOnUse"
       id="clipPath20"><path
         d="M 0,110.123 H 666.973 V 0 H 0 Z"
         id="path18"
         inkscape:connector-curvature="0" /></clipPath><clipPath
       clipPathUnits="userSpaceOnUse"
       id="clipPath28"><path
         d="m 212.028,67.4363 h 81.919 V 9.34351 h -81.919 z"
         id="path26"
         inkscape:connector-curvature="0" /></clipPath><clipPath
       clipPathUnits="userSpaceOnUse"
       id="clipPath58"><path
         d="M 295.127,67.1861 H 645.756 V 9.59314 H 295.127 Z"
         id="path56"
         inkscape:connector-curvature="0" /></clipPath><clipPath
       clipPathUnits="userSpaceOnUse"
       id="clipPath74"><path
         d="M 0,110.123 H 666.973 V 0 H 0 Z"
         id="path72"
         inkscape:connector-curvature="0" /></clipPath><clipPath
       clipPathUnits="userSpaceOnUse"
       id="clipPath82"><path
         d="M 17.6567,67.4363 H 47.873 V 9.34253 H 17.6567 Z"
         id="path80"
         inkscape:connector-curvature="0" /></clipPath><clipPath
       clipPathUnits="userSpaceOnUse"
       id="clipPath98"><path
         d="M 0,110.123 H 666.973 V 0 H 0 Z"
         id="path96"
         inkscape:connector-curvature="0" /></clipPath><clipPath
       clipPathUnits="userSpaceOnUse"
       id="clipPath106"><path
         d="M 48.4932,67.4363 H 150.233 V 9.34351 H 48.4932 Z"
         id="path104"
         inkscape:connector-curvature="0" /></clipPath><clipPath
       clipPathUnits="userSpaceOnUse"
       id="clipPath122"><path
         d="M 0,110.123 H 666.973 V 0 H 0 Z"
         id="path120"
         inkscape:connector-curvature="0" /></clipPath><clipPath
       clipPathUnits="userSpaceOnUse"
       id="clipPath130"><path
         d="m 150.853,67.4363 h 60.555 V 9.34351 h -60.555 z"
         id="path128"
         inkscape:connector-curvature="0" /></clipPath><clipPath
       clipPathUnits="userSpaceOnUse"
       id="clipPath216"><path
         d="m 300.877,61.4929 h 53.571 V 15.6863 h -53.571 z"
         id="path214"
         inkscape:connector-curvature="0" /></clipPath><clipPath
       clipPathUnits="userSpaceOnUse"
       id="clipPath220"><path
         d="m 300.877,61.4929 h 53.571 V 15.6863 h -53.571 z"
         id="path218"
         inkscape:connector-curvature="0" /></clipPath><clipPath
       clipPathUnits="userSpaceOnUse"
       id="clipPath260"><path
         d="M 354.979,61.4929 H 464.642 V 15.6863 H 354.979 Z"
         id="path258"
         inkscape:connector-curvature="0" /></clipPath><clipPath
       clipPathUnits="userSpaceOnUse"
       id="clipPath264"><path
         d="M 354.979,61.4929 H 464.642 V 15.6863 H 354.979 Z"
         id="path262"
         inkscape:connector-curvature="0" /></clipPath><clipPath
       clipPathUnits="userSpaceOnUse"
       id="clipPath398"><path
         d="M 0,110.123 H 666.973 V 0 H 0 Z"
         id="path396"
         inkscape:connector-curvature="0" /></clipPath></defs><sodipodi:namedview
     pagecolor="#ffffff"
     bordercolor="#666666"
     borderopacity="1"
     objecttolerance="10"
     gridtolerance="10"
     guidetolerance="10"
     inkscape:pageopacity="0"
     inkscape:pageshadow="2"
     inkscape:window-width="640"
     inkscape:window-height="480"
     id="namedview4"
     showgrid="false"
     inkscape:zoom="0.40031607"
     inkscape:cx="444.64865"
     inkscape:cy="73.415337"
     inkscape:window-x="0"
     inkscape:window-y="0"
     inkscape:window-maximized="0"
     inkscape:current-layer="g10" /><g
     id="g10"
     inkscape:groupmode="layer"
     inkscape:label="storage-mbr"
     transform="matrix(1.3333333,0,0,-1.3333333,0,146.83067)"><path
       d="m 212.278,67.186 h 81.419 V 9.593 h -81.419 z"
       style="fill:#0088ce;fill-opacity:1;fill-rule:nonzero;stroke:none"
       id="path12"
       inkscape:connector-curvature="0" /><g
       id="g14"><g
         id="g16"
         clip-path="url(#clipPath20)"><g
           id="g22"><g
             id="g24" /><g
             id="g34"><g
               clip-path="url(#clipPath28)"
               id="g32"
               style="opacity:0.88716102"><path
                 d="m 212.528,9.844 h 80.919 v 57.093 h -80.919 z m 81.419,-0.5 h -81.919 v 58.093 h 81.919 z"
                 style="fill:#ffffff;fill-opacity:1;fill-rule:nonzero;stroke:none"
                 id="path30"
                 inkscape:connector-curvature="0" /></g></g></g><g
           id="g36"
           transform="translate(240.1738,33.7351)"><path
             d="m 0,0 h -1.648 l -3.01,8.403 h 1.729 l 1.505,-4.561 c 0.272,-0.817 0.512,-1.601 0.624,-2.066 0.096,0.465 0.32,1.249 0.576,2.066 l 1.44,4.561 h 1.745 z"
             style="fill:#ffffff;fill-opacity:1;fill-rule:nonzero;stroke:none"
             id="path38"
             inkscape:connector-curvature="0" /></g><g
           id="g40"
           transform="translate(249.6299,39.6892)"><path
             d="m 0,0 c -0.368,0.496 -1.136,1.104 -1.969,1.104 -1.184,0 -1.824,-0.896 -1.824,-2.672 0,-2.114 0.672,-3.041 1.888,-3.041 0.784,0 1.473,0.528 1.905,1.072 z m -0.016,-5.954 v 0.801 c -0.608,-0.561 -1.313,-0.977 -2.193,-0.977 -1.809,0 -3.233,1.313 -3.233,4.514 0,2.881 1.568,4.241 3.313,4.241 0.849,0 1.649,-0.448 2.113,-0.96 V 4.866 L 1.617,5.715 V -5.954 Z"
             style="fill:#ffffff;fill-opacity:1;fill-rule:nonzero;stroke:none"
             id="path42"
             inkscape:connector-curvature="0" /></g><g
           id="g44"
           transform="translate(257.1973,40.7937)"><path
             d="m 0,0 c -0.784,0 -1.473,-0.528 -1.905,-1.072 v -3.537 c 0.368,-0.496 1.137,-1.105 1.969,-1.105 1.185,0 1.825,0.897 1.825,2.673 C 1.889,-0.928 1.217,0 0,0 m 0.224,-7.234 c -0.848,0 -1.648,0.448 -2.113,0.96 V -7.059 H -3.521 V 3.762 L -1.889,4.61 V 0.545 c 0.609,0.559 1.313,0.976 2.193,0.976 1.809,0 3.234,-1.313 3.234,-4.514 0,-2.881 -1.569,-4.241 -3.314,-4.241"
             style="fill:#ffffff;fill-opacity:1;fill-rule:nonzero;stroke:none"
             id="path46"
             inkscape:connector-curvature="0" /></g><g
           id="g48"
           transform="translate(266.0454,33.5593)"><path
             d="m 0,0 c -1.584,0 -3.25,0.704 -4.034,1.856 l 1.281,1.089 C -2.065,2.08 -1.008,1.664 0,1.664 c 1.792,0 2.449,0.689 2.449,1.841 0,1.152 -0.865,1.681 -2.033,1.681 h -1.04 V 6.818 H 0.4 c 1.04,0 1.585,0.689 1.585,1.537 0,0.64 -0.464,1.537 -2.113,1.537 -0.88,0 -1.585,-0.384 -2.209,-1.04 l -1.248,1.184 c 0.944,0.976 2.081,1.521 3.489,1.521 2.113,0 3.825,-1.089 3.825,-3.041 0,-1.345 -0.592,-2.018 -1.36,-2.45 C 3.425,5.762 4.194,4.897 4.194,3.505 4.194,1.216 2.625,0 0,0"
             style="fill:#ffffff;fill-opacity:1;fill-rule:nonzero;stroke:none"
             id="path50"
             inkscape:connector-curvature="0" /></g><g
           id="g52"><g
             id="g54" /><g
             id="g64"><g
               clip-path="url(#clipPath58)"
               id="g62"
               style="opacity:0.88716102"><path
                 d="M 645.756,67.186 H 295.127 V 9.593 h 350.629 z m -3,-54.592 H 298.127 v 51.593 h 344.629 z"
                 style="fill:#0088ce;fill-opacity:1;fill-rule:nonzero;stroke:none"
                 id="path60"
                 inkscape:connector-curvature="0" /></g></g></g></g></g><path
       d="M 17.907,67.186 H 47.623 V 9.592 H 17.907 Z"
       style="fill:#b4b4b4;fill-opacity:1;fill-rule:nonzero;stroke:none"
       id="path66"
       inkscape:connector-curvature="0" /><g
       id="g68"><g
         id="g70"
         clip-path="url(#clipPath74)"><g
           id="g76"><g
             id="g78" /><g
             id="g88"><g
               clip-path="url(#clipPath82)"
               id="g86"
               style="opacity:0.88716102"><path
                 d="M 18.157,9.843 H 47.373 V 66.937 H 18.157 Z m 29.716,-0.5 H 17.657 v 58.094 h 30.216 z"
                 style="fill:#ffffff;fill-opacity:1;fill-rule:nonzero;stroke:none"
                 id="path84"
                 inkscape:connector-curvature="0" /></g></g></g></g></g><path
       d="m 48.743,67.186 h 101.24 V 9.593 H 48.743 Z"
       style="fill:#0088ce;fill-opacity:1;fill-rule:nonzero;stroke:none"
       id="path90"
       inkscape:connector-curvature="0" /><g
       id="g92"><g
         id="g94"
         clip-path="url(#clipPath98)"><g
           id="g100"><g
             id="g102" /><g
             id="g112"><g
               clip-path="url(#clipPath106)"
               id="g110"
               style="opacity:0.88716102"><path
                 d="m 48.993,9.844 h 100.74 V 66.937 H 48.993 Z m 101.24,-0.5 H 48.493 v 58.093 h 101.74 z"
                 style="fill:#ffffff;fill-opacity:1;fill-rule:nonzero;stroke:none"
                 id="path108"
                 inkscape:connector-curvature="0" /></g></g></g></g></g><path
       d="m 151.103,67.186 h 60.055 V 9.593 h -60.055 z"
       style="fill:#0088ce;fill-opacity:1;fill-rule:nonzero;stroke:none"
       id="path114"
       inkscape:connector-curvature="0" /><g
       id="g116"><g
         id="g118"
         clip-path="url(#clipPath122)"><g
           id="g124"><g
             id="g126" /><g
             id="g136"><g
               clip-path="url(#clipPath130)"
               id="g134"
               style="opacity:0.88716102"><path
                 d="m 151.353,9.844 h 59.555 v 57.093 h -59.555 z m 60.055,-0.5 h -60.555 v 58.093 h 60.555 z"
                 style="fill:#ffffff;fill-opacity:1;fill-rule:nonzero;stroke:none"
                 id="path132"
                 inkscape:connector-curvature="0" /></g></g></g><g
           id="g138"
           transform="translate(532.7471,33.5593)"><path
             d="m 0,0 c -2.77,0 -4.211,1.792 -4.211,4.882 v 6.498 h 1.682 V 4.93 c 0,-2.114 0.88,-3.249 2.56,-3.249 1.761,0 2.594,1.088 2.594,3.136 v 6.563 h 1.68 V 4.85 C 4.305,1.713 2.785,0 0,0"
             style="fill:#4c4c4c;fill-opacity:1;fill-rule:nonzero;stroke:none"
             id="path140"
             inkscape:connector-curvature="0" /></g><g
           id="g142"
           transform="translate(544.7471,33.7351)"><path
             d="m 0,0 v 4.754 c 0,1.696 -0.641,2.305 -1.729,2.305 -1.105,0 -1.729,-0.785 -1.729,-2.145 V 0 h -1.649 v 8.403 h 1.649 V 7.604 c 0.416,0.607 1.249,0.975 2.112,0.975 1.953,0 2.994,-1.28 2.994,-3.761 L 1.648,0 Z"
             style="fill:#4c4c4c;fill-opacity:1;fill-rule:nonzero;stroke:none"
             id="path144"
             inkscape:connector-curvature="0" /></g><g
           id="g146"
           transform="translate(553.8018,33.7351)"><path
             d="m 0,0 v 0.801 c -0.416,-0.609 -1.248,-0.977 -2.112,-0.977 -1.952,0 -2.993,1.28 -2.993,3.762 v 4.817 h 1.648 V 3.649 c 0,-1.696 0.641,-2.304 1.728,-2.304 C -0.623,1.345 0,2.129 0,3.489 V 8.403 H 1.649 V 0 Z"
             style="fill:#4c4c4c;fill-opacity:1;fill-rule:nonzero;stroke:none"
             id="path148"
             inkscape:connector-curvature="0" /></g><g
           id="g150"
           transform="translate(560.6016,33.5593)"><path
             d="m 0,0 c -1.136,0 -2.368,0.448 -3.218,1.072 l 0.753,1.248 c 0.784,-0.544 1.665,-0.832 2.448,-0.832 1.041,0 1.538,0.336 1.538,0.929 0,0.64 -0.737,0.944 -1.954,1.408 -1.808,0.704 -2.464,1.313 -2.464,2.642 0,1.504 1.185,2.288 2.865,2.288 1.056,0 2.097,-0.384 2.849,-0.928 L 2.097,6.562 c -0.688,0.481 -1.377,0.72 -2.177,0.72 -0.8,0 -1.152,-0.319 -1.152,-0.767 0,-0.416 0.288,-0.721 1.552,-1.217 C 2.192,4.577 3.153,4.065 3.153,2.48 3.153,0.624 1.649,0 0,0"
             style="fill:#4c4c4c;fill-opacity:1;fill-rule:nonzero;stroke:none"
             id="path152"
             inkscape:connector-curvature="0" /></g><g
           id="g154"
           transform="translate(568.874,40.8259)"><path
             d="M 0,0 C -1.105,0 -1.777,-0.769 -1.922,-2.113 H 1.984 C 1.904,-0.96 1.359,0 0,0 m 3.602,-3.474 h -5.555 c 0.176,-1.616 1.088,-2.304 2.113,-2.304 0.703,0 1.264,0.256 1.824,0.672 L 2.961,-6.162 C 2.225,-6.867 1.344,-7.267 0.063,-7.267 c -1.968,0 -3.633,1.584 -3.633,4.37 0,2.849 1.505,4.385 3.681,4.385 2.385,0 3.537,-1.936 3.537,-4.209 0,-0.304 -0.031,-0.576 -0.046,-0.753"
             style="fill:#4c4c4c;fill-opacity:1;fill-rule:nonzero;stroke:none"
             id="path156"
             inkscape:connector-curvature="0" /></g><g
           id="g158"
           transform="translate(579.6416,39.6892)"><path
             d="m 0,0 c -0.367,0.496 -1.136,1.104 -1.969,1.104 -1.183,0 -1.824,-0.896 -1.824,-2.672 0,-2.114 0.672,-3.041 1.889,-3.041 0.784,0 1.472,0.528 1.904,1.072 z m -0.016,-5.954 v 0.801 c -0.607,-0.561 -1.312,-0.977 -2.193,-0.977 -1.809,0 -3.232,1.313 -3.232,4.514 0,2.881 1.568,4.241 3.312,4.241 0.85,0 1.65,-0.448 2.113,-0.96 V 4.866 L 1.617,5.715 V -5.954 Z"
             style="fill:#4c4c4c;fill-opacity:1;fill-rule:nonzero;stroke:none"
             id="path160"
             inkscape:connector-curvature="0" /></g><g
           id="g162"
           transform="translate(88.1582,33.7351)"><path
             d="m 0,0 h -1.648 l -3.01,8.403 h 1.729 l 1.505,-4.561 c 0.272,-0.817 0.512,-1.601 0.624,-2.066 0.096,0.465 0.32,1.249 0.576,2.066 l 1.44,4.561 h 1.745 z"
             style="fill:#ffffff;fill-opacity:1;fill-rule:nonzero;stroke:none"
             id="path164"
             inkscape:connector-curvature="0" /></g><g
           id="g166"
           transform="translate(97.6143,39.6892)"><path
             d="m 0,0 c -0.368,0.496 -1.136,1.104 -1.969,1.104 -1.184,0 -1.824,-0.896 -1.824,-2.672 0,-2.114 0.672,-3.041 1.888,-3.041 0.784,0 1.473,0.528 1.905,1.072 z m -0.016,-5.954 v 0.801 c -0.608,-0.561 -1.313,-0.977 -2.193,-0.977 -1.809,0 -3.233,1.313 -3.233,4.514 0,2.881 1.568,4.241 3.313,4.241 0.849,0 1.649,-0.448 2.113,-0.96 V 4.866 L 1.617,5.715 V -5.954 Z"
             style="fill:#ffffff;fill-opacity:1;fill-rule:nonzero;stroke:none"
             id="path168"
             inkscape:connector-curvature="0" /></g><g
           id="g170"
           transform="translate(105.1817,40.7937)"><path
             d="m 0,0 c -0.784,0 -1.473,-0.528 -1.905,-1.072 v -3.537 c 0.368,-0.496 1.137,-1.105 1.969,-1.105 1.185,0 1.825,0.897 1.825,2.673 C 1.889,-0.928 1.217,0 0,0 m 0.224,-7.234 c -0.848,0 -1.648,0.448 -2.113,0.96 V -7.059 H -3.521 V 3.762 L -1.889,4.61 V 0.545 c 0.609,0.559 1.313,0.976 2.193,0.976 1.809,0 3.234,-1.313 3.234,-4.514 0,-2.881 -1.569,-4.241 -3.314,-4.241"
             style="fill:#ffffff;fill-opacity:1;fill-rule:nonzero;stroke:none"
             id="path172"
             inkscape:connector-curvature="0" /></g><g
           id="g174"
           transform="translate(111.853,33.7351)"><path
             d="m 0,0 v 8.579 h -1.985 v 1.169 c 1.152,0.08 2.097,0.464 2.305,1.456 H 1.681 V 0 Z"
             style="fill:#ffffff;fill-opacity:1;fill-rule:nonzero;stroke:none"
             id="path176"
             inkscape:connector-curvature="0" /></g><g
           id="g178"
           transform="translate(168.2266,33.7351)"><path
             d="m 0,0 h -1.648 l -3.01,8.403 h 1.729 l 1.505,-4.561 c 0.272,-0.817 0.512,-1.601 0.624,-2.066 0.096,0.465 0.32,1.249 0.576,2.066 l 1.44,4.561 h 1.745 z"
             style="fill:#ffffff;fill-opacity:1;fill-rule:nonzero;stroke:none"
             id="path180"
             inkscape:connector-curvature="0" /></g><g
           id="g182"
           transform="translate(177.6826,39.6892)"><path
             d="m 0,0 c -0.368,0.496 -1.136,1.104 -1.969,1.104 -1.184,0 -1.824,-0.896 -1.824,-2.672 0,-2.114 0.672,-3.041 1.888,-3.041 0.784,0 1.473,0.528 1.905,1.072 z m -0.016,-5.954 v 0.801 c -0.608,-0.561 -1.313,-0.977 -2.193,-0.977 -1.809,0 -3.233,1.313 -3.233,4.514 0,2.881 1.568,4.241 3.313,4.241 0.849,0 1.649,-0.448 2.113,-0.96 V 4.866 L 1.617,5.715 V -5.954 Z"
             style="fill:#ffffff;fill-opacity:1;fill-rule:nonzero;stroke:none"
             id="path184"
             inkscape:connector-curvature="0" /></g><g
           id="g186"
           transform="translate(185.25,40.7937)"><path
             d="m 0,0 c -0.784,0 -1.473,-0.528 -1.905,-1.072 v -3.537 c 0.368,-0.496 1.137,-1.105 1.969,-1.105 1.185,0 1.825,0.897 1.825,2.673 C 1.889,-0.928 1.217,0 0,0 m 0.224,-7.234 c -0.848,0 -1.648,0.448 -2.113,0.96 V -7.059 H -3.521 V 3.762 L -1.889,4.61 V 0.545 c 0.609,0.559 1.313,0.976 2.193,0.976 1.809,0 3.234,-1.313 3.234,-4.514 0,-2.881 -1.569,-4.241 -3.314,-4.241"
             style="fill:#ffffff;fill-opacity:1;fill-rule:nonzero;stroke:none"
             id="path188"
             inkscape:connector-curvature="0" /></g><g
           id="g190"
           transform="translate(190.4009,33.7351)"><path
             d="M 0,0 C 0.112,3.281 2.097,4.738 4.306,6.051 5.826,6.947 6.21,7.443 6.21,8.228 6.21,9.124 5.602,9.7 4.065,9.7 3.121,9.7 2.081,9.268 1.36,8.579 L 0.288,9.86 c 1.008,0.945 2.433,1.521 3.825,1.521 2.322,0 3.81,-0.992 3.81,-3.058 C 7.923,6.595 7.075,5.858 5.106,4.689 2.961,3.426 2.353,2.705 2.097,1.633 H 8.035 V 0 Z"
             style="fill:#ffffff;fill-opacity:1;fill-rule:nonzero;stroke:none"
             id="path192"
             inkscape:connector-curvature="0" /></g><g
           id="g194"
           transform="translate(337.6533,33.7351)"><path
             d="m 0,0 h -1.648 l -3.01,8.403 h 1.728 l 1.505,-4.561 c 0.273,-0.817 0.513,-1.601 0.624,-2.066 0.097,0.465 0.321,1.249 0.576,2.066 l 1.441,4.561 h 1.745 z"
             style="fill:#ffffff;fill-opacity:1;fill-rule:nonzero;stroke:none"
             id="path196"
             inkscape:connector-curvature="0" /></g><g
           id="g198"
           transform="translate(347.1094,39.6892)"><path
             d="m 0,0 c -0.368,0.496 -1.137,1.104 -1.969,1.104 -1.184,0 -1.825,-0.896 -1.825,-2.672 0,-2.114 0.673,-3.041 1.889,-3.041 0.784,0 1.472,0.528 1.905,1.072 z m -0.017,-5.954 v 0.801 c -0.607,-0.561 -1.312,-0.977 -2.192,-0.977 -1.809,0 -3.233,1.313 -3.233,4.514 0,2.881 1.568,4.241 3.313,4.241 0.849,0 1.649,-0.448 2.112,-0.96 V 4.866 L 1.616,5.715 V -5.954 Z"
             style="fill:#ffffff;fill-opacity:1;fill-rule:nonzero;stroke:none"
             id="path200"
             inkscape:connector-curvature="0" /></g><g
           id="g202"
           transform="translate(354.6768,40.7937)"><path
             d="m 0,0 c -0.784,0 -1.473,-0.528 -1.905,-1.072 v -3.537 c 0.368,-0.496 1.136,-1.105 1.968,-1.105 1.185,0 1.826,0.897 1.826,2.673 C 1.889,-0.928 1.217,0 0,0 m 0.224,-7.234 c -0.848,0 -1.649,0.448 -2.113,0.96 V -7.059 H -3.521 V 3.762 L -1.889,4.61 V 0.545 c 0.609,0.559 1.313,0.976 2.193,0.976 1.808,0 3.233,-1.313 3.233,-4.514 0,-2.881 -1.568,-4.241 -3.313,-4.241"
             style="fill:#ffffff;fill-opacity:1;fill-rule:nonzero;stroke:none"
             id="path204"
             inkscape:connector-curvature="0" /></g><g
           id="g206"
           transform="translate(364.8213,41.7224)"><path
             d="m 0,0 -2.161,-2.753 c -0.336,-0.433 -0.817,-0.992 -1.057,-1.249 0.385,0 1.233,0.017 1.809,0.017 H 0.96 v 3.264 c 0,0.641 0.048,1.633 0.048,2.049 C 0.8,1.04 0.368,0.464 0,0 M 2.593,-5.475 V -7.987 H 0.96 v 2.465 h -6.066 v 1.6 l 5.778,7.139 h 1.921 v -7.202 h 1.488 v -1.49 z"
             style="fill:#ffffff;fill-opacity:1;fill-rule:nonzero;stroke:none"
             id="path208"
             inkscape:connector-curvature="0" /></g><g
           id="g210"><g
             id="g212" /><g
             id="g236"><g
               clip-path="url(#clipPath216)"
               id="g234"
               style="opacity:0.5"><path
                 d="m 301.127,61.243 h 53.071 V 15.936 h -53.071 z"
                 style="fill:#0088ce;fill-opacity:1;fill-rule:nonzero;stroke:none"
                 id="path222"
                 inkscape:connector-curvature="0" /><g
                 id="g232"><g
                   id="g224" /><g
                   id="g230"><g
                     clip-path="url(#clipPath220)"
                     id="g228"
                     style="opacity:0.88716102"><path
                       d="m 301.377,16.186 h 52.571 v 44.807 h -52.571 z m 53.071,-0.5 h -53.571 v 45.807 h 53.571 z"
                       style="fill:#ffffff;fill-opacity:1;fill-rule:nonzero;stroke:none"
                       id="path226"
                       inkscape:connector-curvature="0" /></g></g></g></g></g></g><g
           id="g238"
           transform="translate(314.8403,33.8787)"><path
             d="m 0,0 h -1.648 l -3.01,8.708 h 1.729 L -1.424,3.98 c 0.272,-0.845 0.512,-1.658 0.624,-2.139 0.096,0.481 0.32,1.294 0.576,2.139 l 1.441,4.728 h 1.744 z"
             style="fill:#ffffff;fill-opacity:1;fill-rule:nonzero;stroke:none"
             id="path240"
             inkscape:connector-curvature="0" /></g><g
           id="g242"
           transform="translate(324.2964,40.0486)"><path
             d="m 0,0 c -0.368,0.515 -1.136,1.145 -1.969,1.145 -1.184,0 -1.824,-0.929 -1.824,-2.77 0,-2.189 0.672,-3.151 1.888,-3.151 0.784,0 1.473,0.547 1.905,1.111 z m -0.016,-6.17 v 0.829 c -0.608,-0.58 -1.313,-1.012 -2.193,-1.012 -1.809,0 -3.233,1.361 -3.233,4.678 0,2.986 1.568,4.396 3.313,4.396 0.849,0 1.649,-0.465 2.113,-0.995 v 3.316 l 1.633,0.88 V -6.17 Z"
             style="fill:#ffffff;fill-opacity:1;fill-rule:nonzero;stroke:none"
             id="path244"
             inkscape:connector-curvature="0" /></g><g
           id="g246"
           transform="translate(331.8633,41.1931)"><path
             d="m 0,0 c -0.784,0 -1.473,-0.547 -1.905,-1.111 v -3.665 c 0.368,-0.515 1.137,-1.145 1.969,-1.145 1.185,0 1.825,0.929 1.825,2.77 C 1.889,-0.962 1.217,0 0,0 m 0.224,-7.497 c -0.848,0 -1.648,0.465 -2.113,0.995 V -7.314 H -3.521 V 3.897 l 1.632,0.88 V 0.564 c 0.609,0.581 1.313,1.012 2.193,1.012 1.809,0 3.234,-1.36 3.234,-4.678 0,-2.985 -1.569,-4.395 -3.314,-4.395"
             style="fill:#ffffff;fill-opacity:1;fill-rule:nonzero;stroke:none"
             id="path248"
             inkscape:connector-curvature="0" /></g><g
           id="g250"
           transform="translate(341.0156,33.696)"><path
             d="m 0,0 c -1.425,0 -2.705,0.349 -3.906,1.145 l 0.817,1.443 c 0.944,-0.548 2.128,-0.896 3.137,-0.896 1.745,0 2.657,0.879 2.657,2.355 0,1.377 -0.881,2.073 -2.273,2.073 -0.945,0 -1.584,-0.281 -2.161,-0.729 l -1.792,0.729 0.383,5.673 H 3.745 V 10.135 H -1.633 L -1.856,7.198 c 0.624,0.365 1.408,0.598 2.417,0.598 2.56,0 3.857,-1.56 3.857,-3.666 C 4.418,1.294 2.593,0 0,0"
             style="fill:#ffffff;fill-opacity:1;fill-rule:nonzero;stroke:none"
             id="path252"
             inkscape:connector-curvature="0" /></g><g
           id="g254"><g
             id="g256" /><g
             id="g280"><g
               clip-path="url(#clipPath260)"
               id="g278"
               style="opacity:0.5"><path
                 d="M 355.229,61.243 H 464.392 V 15.936 H 355.229 Z"
                 style="fill:#0088ce;fill-opacity:1;fill-rule:nonzero;stroke:none"
                 id="path266"
                 inkscape:connector-curvature="0" /><g
                 id="g276"><g
                   id="g268" /><g
                   id="g274"><g
                     clip-path="url(#clipPath264)"
                     id="g272"
                     style="opacity:0.88716102"><path
                       d="M 355.479,16.186 H 464.142 V 60.993 H 355.479 Z m 109.163,-0.5 H 354.979 v 45.807 h 109.663 z"
                       style="fill:#ffffff;fill-opacity:1;fill-rule:nonzero;stroke:none"
                       id="path270"
                       inkscape:connector-curvature="0" /></g></g></g></g></g></g><g
           id="g282"
           transform="translate(394.6084,33.8787)"><path
             d="m 0,0 h -1.648 l -3.009,8.708 h 1.728 L -1.424,3.98 c 0.272,-0.845 0.512,-1.658 0.624,-2.139 0.096,0.481 0.321,1.294 0.576,2.139 l 1.441,4.728 h 1.745 z"
             style="fill:#ffffff;fill-opacity:1;fill-rule:nonzero;stroke:none"
             id="path284"
             inkscape:connector-curvature="0" /></g><g
           id="g286"
           transform="translate(404.0645,40.0486)"><path
             d="m 0,0 c -0.368,0.515 -1.136,1.145 -1.969,1.145 -1.184,0 -1.824,-0.929 -1.824,-2.77 0,-2.189 0.672,-3.151 1.889,-3.151 0.784,0 1.472,0.547 1.904,1.111 z m -0.016,-6.17 v 0.829 c -0.608,-0.58 -1.312,-1.012 -2.193,-1.012 -1.809,0 -3.233,1.361 -3.233,4.678 0,2.986 1.569,4.396 3.313,4.396 0.849,0 1.65,-0.465 2.113,-0.995 v 3.316 l 1.633,0.88 V -6.17 Z"
             style="fill:#ffffff;fill-opacity:1;fill-rule:nonzero;stroke:none"
             id="path288"
             inkscape:connector-curvature="0" /></g><g
           id="g290"
           transform="translate(411.6318,41.1931)"><path
             d="m 0,0 c -0.784,0 -1.473,-0.547 -1.905,-1.111 v -3.665 c 0.368,-0.515 1.136,-1.145 1.968,-1.145 1.185,0 1.826,0.929 1.826,2.77 C 1.889,-0.962 1.217,0 0,0 m 0.224,-7.497 c -0.848,0 -1.649,0.465 -2.113,0.995 V -7.314 H -3.521 V 3.897 l 1.632,0.88 V 0.564 c 0.609,0.581 1.313,1.012 2.193,1.012 1.808,0 3.233,-1.36 3.233,-4.678 0,-2.985 -1.568,-4.395 -3.313,-4.395"
             style="fill:#ffffff;fill-opacity:1;fill-rule:nonzero;stroke:none"
             id="path292"
             inkscape:connector-curvature="0" /></g><g
           id="g294"
           transform="translate(421.2471,39.5515)"><path
             d="m 0,0 c -1.633,0 -2.641,-0.681 -2.641,-2.04 0,-1.128 0.88,-2.123 2.561,-2.123 1.697,0 2.625,0.829 2.625,2.14 C 2.545,-0.631 1.601,0 0,0 m -0.144,-5.855 c -2.353,0 -4.21,1.343 -4.21,4.627 0,3.036 1.633,7.182 6.948,7.348 V 4.478 C 0.017,4.362 -1.744,3.135 -2.465,0.713 c 0.784,0.646 1.585,0.929 2.945,0.929 2.034,0 3.762,-1.162 3.762,-3.632 0,-2.538 -1.921,-3.865 -4.386,-3.865"
             style="fill:#ffffff;fill-opacity:1;fill-rule:nonzero;stroke:none"
             id="path296"
             inkscape:connector-curvature="0" /></g><g
           id="g298"
           transform="translate(26.7349,73.075)"><path
             d="M 0,0 V 5.923 C 0,6.595 0.016,7.571 0.032,7.892 -0.096,7.571 -0.417,6.771 -0.688,6.131 L -3.41,-0.176 -6.099,6.131 c -0.272,0.64 -0.592,1.44 -0.72,1.761 0.016,-0.321 0.032,-1.297 0.032,-1.969 V 0 h -1.585 v 11.204 h 1.729 l 2.513,-5.97 c 0.272,-0.64 0.625,-1.457 0.769,-1.921 0.159,0.464 0.48,1.265 0.752,1.921 l 2.465,5.97 H 1.648 V 0 Z"
             style="fill:#4c4c4c;fill-opacity:1;fill-rule:nonzero;stroke:none"
             id="path300"
             inkscape:connector-curvature="0" /></g><g
           id="g302"
           transform="translate(35.917,78.325)"><path
             d="m 0,0 h -3.042 v -3.713 h 2.994 c 1.488,0 2.033,0.752 2.033,1.857 C 1.985,-0.704 1.265,0 0,0 m -0.032,4.418 h -3.01 V 1.521 h 3.01 c 1.104,0 1.553,0.688 1.553,1.424 0,0.832 -0.433,1.473 -1.553,1.473 M -0.176,-5.25 h -4.45 V 5.954 h 4.61 c 1.953,0 3.217,-1.024 3.217,-2.913 0,-1.136 -0.608,-1.841 -1.424,-2.24 0.88,-0.24 1.889,-1.057 1.889,-2.61 0,-2.272 -1.393,-3.441 -3.842,-3.441"
             style="fill:#4c4c4c;fill-opacity:1;fill-rule:nonzero;stroke:none"
             id="path304"
             inkscape:connector-curvature="0" /></g><g
           id="g306"
           transform="translate(47.0049,82.6951)"><path
             d="M 0,0 H -3.265 V -3.602 H 0 c 1.121,0 1.905,0.577 1.905,1.793 C 1.905,-0.641 1.136,0 0,0 M 1.136,-5.042 3.425,-9.62 H 1.489 l -2.225,4.433 H -3.265 V -9.62 H -4.914 V 1.584 H 0 c 1.953,0 3.602,-1.04 3.602,-3.345 0,-1.793 -0.945,-2.897 -2.466,-3.281"
             style="fill:#4c4c4c;fill-opacity:1;fill-rule:nonzero;stroke:none"
             id="path308"
             inkscape:connector-curvature="0" /></g><g
           id="g310"
           transform="translate(75.7095,82.6951)"><path
             d="M 0,0 H -3.009 V -3.857 H 0 c 1.281,0 1.921,0.736 1.921,1.936 C 1.921,-0.688 1.168,0 0,0 M -0.08,-5.442 H -3.009 V -9.62 H -4.658 V 1.584 h 4.69 c 2.065,0 3.602,-1.184 3.602,-3.505 0,-2.305 -1.537,-3.521 -3.714,-3.521"
             style="fill:#4c4c4c;fill-opacity:1;fill-rule:nonzero;stroke:none"
             id="path312"
             inkscape:connector-curvature="0" /></g><g
           id="g314"
           transform="translate(85.8218,79.7332)"><path
             d="m 0,0 c -0.352,0.192 -0.72,0.305 -1.265,0.305 -1.04,0 -1.648,-0.737 -1.648,-2.161 v -4.802 h -1.649 v 8.403 h 1.649 v -0.8 c 0.384,0.56 1.088,0.976 1.921,0.976 0.672,0 1.088,-0.128 1.424,-0.352 z"
             style="fill:#4c4c4c;fill-opacity:1;fill-rule:nonzero;stroke:none"
             id="path316"
             inkscape:connector-curvature="0" /></g><path
           d="m 88.028,81.478 h 1.649 v -8.403 h -1.649 z m 0.832,1.089 c -0.592,0 -1.072,0.48 -1.072,1.056 0,0.593 0.48,1.073 1.072,1.073 0.577,0 1.057,-0.48 1.057,-1.073 0,-0.576 -0.48,-1.056 -1.057,-1.056"
           style="fill:#4c4c4c;fill-opacity:1;fill-rule:nonzero;stroke:none"
           id="path318"
           inkscape:connector-curvature="0" /><g
           id="g320"
           transform="translate(101.9517,73.075)"><path
             d="m 0,0 v 4.754 c 0,1.696 -0.528,2.305 -1.617,2.305 -1.104,0 -1.616,-0.785 -1.616,-2.145 V 0 h -1.649 v 4.754 c 0,1.696 -0.528,2.305 -1.617,2.305 -1.104,0 -1.616,-0.785 -1.616,-2.145 V 0 h -1.649 v 8.403 h 1.649 V 7.604 c 0.416,0.607 1.136,0.975 2.001,0.975 1.136,0 1.856,-0.432 2.304,-1.232 0.609,0.753 1.265,1.232 2.578,1.232 1.952,0 2.88,-1.28 2.88,-3.761 L 1.648,0 Z"
             style="fill:#4c4c4c;fill-opacity:1;fill-rule:nonzero;stroke:none"
             id="path322"
             inkscape:connector-curvature="0" /></g><g
           id="g324"
           transform="translate(110.7818,76.6609)"><path
             d="m 0,0 c -0.448,0.224 -1.024,0.367 -1.921,0.367 -1.057,0 -1.729,-0.479 -1.729,-1.248 0,-0.832 0.528,-1.392 1.617,-1.392 0.88,0 1.649,0.544 2.033,1.072 z m 0,-3.586 v 0.832 c -0.577,-0.576 -1.393,-1.008 -2.305,-1.008 -1.361,0 -2.913,0.768 -2.913,2.833 0,1.873 1.44,2.721 3.345,2.721 0.784,0 1.409,-0.111 1.873,-0.32 v 0.625 c 0,0.912 -0.561,1.424 -1.585,1.424 -0.864,0 -1.537,-0.16 -2.193,-0.528 l -0.64,1.248 c 0.8,0.496 1.697,0.752 2.881,0.752 1.873,0 3.153,-0.912 3.153,-2.816 v -5.763 z"
             style="fill:#4c4c4c;fill-opacity:1;fill-rule:nonzero;stroke:none"
             id="path326"
             inkscape:connector-curvature="0" /></g><g
           id="g328"
           transform="translate(119.3252,79.7332)"><path
             d="m 0,0 c -0.352,0.192 -0.72,0.305 -1.265,0.305 -1.04,0 -1.648,-0.737 -1.648,-2.161 v -4.802 h -1.649 v 8.403 h 1.649 v -0.8 c 0.384,0.56 1.088,0.976 1.921,0.976 0.672,0 1.088,-0.128 1.424,-0.352 z"
             style="fill:#4c4c4c;fill-opacity:1;fill-rule:nonzero;stroke:none"
             id="path330"
             inkscape:connector-curvature="0" /></g><g
           id="g332"
           transform="translate(124.3804,70.114)"><path
             d="m 0,0 h -1.745 l 1.217,3.121 -3.089,8.243 h 1.808 L -0.432,7.251 C -0.176,6.515 0.208,5.266 0.304,4.802 0.448,5.298 0.8,6.498 1.057,7.219 l 1.424,4.145 h 1.745 z"
             style="fill:#4c4c4c;fill-opacity:1;fill-rule:nonzero;stroke:none"
             id="path334"
             inkscape:connector-curvature="0" /></g><g
           id="g336"
           transform="translate(157.4766,82.6951)"><path
             d="M 0,0 H -3.009 V -3.857 H 0 c 1.281,0 1.921,0.736 1.921,1.936 C 1.921,-0.688 1.168,0 0,0 M -0.08,-5.442 H -3.009 V -9.62 H -4.658 V 1.584 h 4.69 c 2.065,0 3.602,-1.184 3.602,-3.505 0,-2.305 -1.537,-3.521 -3.714,-3.521"
             style="fill:#4c4c4c;fill-opacity:1;fill-rule:nonzero;stroke:none"
             id="path338"
             inkscape:connector-curvature="0" /></g><g
           id="g340"
           transform="translate(167.5889,79.7332)"><path
             d="m 0,0 c -0.352,0.192 -0.72,0.305 -1.265,0.305 -1.04,0 -1.648,-0.737 -1.648,-2.161 v -4.802 h -1.649 v 8.403 h 1.649 v -0.8 c 0.384,0.56 1.088,0.976 1.921,0.976 0.672,0 1.088,-0.128 1.424,-0.352 z"
             style="fill:#4c4c4c;fill-opacity:1;fill-rule:nonzero;stroke:none"
             id="path342"
             inkscape:connector-curvature="0" /></g><path
           d="m 169.795,81.478 h 1.649 v -8.403 h -1.649 z m 0.832,1.089 c -0.592,0 -1.072,0.48 -1.072,1.056 0,0.593 0.48,1.073 1.072,1.073 0.577,0 1.057,-0.48 1.057,-1.073 0,-0.576 -0.48,-1.056 -1.057,-1.056"
           style="fill:#4c4c4c;fill-opacity:1;fill-rule:nonzero;stroke:none"
           id="path344"
           inkscape:connector-curvature="0" /><g
           id="g346"
           transform="translate(183.7187,73.075)"><path
             d="m 0,0 v 4.754 c 0,1.696 -0.528,2.305 -1.617,2.305 -1.104,0 -1.616,-0.785 -1.616,-2.145 V 0 h -1.649 v 4.754 c 0,1.696 -0.528,2.305 -1.617,2.305 -1.104,0 -1.616,-0.785 -1.616,-2.145 V 0 h -1.649 v 8.403 h 1.649 V 7.604 c 0.416,0.607 1.136,0.975 2.001,0.975 1.136,0 1.856,-0.432 2.304,-1.232 0.609,0.753 1.265,1.232 2.578,1.232 1.952,0 2.88,-1.28 2.88,-3.761 L 1.648,0 Z"
             style="fill:#4c4c4c;fill-opacity:1;fill-rule:nonzero;stroke:none"
             id="path348"
             inkscape:connector-curvature="0" /></g><g
           id="g350"
           transform="translate(192.5488,76.6609)"><path
             d="m 0,0 c -0.448,0.224 -1.024,0.367 -1.921,0.367 -1.057,0 -1.729,-0.479 -1.729,-1.248 0,-0.832 0.528,-1.392 1.617,-1.392 0.88,0 1.649,0.544 2.033,1.072 z m 0,-3.586 v 0.832 c -0.577,-0.576 -1.393,-1.008 -2.305,-1.008 -1.361,0 -2.913,0.768 -2.913,2.833 0,1.873 1.44,2.721 3.345,2.721 0.784,0 1.409,-0.111 1.873,-0.32 v 0.625 c 0,0.912 -0.561,1.424 -1.585,1.424 -0.864,0 -1.537,-0.16 -2.193,-0.528 l -0.64,1.248 c 0.8,0.496 1.697,0.752 2.881,0.752 1.873,0 3.153,-0.912 3.153,-2.816 v -5.763 z"
             style="fill:#4c4c4c;fill-opacity:1;fill-rule:nonzero;stroke:none"
             id="path352"
             inkscape:connector-curvature="0" /></g><g
           id="g354"
           transform="translate(201.0923,79.7332)"><path
             d="m 0,0 c -0.352,0.192 -0.72,0.305 -1.265,0.305 -1.04,0 -1.648,-0.737 -1.648,-2.161 v -4.802 h -1.649 v 8.403 h 1.649 v -0.8 c 0.384,0.56 1.088,0.976 1.921,0.976 0.672,0 1.088,-0.128 1.424,-0.352 z"
             style="fill:#4c4c4c;fill-opacity:1;fill-rule:nonzero;stroke:none"
             id="path356"
             inkscape:connector-curvature="0" /></g><g
           id="g358"
           transform="translate(206.1475,70.114)"><path
             d="m 0,0 h -1.745 l 1.217,3.121 -3.089,8.243 h 1.808 L -0.432,7.251 C -0.176,6.515 0.208,5.266 0.304,4.802 0.448,5.298 0.8,6.498 1.057,7.219 l 1.424,4.145 h 1.745 z"
             style="fill:#4c4c4c;fill-opacity:1;fill-rule:nonzero;stroke:none"
             id="path360"
             inkscape:connector-curvature="0" /></g><g
           id="g362"
           transform="translate(229.334,82.6951)"><path
             d="M 0,0 H -3.009 V -3.857 H 0 c 1.281,0 1.921,0.736 1.921,1.936 C 1.921,-0.688 1.168,0 0,0 M -0.08,-5.442 H -3.009 V -9.62 H -4.658 V 1.584 h 4.69 c 2.065,0 3.602,-1.184 3.602,-3.505 0,-2.305 -1.537,-3.521 -3.714,-3.521"
             style="fill:#4c4c4c;fill-opacity:1;fill-rule:nonzero;stroke:none"
             id="path364"
             inkscape:connector-curvature="0" /></g><g
           id="g366"
           transform="translate(239.4463,79.7332)"><path
             d="m 0,0 c -0.352,0.192 -0.72,0.305 -1.265,0.305 -1.04,0 -1.648,-0.737 -1.648,-2.161 v -4.802 h -1.649 v 8.403 h 1.649 v -0.8 c 0.384,0.56 1.088,0.976 1.921,0.976 0.672,0 1.088,-0.128 1.424,-0.352 z"
             style="fill:#4c4c4c;fill-opacity:1;fill-rule:nonzero;stroke:none"
             id="path368"
             inkscape:connector-curvature="0" /></g><path
           d="m 241.652,81.478 h 1.649 v -8.403 h -1.649 z m 0.833,1.089 c -0.592,0 -1.072,0.48 -1.072,1.056 0,0.593 0.48,1.073 1.072,1.073 0.576,0 1.056,-0.48 1.056,-1.073 0,-0.576 -0.48,-1.056 -1.056,-1.056"
           style="fill:#4c4c4c;fill-opacity:1;fill-rule:nonzero;stroke:none"
           id="path370"
           inkscape:connector-curvature="0" /><g
           id="g372"
           transform="translate(255.5762,73.075)"><path
             d="m 0,0 v 4.754 c 0,1.696 -0.528,2.305 -1.617,2.305 -1.104,0 -1.616,-0.785 -1.616,-2.145 V 0 h -1.649 v 4.754 c 0,1.696 -0.528,2.305 -1.617,2.305 -1.104,0 -1.616,-0.785 -1.616,-2.145 V 0 h -1.649 v 8.403 h 1.649 V 7.604 c 0.416,0.607 1.136,0.975 2.001,0.975 1.136,0 1.856,-0.432 2.304,-1.232 0.609,0.753 1.265,1.232 2.578,1.232 1.952,0 2.88,-1.28 2.88,-3.761 L 1.648,0 Z"
             style="fill:#4c4c4c;fill-opacity:1;fill-rule:nonzero;stroke:none"
             id="path374"
             inkscape:connector-curvature="0" /></g><g
           id="g376"
           transform="translate(264.4062,76.6609)"><path
             d="m 0,0 c -0.448,0.224 -1.024,0.367 -1.921,0.367 -1.057,0 -1.729,-0.479 -1.729,-1.248 0,-0.832 0.528,-1.392 1.617,-1.392 0.88,0 1.649,0.544 2.033,1.072 z m 0,-3.586 v 0.832 c -0.577,-0.576 -1.393,-1.008 -2.305,-1.008 -1.361,0 -2.913,0.768 -2.913,2.833 0,1.873 1.44,2.721 3.345,2.721 0.784,0 1.409,-0.111 1.873,-0.32 v 0.625 c 0,0.912 -0.561,1.424 -1.585,1.424 -0.864,0 -1.537,-0.16 -2.193,-0.528 l -0.64,1.248 c 0.8,0.496 1.697,0.752 2.881,0.752 1.873,0 3.153,-0.912 3.153,-2.816 v -5.763 z"
             style="fill:#4c4c4c;fill-opacity:1;fill-rule:nonzero;stroke:none"
             id="path378"
             inkscape:connector-curvature="0" /></g><g
           id="g380"
           transform="translate(272.9497,79.7332)"><path
             d="m 0,0 c -0.352,0.192 -0.72,0.305 -1.265,0.305 -1.04,0 -1.648,-0.737 -1.648,-2.161 v -4.802 h -1.649 v 8.403 h 1.649 v -0.8 c 0.384,0.56 1.088,0.976 1.921,0.976 0.672,0 1.088,-0.128 1.424,-0.352 z"
             style="fill:#4c4c4c;fill-opacity:1;fill-rule:nonzero;stroke:none"
             id="path382"
             inkscape:connector-curvature="0" /></g><g
           id="g384"
           transform="translate(278.0049,70.114)"><path
             d="m 0,0 h -1.745 l 1.217,3.121 -3.089,8.243 h 1.808 L -0.432,7.251 C -0.176,6.515 0.208,5.266 0.304,4.802 0.448,5.298 0.8,6.498 1.057,7.219 l 1.424,4.145 h 1.745 z"
             style="fill:#4c4c4c;fill-opacity:1;fill-rule:nonzero;stroke:none"
             id="path386"
             inkscape:connector-curvature="0" /></g></g></g><g
       id="g388"
       transform="translate(410.3125,73.075)"><path
         d="M 0,0 V 11.203 H 6.945 V 9.633 H 1.664 V 6.562 H 5.078 V 4.992 H 1.664 V 1.57 h 5.633 l 0,-1.57 z"
         style="fill:#595959;fill-opacity:1;fill-rule:nonzero;stroke:none"
         id="path390"
         inkscape:connector-curvature="0" /></g><g
       id="g392"><g
         id="g394"
         clip-path="url(#clipPath398)"><g
           id="g400"
           transform="translate(424.5078,73.075)"><path
             d="M 0,0 -1.359,2.109 C -1.448,2.245 -1.524,2.376 -1.59,2.504 -1.655,2.632 -1.716,2.747 -1.773,2.852 -1.825,2.747 -1.887,2.632 -1.957,2.504 -2.027,2.376 -2.106,2.245 -2.195,2.109 L -3.555,0 h -1.898 l 2.719,4.258 -2.5,3.922 h 1.906 L -2.195,6.398 C -2.106,6.253 -2.027,6.12 -1.957,6 c 0.07,-0.12 0.132,-0.231 0.184,-0.336 0.057,0.105 0.118,0.219 0.183,0.344 0.066,0.125 0.142,0.255 0.231,0.39 L -0.227,8.18 H 1.68 L -0.828,4.258 1.906,0 Z"
             style="fill:#595959;fill-opacity:1;fill-rule:nonzero;stroke:none"
             id="path402"
             inkscape:connector-curvature="0" /></g><g
           id="g404"
           transform="translate(430.5391,72.8796)"><path
             d="m 0,0 c -0.323,0 -0.601,0.048 -0.832,0.145 -0.231,0.096 -0.422,0.233 -0.57,0.41 -0.149,0.176 -0.257,0.391 -0.325,0.644 -0.067,0.253 -0.101,0.532 -0.101,0.84 V 6.93 h -1.266 v 1.445 h 1.266 v 2.57 l 1.664,0.805 V 8.375 H 1.773 V 6.93 H -0.164 V 2.469 c 0,-0.136 0.012,-0.261 0.035,-0.375 C -0.105,1.979 -0.063,1.88 -0.004,1.797 0.056,1.714 0.138,1.649 0.242,1.605 0.347,1.562 0.479,1.539 0.641,1.539 c 0.395,0 0.799,0.128 1.211,0.383 L 1.648,0.375 C 1.419,0.261 1.169,0.169 0.898,0.102 0.628,0.034 0.328,0 0,0"
             style="fill:#595959;fill-opacity:1;fill-rule:nonzero;stroke:none"
             id="path406"
             inkscape:connector-curvature="0" /></g><g
           id="g408"
           transform="translate(437.5469,79.9734)"><path
             d="m 0,0 c -0.261,0 -0.511,-0.038 -0.75,-0.113 -0.239,-0.075 -0.452,-0.196 -0.637,-0.36 -0.184,-0.164 -0.337,-0.379 -0.457,-0.644 -0.12,-0.266 -0.19,-0.589 -0.211,-0.969 h 3.907 c -0.011,0.38 -0.071,0.703 -0.18,0.969 -0.11,0.265 -0.253,0.48 -0.43,0.644 -0.177,0.164 -0.374,0.285 -0.59,0.36 C 0.437,-0.038 0.219,0 0,0 m 0,-7.094 c -0.567,0 -1.081,0.098 -1.539,0.293 -0.458,0.196 -0.849,0.477 -1.172,0.844 -0.323,0.367 -0.571,0.816 -0.746,1.348 -0.175,0.531 -0.262,1.132 -0.262,1.804 0,0.672 0.089,1.273 0.266,1.801 0.177,0.528 0.429,0.977 0.754,1.344 0.325,0.367 0.716,0.647 1.172,0.84 C -1.071,1.372 -0.562,1.469 0,1.469 0.484,1.469 0.938,1.392 1.363,1.238 1.788,1.085 2.16,0.851 2.48,0.535 2.801,0.22 3.054,-0.177 3.238,-0.656 3.423,-1.136 3.516,-1.7 3.516,-2.352 3.516,-2.528 3.512,-2.716 3.504,-2.914 3.496,-3.112 3.479,-3.284 3.453,-3.43 h -5.508 c 0.005,-0.339 0.067,-0.641 0.184,-0.91 0.117,-0.268 0.272,-0.497 0.465,-0.687 0.192,-0.191 0.411,-0.336 0.656,-0.438 0.245,-0.101 0.5,-0.152 0.766,-0.152 0.338,0 0.652,0.07 0.941,0.211 0.289,0.14 0.54,0.346 0.754,0.617 L 2.797,-5.906 C 2.5,-6.261 2.12,-6.547 1.656,-6.766 1.192,-6.984 0.641,-7.094 0,-7.094"
             style="fill:#595959;fill-opacity:1;fill-rule:nonzero;stroke:none"
             id="path410"
             inkscape:connector-curvature="0" /></g><g
           id="g412"
           transform="translate(448.0391,73.075)"><path
             d="m 0,0 v 4.883 c 0,0.344 -0.042,0.637 -0.125,0.879 -0.083,0.242 -0.198,0.44 -0.344,0.593 -0.145,0.154 -0.317,0.266 -0.515,0.336 -0.199,0.071 -0.414,0.106 -0.649,0.106 -0.25,0 -0.481,-0.032 -0.695,-0.098 C -2.542,6.634 -2.727,6.528 -2.883,6.383 -3.039,6.237 -3.163,6.043 -3.254,5.801 -3.345,5.559 -3.391,5.263 -3.391,4.914 V 0 h -1.664 v 8.18 h 1.664 V 7.391 c 0.266,0.338 0.571,0.586 0.914,0.742 0.344,0.156 0.743,0.234 1.196,0.234 0.427,0 0.82,-0.061 1.179,-0.183 C 0.258,8.062 0.569,7.862 0.832,7.586 1.095,7.31 1.3,6.95 1.445,6.508 1.591,6.065 1.664,5.523 1.664,4.883 V 0 Z"
             style="fill:#595959;fill-opacity:1;fill-rule:nonzero;stroke:none"
             id="path414"
             inkscape:connector-curvature="0" /></g><g
           id="g416"
           transform="translate(455.25,74.45)"><path
             d="M 0,0 C 0.375,0 0.706,0.081 0.992,0.242 1.278,0.403 1.513,0.633 1.695,0.93 V 4.531 C 1.633,4.636 1.55,4.739 1.445,4.844 1.341,4.948 1.218,5.043 1.074,5.129 0.931,5.215 0.77,5.285 0.59,5.34 0.41,5.395 0.214,5.422 0,5.422 -0.625,5.422 -1.109,5.191 -1.453,4.73 -1.797,4.27 -1.969,3.599 -1.969,2.719 -1.969,2.323 -1.923,1.96 -1.832,1.629 -1.741,1.298 -1.61,1.012 -1.441,0.77 -1.272,0.527 -1.066,0.339 -0.824,0.203 -0.582,0.067 -0.308,0 0,0 m -0.234,-1.57 c -0.516,0 -0.984,0.097 -1.403,0.293 -0.419,0.195 -0.777,0.476 -1.074,0.843 -0.297,0.368 -0.524,0.817 -0.684,1.348 -0.159,0.531 -0.238,1.133 -0.238,1.805 0,0.672 0.083,1.272 0.25,1.801 0.167,0.528 0.4,0.976 0.699,1.343 0.3,0.367 0.658,0.648 1.075,0.84 0.417,0.193 0.875,0.289 1.375,0.289 0.448,0 0.829,-0.073 1.144,-0.219 C 1.226,6.628 1.487,6.445 1.695,6.227 V 9.406 L 3.359,10.18 V -1.375 H 1.695 v 0.578 C 1.477,-1.042 1.215,-1.231 0.91,-1.367 0.605,-1.503 0.224,-1.57 -0.234,-1.57"
             style="fill:#595959;fill-opacity:1;fill-rule:nonzero;stroke:none"
             id="path418"
             inkscape:connector-curvature="0" /></g><g
           id="g420"
           transform="translate(464.3281,79.9734)"><path
             d="m 0,0 c -0.261,0 -0.511,-0.038 -0.75,-0.113 -0.239,-0.075 -0.452,-0.196 -0.637,-0.36 -0.184,-0.164 -0.337,-0.379 -0.457,-0.644 -0.12,-0.266 -0.19,-0.589 -0.211,-0.969 h 3.907 c -0.011,0.38 -0.071,0.703 -0.18,0.969 -0.11,0.265 -0.253,0.48 -0.43,0.644 -0.177,0.164 -0.374,0.285 -0.59,0.36 C 0.437,-0.038 0.219,0 0,0 m 0,-7.094 c -0.567,0 -1.081,0.098 -1.539,0.293 -0.458,0.196 -0.849,0.477 -1.172,0.844 -0.323,0.367 -0.571,0.816 -0.746,1.348 -0.175,0.531 -0.262,1.132 -0.262,1.804 0,0.672 0.089,1.273 0.266,1.801 0.177,0.528 0.429,0.977 0.754,1.344 0.325,0.367 0.716,0.647 1.172,0.84 C -1.071,1.372 -0.562,1.469 0,1.469 0.484,1.469 0.938,1.392 1.363,1.238 1.788,1.085 2.16,0.851 2.48,0.535 2.801,0.22 3.054,-0.177 3.238,-0.656 3.423,-1.136 3.516,-1.7 3.516,-2.352 3.516,-2.528 3.512,-2.716 3.504,-2.914 3.496,-3.112 3.479,-3.284 3.453,-3.43 h -5.508 c 0.005,-0.339 0.067,-0.641 0.184,-0.91 0.117,-0.268 0.272,-0.497 0.465,-0.687 0.192,-0.191 0.411,-0.336 0.656,-0.438 0.245,-0.101 0.5,-0.152 0.766,-0.152 0.338,0 0.652,0.07 0.941,0.211 0.289,0.14 0.54,0.346 0.754,0.617 L 2.797,-5.906 C 2.5,-6.261 2.12,-6.547 1.656,-6.766 1.192,-6.984 0.641,-7.094 0,-7.094"
             style="fill:#595959;fill-opacity:1;fill-rule:nonzero;stroke:none"
             id="path422"
             inkscape:connector-curvature="0" /></g><g
           id="g424"
           transform="translate(472.9922,74.45)"><path
             d="M 0,0 C 0.375,0 0.706,0.081 0.992,0.242 1.278,0.403 1.513,0.633 1.695,0.93 V 4.531 C 1.633,4.636 1.55,4.739 1.445,4.844 1.341,4.948 1.218,5.043 1.074,5.129 0.931,5.215 0.77,5.285 0.59,5.34 0.41,5.395 0.214,5.422 0,5.422 -0.625,5.422 -1.109,5.191 -1.453,4.73 -1.797,4.27 -1.969,3.599 -1.969,2.719 -1.969,2.323 -1.923,1.96 -1.832,1.629 -1.741,1.298 -1.61,1.012 -1.441,0.77 -1.272,0.527 -1.066,0.339 -0.824,0.203 -0.582,0.067 -0.308,0 0,0 m -0.234,-1.57 c -0.516,0 -0.984,0.097 -1.403,0.293 -0.419,0.195 -0.777,0.476 -1.074,0.843 -0.297,0.368 -0.524,0.817 -0.684,1.348 -0.159,0.531 -0.238,1.133 -0.238,1.805 0,0.672 0.083,1.272 0.25,1.801 0.167,0.528 0.4,0.976 0.699,1.343 0.3,0.367 0.658,0.648 1.075,0.84 0.417,0.193 0.875,0.289 1.375,0.289 0.448,0 0.829,-0.073 1.144,-0.219 C 1.226,6.628 1.487,6.445 1.695,6.227 V 9.406 L 3.359,10.18 V -1.375 H 1.695 v 0.578 C 1.477,-1.042 1.215,-1.231 0.91,-1.367 0.605,-1.503 0.224,-1.57 -0.234,-1.57"
             style="fill:#595959;fill-opacity:1;fill-rule:nonzero;stroke:none"
             id="path426"
             inkscape:connector-curvature="0" /></g><g
           id="g428"
           transform="translate(484.3047,70.9968)"><path
             d="m 0,0 c -0.245,0.317 -0.484,0.69 -0.719,1.117 -0.234,0.427 -0.442,0.914 -0.625,1.461 -0.182,0.547 -0.329,1.156 -0.441,1.828 -0.112,0.672 -0.168,1.411 -0.168,2.219 0,0.808 0.061,1.558 0.183,2.25 0.123,0.692 0.283,1.327 0.481,1.902 0.198,0.576 0.426,1.087 0.684,1.536 0.257,0.448 0.519,0.833 0.785,1.156 H 1.812 C 1.703,13.344 1.577,13.167 1.434,12.938 1.29,12.708 1.141,12.438 0.984,12.125 0.828,11.813 0.675,11.458 0.523,11.063 0.372,10.667 0.235,10.237 0.113,9.773 -0.009,9.31 -0.106,8.813 -0.18,8.285 -0.253,7.757 -0.289,7.203 -0.289,6.625 -0.289,5.75 -0.215,4.949 -0.066,4.223 0.082,3.496 0.259,2.852 0.465,2.289 0.671,1.727 0.883,1.253 1.102,0.867 1.32,0.481 1.497,0.192 1.633,0 Z"
             style="fill:#595959;fill-opacity:1;fill-rule:nonzero;stroke:none"
             id="path430"
             inkscape:connector-curvature="0" /></g><g
           id="g432"
           transform="translate(491.7031,73.075)"><path
             d="m 0,0 h -1.555 l -2.992,8.18 h 1.664 l 1.891,-5.367 c 0.047,-0.141 0.087,-0.263 0.121,-0.368 0.034,-0.104 0.069,-0.221 0.105,-0.351 0.032,0.13 0.064,0.247 0.098,0.351 0.034,0.105 0.074,0.227 0.121,0.368 L 1.328,8.18 h 1.664 z"
             style="fill:#595959;fill-opacity:1;fill-rule:nonzero;stroke:none"
             id="path434"
             inkscape:connector-curvature="0" /></g><g
           id="g436"
           transform="translate(499.5234,74.45)"><path
             d="M 0,0 C 0.375,0 0.706,0.081 0.992,0.242 1.278,0.403 1.513,0.633 1.695,0.93 V 4.531 C 1.633,4.636 1.55,4.739 1.445,4.844 1.341,4.948 1.218,5.043 1.074,5.129 0.931,5.215 0.77,5.285 0.59,5.34 0.41,5.395 0.214,5.422 0,5.422 -0.625,5.422 -1.109,5.191 -1.453,4.73 -1.797,4.27 -1.969,3.599 -1.969,2.719 -1.969,2.323 -1.923,1.96 -1.832,1.629 -1.741,1.298 -1.61,1.012 -1.441,0.77 -1.272,0.527 -1.066,0.339 -0.824,0.203 -0.582,0.067 -0.308,0 0,0 m -0.234,-1.57 c -0.516,0 -0.984,0.097 -1.403,0.293 -0.419,0.195 -0.777,0.476 -1.074,0.843 -0.297,0.368 -0.524,0.817 -0.684,1.348 -0.159,0.531 -0.238,1.133 -0.238,1.805 0,0.672 0.083,1.272 0.25,1.801 0.167,0.528 0.4,0.976 0.699,1.343 0.3,0.367 0.658,0.648 1.075,0.84 0.417,0.193 0.875,0.289 1.375,0.289 0.448,0 0.829,-0.073 1.144,-0.219 C 1.226,6.628 1.487,6.445 1.695,6.227 V 9.406 L 3.359,10.18 V -1.375 H 1.695 v 0.578 C 1.477,-1.042 1.215,-1.231 0.91,-1.367 0.605,-1.503 0.224,-1.57 -0.234,-1.57"
             style="fill:#595959;fill-opacity:1;fill-rule:nonzero;stroke:none"
             id="path438"
             inkscape:connector-curvature="0" /></g><g
           id="g440"
           transform="translate(508.6797,74.45)"><path
             d="M 0,0 C 0.317,0 0.597,0.063 0.836,0.191 1.075,0.319 1.277,0.5 1.441,0.734 1.605,0.969 1.729,1.254 1.812,1.59 1.896,1.926 1.937,2.302 1.937,2.719 1.937,3.599 1.772,4.27 1.441,4.73 1.11,5.191 0.63,5.422 0,5.422 -0.214,5.422 -0.411,5.394 -0.594,5.336 -0.776,5.278 -0.941,5.206 -1.09,5.117 -1.238,5.028 -1.366,4.93 -1.473,4.82 -1.579,4.711 -1.664,4.604 -1.727,4.5 V 0.93 C -1.544,0.633 -1.304,0.403 -1.004,0.242 -0.704,0.081 -0.37,0 0,0 m 0.203,-1.57 c -0.234,0 -0.446,0.022 -0.637,0.066 -0.19,0.044 -0.363,0.105 -0.519,0.18 -0.156,0.075 -0.297,0.165 -0.422,0.269 -0.125,0.105 -0.242,0.216 -0.352,0.336 V -1.375 H -3.391 V 9.406 l 1.664,0.774 v -4 c 0.208,0.234 0.47,0.428 0.786,0.582 0.315,0.153 0.696,0.23 1.144,0.23 0.5,0 0.958,-0.096 1.375,-0.289 C 1.995,6.511 2.353,6.23 2.652,5.863 2.952,5.496 3.185,5.048 3.352,4.52 3.519,3.991 3.602,3.391 3.602,2.719 3.602,2.026 3.523,1.413 3.367,0.879 3.211,0.345 2.985,-0.103 2.691,-0.465 2.397,-0.827 2.04,-1.102 1.621,-1.289 1.202,-1.477 0.729,-1.57 0.203,-1.57"
             style="fill:#595959;fill-opacity:1;fill-rule:nonzero;stroke:none"
             id="path442"
             inkscape:connector-curvature="0" /></g><g
           id="g444"
           transform="translate(519.3516,77.1531)"><path
             d="M 0,0 V 5.109 L -3.828,0 Z m 0,-4.078 v 2.547 h -6.031 v 1.07 l 5.726,7.586 H 1.664 V 0 H 3.117 V -1.531 H 1.664 v -2.547 z"
             style="fill:#595959;fill-opacity:1;fill-rule:nonzero;stroke:none"
             id="path446"
             inkscape:connector-curvature="0" /></g><g
           id="g448"
           transform="translate(524.2422,70.9968)"><path
             d="m 0,0 c 0.136,0.192 0.312,0.481 0.531,0.867 0.219,0.386 0.431,0.86 0.637,1.422 0.206,0.563 0.383,1.207 0.531,1.934 0.149,0.726 0.223,1.527 0.223,2.402 0,0.578 -0.036,1.132 -0.11,1.66 -0.073,0.528 -0.168,1.025 -0.289,1.488 -0.12,0.464 -0.254,0.894 -0.406,1.29 -0.151,0.395 -0.305,0.75 -0.461,1.062 -0.156,0.313 -0.307,0.582 -0.453,0.809 -0.145,0.226 -0.27,0.405 -0.375,0.535 h 1.633 c 0.266,-0.323 0.526,-0.708 0.781,-1.156 0.255,-0.449 0.484,-0.96 0.684,-1.536 0.2,-0.575 0.36,-1.21 0.48,-1.902 0.12,-0.692 0.18,-1.442 0.18,-2.25 C 3.586,5.817 3.53,5.078 3.418,4.406 3.306,3.734 3.159,3.125 2.977,2.578 2.794,2.031 2.586,1.544 2.352,1.117 2.117,0.69 1.878,0.317 1.633,0 Z"
             style="fill:#595959;fill-opacity:1;fill-rule:nonzero;stroke:none"
             id="path450"
             inkscape:connector-curvature="0" /></g></g></g></g></svg>