<?xml version="1.0" encoding="UTF-8" standalone="no"?>
<!-- Created with Inkscape (http://www.inkscape.org/) -->

<svg
   xmlns:dc="http://purl.org/dc/elements/1.1/"
   xmlns:cc="http://creativecommons.org/ns#"
   xmlns:rdf="http://www.w3.org/1999/02/22-rdf-syntax-ns#"
   xmlns:svg="http://www.w3.org/2000/svg"
   xmlns="http://www.w3.org/2000/svg"
   xmlns:sodipodi="http://sodipodi.sourceforge.net/DTD/sodipodi-0.dtd"
   xmlns:inkscape="http://www.inkscape.org/namespaces/inkscape"
   version="1.1"
   id="svg2"
   xml:space="preserve"
   width="2073.96"
   height="797.06934"
   viewBox="0 0 2073.96 797.06934"
   sodipodi:docname="vdo-kvm1.svg"
   inkscape:version="0.92.2 5c3e80d, 2017-08-06"><metadata
     id="metadata8"><rdf:RDF><cc:Work
         rdf:about=""><dc:format>image/svg+xml</dc:format><dc:type
           rdf:resource="http://purl.org/dc/dcmitype/StillImage" /><dc:title></dc:title><dc:subject><rdf:Bag><rdf:li>vdo kvm rhel8</rdf:li></rdf:Bag></dc:subject></cc:Work></rdf:RDF></metadata><defs
     id="defs6"><clipPath
       clipPathUnits="userSpaceOnUse"
       id="clipPath28"><path
         d="M 0,597.802 H 1555.468 V 0 H 0 Z"
         id="path26"
         inkscape:connector-curvature="0" /></clipPath><clipPath
       clipPathUnits="userSpaceOnUse"
       id="clipPath36"><path
         d="M 19.1864,478.609 H 1536.28 V 320.36 H 19.1864 Z"
         id="path34"
         inkscape:connector-curvature="0" /></clipPath><clipPath
       clipPathUnits="userSpaceOnUse"
       id="clipPath62"><path
         d="M 0,597.802 H 1555.468 V 0 H 0 Z"
         id="path60"
         inkscape:connector-curvature="0" /></clipPath></defs><sodipodi:namedview
     pagecolor="#ffffff"
     bordercolor="#666666"
     borderopacity="1"
     objecttolerance="10"
     gridtolerance="10"
     guidetolerance="10"
     inkscape:pageopacity="0"
     inkscape:pageshadow="2"
     inkscape:window-width="640"
     inkscape:window-height="480"
     id="namedview4"
     showgrid="false"
     inkscape:zoom="0.16490193"
     inkscape:cx="1036.98"
     inkscape:cy="398.53467"
     inkscape:window-x="0"
     inkscape:window-y="0"
     inkscape:window-maximized="0"
     inkscape:current-layer="g10" /><g
     id="g10"
     inkscape:groupmode="layer"
     inkscape:label="vdo-kvm1"
     transform="matrix(1.3333333,0,0,-1.3333333,0,797.06933)"><path
       d="M 307.71,500.067 H 19.186 v 77.771 H 307.71 Z"
       style="fill:#e6e6e6;fill-opacity:1;fill-rule:nonzero;stroke:none"
       id="path12"
       inkscape:connector-curvature="0" /><path
       d="M 383.543,19.964 H 19.186 v 77.771 h 364.357 z"
       style="fill:#e6e6e6;fill-opacity:1;fill-rule:nonzero;stroke:none"
       id="path14"
       inkscape:connector-curvature="0" /><path
       d="M 767.789,19.964 H 403.433 v 77.771 h 364.356 z"
       style="fill:#e6e6e6;fill-opacity:1;fill-rule:nonzero;stroke:none"
       id="path16"
       inkscape:connector-curvature="0" /><path
       d="M 1152.036,19.964 H 787.679 v 77.771 h 364.357 z"
       style="fill:#e6e6e6;fill-opacity:1;fill-rule:nonzero;stroke:none"
       id="path18"
       inkscape:connector-curvature="0" /><path
       d="m 1536.282,19.964 h -364.356 v 77.771 h 364.356 z"
       style="fill:#e6e6e6;fill-opacity:1;fill-rule:nonzero;stroke:none"
       id="path20"
       inkscape:connector-curvature="0" /><g
       id="g22"><g
         id="g24"
         clip-path="url(#clipPath28)"><g
           id="g30"><g
             id="g32" /><g
             id="g42"><g
               clip-path="url(#clipPath36)"
               id="g40"
               style="opacity:0.30000299"><path
                 d="M 1536.282,320.36 H 19.186 v 158.249 h 1517.096 z"
                 style="fill:#0e88ca;fill-opacity:1;fill-rule:nonzero;stroke:none"
                 id="path38"
                 inkscape:connector-curvature="0" /></g></g></g></g></g><path
       d="M 1536.282,219.777 H 19.186 v 79.125 h 1517.096 z"
       style="fill:#0e88ca;fill-opacity:1;fill-rule:nonzero;stroke:none"
       id="path44"
       inkscape:connector-curvature="0" /><path
       d="M 1536.282,119.194 H 19.186 v 79.125 h 1517.096 z"
       style="fill:#e6e6e6;fill-opacity:1;fill-rule:nonzero;stroke:none"
       id="path46"
       inkscape:connector-curvature="0" /><path
       d="M 614.853,500.067 H 326.329 v 77.771 h 288.524 z"
       style="fill:#e6e6e6;fill-opacity:1;fill-rule:nonzero;stroke:none"
       id="path48"
       inkscape:connector-curvature="0" /><path
       d="M 921.996,500.067 H 633.473 v 77.771 h 288.523 z"
       style="fill:#e6e6e6;fill-opacity:1;fill-rule:nonzero;stroke:none"
       id="path50"
       inkscape:connector-curvature="0" /><path
       d="M 1229.138,500.067 H 940.615 v 77.771 h 288.523 z"
       style="fill:#e6e6e6;fill-opacity:1;fill-rule:nonzero;stroke:none"
       id="path52"
       inkscape:connector-curvature="0" /><path
       d="m 1536.282,500.067 h -288.524 v 77.771 h 288.524 z"
       style="fill:#e6e6e6;fill-opacity:1;fill-rule:nonzero;stroke:none"
       id="path54"
       inkscape:connector-curvature="0" /><g
       id="g56"><g
         id="g58"
         clip-path="url(#clipPath62)"><g
           id="g64"
           transform="translate(80.4166,530.4984)"><path
             d="m 0,0 h -2.857 l -6.255,18.02 h 2.934 L -2.419,6.539 c 0.334,-1.056 0.849,-2.651 1.003,-3.295 0.155,0.644 0.669,2.265 1.004,3.32 L 3.295,18.02 h 2.883 z"
             style="fill:#4c4d4d;fill-opacity:1;fill-rule:nonzero;stroke:none"
             id="path66"
             inkscape:connector-curvature="0" /></g><path
           d="m 89.502,544.013 h 2.651 v -13.515 h -2.651 z m 1.338,1.75 c -0.952,0 -1.725,0.773 -1.725,1.699 0,0.952 0.773,1.725 1.725,1.725 0.927,0 1.699,-0.773 1.699,-1.725 0,-0.926 -0.772,-1.699 -1.699,-1.699"
           style="fill:#4c4d4d;fill-opacity:1;fill-rule:nonzero;stroke:none"
           id="path68"
           inkscape:connector-curvature="0" /><g
           id="g70"
           transform="translate(103.5289,541.2074)"><path
             d="m 0,0 c -0.566,0.309 -1.158,0.489 -2.033,0.489 -1.674,0 -2.652,-1.184 -2.652,-3.475 v -7.723 H -7.336 V 2.806 h 2.651 V 1.519 c 0.618,0.901 1.751,1.57 3.089,1.57 1.081,0 1.751,-0.206 2.291,-0.567 z"
             style="fill:#4c4d4d;fill-opacity:1;fill-rule:nonzero;stroke:none"
             id="path72"
             inkscape:connector-curvature="0" /></g><g
           id="g74"
           transform="translate(113.6691,530.8334)"><path
             d="m 0,0 c -0.644,-0.36 -1.544,-0.618 -2.6,-0.618 -1.879,0 -3.037,1.158 -3.037,3.578 v 7.8 h -1.931 v 2.42 h 1.931 v 3.861 l 2.599,1.39 V 13.18 H 0.309 V 10.76 H -3.038 V 3.424 c 0,-1.262 0.413,-1.622 1.391,-1.622 0.694,0 1.467,0.258 1.956,0.541 z"
             style="fill:#4c4d4d;fill-opacity:1;fill-rule:nonzero;stroke:none"
             id="path76"
             inkscape:connector-curvature="0" /></g><g
           id="g78"
           transform="translate(125.4801,530.4984)"><path
             d="m 0,0 v 1.287 c -0.669,-0.977 -2.008,-1.57 -3.398,-1.57 -3.141,0 -4.813,2.059 -4.813,6.05 v 7.748 H -5.56 V 5.869 c 0,-2.728 1.03,-3.707 2.78,-3.707 1.776,0 2.78,1.262 2.78,3.45 v 7.903 H 2.651 L 2.651,0 Z"
             style="fill:#4c4d4d;fill-opacity:1;fill-rule:nonzero;stroke:none"
             id="path80"
             inkscape:connector-curvature="0" /></g><g
           id="g82"
           transform="translate(139.7887,536.265)"><path
             d="m 0,0 c -0.721,0.36 -1.647,0.592 -3.089,0.592 -1.699,0 -2.78,-0.773 -2.78,-2.008 0,-1.339 0.849,-2.239 2.6,-2.239 1.415,0 2.651,0.875 3.269,1.724 z m 0,-5.767 v 1.339 c -0.927,-0.926 -2.24,-1.622 -3.707,-1.622 -2.188,0 -4.685,1.237 -4.685,4.557 0,3.012 2.317,4.376 5.38,4.376 1.262,0 2.265,-0.181 3.012,-0.515 v 1.004 c 0,1.467 -0.901,2.291 -2.548,2.291 -1.39,0 -2.472,-0.258 -3.527,-0.85 l -1.029,2.008 c 1.287,0.798 2.728,1.21 4.633,1.21 3.012,0 5.071,-1.468 5.071,-4.53 v -9.268 z"
             style="fill:#4c4d4d;fill-opacity:1;fill-rule:nonzero;stroke:none"
             id="path84"
             inkscape:connector-curvature="0" /></g><g
           id="g86"
           transform="translate(146.3233,530.4984)"><path
             d="m 0,0 v 17.376 l 2.651,1.39 V 0 Z"
             style="fill:#4c4d4d;fill-opacity:1;fill-rule:nonzero;stroke:none"
             id="path88"
             inkscape:connector-curvature="0" /></g><g
           id="g90"
           transform="translate(173.8116,530.4984)"><path
             d="m 0,0 v 9.524 c 0,1.081 0.026,2.652 0.052,3.166 -0.206,-0.514 -0.721,-1.801 -1.159,-2.831 L -5.483,-0.283 -9.808,9.859 c -0.437,1.03 -0.952,2.317 -1.158,2.831 0.026,-0.514 0.052,-2.085 0.052,-3.166 V 0 h -2.549 v 18.02 h 2.78 l 4.042,-9.602 c 0.437,-1.03 1.004,-2.343 1.235,-3.089 0.258,0.746 0.773,2.033 1.21,3.089 l 3.965,9.602 H 2.651 L 2.651,0 Z"
             style="fill:#4c4d4d;fill-opacity:1;fill-rule:nonzero;stroke:none"
             id="path92"
             inkscape:connector-curvature="0" /></g><g
           id="g94"
           transform="translate(188.505,536.265)"><path
             d="m 0,0 c -0.721,0.36 -1.647,0.592 -3.089,0.592 -1.699,0 -2.78,-0.773 -2.78,-2.008 0,-1.339 0.849,-2.239 2.6,-2.239 1.415,0 2.651,0.875 3.269,1.724 z m 0,-5.767 v 1.339 c -0.927,-0.926 -2.24,-1.622 -3.707,-1.622 -2.188,0 -4.685,1.237 -4.685,4.557 0,3.012 2.317,4.376 5.38,4.376 1.262,0 2.265,-0.181 3.012,-0.515 v 1.004 c 0,1.467 -0.901,2.291 -2.548,2.291 -1.39,0 -2.472,-0.258 -3.527,-0.85 l -1.029,2.008 c 1.287,0.798 2.728,1.21 4.633,1.21 3.012,0 5.071,-1.468 5.071,-4.53 v -9.268 z"
             style="fill:#4c4d4d;fill-opacity:1;fill-rule:nonzero;stroke:none"
             id="path96"
             inkscape:connector-curvature="0" /></g><g
           id="g98"
           transform="translate(203.4054,540.1263)"><path
             d="m 0,0 c -1.107,1.132 -2.085,1.647 -3.295,1.647 -1.931,0 -3.166,-1.724 -3.166,-4.479 0,-2.651 1.132,-4.556 3.243,-4.556 1.261,0 2.008,0.566 3.063,1.673 l 1.699,-1.673 c -1.055,-1.339 -2.394,-2.523 -4.839,-2.523 -3.295,0 -5.843,2.78 -5.843,7.002 0,4.479 2.625,7.079 5.92,7.079 1.982,0 3.527,-0.798 4.788,-2.291 z"
             style="fill:#4c4d4d;fill-opacity:1;fill-rule:nonzero;stroke:none"
             id="path100"
             inkscape:connector-curvature="0" /></g><g
           id="g102"
           transform="translate(216.5558,530.4984)"><path
             d="m 0,0 v 7.646 c 0,2.728 -1.03,3.707 -2.78,3.707 -1.776,0 -2.78,-1.262 -2.78,-3.45 V 0 h -2.651 v 17.376 l 2.651,1.39 v -6.538 c 0.669,0.978 2.008,1.57 3.398,1.57 3.14,0 4.813,-2.06 4.813,-6.05 L 2.651,0 Z"
             style="fill:#4c4d4d;fill-opacity:1;fill-rule:nonzero;stroke:none"
             id="path104"
             inkscape:connector-curvature="0" /></g><path
           d="m 223.142,544.013 h 2.651 v -13.515 h -2.651 z m 1.339,1.75 c -0.953,0 -1.726,0.773 -1.726,1.699 0,0.952 0.773,1.725 1.726,1.725 0.926,0 1.698,-0.773 1.698,-1.725 0,-0.926 -0.772,-1.699 -1.698,-1.699"
           style="fill:#4c4d4d;fill-opacity:1;fill-rule:nonzero;stroke:none"
           id="path106"
           inkscape:connector-curvature="0" /><g
           id="g108"
           transform="translate(238.0445,530.4984)"><path
             d="m 0,0 v 7.646 c 0,2.728 -1.03,3.707 -2.78,3.707 -1.776,0 -2.78,-1.262 -2.78,-3.45 V 0 h -2.651 v 13.515 h 2.651 v -1.287 c 0.669,0.978 2.008,1.57 3.398,1.57 3.14,0 4.813,-2.06 4.813,-6.05 L 2.651,0 Z"
             style="fill:#4c4d4d;fill-opacity:1;fill-rule:nonzero;stroke:none"
             id="path110"
             inkscape:connector-curvature="0" /></g><g
           id="g112"
           transform="translate(249.5987,541.9017)"><path
             d="M 0,0 C -1.776,0 -2.857,-1.235 -3.089,-3.397 H 3.192 C 3.063,-1.544 2.188,0 0,0 m 5.792,-5.586 h -8.933 c 0.284,-2.6 1.751,-3.706 3.398,-3.706 1.133,0 2.034,0.411 2.935,1.081 l 1.57,-1.699 c -1.184,-1.133 -2.6,-1.777 -4.659,-1.777 -3.166,0 -5.843,2.549 -5.843,7.028 0,4.582 2.419,7.054 5.92,7.054 3.836,0 5.689,-3.116 5.689,-6.771 0,-0.488 -0.052,-0.927 -0.077,-1.21"
             style="fill:#4c4d4d;fill-opacity:1;fill-rule:nonzero;stroke:none"
             id="path114"
             inkscape:connector-curvature="0" /></g><g
           id="g116"
           transform="translate(387.5592,530.4984)"><path
             d="m 0,0 h -2.857 l -6.255,18.02 h 2.934 L -2.419,6.539 c 0.334,-1.056 0.849,-2.651 1.003,-3.295 0.155,0.644 0.669,2.265 1.004,3.32 L 3.295,18.02 h 2.883 z"
             style="fill:#4c4d4d;fill-opacity:1;fill-rule:nonzero;stroke:none"
             id="path118"
             inkscape:connector-curvature="0" /></g><path
           d="m 396.644,544.013 h 2.651 v -13.515 h -2.651 z m 1.339,1.75 c -0.953,0 -1.725,0.773 -1.725,1.699 0,0.952 0.772,1.725 1.725,1.725 0.926,0 1.699,-0.773 1.699,-1.725 0,-0.926 -0.773,-1.699 -1.699,-1.699"
           style="fill:#4c4d4d;fill-opacity:1;fill-rule:nonzero;stroke:none"
           id="path120"
           inkscape:connector-curvature="0" /><g
           id="g122"
           transform="translate(410.6715,541.2074)"><path
             d="m 0,0 c -0.566,0.309 -1.158,0.489 -2.033,0.489 -1.674,0 -2.652,-1.184 -2.652,-3.475 v -7.723 H -7.336 V 2.806 h 2.651 V 1.519 c 0.618,0.901 1.751,1.57 3.089,1.57 1.081,0 1.751,-0.206 2.291,-0.567 z"
             style="fill:#4c4d4d;fill-opacity:1;fill-rule:nonzero;stroke:none"
             id="path124"
             inkscape:connector-curvature="0" /></g><g
           id="g126"
           transform="translate(420.8116,530.8334)"><path
             d="m 0,0 c -0.644,-0.36 -1.544,-0.618 -2.6,-0.618 -1.879,0 -3.037,1.158 -3.037,3.578 v 7.8 h -1.931 v 2.42 h 1.931 v 3.861 l 2.599,1.39 V 13.18 H 0.309 V 10.76 H -3.038 V 3.424 c 0,-1.262 0.413,-1.622 1.391,-1.622 0.694,0 1.467,0.258 1.956,0.541 z"
             style="fill:#4c4d4d;fill-opacity:1;fill-rule:nonzero;stroke:none"
             id="path128"
             inkscape:connector-curvature="0" /></g><g
           id="g130"
           transform="translate(432.6227,530.4984)"><path
             d="m 0,0 v 1.287 c -0.669,-0.977 -2.008,-1.57 -3.398,-1.57 -3.141,0 -4.813,2.059 -4.813,6.05 v 7.748 H -5.56 V 5.869 c 0,-2.728 1.03,-3.707 2.78,-3.707 1.776,0 2.78,1.262 2.78,3.45 v 7.903 H 2.651 L 2.651,0 Z"
             style="fill:#4c4d4d;fill-opacity:1;fill-rule:nonzero;stroke:none"
             id="path132"
             inkscape:connector-curvature="0" /></g><g
           id="g134"
           transform="translate(446.9312,536.265)"><path
             d="m 0,0 c -0.721,0.36 -1.647,0.592 -3.089,0.592 -1.699,0 -2.78,-0.773 -2.78,-2.008 0,-1.339 0.849,-2.239 2.6,-2.239 1.415,0 2.651,0.875 3.269,1.724 z m 0,-5.767 v 1.339 c -0.927,-0.926 -2.24,-1.622 -3.707,-1.622 -2.188,0 -4.685,1.237 -4.685,4.557 0,3.012 2.317,4.376 5.38,4.376 1.262,0 2.265,-0.181 3.012,-0.515 v 1.004 c 0,1.467 -0.901,2.291 -2.548,2.291 -1.39,0 -2.472,-0.258 -3.527,-0.85 l -1.029,2.008 c 1.287,0.798 2.728,1.21 4.633,1.21 3.012,0 5.071,-1.468 5.071,-4.53 v -9.268 z"
             style="fill:#4c4d4d;fill-opacity:1;fill-rule:nonzero;stroke:none"
             id="path136"
             inkscape:connector-curvature="0" /></g><g
           id="g138"
           transform="translate(453.4659,530.4984)"><path
             d="m 0,0 v 17.376 l 2.651,1.39 V 0 Z"
             style="fill:#4c4d4d;fill-opacity:1;fill-rule:nonzero;stroke:none"
             id="path140"
             inkscape:connector-curvature="0" /></g><g
           id="g142"
           transform="translate(480.9542,530.4984)"><path
             d="m 0,0 v 9.524 c 0,1.081 0.026,2.652 0.052,3.166 -0.206,-0.514 -0.721,-1.801 -1.159,-2.831 L -5.483,-0.283 -9.808,9.859 c -0.437,1.03 -0.952,2.317 -1.158,2.831 0.026,-0.514 0.052,-2.085 0.052,-3.166 V 0 h -2.549 v 18.02 h 2.78 l 4.042,-9.602 c 0.437,-1.03 1.004,-2.343 1.235,-3.089 0.258,0.746 0.773,2.033 1.21,3.089 l 3.965,9.602 H 2.651 L 2.651,0 Z"
             style="fill:#4c4d4d;fill-opacity:1;fill-rule:nonzero;stroke:none"
             id="path144"
             inkscape:connector-curvature="0" /></g><g
           id="g146"
           transform="translate(495.6476,536.265)"><path
             d="m 0,0 c -0.721,0.36 -1.647,0.592 -3.089,0.592 -1.699,0 -2.78,-0.773 -2.78,-2.008 0,-1.339 0.849,-2.239 2.6,-2.239 1.415,0 2.651,0.875 3.269,1.724 z m 0,-5.767 v 1.339 c -0.927,-0.926 -2.24,-1.622 -3.707,-1.622 -2.188,0 -4.685,1.237 -4.685,4.557 0,3.012 2.317,4.376 5.38,4.376 1.262,0 2.265,-0.181 3.012,-0.515 v 1.004 c 0,1.467 -0.901,2.291 -2.548,2.291 -1.39,0 -2.472,-0.258 -3.527,-0.85 l -1.029,2.008 c 1.287,0.798 2.728,1.21 4.633,1.21 3.012,0 5.071,-1.468 5.071,-4.53 v -9.268 z"
             style="fill:#4c4d4d;fill-opacity:1;fill-rule:nonzero;stroke:none"
             id="path148"
             inkscape:connector-curvature="0" /></g><g
           id="g150"
           transform="translate(510.5479,540.1263)"><path
             d="m 0,0 c -1.107,1.132 -2.085,1.647 -3.295,1.647 -1.931,0 -3.166,-1.724 -3.166,-4.479 0,-2.651 1.132,-4.556 3.243,-4.556 1.261,0 2.008,0.566 3.063,1.673 l 1.699,-1.673 c -1.055,-1.339 -2.394,-2.523 -4.839,-2.523 -3.295,0 -5.843,2.78 -5.843,7.002 0,4.479 2.625,7.079 5.92,7.079 1.982,0 3.527,-0.798 4.788,-2.291 z"
             style="fill:#4c4d4d;fill-opacity:1;fill-rule:nonzero;stroke:none"
             id="path152"
             inkscape:connector-curvature="0" /></g><g
           id="g154"
           transform="translate(523.6984,530.4984)"><path
             d="m 0,0 v 7.646 c 0,2.728 -1.03,3.707 -2.78,3.707 -1.776,0 -2.78,-1.262 -2.78,-3.45 V 0 h -2.651 v 17.376 l 2.651,1.39 v -6.538 c 0.669,0.978 2.008,1.57 3.398,1.57 3.14,0 4.813,-2.06 4.813,-6.05 L 2.651,0 Z"
             style="fill:#4c4d4d;fill-opacity:1;fill-rule:nonzero;stroke:none"
             id="path156"
             inkscape:connector-curvature="0" /></g><path
           d="m 530.284,544.013 h 2.651 v -13.515 h -2.651 z m 1.339,1.75 c -0.952,0 -1.725,0.773 -1.725,1.699 0,0.952 0.773,1.725 1.725,1.725 0.926,0 1.699,-0.773 1.699,-1.725 0,-0.926 -0.773,-1.699 -1.699,-1.699"
           style="fill:#4c4d4d;fill-opacity:1;fill-rule:nonzero;stroke:none"
           id="path158"
           inkscape:connector-curvature="0" /><g
           id="g160"
           transform="translate(545.1871,530.4984)"><path
             d="m 0,0 v 7.646 c 0,2.728 -1.03,3.707 -2.78,3.707 -1.776,0 -2.78,-1.262 -2.78,-3.45 V 0 h -2.651 v 13.515 h 2.651 v -1.287 c 0.669,0.978 2.008,1.57 3.398,1.57 3.14,0 4.813,-2.06 4.813,-6.05 L 2.651,0 Z"
             style="fill:#4c4d4d;fill-opacity:1;fill-rule:nonzero;stroke:none"
             id="path162"
             inkscape:connector-curvature="0" /></g><g
           id="g164"
           transform="translate(556.7413,541.9017)"><path
             d="M 0,0 C -1.776,0 -2.857,-1.235 -3.089,-3.397 H 3.192 C 3.063,-1.544 2.188,0 0,0 m 5.792,-5.586 h -8.933 c 0.284,-2.6 1.751,-3.706 3.398,-3.706 1.133,0 2.034,0.411 2.935,1.081 l 1.57,-1.699 c -1.184,-1.133 -2.6,-1.777 -4.659,-1.777 -3.166,0 -5.843,2.549 -5.843,7.028 0,4.582 2.419,7.054 5.92,7.054 3.836,0 5.689,-3.116 5.689,-6.771 0,-0.488 -0.052,-0.927 -0.077,-1.21"
             style="fill:#4c4d4d;fill-opacity:1;fill-rule:nonzero;stroke:none"
             id="path166"
             inkscape:connector-curvature="0" /></g><g
           id="g168"
           transform="translate(694.7023,530.4984)"><path
             d="m 0,0 h -2.857 l -6.255,18.02 h 2.934 L -2.419,6.539 c 0.334,-1.056 0.849,-2.651 1.003,-3.295 0.155,0.644 0.669,2.265 1.004,3.32 L 3.295,18.02 h 2.883 z"
             style="fill:#4c4d4d;fill-opacity:1;fill-rule:nonzero;stroke:none"
             id="path170"
             inkscape:connector-curvature="0" /></g><path
           d="m 703.787,544.013 h 2.651 v -13.515 h -2.651 z m 1.339,1.75 c -0.953,0 -1.725,0.773 -1.725,1.699 0,0.952 0.772,1.725 1.725,1.725 0.926,0 1.699,-0.773 1.699,-1.725 0,-0.926 -0.773,-1.699 -1.699,-1.699"
           style="fill:#4c4d4d;fill-opacity:1;fill-rule:nonzero;stroke:none"
           id="path172"
           inkscape:connector-curvature="0" /><g
           id="g174"
           transform="translate(717.8146,541.2074)"><path
             d="m 0,0 c -0.566,0.309 -1.158,0.489 -2.033,0.489 -1.674,0 -2.652,-1.184 -2.652,-3.475 v -7.723 H -7.336 V 2.806 h 2.651 V 1.519 c 0.618,0.901 1.751,1.57 3.089,1.57 1.081,0 1.751,-0.206 2.291,-0.567 z"
             style="fill:#4c4d4d;fill-opacity:1;fill-rule:nonzero;stroke:none"
             id="path176"
             inkscape:connector-curvature="0" /></g><g
           id="g178"
           transform="translate(727.9547,530.8334)"><path
             d="m 0,0 c -0.644,-0.36 -1.544,-0.618 -2.6,-0.618 -1.879,0 -3.037,1.158 -3.037,3.578 v 7.8 h -1.931 v 2.42 h 1.931 v 3.861 l 2.599,1.39 V 13.18 H 0.309 V 10.76 H -3.038 V 3.424 c 0,-1.262 0.413,-1.622 1.391,-1.622 0.694,0 1.467,0.258 1.956,0.541 z"
             style="fill:#4c4d4d;fill-opacity:1;fill-rule:nonzero;stroke:none"
             id="path180"
             inkscape:connector-curvature="0" /></g><g
           id="g182"
           transform="translate(739.7657,530.4984)"><path
             d="m 0,0 v 1.287 c -0.669,-0.977 -2.008,-1.57 -3.398,-1.57 -3.141,0 -4.813,2.059 -4.813,6.05 v 7.748 H -5.56 V 5.869 c 0,-2.728 1.03,-3.707 2.78,-3.707 1.776,0 2.78,1.262 2.78,3.45 v 7.903 H 2.651 L 2.651,0 Z"
             style="fill:#4c4d4d;fill-opacity:1;fill-rule:nonzero;stroke:none"
             id="path184"
             inkscape:connector-curvature="0" /></g><g
           id="g186"
           transform="translate(754.0743,536.265)"><path
             d="m 0,0 c -0.721,0.36 -1.647,0.592 -3.089,0.592 -1.699,0 -2.78,-0.773 -2.78,-2.008 0,-1.339 0.849,-2.239 2.6,-2.239 1.415,0 2.651,0.875 3.269,1.724 z m 0,-5.767 v 1.339 c -0.927,-0.926 -2.24,-1.622 -3.707,-1.622 -2.188,0 -4.685,1.237 -4.685,4.557 0,3.012 2.317,4.376 5.38,4.376 1.262,0 2.265,-0.181 3.012,-0.515 v 1.004 c 0,1.467 -0.901,2.291 -2.548,2.291 -1.39,0 -2.472,-0.258 -3.527,-0.85 l -1.029,2.008 c 1.287,0.798 2.728,1.21 4.633,1.21 3.012,0 5.071,-1.468 5.071,-4.53 v -9.268 z"
             style="fill:#4c4d4d;fill-opacity:1;fill-rule:nonzero;stroke:none"
             id="path188"
             inkscape:connector-curvature="0" /></g><g
           id="g190"
           transform="translate(760.609,530.4984)"><path
             d="m 0,0 v 17.376 l 2.651,1.39 V 0 Z"
             style="fill:#4c4d4d;fill-opacity:1;fill-rule:nonzero;stroke:none"
             id="path192"
             inkscape:connector-curvature="0" /></g><g
           id="g194"
           transform="translate(788.0973,530.4984)"><path
             d="m 0,0 v 9.524 c 0,1.081 0.026,2.652 0.052,3.166 -0.206,-0.514 -0.721,-1.801 -1.158,-2.831 L -5.482,-0.283 -9.808,9.859 c -0.437,1.03 -0.952,2.317 -1.158,2.831 0.026,-0.514 0.052,-2.085 0.052,-3.166 V 0 h -2.549 v 18.02 h 2.78 l 4.042,-9.602 c 0.438,-1.03 1.004,-2.343 1.236,-3.089 0.258,0.746 0.772,2.033 1.21,3.089 l 3.964,9.602 H 2.651 V 0 Z"
             style="fill:#4c4d4d;fill-opacity:1;fill-rule:nonzero;stroke:none"
             id="path196"
             inkscape:connector-curvature="0" /></g><g
           id="g198"
           transform="translate(802.7906,536.265)"><path
             d="m 0,0 c -0.721,0.36 -1.647,0.592 -3.089,0.592 -1.699,0 -2.78,-0.773 -2.78,-2.008 0,-1.339 0.849,-2.239 2.6,-2.239 1.415,0 2.652,0.875 3.269,1.724 z m 0,-5.767 v 1.339 c -0.927,-0.926 -2.239,-1.622 -3.707,-1.622 -2.188,0 -4.685,1.237 -4.685,4.557 0,3.012 2.317,4.376 5.38,4.376 1.262,0 2.266,-0.181 3.012,-0.515 v 1.004 c 0,1.467 -0.9,2.291 -2.548,2.291 -1.39,0 -2.472,-0.258 -3.527,-0.85 l -1.029,2.008 c 1.287,0.798 2.728,1.21 4.633,1.21 3.012,0 5.072,-1.468 5.072,-4.53 v -9.268 z"
             style="fill:#4c4d4d;fill-opacity:1;fill-rule:nonzero;stroke:none"
             id="path200"
             inkscape:connector-curvature="0" /></g><g
           id="g202"
           transform="translate(817.691,540.1263)"><path
             d="m 0,0 c -1.106,1.132 -2.085,1.647 -3.295,1.647 -1.931,0 -3.166,-1.724 -3.166,-4.479 0,-2.651 1.133,-4.556 3.243,-4.556 1.262,0 2.008,0.566 3.064,1.673 l 1.699,-1.673 c -1.056,-1.339 -2.395,-2.523 -4.84,-2.523 -3.295,0 -5.843,2.78 -5.843,7.002 0,4.479 2.625,7.079 5.92,7.079 1.983,0 3.527,-0.798 4.788,-2.291 z"
             style="fill:#4c4d4d;fill-opacity:1;fill-rule:nonzero;stroke:none"
             id="path204"
             inkscape:connector-curvature="0" /></g><g
           id="g206"
           transform="translate(830.8414,530.4984)"><path
             d="m 0,0 v 7.646 c 0,2.728 -1.029,3.707 -2.78,3.707 -1.776,0 -2.78,-1.262 -2.78,-3.45 V 0 h -2.651 v 17.376 l 2.651,1.39 v -6.538 c 0.669,0.978 2.008,1.57 3.398,1.57 3.141,0 4.813,-2.06 4.813,-6.05 L 2.651,0 Z"
             style="fill:#4c4d4d;fill-opacity:1;fill-rule:nonzero;stroke:none"
             id="path208"
             inkscape:connector-curvature="0" /></g><path
           d="m 837.427,544.013 h 2.651 v -13.515 h -2.651 z m 1.339,1.75 c -0.952,0 -1.724,0.773 -1.724,1.699 0,0.952 0.772,1.725 1.724,1.725 0.927,0 1.699,-0.773 1.699,-1.725 0,-0.926 -0.772,-1.699 -1.699,-1.699"
           style="fill:#4c4d4d;fill-opacity:1;fill-rule:nonzero;stroke:none"
           id="path210"
           inkscape:connector-curvature="0" /><g
           id="g212"
           transform="translate(852.3307,530.4984)"><path
             d="m 0,0 v 7.646 c 0,2.728 -1.03,3.707 -2.78,3.707 -1.777,0 -2.781,-1.262 -2.781,-3.45 V 0 h -2.651 v 13.515 h 2.651 v -1.287 c 0.669,0.978 2.008,1.57 3.399,1.57 3.14,0 4.813,-2.06 4.813,-6.05 V 0 Z"
             style="fill:#4c4d4d;fill-opacity:1;fill-rule:nonzero;stroke:none"
             id="path214"
             inkscape:connector-curvature="0" /></g><g
           id="g216"
           transform="translate(863.8844,541.9017)"><path
             d="M 0,0 C -1.776,0 -2.857,-1.235 -3.089,-3.397 H 3.192 C 3.063,-1.544 2.188,0 0,0 m 5.792,-5.586 h -8.933 c 0.284,-2.6 1.751,-3.706 3.399,-3.706 1.133,0 2.033,0.411 2.934,1.081 L 4.763,-9.91 c -1.185,-1.133 -2.601,-1.777 -4.659,-1.777 -3.167,0 -5.844,2.549 -5.844,7.028 0,4.582 2.42,7.054 5.921,7.054 3.835,0 5.688,-3.116 5.688,-6.771 0,-0.488 -0.052,-0.927 -0.077,-1.21"
             style="fill:#4c4d4d;fill-opacity:1;fill-rule:nonzero;stroke:none"
             id="path218"
             inkscape:connector-curvature="0" /></g><g
           id="g220"
           transform="translate(694.756,391.0302)"><path
             d="M 0,0 -5.174,9.241 -8.521,5.2 V 0 h -2.625 v 18.019 h 2.625 v -6.178 c 0,-0.669 -0.025,-2.626 -0.051,-3.192 0.309,0.463 1.493,1.956 2.085,2.703 l 5.328,6.667 H 1.905 L -3.373,11.481 3.063,0 Z"
             style="fill:#4c4d4d;fill-opacity:1;fill-rule:nonzero;stroke:none"
             id="path222"
             inkscape:connector-curvature="0" /></g><g
           id="g224"
           transform="translate(707.9298,391.0302)"><path
             d="m 0,0 h -2.857 l -6.255,18.019 h 2.934 l 3.759,-11.48 c 0.334,-1.056 0.849,-2.652 1.003,-3.295 0.155,0.643 0.669,2.265 1.004,3.32 l 3.707,11.455 h 2.883 z"
             style="fill:#4c4d4d;fill-opacity:1;fill-rule:nonzero;stroke:none"
             id="path226"
             inkscape:connector-curvature="0" /></g><g
           id="g228"
           transform="translate(731.1183,391.0302)"><path
             d="m 0,0 v 9.524 c 0,1.081 0.026,2.652 0.052,3.166 -0.206,-0.514 -0.721,-1.801 -1.159,-2.831 L -5.483,-0.283 -9.808,9.859 c -0.437,1.03 -0.952,2.317 -1.158,2.831 0.026,-0.514 0.052,-2.085 0.052,-3.166 V 0 h -2.549 v 18.019 h 2.78 l 4.042,-9.602 c 0.437,-1.029 1.004,-2.342 1.235,-3.088 0.258,0.746 0.773,2.033 1.21,3.088 l 3.965,9.602 H 2.651 L 2.651,0 Z"
             style="fill:#4c4d4d;fill-opacity:1;fill-rule:nonzero;stroke:none"
             id="path230"
             inkscape:connector-curvature="0" /></g><g
           id="g232"
           transform="translate(756.3893,391.0302)"><path
             d="M 0,0 V 8.083 H -8.289 V 0 h -2.703 v 18.019 h 2.703 V 10.734 H 0 v 7.285 H 2.703 V 0 Z"
             style="fill:#4c4d4d;fill-opacity:1;fill-rule:nonzero;stroke:none"
             id="path234"
             inkscape:connector-curvature="0" /></g><g
           id="g236"
           transform="translate(768.0973,386.2679)"><path
             d="m 0,0 h -2.806 l 1.956,5.02 -4.967,13.256 h 2.908 l 2.214,-6.615 c 0.412,-1.184 1.03,-3.192 1.184,-3.938 0.232,0.798 0.798,2.728 1.21,3.886 l 2.291,6.667 h 2.806 z"
             style="fill:#4c4d4d;fill-opacity:1;fill-rule:nonzero;stroke:none"
             id="path238"
             inkscape:connector-curvature="0" /></g><g
           id="g240"
           transform="translate(783.359,402.3822)"><path
             d="m 0,0 c -1.262,0 -2.368,-0.85 -3.063,-1.725 v -5.689 c 0.591,-0.797 1.827,-1.776 3.166,-1.776 1.905,0 2.934,1.442 2.934,4.299 C 3.037,-1.493 1.956,0 0,0 m 0.36,-11.635 c -1.364,0 -2.651,0.72 -3.398,1.544 v -4.865 L -5.664,-16.32 V 2.162 h 2.626 V 0.875 c 0.978,0.901 2.111,1.57 3.526,1.57 2.909,0 5.2,-2.111 5.2,-7.258 0,-4.634 -2.522,-6.822 -5.328,-6.822"
             style="fill:#4c4d4d;fill-opacity:1;fill-rule:nonzero;stroke:none"
             id="path242"
             inkscape:connector-curvature="0" /></g><g
           id="g244"
           transform="translate(797.4615,402.4335)"><path
             d="m 0,0 c -1.776,0 -2.857,-1.235 -3.089,-3.397 h 6.28 C 3.063,-1.544 2.188,0 0,0 m 5.792,-5.586 h -8.933 c 0.284,-2.6 1.75,-3.706 3.398,-3.706 1.133,0 2.034,0.411 2.934,1.081 L 4.762,-9.91 c -1.184,-1.133 -2.6,-1.777 -4.659,-1.777 -3.166,0 -5.843,2.549 -5.843,7.028 0,4.582 2.419,7.053 5.92,7.053 3.836,0 5.689,-3.115 5.689,-6.77 0,-0.489 -0.052,-0.927 -0.077,-1.21"
             style="fill:#4c4d4d;fill-opacity:1;fill-rule:nonzero;stroke:none"
             id="path246"
             inkscape:connector-curvature="0" /></g><g
           id="g248"
           transform="translate(813.9576,401.7386)"><path
             d="m 0,0 c -0.566,0.309 -1.158,0.489 -2.033,0.489 -1.674,0 -2.652,-1.184 -2.652,-3.475 v -7.722 H -7.336 V 2.806 h 2.651 V 1.519 c 0.618,0.901 1.75,1.57 3.089,1.57 1.081,0 1.75,-0.206 2.291,-0.567 z"
             style="fill:#4c4d4d;fill-opacity:1;fill-rule:nonzero;stroke:none"
             id="path250"
             inkscape:connector-curvature="0" /></g><g
           id="g252"
           transform="translate(823.7623,391.0302)"><path
             d="M 0,0 H -2.651 L -7.49,13.514 h 2.779 l 2.42,-7.336 c 0.437,-1.313 0.824,-2.574 1.004,-3.321 0.154,0.747 0.515,2.008 0.927,3.321 l 2.316,7.336 h 2.807 z"
             style="fill:#4c4d4d;fill-opacity:1;fill-rule:nonzero;stroke:none"
             id="path254"
             inkscape:connector-curvature="0" /></g><path
           d="m 831.456,404.544 h 2.651 V 391.03 h -2.651 z m 1.339,1.751 c -0.954,0 -1.726,0.772 -1.726,1.699 0,0.952 0.772,1.725 1.726,1.725 0.925,0 1.698,-0.773 1.698,-1.725 0,-0.927 -0.773,-1.699 -1.698,-1.699"
           style="fill:#4c4d4d;fill-opacity:1;fill-rule:nonzero;stroke:none"
           id="path256"
           inkscape:connector-curvature="0" /><g
           id="g258"
           transform="translate(842.5231,390.7469)"><path
             d="m 0,0 c -1.828,0 -3.811,0.721 -5.175,1.725 l 1.21,2.007 c 1.262,-0.875 2.678,-1.338 3.939,-1.338 1.673,0 2.471,0.541 2.471,1.493 0,1.03 -1.184,1.519 -3.14,2.265 -2.909,1.133 -3.964,2.111 -3.964,4.247 0,2.42 1.904,3.682 4.607,3.682 1.699,0 3.372,-0.618 4.582,-1.493 L 3.372,10.554 c -1.107,0.772 -2.214,1.158 -3.501,1.158 -1.287,0 -1.853,-0.514 -1.853,-1.235 0,-0.669 0.462,-1.159 2.497,-1.956 C 3.526,7.362 5.07,6.539 5.07,3.99 5.07,1.004 2.651,0 0,0"
             style="fill:#4c4d4d;fill-opacity:1;fill-rule:nonzero;stroke:none"
             id="path260"
             inkscape:connector-curvature="0" /></g><g
           id="g262"
           transform="translate(856.0074,402.3051)"><path
             d="m 0,0 c -2.008,0 -3.243,-1.776 -3.243,-4.454 0,-2.96 1.364,-4.581 3.372,-4.581 2.008,0 3.32,2.033 3.32,4.504 C 3.449,-1.776 2.137,0 0,0 m 0.026,-11.558 c -3.398,0 -5.946,2.806 -5.946,7.027 0,4.428 2.625,7.053 6.024,7.053 3.449,0 6.023,-2.754 6.023,-6.976 0,-4.479 -2.626,-7.104 -6.101,-7.104"
             style="fill:#4c4d4d;fill-opacity:1;fill-rule:nonzero;stroke:none"
             id="path264"
             inkscape:connector-curvature="0" /></g><g
           id="g266"
           transform="translate(872.736,401.7386)"><path
             d="m 0,0 c -0.566,0.309 -1.158,0.489 -2.033,0.489 -1.674,0 -2.652,-1.184 -2.652,-3.475 v -7.722 H -7.336 V 2.806 h 2.651 V 1.519 c 0.618,0.901 1.75,1.57 3.089,1.57 1.081,0 1.75,-0.206 2.291,-0.567 z"
             style="fill:#4c4d4d;fill-opacity:1;fill-rule:nonzero;stroke:none"
             id="path268"
             inkscape:connector-curvature="0" /></g><g
           id="g270"
           transform="translate(761.2023,250.8851)"><path
             d="m 0,0 h -3.5 l -6.41,18.02 h 3.99 L -2.522,7.594 c 0.334,-1.004 0.694,-2.317 0.849,-2.96 0.154,0.669 0.489,1.905 0.824,2.96 L 2.471,18.02 H 6.41 Z"
             style="fill:#ffffff;fill-opacity:1;fill-rule:nonzero;stroke:none"
             id="path272"
             inkscape:connector-curvature="0" /></g><g
           id="g274"
           transform="translate(776.4625,265.4037)"><path
             d="m 0,0 h -1.905 v -11.018 h 1.776 c 3.784,0 5.509,2.214 5.509,5.509 C 5.38,-1.828 3.81,0 0,0 m -0.129,-14.519 h -5.38 v 18.02 h 5.637 c 5.148,0 8.958,-2.42 8.958,-9.01 0,-6.332 -4.582,-9.01 -9.215,-9.01"
             style="fill:#ffffff;fill-opacity:1;fill-rule:nonzero;stroke:none"
             id="path276"
             inkscape:connector-curvature="0" /></g><g
           id="g278"
           transform="translate(796.0211,265.6097)"><path
             d="m 0,0 c -2.909,0 -4.118,-2.497 -4.118,-5.715 0,-3.218 1.209,-5.715 4.118,-5.715 2.909,0 4.119,2.497 4.119,5.715 C 4.119,-2.497 2.909,0 0,0 m 0,-15.008 c -4.917,0 -7.825,3.81 -7.825,9.293 0,5.484 2.908,9.293 7.825,9.293 4.917,0 7.825,-3.809 7.825,-9.293 0,-5.483 -2.908,-9.293 -7.825,-9.293"
             style="fill:#ffffff;fill-opacity:1;fill-rule:nonzero;stroke:none"
             id="path280"
             inkscape:connector-curvature="0" /></g><g
           id="g282"
           transform="translate(720.1637,165.7728)"><path
             d="M 0,0 H -5.251 V -5.792 H 0 c 1.802,0 3.063,0.927 3.063,2.884 C 3.063,-1.029 1.828,0 0,0 m 1.828,-8.108 3.681,-7.363 H 2.394 l -3.578,7.131 h -4.067 v -7.131 H -7.903 V 2.549 H 0 c 3.141,0 5.792,-1.674 5.792,-5.38 0,-2.884 -1.519,-4.659 -3.964,-5.277"
             style="fill:#4c4d4d;fill-opacity:1;fill-rule:nonzero;stroke:none"
             id="path284"
             inkscape:connector-curvature="0" /></g><g
           id="g286"
           transform="translate(737.8463,161.14)"><path
             d="M 0,0 C -0.437,1.287 -1.159,3.372 -1.364,4.144 -1.57,3.372 -2.214,1.312 -2.677,-0.026 l -1.442,-4.119 h 5.56 z m 3.784,-10.838 -1.519,4.274 h -7.207 l -1.494,-4.274 h -2.805 l 6.487,18.02 h 2.857 l 6.564,-18.02 z"
             style="fill:#4c4d4d;fill-opacity:1;fill-rule:nonzero;stroke:none"
             id="path288"
             inkscape:connector-curvature="0" /></g><path
           d="m 748.19,168.322 h 2.703 v -18.02 h -2.703 z"
           style="fill:#4c4d4d;fill-opacity:1;fill-rule:nonzero;stroke:none"
           id="path290"
           inkscape:connector-curvature="0" /><g
           id="g292"
           transform="translate(760.6207,165.6957)"><path
             d="M 0,0 H -2.214 V -12.768 H 0 c 4.273,0 6.023,2.6 6.023,6.384 C 6.023,-2.6 4.273,0 0,0 M 0,-15.394 H -4.917 V 2.626 H 0 c 4.839,0 8.778,-2.651 8.778,-9.01 0,-6.358 -4.068,-9.01 -8.778,-9.01"
             style="fill:#4c4d4d;fill-opacity:1;fill-rule:nonzero;stroke:none"
             id="path294"
             inkscape:connector-curvature="0" /></g><g
           id="g296"
           transform="translate(780.1266,150.3021)"><path
             d="M 0,0 V 18.02 H 2.703 V 2.651 h 8.984 V 0 Z"
             style="fill:#4c4d4d;fill-opacity:1;fill-rule:nonzero;stroke:none"
             id="path298"
             inkscape:connector-curvature="0" /></g><g
           id="g300"
           transform="translate(802.8004,156.0687)"><path
             d="m 0,0 c -0.721,0.36 -1.647,0.592 -3.089,0.592 -1.699,0 -2.78,-0.773 -2.78,-2.008 0,-1.339 0.849,-2.239 2.6,-2.239 1.415,0 2.652,0.875 3.269,1.724 z m 0,-5.767 v 1.339 c -0.927,-0.926 -2.239,-1.622 -3.707,-1.622 -2.188,0 -4.685,1.237 -4.685,4.557 0,3.012 2.317,4.376 5.38,4.376 1.262,0 2.266,-0.181 3.012,-0.515 v 1.004 c 0,1.467 -0.9,2.291 -2.548,2.291 -1.39,0 -2.472,-0.258 -3.527,-0.85 l -1.029,2.008 c 1.287,0.798 2.728,1.21 4.633,1.21 3.012,0 5.072,-1.468 5.072,-4.53 v -9.268 z"
             style="fill:#4c4d4d;fill-opacity:1;fill-rule:nonzero;stroke:none"
             id="path302"
             inkscape:connector-curvature="0" /></g><g
           id="g304"
           transform="translate(813.5338,145.5404)"><path
             d="m 0,0 h -2.806 l 1.956,5.02 -4.967,13.256 h 2.909 l 2.214,-6.615 c 0.411,-1.184 1.029,-3.192 1.183,-3.938 0.232,0.798 0.798,2.728 1.21,3.886 l 2.291,6.667 h 2.806 z"
             style="fill:#4c4d4d;fill-opacity:1;fill-rule:nonzero;stroke:none"
             id="path306"
             inkscape:connector-curvature="0" /></g><g
           id="g308"
           transform="translate(827.5885,161.7054)"><path
             d="m 0,0 c -1.776,0 -2.857,-1.235 -3.089,-3.397 h 6.28 C 3.063,-1.544 2.188,0 0,0 m 5.792,-5.586 h -8.933 c 0.284,-2.6 1.75,-3.706 3.398,-3.706 1.133,0 2.034,0.411 2.934,1.081 L 4.762,-9.91 c -1.184,-1.133 -2.6,-1.777 -4.659,-1.777 -3.166,0 -5.843,2.549 -5.843,7.028 0,4.582 2.419,7.054 5.92,7.054 3.836,0 5.689,-3.116 5.689,-6.771 0,-0.488 -0.052,-0.927 -0.077,-1.21"
             style="fill:#4c4d4d;fill-opacity:1;fill-rule:nonzero;stroke:none"
             id="path310"
             inkscape:connector-curvature="0" /></g><g
           id="g312"
           transform="translate(844.0846,161.0111)"><path
             d="m 0,0 c -0.566,0.309 -1.158,0.489 -2.033,0.489 -1.674,0 -2.652,-1.184 -2.652,-3.475 v -7.723 H -7.336 V 2.806 h 2.651 V 1.519 c 0.618,0.901 1.75,1.57 3.089,1.57 1.081,0 1.75,-0.206 2.291,-0.567 z"
             style="fill:#4c4d4d;fill-opacity:1;fill-rule:nonzero;stroke:none"
             id="path314"
             inkscape:connector-curvature="0" /></g><g
           id="g316"
           transform="translate(135.2555,58.8392)"><path
             d="m 0,0 h -4.891 v -5.972 h 4.814 c 2.394,0 3.269,1.21 3.269,2.986 C 3.192,-1.133 2.034,0 0,0 m -0.051,7.104 h -4.84 V 2.445 h 4.84 c 1.776,0 2.496,1.108 2.496,2.291 0,1.339 -0.695,2.368 -2.496,2.368 M -0.283,-8.443 H -7.439 V 9.576 h 7.413 c 3.141,0 5.174,-1.647 5.174,-4.685 0,-1.828 -0.978,-2.96 -2.291,-3.604 1.416,-0.386 3.038,-1.699 3.038,-4.195 0,-3.656 -2.24,-5.535 -6.178,-5.535"
             style="fill:#4c4d4d;fill-opacity:1;fill-rule:nonzero;stroke:none"
             id="path318"
             inkscape:connector-curvature="0" /></g><g
           id="g320"
           transform="translate(144.672,50.3959)"><path
             d="m 0,0 v 17.376 l 2.651,1.39 V 0 Z"
             style="fill:#4c4d4d;fill-opacity:1;fill-rule:nonzero;stroke:none"
             id="path322"
             inkscape:connector-curvature="0" /></g><g
           id="g324"
           transform="translate(156.6402,61.6713)"><path
             d="m 0,0 c -2.008,0 -3.244,-1.776 -3.244,-4.454 0,-2.96 1.365,-4.581 3.373,-4.581 2.008,0 3.32,2.033 3.32,4.504 C 3.449,-1.776 2.137,0 0,0 m 0.026,-11.559 c -3.398,0 -5.946,2.806 -5.946,7.028 0,4.427 2.625,7.053 6.023,7.053 3.449,0 6.023,-2.754 6.023,-6.976 0,-4.479 -2.625,-7.105 -6.1,-7.105"
             style="fill:#4c4d4d;fill-opacity:1;fill-rule:nonzero;stroke:none"
             id="path326"
             inkscape:connector-curvature="0" /></g><g
           id="g328"
           transform="translate(174.527,60.0238)"><path
             d="m 0,0 c -1.107,1.132 -2.085,1.647 -3.295,1.647 -1.931,0 -3.166,-1.724 -3.166,-4.479 0,-2.651 1.132,-4.556 3.243,-4.556 1.261,0 2.008,0.566 3.063,1.673 l 1.699,-1.673 c -1.055,-1.339 -2.394,-2.523 -4.839,-2.523 -3.295,0 -5.843,2.78 -5.843,7.002 0,4.479 2.625,7.079 5.92,7.079 1.982,0 3.527,-0.798 4.788,-2.291 z"
             style="fill:#4c4d4d;fill-opacity:1;fill-rule:nonzero;stroke:none"
             id="path330"
             inkscape:connector-curvature="0" /></g><g
           id="g332"
           transform="translate(187.1627,50.3959)"><path
             d="M 0,0 -2.986,6.719 -5.045,3.99 V 0 h -2.652 v 17.376 l 2.652,1.39 v -8.521 c 0,-0.823 -0.026,-2.214 -0.026,-2.883 0.36,0.541 1.055,1.571 1.493,2.214 l 2.806,3.939 H 2.239 L -1.185,8.984 2.883,0 Z"
             style="fill:#4c4d4d;fill-opacity:1;fill-rule:nonzero;stroke:none"
             id="path334"
             inkscape:connector-curvature="0" /></g><g
           id="g336"
           transform="translate(205.3307,65.7894)"><path
             d="M 0,0 H -2.214 V -12.768 H 0 c 4.273,0 6.023,2.6 6.023,6.384 C 6.023,-2.6 4.273,0 0,0 M 0,-15.394 H -4.917 V 2.626 H 0 c 4.839,0 8.778,-2.651 8.778,-9.01 0,-6.358 -4.068,-9.01 -8.778,-9.01"
             style="fill:#4c4d4d;fill-opacity:1;fill-rule:nonzero;stroke:none"
             id="path338"
             inkscape:connector-curvature="0" /></g><g
           id="g340"
           transform="translate(222.5983,61.7992)"><path
             d="M 0,0 C -1.776,0 -2.857,-1.235 -3.089,-3.397 H 3.192 C 3.063,-1.544 2.188,0 0,0 m 5.792,-5.586 h -8.933 c 0.284,-2.6 1.751,-3.706 3.398,-3.706 1.133,0 2.034,0.411 2.935,1.081 l 1.57,-1.699 c -1.184,-1.133 -2.6,-1.777 -4.659,-1.777 -3.166,0 -5.843,2.549 -5.843,7.028 0,4.582 2.419,7.054 5.92,7.054 3.836,0 5.689,-3.116 5.689,-6.771 0,-0.488 -0.052,-0.927 -0.077,-1.21"
             style="fill:#4c4d4d;fill-opacity:1;fill-rule:nonzero;stroke:none"
             id="path342"
             inkscape:connector-curvature="0" /></g><g
           id="g344"
           transform="translate(237.5768,50.3959)"><path
             d="m 0,0 h -2.651 l -4.84,13.515 h 2.78 l 2.42,-7.337 c 0.437,-1.313 0.824,-2.574 1.004,-3.321 0.154,0.747 0.515,2.008 0.927,3.321 l 2.317,7.337 h 2.805 z"
             style="fill:#4c4d4d;fill-opacity:1;fill-rule:nonzero;stroke:none"
             id="path346"
             inkscape:connector-curvature="0" /></g><path
           d="m 245.27,63.911 h 2.651 V 50.396 h -2.651 z m 1.339,1.75 c -0.953,0 -1.726,0.772 -1.726,1.699 0,0.952 0.773,1.724 1.726,1.724 0.926,0 1.698,-0.772 1.698,-1.724 0,-0.927 -0.772,-1.699 -1.698,-1.699"
           style="fill:#4c4d4d;fill-opacity:1;fill-rule:nonzero;stroke:none"
           id="path348"
           inkscape:connector-curvature="0" /><g
           id="g350"
           transform="translate(260.4557,60.0238)"><path
             d="m 0,0 c -1.107,1.132 -2.085,1.647 -3.295,1.647 -1.931,0 -3.166,-1.724 -3.166,-4.479 0,-2.651 1.132,-4.556 3.243,-4.556 1.261,0 2.008,0.566 3.063,1.673 l 1.699,-1.673 c -1.055,-1.339 -2.394,-2.523 -4.839,-2.523 -3.295,0 -5.843,2.78 -5.843,7.002 0,4.479 2.625,7.079 5.92,7.079 1.982,0 3.527,-0.798 4.788,-2.291 z"
             style="fill:#4c4d4d;fill-opacity:1;fill-rule:nonzero;stroke:none"
             id="path352"
             inkscape:connector-curvature="0" /></g><g
           id="g354"
           transform="translate(270.0514,61.7992)"><path
             d="M 0,0 C -1.776,0 -2.857,-1.235 -3.089,-3.397 H 3.192 C 3.063,-1.544 2.188,0 0,0 m 5.792,-5.586 h -8.933 c 0.284,-2.6 1.751,-3.706 3.398,-3.706 1.133,0 2.034,0.411 2.935,1.081 l 1.57,-1.699 c -1.184,-1.133 -2.6,-1.777 -4.659,-1.777 -3.166,0 -5.843,2.549 -5.843,7.028 0,4.582 2.419,7.054 5.92,7.054 3.836,0 5.689,-3.116 5.689,-6.771 0,-0.488 -0.052,-0.927 -0.077,-1.21"
             style="fill:#4c4d4d;fill-opacity:1;fill-rule:nonzero;stroke:none"
             id="path356"
             inkscape:connector-curvature="0" /></g><g
           id="g358"
           transform="translate(519.5021,58.8392)"><path
             d="m 0,0 h -4.891 v -5.972 h 4.814 c 2.394,0 3.269,1.21 3.269,2.986 C 3.192,-1.133 2.034,0 0,0 m -0.051,7.104 h -4.84 V 2.445 h 4.84 c 1.776,0 2.496,1.108 2.496,2.291 0,1.339 -0.695,2.368 -2.496,2.368 M -0.283,-8.443 H -7.439 V 9.576 h 7.413 c 3.141,0 5.174,-1.647 5.174,-4.685 0,-1.828 -0.978,-2.96 -2.291,-3.604 1.416,-0.386 3.038,-1.699 3.038,-4.195 0,-3.656 -2.24,-5.535 -6.178,-5.535"
             style="fill:#4c4d4d;fill-opacity:1;fill-rule:nonzero;stroke:none"
             id="path360"
             inkscape:connector-curvature="0" /></g><g
           id="g362"
           transform="translate(528.9186,50.3959)"><path
             d="m 0,0 v 17.376 l 2.651,1.39 V 0 Z"
             style="fill:#4c4d4d;fill-opacity:1;fill-rule:nonzero;stroke:none"
             id="path364"
             inkscape:connector-curvature="0" /></g><g
           id="g366"
           transform="translate(540.8868,61.6713)"><path
             d="m 0,0 c -2.008,0 -3.244,-1.776 -3.244,-4.454 0,-2.96 1.365,-4.581 3.373,-4.581 2.008,0 3.32,2.033 3.32,4.504 C 3.449,-1.776 2.137,0 0,0 m 0.026,-11.559 c -3.398,0 -5.946,2.806 -5.946,7.028 0,4.427 2.625,7.053 6.023,7.053 3.449,0 6.023,-2.754 6.023,-6.976 0,-4.479 -2.625,-7.105 -6.1,-7.105"
             style="fill:#4c4d4d;fill-opacity:1;fill-rule:nonzero;stroke:none"
             id="path368"
             inkscape:connector-curvature="0" /></g><g
           id="g370"
           transform="translate(558.7736,60.0238)"><path
             d="m 0,0 c -1.107,1.132 -2.085,1.647 -3.295,1.647 -1.931,0 -3.166,-1.724 -3.166,-4.479 0,-2.651 1.132,-4.556 3.243,-4.556 1.261,0 2.008,0.566 3.063,1.673 l 1.699,-1.673 c -1.055,-1.339 -2.394,-2.523 -4.839,-2.523 -3.295,0 -5.843,2.78 -5.843,7.002 0,4.479 2.625,7.079 5.92,7.079 1.982,0 3.527,-0.798 4.788,-2.291 z"
             style="fill:#4c4d4d;fill-opacity:1;fill-rule:nonzero;stroke:none"
             id="path372"
             inkscape:connector-curvature="0" /></g><g
           id="g374"
           transform="translate(571.4093,50.3959)"><path
             d="M 0,0 -2.986,6.719 -5.045,3.99 V 0 h -2.652 v 17.376 l 2.652,1.39 v -8.521 c 0,-0.823 -0.026,-2.214 -0.026,-2.883 0.36,0.541 1.055,1.571 1.493,2.214 l 2.806,3.939 H 2.239 L -1.185,8.984 2.883,0 Z"
             style="fill:#4c4d4d;fill-opacity:1;fill-rule:nonzero;stroke:none"
             id="path376"
             inkscape:connector-curvature="0" /></g><g
           id="g378"
           transform="translate(589.5773,65.7894)"><path
             d="M 0,0 H -2.214 V -12.768 H 0 c 4.273,0 6.023,2.6 6.023,6.384 C 6.023,-2.6 4.273,0 0,0 M 0,-15.394 H -4.917 V 2.626 H 0 c 4.839,0 8.778,-2.651 8.778,-9.01 0,-6.358 -4.068,-9.01 -8.778,-9.01"
             style="fill:#4c4d4d;fill-opacity:1;fill-rule:nonzero;stroke:none"
             id="path380"
             inkscape:connector-curvature="0" /></g><g
           id="g382"
           transform="translate(606.8448,61.7992)"><path
             d="M 0,0 C -1.776,0 -2.857,-1.235 -3.089,-3.397 H 3.192 C 3.063,-1.544 2.188,0 0,0 m 5.792,-5.586 h -8.933 c 0.284,-2.6 1.751,-3.706 3.398,-3.706 1.133,0 2.034,0.411 2.935,1.081 l 1.57,-1.699 c -1.184,-1.133 -2.6,-1.777 -4.659,-1.777 -3.166,0 -5.843,2.549 -5.843,7.028 0,4.582 2.419,7.054 5.92,7.054 3.836,0 5.689,-3.116 5.689,-6.771 0,-0.488 -0.052,-0.927 -0.077,-1.21"
             style="fill:#4c4d4d;fill-opacity:1;fill-rule:nonzero;stroke:none"
             id="path384"
             inkscape:connector-curvature="0" /></g><g
           id="g386"
           transform="translate(621.8234,50.3959)"><path
             d="m 0,0 h -2.651 l -4.84,13.515 h 2.78 l 2.42,-7.337 c 0.437,-1.313 0.824,-2.574 1.004,-3.321 0.154,0.747 0.515,2.008 0.927,3.321 l 2.317,7.337 h 2.805 z"
             style="fill:#4c4d4d;fill-opacity:1;fill-rule:nonzero;stroke:none"
             id="path388"
             inkscape:connector-curvature="0" /></g><path
           d="m 629.516,63.911 h 2.651 V 50.396 h -2.651 z m 1.339,1.75 c -0.953,0 -1.725,0.772 -1.725,1.699 0,0.952 0.772,1.724 1.725,1.724 0.926,0 1.699,-0.772 1.699,-1.724 0,-0.927 -0.773,-1.699 -1.699,-1.699"
           style="fill:#4c4d4d;fill-opacity:1;fill-rule:nonzero;stroke:none"
           id="path390"
           inkscape:connector-curvature="0" /><g
           id="g392"
           transform="translate(644.7023,60.0238)"><path
             d="m 0,0 c -1.107,1.132 -2.085,1.647 -3.295,1.647 -1.931,0 -3.166,-1.724 -3.166,-4.479 0,-2.651 1.132,-4.556 3.243,-4.556 1.261,0 2.008,0.566 3.063,1.673 l 1.699,-1.673 c -1.055,-1.339 -2.394,-2.523 -4.839,-2.523 -3.295,0 -5.843,2.78 -5.843,7.002 0,4.479 2.625,7.079 5.92,7.079 1.982,0 3.527,-0.798 4.788,-2.291 z"
             style="fill:#4c4d4d;fill-opacity:1;fill-rule:nonzero;stroke:none"
             id="path394"
             inkscape:connector-curvature="0" /></g><g
           id="g396"
           transform="translate(654.298,61.7992)"><path
             d="M 0,0 C -1.776,0 -2.857,-1.235 -3.089,-3.397 H 3.192 C 3.063,-1.544 2.188,0 0,0 m 5.792,-5.586 h -8.933 c 0.284,-2.6 1.751,-3.706 3.398,-3.706 1.133,0 2.034,0.411 2.935,1.081 l 1.57,-1.699 c -1.184,-1.133 -2.6,-1.777 -4.659,-1.777 -3.166,0 -5.843,2.549 -5.843,7.028 0,4.582 2.419,7.054 5.92,7.054 3.836,0 5.689,-3.116 5.689,-6.771 0,-0.488 -0.052,-0.927 -0.077,-1.21"
             style="fill:#4c4d4d;fill-opacity:1;fill-rule:nonzero;stroke:none"
             id="path398"
             inkscape:connector-curvature="0" /></g><g
           id="g400"
           transform="translate(903.7487,58.8392)"><path
             d="m 0,0 h -4.891 v -5.972 h 4.814 c 2.393,0 3.268,1.21 3.268,2.986 C 3.191,-1.133 2.033,0 0,0 M -0.052,7.104 H -4.891 V 2.445 h 4.839 c 1.777,0 2.497,1.108 2.497,2.291 0,1.339 -0.695,2.368 -2.497,2.368 M -0.283,-8.443 H -7.439 V 9.576 h 7.413 c 3.14,0 5.174,-1.647 5.174,-4.685 0,-1.828 -0.978,-2.96 -2.291,-3.604 1.415,-0.386 3.038,-1.699 3.038,-4.195 0,-3.656 -2.24,-5.535 -6.178,-5.535"
             style="fill:#4c4d4d;fill-opacity:1;fill-rule:nonzero;stroke:none"
             id="path402"
             inkscape:connector-curvature="0" /></g><g
           id="g404"
           transform="translate(913.1647,50.3959)"><path
             d="m 0,0 v 17.376 l 2.651,1.39 V 0 Z"
             style="fill:#4c4d4d;fill-opacity:1;fill-rule:nonzero;stroke:none"
             id="path406"
             inkscape:connector-curvature="0" /></g><g
           id="g408"
           transform="translate(925.1334,61.6713)"><path
             d="m 0,0 c -2.008,0 -3.244,-1.776 -3.244,-4.454 0,-2.96 1.364,-4.581 3.373,-4.581 2.008,0 3.32,2.033 3.32,4.504 C 3.449,-1.776 2.137,0 0,0 m 0.025,-11.559 c -3.397,0 -5.946,2.806 -5.946,7.028 0,4.427 2.626,7.053 6.024,7.053 3.449,0 6.023,-2.754 6.023,-6.976 0,-4.479 -2.625,-7.105 -6.101,-7.105"
             style="fill:#4c4d4d;fill-opacity:1;fill-rule:nonzero;stroke:none"
             id="path410"
             inkscape:connector-curvature="0" /></g><g
           id="g412"
           transform="translate(943.0201,60.0238)"><path
             d="m 0,0 c -1.107,1.132 -2.085,1.647 -3.295,1.647 -1.931,0 -3.167,-1.724 -3.167,-4.479 0,-2.651 1.133,-4.556 3.244,-4.556 1.261,0 2.008,0.566 3.063,1.673 l 1.699,-1.673 c -1.056,-1.339 -2.394,-2.523 -4.839,-2.523 -3.295,0 -5.844,2.78 -5.844,7.002 0,4.479 2.626,7.079 5.921,7.079 1.982,0 3.527,-0.798 4.788,-2.291 z"
             style="fill:#4c4d4d;fill-opacity:1;fill-rule:nonzero;stroke:none"
             id="path414"
             inkscape:connector-curvature="0" /></g><g
           id="g416"
           transform="translate(955.6559,50.3959)"><path
             d="M 0,0 -2.986,6.719 -5.046,3.99 V 0 h -2.651 v 17.376 l 2.651,1.39 v -8.521 c 0,-0.823 -0.025,-2.214 -0.025,-2.883 0.36,0.541 1.054,1.571 1.493,2.214 l 2.806,3.939 H 2.239 L -1.185,8.984 2.883,0 Z"
             style="fill:#4c4d4d;fill-opacity:1;fill-rule:nonzero;stroke:none"
             id="path418"
             inkscape:connector-curvature="0" /></g><g
           id="g420"
           transform="translate(973.8239,65.7894)"><path
             d="M 0,0 H -2.214 V -12.768 H 0 c 4.272,0 6.023,2.6 6.023,6.384 C 6.023,-2.6 4.272,0 0,0 M 0,-15.394 H -4.917 V 2.626 H 0 c 4.839,0 8.777,-2.651 8.777,-9.01 0,-6.358 -4.067,-9.01 -8.777,-9.01"
             style="fill:#4c4d4d;fill-opacity:1;fill-rule:nonzero;stroke:none"
             id="path422"
             inkscape:connector-curvature="0" /></g><g
           id="g424"
           transform="translate(991.0914,61.7992)"><path
             d="m 0,0 c -1.776,0 -2.857,-1.235 -3.089,-3.397 h 6.28 C 3.063,-1.544 2.188,0 0,0 m 5.792,-5.586 h -8.933 c 0.284,-2.6 1.75,-3.706 3.398,-3.706 1.133,0 2.034,0.411 2.934,1.081 L 4.762,-9.91 c -1.184,-1.133 -2.6,-1.777 -4.659,-1.777 -3.166,0 -5.843,2.549 -5.843,7.028 0,4.582 2.419,7.054 5.92,7.054 3.836,0 5.689,-3.116 5.689,-6.771 0,-0.488 -0.052,-0.927 -0.077,-1.21"
             style="fill:#4c4d4d;fill-opacity:1;fill-rule:nonzero;stroke:none"
             id="path426"
             inkscape:connector-curvature="0" /></g><g
           id="g428"
           transform="translate(1006.0699,50.3959)"><path
             d="m 0,0 h -2.651 l -4.84,13.515 h 2.78 l 2.42,-7.337 c 0.437,-1.313 0.823,-2.574 1.004,-3.321 0.154,0.747 0.515,2.008 0.927,3.321 l 2.316,7.337 h 2.806 z"
             style="fill:#4c4d4d;fill-opacity:1;fill-rule:nonzero;stroke:none"
             id="path430"
             inkscape:connector-curvature="0" /></g><path
           d="m 1013.762,63.911 h 2.651 V 50.396 h -2.651 z m 1.339,1.75 c -0.952,0 -1.724,0.772 -1.724,1.699 0,0.952 0.772,1.724 1.724,1.724 0.927,0 1.699,-0.772 1.699,-1.724 0,-0.927 -0.772,-1.699 -1.699,-1.699"
           style="fill:#4c4d4d;fill-opacity:1;fill-rule:nonzero;stroke:none"
           id="path432"
           inkscape:connector-curvature="0" /><g
           id="g434"
           transform="translate(1028.9489,60.0238)"><path
             d="m 0,0 c -1.107,1.132 -2.085,1.647 -3.295,1.647 -1.931,0 -3.167,-1.724 -3.167,-4.479 0,-2.651 1.133,-4.556 3.244,-4.556 1.261,0 2.008,0.566 3.063,1.673 l 1.699,-1.673 c -1.056,-1.339 -2.394,-2.523 -4.839,-2.523 -3.295,0 -5.844,2.78 -5.844,7.002 0,4.479 2.626,7.079 5.921,7.079 1.982,0 3.527,-0.798 4.788,-2.291 z"
             style="fill:#4c4d4d;fill-opacity:1;fill-rule:nonzero;stroke:none"
             id="path436"
             inkscape:connector-curvature="0" /></g><g
           id="g438"
           transform="translate(1038.5446,61.7992)"><path
             d="m 0,0 c -1.776,0 -2.857,-1.235 -3.089,-3.397 h 6.28 C 3.063,-1.544 2.188,0 0,0 m 5.792,-5.586 h -8.933 c 0.284,-2.6 1.75,-3.706 3.398,-3.706 1.133,0 2.034,0.411 2.934,1.081 L 4.762,-9.91 c -1.184,-1.133 -2.6,-1.777 -4.659,-1.777 -3.166,0 -5.843,2.549 -5.843,7.028 0,4.582 2.419,7.054 5.92,7.054 3.836,0 5.689,-3.116 5.689,-6.771 0,-0.488 -0.052,-0.927 -0.077,-1.21"
             style="fill:#4c4d4d;fill-opacity:1;fill-rule:nonzero;stroke:none"
             id="path440"
             inkscape:connector-curvature="0" /></g><g
           id="g442"
           transform="translate(1287.9948,58.8392)"><path
             d="m 0,0 h -4.891 v -5.972 h 4.814 c 2.393,0 3.268,1.21 3.268,2.986 C 3.191,-1.133 2.033,0 0,0 M -0.052,7.104 H -4.891 V 2.445 h 4.839 c 1.777,0 2.497,1.108 2.497,2.291 0,1.339 -0.695,2.368 -2.497,2.368 M -0.283,-8.443 H -7.439 V 9.576 h 7.413 c 3.14,0 5.174,-1.647 5.174,-4.685 0,-1.828 -0.978,-2.96 -2.291,-3.604 1.415,-0.386 3.038,-1.699 3.038,-4.195 0,-3.656 -2.24,-5.535 -6.178,-5.535"
             style="fill:#4c4d4d;fill-opacity:1;fill-rule:nonzero;stroke:none"
             id="path444"
             inkscape:connector-curvature="0" /></g><g
           id="g446"
           transform="translate(1297.4108,50.3959)"><path
             d="m 0,0 v 17.376 l 2.651,1.39 V 0 Z"
             style="fill:#4c4d4d;fill-opacity:1;fill-rule:nonzero;stroke:none"
             id="path448"
             inkscape:connector-curvature="0" /></g><g
           id="g450"
           transform="translate(1309.3795,61.6713)"><path
             d="m 0,0 c -2.008,0 -3.244,-1.776 -3.244,-4.454 0,-2.96 1.364,-4.581 3.373,-4.581 2.008,0 3.32,2.033 3.32,4.504 C 3.449,-1.776 2.137,0 0,0 m 0.025,-11.559 c -3.397,0 -5.946,2.806 -5.946,7.028 0,4.427 2.626,7.053 6.024,7.053 3.449,0 6.023,-2.754 6.023,-6.976 0,-4.479 -2.625,-7.105 -6.101,-7.105"
             style="fill:#4c4d4d;fill-opacity:1;fill-rule:nonzero;stroke:none"
             id="path452"
             inkscape:connector-curvature="0" /></g><g
           id="g454"
           transform="translate(1327.2662,60.0238)"><path
             d="m 0,0 c -1.107,1.132 -2.085,1.647 -3.295,1.647 -1.931,0 -3.167,-1.724 -3.167,-4.479 0,-2.651 1.133,-4.556 3.244,-4.556 1.261,0 2.008,0.566 3.063,1.673 l 1.699,-1.673 c -1.056,-1.339 -2.394,-2.523 -4.839,-2.523 -3.295,0 -5.844,2.78 -5.844,7.002 0,4.479 2.626,7.079 5.921,7.079 1.982,0 3.527,-0.798 4.788,-2.291 z"
             style="fill:#4c4d4d;fill-opacity:1;fill-rule:nonzero;stroke:none"
             id="path456"
             inkscape:connector-curvature="0" /></g><g
           id="g458"
           transform="translate(1339.902,50.3959)"><path
             d="M 0,0 -2.986,6.719 -5.046,3.99 V 0 h -2.651 v 17.376 l 2.651,1.39 v -8.521 c 0,-0.823 -0.025,-2.214 -0.025,-2.883 0.36,0.541 1.054,1.571 1.493,2.214 l 2.806,3.939 H 2.239 L -1.185,8.984 2.883,0 Z"
             style="fill:#4c4d4d;fill-opacity:1;fill-rule:nonzero;stroke:none"
             id="path460"
             inkscape:connector-curvature="0" /></g><g
           id="g462"
           transform="translate(1358.0699,65.7894)"><path
             d="M 0,0 H -2.214 V -12.768 H 0 c 4.272,0 6.023,2.6 6.023,6.384 C 6.023,-2.6 4.272,0 0,0 M 0,-15.394 H -4.917 V 2.626 H 0 c 4.839,0 8.777,-2.651 8.777,-9.01 0,-6.358 -4.067,-9.01 -8.777,-9.01"
             style="fill:#4c4d4d;fill-opacity:1;fill-rule:nonzero;stroke:none"
             id="path464"
             inkscape:connector-curvature="0" /></g><g
           id="g466"
           transform="translate(1375.3375,61.7992)"><path
             d="m 0,0 c -1.776,0 -2.857,-1.235 -3.089,-3.397 h 6.28 C 3.063,-1.544 2.188,0 0,0 m 5.792,-5.586 h -8.933 c 0.284,-2.6 1.75,-3.706 3.398,-3.706 1.133,0 2.034,0.411 2.934,1.081 L 4.762,-9.91 c -1.184,-1.133 -2.6,-1.777 -4.659,-1.777 -3.166,0 -5.843,2.549 -5.843,7.028 0,4.582 2.419,7.054 5.92,7.054 3.836,0 5.689,-3.116 5.689,-6.771 0,-0.488 -0.052,-0.927 -0.077,-1.21"
             style="fill:#4c4d4d;fill-opacity:1;fill-rule:nonzero;stroke:none"
             id="path468"
             inkscape:connector-curvature="0" /></g><g
           id="g470"
           transform="translate(1390.316,50.3959)"><path
             d="m 0,0 h -2.651 l -4.84,13.515 h 2.78 l 2.42,-7.337 c 0.437,-1.313 0.823,-2.574 1.004,-3.321 0.154,0.747 0.515,2.008 0.927,3.321 l 2.316,7.337 h 2.806 z"
             style="fill:#4c4d4d;fill-opacity:1;fill-rule:nonzero;stroke:none"
             id="path472"
             inkscape:connector-curvature="0" /></g><path
           d="m 1398.008,63.911 h 2.651 V 50.396 h -2.651 z m 1.339,1.75 c -0.952,0 -1.724,0.772 -1.724,1.699 0,0.952 0.772,1.724 1.724,1.724 0.927,0 1.7,-0.772 1.7,-1.724 0,-0.927 -0.773,-1.699 -1.7,-1.699"
           style="fill:#4c4d4d;fill-opacity:1;fill-rule:nonzero;stroke:none"
           id="path474"
           inkscape:connector-curvature="0" /><g
           id="g476"
           transform="translate(1413.1949,60.0238)"><path
             d="m 0,0 c -1.107,1.132 -2.085,1.647 -3.295,1.647 -1.931,0 -3.167,-1.724 -3.167,-4.479 0,-2.651 1.133,-4.556 3.244,-4.556 1.261,0 2.008,0.566 3.063,1.673 l 1.699,-1.673 c -1.056,-1.339 -2.394,-2.523 -4.839,-2.523 -3.295,0 -5.844,2.78 -5.844,7.002 0,4.479 2.626,7.079 5.921,7.079 1.982,0 3.527,-0.798 4.788,-2.291 z"
             style="fill:#4c4d4d;fill-opacity:1;fill-rule:nonzero;stroke:none"
             id="path478"
             inkscape:connector-curvature="0" /></g><g
           id="g480"
           transform="translate(1422.7906,61.7992)"><path
             d="m 0,0 c -1.776,0 -2.857,-1.235 -3.089,-3.397 h 6.28 C 3.063,-1.544 2.188,0 0,0 m 5.792,-5.586 h -8.933 c 0.284,-2.6 1.75,-3.706 3.398,-3.706 1.133,0 2.034,0.411 2.934,1.081 L 4.762,-9.91 c -1.184,-1.133 -2.6,-1.777 -4.659,-1.777 -3.166,0 -5.843,2.549 -5.843,7.028 0,4.582 2.419,7.054 5.92,7.054 3.836,0 5.689,-3.116 5.689,-6.771 0,-0.488 -0.052,-0.927 -0.077,-1.21"
             style="fill:#4c4d4d;fill-opacity:1;fill-rule:nonzero;stroke:none"
             id="path482"
             inkscape:connector-curvature="0" /></g><g
           id="g484"
           transform="translate(1001.8453,530.4984)"><path
             d="m 0,0 h -2.857 l -6.255,18.02 h 2.934 L -2.42,6.539 c 0.335,-1.056 0.85,-2.651 1.004,-3.295 0.154,0.644 0.669,2.265 1.004,3.32 L 3.295,18.02 h 2.883 z"
             style="fill:#4c4d4d;fill-opacity:1;fill-rule:nonzero;stroke:none"
             id="path486"
             inkscape:connector-curvature="0" /></g><path
           d="m 1010.93,544.013 h 2.651 v -13.515 h -2.651 z m 1.339,1.75 c -0.953,0 -1.725,0.773 -1.725,1.699 0,0.952 0.772,1.725 1.725,1.725 0.926,0 1.698,-0.773 1.698,-1.725 0,-0.926 -0.772,-1.699 -1.698,-1.699"
           style="fill:#4c4d4d;fill-opacity:1;fill-rule:nonzero;stroke:none"
           id="path488"
           inkscape:connector-curvature="0" /><g
           id="g490"
           transform="translate(1024.9576,541.2074)"><path
             d="m 0,0 c -0.566,0.309 -1.158,0.489 -2.033,0.489 -1.674,0 -2.652,-1.184 -2.652,-3.475 v -7.723 H -7.336 V 2.806 h 2.651 V 1.519 c 0.618,0.901 1.75,1.57 3.089,1.57 1.081,0 1.75,-0.206 2.291,-0.567 z"
             style="fill:#4c4d4d;fill-opacity:1;fill-rule:nonzero;stroke:none"
             id="path492"
             inkscape:connector-curvature="0" /></g><g
           id="g494"
           transform="translate(1035.0973,530.8334)"><path
             d="m 0,0 c -0.644,-0.36 -1.544,-0.618 -2.6,-0.618 -1.879,0 -3.037,1.158 -3.037,3.578 v 7.8 h -1.93 v 2.42 h 1.93 v 3.861 l 2.6,1.39 V 13.18 H 0.31 V 10.76 H -3.037 V 3.424 c 0,-1.262 0.412,-1.622 1.39,-1.622 0.695,0 1.467,0.258 1.957,0.541 z"
             style="fill:#4c4d4d;fill-opacity:1;fill-rule:nonzero;stroke:none"
             id="path496"
             inkscape:connector-curvature="0" /></g><g
           id="g498"
           transform="translate(1046.9088,530.4984)"><path
             d="m 0,0 v 1.287 c -0.67,-0.977 -2.008,-1.57 -3.398,-1.57 -3.141,0 -4.814,2.059 -4.814,6.05 v 7.748 h 2.651 V 5.869 c 0,-2.728 1.031,-3.707 2.781,-3.707 1.776,0 2.78,1.262 2.78,3.45 v 7.903 H 2.651 V 0 Z"
             style="fill:#4c4d4d;fill-opacity:1;fill-rule:nonzero;stroke:none"
             id="path500"
             inkscape:connector-curvature="0" /></g><g
           id="g502"
           transform="translate(1061.2174,536.265)"><path
             d="m 0,0 c -0.721,0.36 -1.647,0.592 -3.089,0.592 -1.699,0 -2.78,-0.773 -2.78,-2.008 0,-1.339 0.849,-2.239 2.599,-2.239 1.416,0 2.652,0.875 3.27,1.724 z m 0,-5.767 v 1.339 c -0.927,-0.926 -2.24,-1.622 -3.707,-1.622 -2.189,0 -4.685,1.237 -4.685,4.557 0,3.012 2.317,4.376 5.38,4.376 1.261,0 2.265,-0.181 3.012,-0.515 v 1.004 c 0,1.467 -0.901,2.291 -2.549,2.291 -1.389,0 -2.471,-0.258 -3.526,-0.85 l -1.029,2.008 c 1.287,0.798 2.728,1.21 4.632,1.21 3.012,0 5.072,-1.468 5.072,-4.53 v -9.268 z"
             style="fill:#4c4d4d;fill-opacity:1;fill-rule:nonzero;stroke:none"
             id="path504"
             inkscape:connector-curvature="0" /></g><g
           id="g506"
           transform="translate(1067.7516,530.4984)"><path
             d="m 0,0 v 17.376 l 2.651,1.39 V 0 Z"
             style="fill:#4c4d4d;fill-opacity:1;fill-rule:nonzero;stroke:none"
             id="path508"
             inkscape:connector-curvature="0" /></g><g
           id="g510"
           transform="translate(1095.2399,530.4984)"><path
             d="m 0,0 v 9.524 c 0,1.081 0.026,2.652 0.052,3.166 -0.206,-0.514 -0.721,-1.801 -1.158,-2.831 L -5.482,-0.283 -9.808,9.859 c -0.437,1.03 -0.952,2.317 -1.158,2.831 0.027,-0.514 0.052,-2.085 0.052,-3.166 V 0 h -2.549 v 18.02 h 2.78 l 4.042,-9.602 c 0.438,-1.03 1.004,-2.343 1.236,-3.089 0.258,0.746 0.772,2.033 1.21,3.089 l 3.964,9.602 H 2.651 V 0 Z"
             style="fill:#4c4d4d;fill-opacity:1;fill-rule:nonzero;stroke:none"
             id="path512"
             inkscape:connector-curvature="0" /></g><g
           id="g514"
           transform="translate(1109.9332,536.265)"><path
             d="m 0,0 c -0.721,0.36 -1.647,0.592 -3.089,0.592 -1.699,0 -2.78,-0.773 -2.78,-2.008 0,-1.339 0.849,-2.239 2.6,-2.239 1.415,0 2.652,0.875 3.269,1.724 z m 0,-5.767 v 1.339 c -0.927,-0.926 -2.239,-1.622 -3.707,-1.622 -2.188,0 -4.685,1.237 -4.685,4.557 0,3.012 2.317,4.376 5.38,4.376 1.262,0 2.266,-0.181 3.012,-0.515 v 1.004 c 0,1.467 -0.9,2.291 -2.548,2.291 -1.39,0 -2.472,-0.258 -3.527,-0.85 l -1.029,2.008 c 1.287,0.798 2.728,1.21 4.633,1.21 3.012,0 5.072,-1.468 5.072,-4.53 v -9.268 z"
             style="fill:#4c4d4d;fill-opacity:1;fill-rule:nonzero;stroke:none"
             id="path516"
             inkscape:connector-curvature="0" /></g><g
           id="g518"
           transform="translate(1124.8336,540.1263)"><path
             d="m 0,0 c -1.106,1.132 -2.085,1.647 -3.295,1.647 -1.931,0 -3.166,-1.724 -3.166,-4.479 0,-2.651 1.133,-4.556 3.243,-4.556 1.262,0 2.008,0.566 3.064,1.673 l 1.699,-1.673 c -1.056,-1.339 -2.395,-2.523 -4.84,-2.523 -3.295,0 -5.843,2.78 -5.843,7.002 0,4.479 2.625,7.079 5.92,7.079 1.983,0 3.527,-0.798 4.788,-2.291 z"
             style="fill:#4c4d4d;fill-opacity:1;fill-rule:nonzero;stroke:none"
             id="path520"
             inkscape:connector-curvature="0" /></g><g
           id="g522"
           transform="translate(1137.984,530.4984)"><path
             d="m 0,0 v 7.646 c 0,2.728 -1.029,3.707 -2.78,3.707 -1.776,0 -2.78,-1.262 -2.78,-3.45 V 0 h -2.651 v 17.376 l 2.651,1.39 v -6.538 c 0.669,0.978 2.008,1.57 3.398,1.57 3.141,0 4.813,-2.06 4.813,-6.05 L 2.651,0 Z"
             style="fill:#4c4d4d;fill-opacity:1;fill-rule:nonzero;stroke:none"
             id="path524"
             inkscape:connector-curvature="0" /></g><path
           d="m 1144.57,544.013 h 2.651 v -13.515 h -2.651 z m 1.339,1.75 c -0.952,0 -1.725,0.773 -1.725,1.699 0,0.952 0.773,1.725 1.725,1.725 0.927,0 1.699,-0.773 1.699,-1.725 0,-0.926 -0.772,-1.699 -1.699,-1.699"
           style="fill:#4c4d4d;fill-opacity:1;fill-rule:nonzero;stroke:none"
           id="path526"
           inkscape:connector-curvature="0" /><g
           id="g528"
           transform="translate(1159.4733,530.4984)"><path
             d="m 0,0 v 7.646 c 0,2.728 -1.03,3.707 -2.78,3.707 -1.777,0 -2.781,-1.262 -2.781,-3.45 V 0 h -2.651 v 13.515 h 2.651 v -1.287 c 0.669,0.978 2.008,1.57 3.399,1.57 3.14,0 4.813,-2.06 4.813,-6.05 V 0 Z"
             style="fill:#4c4d4d;fill-opacity:1;fill-rule:nonzero;stroke:none"
             id="path530"
             inkscape:connector-curvature="0" /></g><g
           id="g532"
           transform="translate(1171.027,541.9017)"><path
             d="M 0,0 C -1.776,0 -2.857,-1.235 -3.089,-3.397 H 3.192 C 3.063,-1.544 2.188,0 0,0 m 5.792,-5.586 h -8.933 c 0.284,-2.6 1.751,-3.706 3.399,-3.706 1.133,0 2.033,0.411 2.934,1.081 L 4.763,-9.91 c -1.185,-1.133 -2.601,-1.777 -4.659,-1.777 -3.167,0 -5.844,2.549 -5.844,7.028 0,4.582 2.42,7.054 5.921,7.054 3.835,0 5.688,-3.116 5.688,-6.771 0,-0.488 -0.052,-0.927 -0.077,-1.21"
             style="fill:#4c4d4d;fill-opacity:1;fill-rule:nonzero;stroke:none"
             id="path534"
             inkscape:connector-curvature="0" /></g><g
           id="g536"
           transform="translate(1308.9879,530.4984)"><path
             d="m 0,0 h -2.857 l -6.255,18.02 h 2.934 L -2.42,6.539 c 0.335,-1.056 0.85,-2.651 1.004,-3.295 0.154,0.644 0.669,2.265 1.004,3.32 L 3.295,18.02 h 2.883 z"
             style="fill:#4c4d4d;fill-opacity:1;fill-rule:nonzero;stroke:none"
             id="path538"
             inkscape:connector-curvature="0" /></g><path
           d="m 1318.073,544.013 h 2.651 v -13.515 h -2.651 z m 1.339,1.75 c -0.953,0 -1.726,0.773 -1.726,1.699 0,0.952 0.773,1.725 1.726,1.725 0.926,0 1.698,-0.773 1.698,-1.725 0,-0.926 -0.772,-1.699 -1.698,-1.699"
           style="fill:#4c4d4d;fill-opacity:1;fill-rule:nonzero;stroke:none"
           id="path540"
           inkscape:connector-curvature="0" /><g
           id="g542"
           transform="translate(1332.1002,541.2074)"><path
             d="m 0,0 c -0.566,0.309 -1.158,0.489 -2.033,0.489 -1.674,0 -2.652,-1.184 -2.652,-3.475 v -7.723 H -7.336 V 2.806 h 2.651 V 1.519 c 0.618,0.901 1.75,1.57 3.089,1.57 1.081,0 1.75,-0.206 2.291,-0.567 z"
             style="fill:#4c4d4d;fill-opacity:1;fill-rule:nonzero;stroke:none"
             id="path544"
             inkscape:connector-curvature="0" /></g><g
           id="g546"
           transform="translate(1342.2399,530.8334)"><path
             d="m 0,0 c -0.644,-0.36 -1.544,-0.618 -2.6,-0.618 -1.879,0 -3.037,1.158 -3.037,3.578 v 7.8 h -1.93 v 2.42 h 1.93 v 3.861 l 2.6,1.39 V 13.18 H 0.31 V 10.76 H -3.037 V 3.424 c 0,-1.262 0.412,-1.622 1.39,-1.622 0.695,0 1.467,0.258 1.957,0.541 z"
             style="fill:#4c4d4d;fill-opacity:1;fill-rule:nonzero;stroke:none"
             id="path548"
             inkscape:connector-curvature="0" /></g><g
           id="g550"
           transform="translate(1354.0514,530.4984)"><path
             d="m 0,0 v 1.287 c -0.67,-0.977 -2.008,-1.57 -3.398,-1.57 -3.141,0 -4.814,2.059 -4.814,6.05 v 7.748 h 2.651 V 5.869 c 0,-2.728 1.031,-3.707 2.781,-3.707 1.776,0 2.78,1.262 2.78,3.45 v 7.903 H 2.651 V 0 Z"
             style="fill:#4c4d4d;fill-opacity:1;fill-rule:nonzero;stroke:none"
             id="path552"
             inkscape:connector-curvature="0" /></g><g
           id="g554"
           transform="translate(1368.36,536.265)"><path
             d="m 0,0 c -0.721,0.36 -1.647,0.592 -3.089,0.592 -1.699,0 -2.78,-0.773 -2.78,-2.008 0,-1.339 0.849,-2.239 2.599,-2.239 1.416,0 2.652,0.875 3.27,1.724 z m 0,-5.767 v 1.339 c -0.927,-0.926 -2.24,-1.622 -3.707,-1.622 -2.189,0 -4.685,1.237 -4.685,4.557 0,3.012 2.317,4.376 5.38,4.376 1.261,0 2.265,-0.181 3.012,-0.515 v 1.004 c 0,1.467 -0.901,2.291 -2.549,2.291 -1.389,0 -2.471,-0.258 -3.526,-0.85 l -1.029,2.008 c 1.287,0.798 2.728,1.21 4.632,1.21 3.012,0 5.072,-1.468 5.072,-4.53 v -9.268 z"
             style="fill:#4c4d4d;fill-opacity:1;fill-rule:nonzero;stroke:none"
             id="path556"
             inkscape:connector-curvature="0" /></g><g
           id="g558"
           transform="translate(1374.8942,530.4984)"><path
             d="m 0,0 v 17.376 l 2.651,1.39 V 0 Z"
             style="fill:#4c4d4d;fill-opacity:1;fill-rule:nonzero;stroke:none"
             id="path560"
             inkscape:connector-curvature="0" /></g><g
           id="g562"
           transform="translate(1402.3824,530.4984)"><path
             d="m 0,0 v 9.524 c 0,1.081 0.026,2.652 0.052,3.166 -0.206,-0.514 -0.721,-1.801 -1.158,-2.831 L -5.482,-0.283 -9.808,9.859 c -0.437,1.03 -0.952,2.317 -1.158,2.831 0.027,-0.514 0.052,-2.085 0.052,-3.166 V 0 h -2.549 v 18.02 h 2.78 l 4.042,-9.602 c 0.438,-1.03 1.004,-2.343 1.236,-3.089 0.258,0.746 0.772,2.033 1.21,3.089 l 3.964,9.602 H 2.651 V 0 Z"
             style="fill:#4c4d4d;fill-opacity:1;fill-rule:nonzero;stroke:none"
             id="path564"
             inkscape:connector-curvature="0" /></g><g
           id="g566"
           transform="translate(1417.0758,536.265)"><path
             d="m 0,0 c -0.721,0.36 -1.647,0.592 -3.089,0.592 -1.699,0 -2.78,-0.773 -2.78,-2.008 0,-1.339 0.849,-2.239 2.6,-2.239 1.415,0 2.652,0.875 3.269,1.724 z m 0,-5.767 v 1.339 c -0.927,-0.926 -2.239,-1.622 -3.707,-1.622 -2.188,0 -4.685,1.237 -4.685,4.557 0,3.012 2.317,4.376 5.38,4.376 1.262,0 2.266,-0.181 3.012,-0.515 v 1.004 c 0,1.467 -0.9,2.291 -2.548,2.291 -1.39,0 -2.472,-0.258 -3.527,-0.85 l -1.029,2.008 c 1.287,0.798 2.728,1.21 4.633,1.21 3.012,0 5.072,-1.468 5.072,-4.53 v -9.268 z"
             style="fill:#4c4d4d;fill-opacity:1;fill-rule:nonzero;stroke:none"
             id="path568"
             inkscape:connector-curvature="0" /></g><g
           id="g570"
           transform="translate(1431.9762,540.1263)"><path
             d="m 0,0 c -1.106,1.132 -2.085,1.647 -3.295,1.647 -1.931,0 -3.166,-1.724 -3.166,-4.479 0,-2.651 1.133,-4.556 3.243,-4.556 1.262,0 2.008,0.566 3.064,1.673 l 1.699,-1.673 c -1.056,-1.339 -2.395,-2.523 -4.84,-2.523 -3.295,0 -5.843,2.78 -5.843,7.002 0,4.479 2.625,7.079 5.92,7.079 1.983,0 3.527,-0.798 4.788,-2.291 z"
             style="fill:#4c4d4d;fill-opacity:1;fill-rule:nonzero;stroke:none"
             id="path572"
             inkscape:connector-curvature="0" /></g><g
           id="g574"
           transform="translate(1445.1266,530.4984)"><path
             d="m 0,0 v 7.646 c 0,2.728 -1.029,3.707 -2.78,3.707 -1.776,0 -2.78,-1.262 -2.78,-3.45 V 0 h -2.651 v 17.376 l 2.651,1.39 v -6.538 c 0.669,0.978 2.008,1.57 3.398,1.57 3.141,0 4.813,-2.06 4.813,-6.05 L 2.651,0 Z"
             style="fill:#4c4d4d;fill-opacity:1;fill-rule:nonzero;stroke:none"
             id="path576"
             inkscape:connector-curvature="0" /></g><path
           d="m 1451.713,544.013 h 2.651 v -13.515 h -2.651 z m 1.338,1.75 c -0.952,0 -1.724,0.773 -1.724,1.699 0,0.952 0.772,1.725 1.724,1.725 0.927,0 1.7,-0.773 1.7,-1.725 0,-0.926 -0.773,-1.699 -1.7,-1.699"
           style="fill:#4c4d4d;fill-opacity:1;fill-rule:nonzero;stroke:none"
           id="path578"
           inkscape:connector-curvature="0" /><g
           id="g580"
           transform="translate(1466.6158,530.4984)"><path
             d="m 0,0 v 7.646 c 0,2.728 -1.03,3.707 -2.78,3.707 -1.777,0 -2.781,-1.262 -2.781,-3.45 V 0 h -2.651 v 13.515 h 2.651 v -1.287 c 0.669,0.978 2.008,1.57 3.399,1.57 3.14,0 4.813,-2.06 4.813,-6.05 V 0 Z"
             style="fill:#4c4d4d;fill-opacity:1;fill-rule:nonzero;stroke:none"
             id="path582"
             inkscape:connector-curvature="0" /></g><g
           id="g584"
           transform="translate(1478.1696,541.9017)"><path
             d="M 0,0 C -1.776,0 -2.857,-1.235 -3.089,-3.397 H 3.192 C 3.063,-1.544 2.188,0 0,0 m 5.792,-5.586 h -8.933 c 0.284,-2.6 1.751,-3.706 3.399,-3.706 1.133,0 2.033,0.411 2.934,1.081 L 4.763,-9.91 c -1.185,-1.133 -2.601,-1.777 -4.659,-1.777 -3.167,0 -5.844,2.549 -5.844,7.028 0,4.582 2.42,7.054 5.921,7.054 3.835,0 5.688,-3.116 5.688,-6.771 0,-0.488 -0.052,-0.927 -0.077,-1.21"
             style="fill:#4c4d4d;fill-opacity:1;fill-rule:nonzero;stroke:none"
             id="path586"
             inkscape:connector-curvature="0" /></g></g></g></g></svg>